<svg width="317" height="96" viewBox="0 0 317 96" fill="none" xmlns="http://www.w3.org/2000/svg">
<path d="M113.722 31.96C113.722 31.96 119.302 21.592 112.39 21.592C109.546 21.592 104.182 25.336 104.182 25.336C104.182 25.336 102.202 23.14 103.75 21.592C105.298 20.044 118.51 11.44 119.086 6.616C119.446 3.916 117.466 2.98 113.902 2.98C104.398 2.98 89.5661 19.36 89.1701 22.564C88.8101 25.48 95.0381 19.756 98.7101 15.616C99.7901 14.284 99.4301 12.952 99.9341 12.952C101.914 12.952 103.606 15.04 103.606 16.984C103.606 19.828 94.5701 30.556 94.5701 33.832C94.5701 35.668 91.6181 34.768 91.0781 31.384C90.7181 29.044 93.0941 25.228 95.3981 21.772C93.4181 23.5 90.9701 25.228 89.2781 25.228C87.6221 25.228 86.6501 23.788 86.8301 22.384C87.3341 18.244 100.762 0.207997 113.65 0.207997C119.23 0.207997 122.758 3.916 122.182 8.524C121.678 12.52 115.414 17.74 113.722 19.072C114.982 19.54 119.806 21.7 119.05 27.712C118.978 28.216 118.87 28.72 118.726 29.224C119.662 28.468 120.598 27.496 121.426 26.38C122.002 25.624 122.542 24.904 123.01 24.184C123.55 23.392 124.63 23.752 123.874 24.94C123.658 25.228 123.082 26.056 122.254 27.136C121.174 28.576 119.626 30.016 118.078 31.204C115.306 37.972 107.602 46.504 101.554 46.828H101.59C101.518 46.828 101.446 46.828 101.374 46.828C101.338 46.828 101.266 46.828 101.23 46.828C98.7821 46.684 97.9901 45.316 98.2781 43.444C98.7821 39.808 109.078 34.84 113.722 31.96ZM99.3941 14.788C99.3941 14.788 98.7101 15.58 98.7101 15.616C98.9621 15.328 99.1781 15.04 99.3941 14.788ZM100.474 44.668C102.706 44.668 108.646 39.556 111.634 34.768C107.602 37.252 100.258 41.5 99.9341 43.768C99.8621 44.236 99.9701 44.668 100.474 44.668ZM130.647 19.036C132.771 19.036 134.175 22.852 133.383 22.852C129.171 22.852 119.595 35.092 122.187 35.092C123.051 35.092 130.503 26.848 130.143 26.2C129.747 25.552 132.699 26.092 132.699 28.72C132.699 31.348 129.315 35.128 130.467 35.128C131.583 35.128 136.983 29.188 140.151 24.4C140.691 23.608 141.771 23.968 141.015 25.156C140.223 26.308 132.699 37 129.423 37C127.947 37 126.507 34.768 126.507 33.868C126.507 33.004 127.119 31.672 127.119 31.672C127.119 31.672 122.583 37 121.251 37C119.955 37 117.867 35.344 117.867 32.788C117.867 28.612 126.615 19.036 130.647 19.036ZM155.574 24.4C156.078 23.608 157.194 23.968 156.402 25.156C155.646 26.308 147.834 37 144.522 37C141.786 37 141.174 34.66 141.174 32.716C141.174 30.664 144.162 26.956 145.674 23.572C144.63 24.004 142.866 24.58 140.922 24.58C139.878 24.58 138.114 24.004 138.114 20.008C138.114 14.392 142.398 10.36 144.882 10.36C146.214 10.36 147.33 11.224 147.33 12.7C147.33 15.616 142.326 22.384 142.326 22.384C142.326 22.384 147.114 19.9 147.906 19.468C148.41 19.18 148.842 18.64 149.418 19.144C150.03 19.612 152.874 21.7 151.254 23.572C151.182 23.644 151.11 23.752 151.038 23.824C149.202 26.272 142.506 35.128 145.602 35.128V35.164C146.682 35.164 152.37 29.188 155.574 24.4ZM140.85 19.864C140.85 21.16 141.534 21.844 141.534 21.844C143.586 18.028 145.854 14.572 144.63 14.572C143.406 14.572 140.85 18.1 140.85 19.864ZM162.481 18.1C161.653 18.1 160.213 16.588 160.465 13.96C160.681 11.332 162.337 10.468 163.165 10.468C163.993 10.468 166.513 11.584 166.405 12.808C166.297 14.032 165.181 14.212 164.065 16.156C162.949 18.064 163.021 18.1 162.481 18.1ZM166.117 24.256C166.657 23.5 167.737 23.86 166.981 25.048C166.189 26.2 158.377 36.928 155.065 36.928C152.329 36.928 151.681 33.976 151.861 32.032C152.077 29.44 155.749 25.048 157.441 20.728C157.693 20.044 157.513 19.144 158.377 19.144C159.241 19.144 160.861 20.548 160.609 23.356C160.357 26.164 152.365 35.056 156.145 35.056C157.225 35.056 162.913 29.116 166.117 24.256ZM179.834 24.184C180.374 23.392 181.454 23.752 180.698 24.94C180.086 25.876 178.178 29.224 172.67 30.268C172.67 30.34 172.67 30.412 172.67 30.52C172.598 35.848 169.142 37 167.234 37C166.406 37 163.706 36.208 163.706 33.868C163.706 30.808 169.322 29.728 169.322 29.728C169.322 29.728 170.078 25.48 169.43 21.88C169.43 21.88 169.394 21.7 169.394 21.376C168.674 22.564 167.738 24.04 166.766 25.372C166.082 26.308 165.254 25.552 165.83 24.724C167.054 22.924 169.214 19.684 169.826 17.56C170.042 16.696 170.546 14.896 171.194 15.4C172.022 16.048 174.398 17.668 174.398 19.72C174.398 21.664 172.85 21.664 172.67 29.044C175.766 28.36 178.034 26.884 179.834 24.184ZM164.894 34.084C164.894 35.668 168.098 35.74 169.286 31.024C169.286 31.024 164.894 32.068 164.894 34.084ZM187.319 19.036C189.443 19.036 190.847 22.852 190.055 22.852C185.843 22.852 176.267 35.092 178.859 35.092C179.723 35.092 187.175 26.848 186.815 26.2C186.419 25.552 189.371 26.092 189.371 28.72C189.371 31.348 185.987 35.128 187.139 35.128C188.255 35.128 193.655 29.188 196.823 24.4C197.363 23.608 198.443 23.968 197.687 25.156C196.895 26.308 189.371 37 186.095 37C184.619 37 183.179 34.768 183.179 33.868C183.179 33.004 183.791 31.672 183.791 31.672C183.791 31.672 179.255 37 177.923 37C176.627 37 174.539 35.344 174.539 32.788C174.539 28.612 183.287 19.036 187.319 19.036ZM202.998 37C201.594 37 200.55 35.128 200.55 32.428C200.55 29.404 205.878 22.204 205.878 22.204C204.69 22.204 194.394 34.192 194.394 35.884C194.394 38.548 191.946 35.884 191.946 33.04C191.946 30.088 199.074 22.636 199.074 19.036C199.074 17.776 201.702 19.144 201.702 22.744C201.702 24.508 200.478 25.696 200.478 25.696C200.478 25.696 207.03 19.036 208.254 19.036C209.514 19.036 210.27 20.872 210.27 22.636C210.27 24.4 201.846 35.164 203.502 35.164C205.662 35.164 210.918 28.972 214.122 24.184C214.626 23.392 215.706 23.752 214.95 24.94C214.194 26.092 206.562 37 202.998 37ZM16.3281 62.6094V59.6797H22.3281V70.3672H16.3281C16.0781 68.6484 15.5156 67.3594 14.6406 66.5C13.7812 65.625 12.6641 65.1875 11.2891 65.1875C10.3203 65.1875 9.49219 65.4609 8.80469 66.0078C8.11719 66.5547 7.77344 67.2422 7.77344 68.0703C7.77344 68.8047 7.99219 69.4375 8.42969 69.9688C8.86719 70.5 9.42969 70.9531 10.1172 71.3281C10.8047 71.6875 11.8359 72.1719 13.2109 72.7812L14.6406 73.3906C17.75 74.7344 20.0938 76.3125 21.6719 78.125C23.2656 79.9375 24.0625 82.2031 24.0625 84.9219C24.0625 88.1562 23.1328 90.7188 21.2734 92.6094C19.4141 94.4844 16.9141 95.4219 13.7734 95.4219C10.7109 95.4219 8.32812 94.2734 6.625 91.9766V95H0.625V83H6.625C6.75 85.0781 7.28125 86.6641 8.21875 87.7578C9.17188 88.8359 10.4531 89.375 12.0625 89.375C13.1406 89.375 14.0469 89.0078 14.7812 88.2734C15.5312 87.5391 15.9062 86.6484 15.9062 85.6016C15.9062 84.5391 15.4766 83.5703 14.6172 82.6953C13.7734 81.8047 12.3281 80.9141 10.2812 80.0234C6.79688 78.4922 4.26562 76.8438 2.6875 75.0781C1.125 73.3125 0.34375 71.2812 0.34375 68.9844C0.34375 67.1875 0.757812 65.5469 1.58594 64.0625C2.41406 62.5781 3.55469 61.4141 5.00781 60.5703C6.47656 59.7109 8.07031 59.2812 9.78906 59.2812C11.1641 59.2812 12.4141 59.5625 13.5391 60.125C14.6641 60.6875 15.5938 61.5156 16.3281 62.6094ZM39.3438 65.6797V82.1797C39.3438 84.1328 39.5234 85.6406 39.8828 86.7031C40.2578 87.75 40.7734 88.4766 41.4297 88.8828C42.0859 89.2734 42.9453 89.4688 44.0078 89.4688C45.6328 89.4688 46.8359 88.9141 47.6172 87.8047C48.4141 86.6797 48.8125 84.7109 48.8125 81.8984V65.6797H45.3906V59.6797H59.5V65.6797H55.1875V83.5859C55.1875 87.7109 54.25 90.7188 52.375 92.6094C50.5156 94.4844 47.4062 95.4219 43.0469 95.4219C39.9375 95.4219 37.4531 95.0078 35.5938 94.1797C33.75 93.3516 32.3828 91.9609 31.4922 90.0078C30.6172 88.0547 30.1797 85.3828 30.1797 81.9922V65.6797H26.0078V59.6797H42.8594V65.6797H39.3438ZM94.0469 70.9062C94.0469 74.75 92.8438 77.5859 90.4375 79.4141C88.0469 81.2266 84.3203 82.1328 79.2578 82.1328H75.5547V89H80.5V95H61.8906V89H66.3438V65.6797H61.8906V59.6797H79.0703C84.1172 59.6797 87.875 60.6016 90.3438 62.4453C92.8125 64.2734 94.0469 67.0938 94.0469 70.9062ZM84.3438 70.9062C84.3438 69.4375 84.0469 68.3203 83.4531 67.5547C82.8594 66.7734 82 66.2656 80.875 66.0312C79.7656 65.7969 78.4766 65.6797 77.0078 65.6797H75.5547V76.2734H77.0078C78.9609 76.2734 80.4688 76.0781 81.5312 75.6875C82.6094 75.2812 83.3438 74.6953 83.7344 73.9297C84.1406 73.1641 84.3438 72.1562 84.3438 70.9062ZM128.312 70.9062C128.312 74.75 127.109 77.5859 124.703 79.4141C122.312 81.2266 118.586 82.1328 113.523 82.1328H109.82V89H114.766V95H96.1562V89H100.609V65.6797H96.1562V59.6797H113.336C118.383 59.6797 122.141 60.6016 124.609 62.4453C127.078 64.2734 128.312 67.0938 128.312 70.9062ZM118.609 70.9062C118.609 69.4375 118.312 68.3203 117.719 67.5547C117.125 66.7734 116.266 66.2656 115.141 66.0312C114.031 65.7969 112.742 65.6797 111.273 65.6797H109.82V76.2734H111.273C113.227 76.2734 114.734 76.0781 115.797 75.6875C116.875 75.2812 117.609 74.6953 118 73.9297C118.406 73.1641 118.609 72.1562 118.609 70.9062ZM131.852 77.2344C131.852 73.6562 132.672 70.5 134.312 67.7656C135.953 65.0312 138.258 62.9062 141.227 61.3906C144.211 59.8594 147.641 59.0938 151.516 59.0938C155.391 59.0938 158.805 59.8594 161.758 61.3906C164.727 62.9062 167.023 65.0391 168.648 67.7891C170.289 70.5391 171.109 73.6875 171.109 77.2344C171.109 80.8281 170.289 84 168.648 86.75C167.023 89.5 164.719 91.6328 161.734 93.1484C158.766 94.6641 155.359 95.4219 151.516 95.4219C147.75 95.4219 144.367 94.6641 141.367 93.1484C138.383 91.6328 136.047 89.5 134.359 86.75C132.688 84 131.852 80.8281 131.852 77.2344ZM161.266 77.1875C161.266 75.0469 160.875 73.1016 160.094 71.3516C159.312 69.5859 158.18 68.1875 156.695 67.1562C155.227 66.1094 153.5 65.5859 151.516 65.5859C149.531 65.5859 147.805 66.1094 146.336 67.1562C144.867 68.1875 143.734 69.5859 142.938 71.3516C142.156 73.1016 141.766 75.0469 141.766 77.1875C141.766 79.4375 142.164 81.4609 142.961 83.2578C143.773 85.0391 144.914 86.4453 146.383 87.4766C147.852 88.4922 149.547 89 151.469 89C153.453 89 155.188 88.4922 156.672 87.4766C158.172 86.4453 159.312 85.0391 160.094 83.2578C160.875 81.4609 161.266 79.4375 161.266 77.1875ZM206.266 69.3125C206.266 71.4688 205.758 73.2812 204.742 74.75C203.742 76.2188 202.219 77.4141 200.172 78.3359L205.867 89H210.438V95H199.68L191.711 79.5547H187.68V89H192.109V95H173.617V89H178.469V65.6797H173.617V59.6797H193.773C197.68 59.6797 200.734 60.5078 202.938 62.1641C205.156 63.8047 206.266 66.1875 206.266 69.3125ZM196.656 69.7109C196.656 68.3672 196.227 67.3594 195.367 66.6875C194.508 66.0156 193.336 65.6797 191.852 65.6797H187.68V73.8828H191.055C194.789 73.8828 196.656 72.4922 196.656 69.7109ZM236.406 73.8828V65.6797H230.922V89H236.195V95H216.391V89H221.758V65.6797H216.391V73.8828H210.391V59.6797H242.359V73.8828H236.406ZM270.109 70.8594V65.6797H259.164V73.7891H268V79.7422H259.164V89H270.109V83.7734H276.883V95H245.734V89H250V65.6797H245.734V59.6797H276.883V70.8594H270.109ZM312.578 69.3125C312.578 71.4688 312.07 73.2812 311.055 74.75C310.055 76.2188 308.531 77.4141 306.484 78.3359L312.18 89H316.75V95H305.992L298.023 79.5547H293.992V89H298.422V95H279.93V89H284.781V65.6797H279.93V59.6797H300.086C303.992 59.6797 307.047 60.5078 309.25 62.1641C311.469 63.8047 312.578 66.1875 312.578 69.3125ZM302.969 69.7109C302.969 68.3672 302.539 67.3594 301.68 66.6875C300.82 66.0156 299.648 65.6797 298.164 65.6797H293.992V73.8828H297.367C301.102 73.8828 302.969 72.4922 302.969 69.7109Z" fill="#F2D8B7"/>
</svg>
