<svg width="1030" height="60" viewBox="0 0 1030 60" fill="none" xmlns="http://www.w3.org/2000/svg">
<path d="M503.934 19.7937C491.797 19.7937 481.955 24.1455 481.955 29.5C481.955 34.8545 491.797 39.2164 503.934 39.2164C516.07 39.2164 525.913 34.8646 525.913 29.5C525.913 24.1355 516.07 19.7937 503.934 19.7937Z" fill="white"/>
<path d="M525.825 24.5967C527.526 26.0707 528.509 27.7353 528.509 29.5101C528.509 31.2849 527.526 32.9494 525.825 34.4334L972.794 29.5101L525.825 24.5967Z" fill="white"/>
<path d="M482.055 24.5967L35.0735 29.5101L482.055 34.4334C480.354 32.9494 479.371 31.2849 479.371 29.5101C479.371 27.7353 480.354 26.0808 482.055 24.5967Z" fill="white"/>
<path d="M35.6288 18.2194C35.6288 18.2194 35.6809 18.5503 35.8446 19.1319C35.919 19.4127 36.0231 19.7736 36.1645 20.1647C36.2686 20.5758 36.5439 20.9869 36.8043 21.4682C37.0795 21.9395 37.325 22.471 37.7714 22.9523C38.2029 23.4436 38.5897 24.0151 39.1625 24.4964C39.4452 24.7471 39.7279 24.9878 40.0181 25.2485L40.4644 25.6295C40.6281 25.7498 40.8066 25.8601 40.9703 25.9704C41.6473 26.4217 42.3392 26.903 43.1277 27.274L44.2808 27.8455C44.6825 28.006 45.0992 28.1664 45.5009 28.3268C46.2969 28.6678 47.1599 28.8583 47.9633 29.0989C48.6626 29.2594 49.3396 29.3997 50.0017 29.5C49.3396 29.6003 48.6626 29.7507 47.9633 29.9111C47.1599 30.1418 46.2969 30.3423 45.5009 30.6832C45.0992 30.8336 44.69 30.9941 44.2808 31.1545L43.1277 31.7361C42.3392 32.1171 41.6547 32.5784 40.9703 33.0396C40.8066 33.1499 40.6281 33.2602 40.4644 33.3805L40.0181 33.7616C39.7279 34.0122 39.4452 34.2629 39.1625 34.5136C38.5897 35.0049 38.2029 35.5665 37.7714 36.0578C37.325 36.5491 37.0795 37.0806 36.8043 37.5418C36.5439 38.0131 36.2686 38.4342 36.1645 38.8454C36.0231 39.2464 35.9264 39.5974 35.8446 39.8882C35.6809 40.4698 35.6288 40.8007 35.6288 40.8007C35.6288 40.8007 35.9339 40.54 36.41 40.0787C36.6406 39.8481 36.9382 39.5773 37.2283 39.2565C37.3697 39.096 37.5408 38.9256 37.7491 38.7651C37.9425 38.6047 38.1359 38.4242 38.3368 38.2437C38.7608 37.8827 39.1551 37.4716 39.6759 37.1006C40.1892 36.7296 40.643 36.2884 41.2232 35.9174C41.8184 35.5464 42.3243 35.1052 42.9789 34.7543C43.6187 34.4033 44.2139 33.9822 44.9057 33.6814L45.9026 33.1599C46.2523 33.0196 46.5945 32.8591 46.9367 32.7087C47.6062 32.3778 48.3353 32.1472 48.9974 31.8564C49.6967 31.6158 50.3662 31.355 51.0283 31.1545C51.6904 30.9439 52.3079 30.7334 52.9105 30.5729C54.0933 30.232 55.12 29.9713 55.8565 29.7908C56.593 29.6203 57.017 29.5201 57.017 29.5201C57.017 29.5201 56.593 29.4198 55.8565 29.2493C55.12 29.0688 54.0933 28.8081 52.9105 28.4672C52.3079 28.3068 51.6904 28.0962 51.0283 27.8957C50.3737 27.6951 49.6967 27.4344 48.9974 27.1938C48.3278 26.903 47.5988 26.6723 46.9367 26.3414C46.5945 26.191 46.2523 26.0306 45.9026 25.8902L44.9057 25.3688C44.2213 25.058 43.6187 24.6469 42.9789 24.2859C42.3317 23.9349 41.8184 23.4937 41.2232 23.1227C40.6355 22.7517 40.1817 22.3105 39.6759 21.9395C39.1551 21.5685 38.7608 21.1574 38.3368 20.7964C38.1433 20.6059 37.9425 20.4354 37.7491 20.265C37.5408 20.1045 37.3697 19.9441 37.2283 19.7837C36.9307 19.4628 36.6406 19.1921 36.41 18.9614C35.9339 18.5102 35.6288 18.2395 35.6288 18.2395V18.2194Z" fill="white"/>
<path d="M30.5254 14.5194L30.2576 15.4118C30.1758 15.7126 30.0568 16.0135 30.0345 16.3143L29.9229 17.2468C29.8633 17.5576 29.9229 17.8685 29.9229 18.1793C29.9377 18.4902 29.9303 18.811 30.0121 19.1119L30.2056 20.0444C30.4362 20.6561 30.6296 21.2777 30.9792 21.8493C31.1355 22.1501 31.2917 22.4409 31.5 22.7217C31.7009 23.0024 31.872 23.2932 32.1026 23.5639C32.5192 24.0854 33.0176 24.5867 33.5235 25.068L32.8465 24.9377C32.2142 24.8274 31.5967 24.687 30.9644 24.6168L29.0376 24.3862C28.4052 24.2959 27.7506 24.2959 27.1033 24.2558C26.5603 24.2358 26.0098 24.1856 25.4592 24.1856C25.3551 24.1856 25.2509 24.1856 25.1468 24.1856L23.1828 24.2157C22.5281 24.2358 21.8809 24.316 21.2188 24.3661C20.5641 24.4062 19.9169 24.5065 19.2771 24.6068C18.6225 24.697 17.9827 24.8173 17.3578 24.9677C16.7105 25.1081 16.0856 25.2485 15.4682 25.449C14.2258 25.79 13.0206 26.2312 11.8601 26.7426C11.2873 27.0033 10.7144 27.274 10.1639 27.5748C9.59852 27.8857 9.10752 28.1764 8.51981 28.6076L8.06601 28.9385L7.4411 29.5502L8.07345 30.0716L8.51981 30.4025C9.11496 30.8437 9.60596 31.1244 10.1639 31.4353C10.7144 31.7461 11.2873 32.0068 11.8601 32.2675C13.0132 32.7689 14.2258 33.2201 15.4682 33.551C16.0856 33.7516 16.7105 33.8919 17.3578 34.0323C17.9827 34.1928 18.6299 34.3031 19.2771 34.3933C19.9244 34.4936 20.5716 34.5938 21.2188 34.634C21.8809 34.6841 22.5281 34.7543 23.1828 34.7844L25.1468 34.8245C25.2509 34.8245 25.3477 34.8245 25.4518 34.8245C26.0023 34.8245 26.5528 34.7743 27.1033 34.7543C27.7506 34.7142 28.4052 34.7142 29.0376 34.6239L30.9644 34.3833C31.6042 34.3231 32.2142 34.1827 32.8465 34.0624L33.531 33.9321C33.0176 34.4134 32.5266 34.9147 32.1026 35.4462C31.872 35.7069 31.7009 36.0077 31.5 36.2884C31.2843 36.5592 31.128 36.86 30.9718 37.1508C30.6222 37.7324 30.4362 38.3641 30.213 38.9557L30.0196 39.8882C29.9303 40.199 29.9526 40.5099 29.9229 40.8207C29.9229 41.1316 29.8633 41.4424 29.9229 41.7533L30.0419 42.6858C30.0642 42.9966 30.1758 43.2874 30.2651 43.5882L30.5329 44.4807L30.4585 43.5682C30.4436 43.2674 30.3841 42.9565 30.4287 42.6657L30.4957 41.7733C30.4957 41.4725 30.6073 41.1817 30.6668 40.8909C30.7412 40.6001 30.7709 40.2993 30.9049 40.0286L31.2322 39.1863C31.5298 38.6348 31.7901 38.0833 32.177 37.582C32.363 37.3313 32.5415 37.0605 32.7721 36.8299C32.9879 36.5893 33.1739 36.3386 33.4268 36.118C33.8955 35.6567 34.4014 35.2155 34.937 34.7944C35.4875 34.3933 36.0529 34.0022 36.6629 33.6513C36.9605 33.4708 37.2655 33.3003 37.5854 33.1499C37.8904 32.9895 38.2326 32.8291 38.5079 32.7188L42.7037 30.5328L37.578 31.2047C36.41 31.4353 35.242 31.696 34.074 31.9266L32.3035 32.1773C31.7083 32.2575 31.128 32.3578 30.5254 32.3979L28.74 32.5383C28.1449 32.6085 27.5571 32.5884 26.9546 32.6085C26.5305 32.6085 26.099 32.6385 25.675 32.6385C25.5113 32.6385 25.3402 32.6385 25.1765 32.6185L23.406 32.5383C22.8183 32.4982 22.238 32.4079 21.6652 32.3578C21.0775 32.3076 20.5195 32.1973 19.9541 32.0971C19.3813 32.0068 18.8159 31.8965 18.2654 31.7562C17.7 31.6358 17.1569 31.4954 16.6213 31.325C15.5277 31.0242 14.5085 30.6231 13.5265 30.1819C13.0653 29.9713 12.6115 29.7507 12.1874 29.5101C12.6115 29.2694 13.0653 29.0488 13.5265 28.8382C14.5085 28.397 15.5351 27.996 16.6287 27.6951C17.1569 27.5147 17.7074 27.3843 18.2728 27.264C18.8233 27.1236 19.3813 27.0133 19.9616 26.923C20.5269 26.8228 21.0849 26.7024 21.6726 26.6623C22.2454 26.6022 22.8331 26.5119 23.4134 26.4818L25.184 26.4016C25.3477 26.3916 25.5113 26.3816 25.6824 26.3816C26.1065 26.3816 26.5379 26.4117 26.962 26.4117C27.5571 26.4317 28.1523 26.4117 28.74 26.4818L30.5254 26.6222C31.128 26.6523 31.7083 26.7526 32.3035 26.8428L34.074 27.0935C35.2494 27.3141 36.41 27.5748 37.578 27.8155L42.8078 28.5274L38.5228 26.2913C38.2401 26.181 37.8904 26.0206 37.5928 25.8702C37.273 25.7098 36.9754 25.5393 36.6704 25.3588C36.0603 25.0179 35.4875 24.6168 34.9444 24.2157C34.4162 23.8046 33.9029 23.3634 33.4342 22.9021C33.1887 22.6815 33.0028 22.4309 32.7796 22.1902C32.5564 21.9496 32.3778 21.6989 32.1919 21.4482C31.7901 20.9468 31.5372 20.3953 31.2396 19.8438L30.9123 19.0016C30.7784 18.7208 30.7486 18.43 30.6817 18.1292C30.6222 17.8384 30.5106 17.5476 30.5106 17.2368L30.4511 16.3444C30.399 16.0435 30.4585 15.7427 30.4734 15.4419L30.5478 14.5294L30.5254 14.5194Z" fill="white"/>
<path d="M27.7952 27.4043C24.1573 27.4043 19.8722 27.9357 15.1929 29.51C19.8722 31.0943 24.1647 31.6157 27.7952 31.6157C35.0634 31.6157 39.7353 29.51 39.7353 29.51C39.7353 29.51 35.0708 27.4043 27.7952 27.4043Z" fill="white"/>
<path d="M20.5565 22.4409C19.82 22.4509 19.0388 22.4609 18.2205 22.481C17.4022 22.481 16.569 22.5913 15.706 22.6514C14.8505 22.7116 13.9949 22.8921 13.1245 23.0024C12.269 23.1528 11.4135 23.3533 10.5728 23.5539C9.76195 23.8046 8.91386 23.9951 8.17736 24.2959C7.79052 24.4363 7.41111 24.5766 7.04658 24.717C6.69693 24.8775 6.34728 25.0279 6.00507 25.1783C5.32065 25.4791 4.7255 25.82 4.16755 26.1208C3.63191 26.4517 3.1186 26.7525 2.70943 27.0634C2.28539 27.3442 1.94318 27.645 1.65304 27.8656C1.37035 28.1162 1.1546 28.2967 0.990937 28.4772C0.84959 28.6176 0.775196 28.6978 0.775196 28.6978L0.172607 29.5L0.775196 30.3022C0.775196 30.3022 0.84959 30.3824 0.990937 30.5328C1.1546 30.7133 1.37035 30.8938 1.65304 31.1445C1.94318 31.3751 2.28539 31.6659 2.70943 31.9466C3.1186 32.2575 3.63191 32.5483 4.16755 32.8792C4.7255 33.18 5.32809 33.5309 6.00507 33.8317C6.34728 33.9822 6.68949 34.1326 7.04658 34.293C7.41111 34.4234 7.78308 34.5738 8.17736 34.7141C8.91386 35.025 9.76195 35.2055 10.5728 35.4662C11.4209 35.6667 12.269 35.8673 13.1245 36.0177C13.9949 36.138 14.843 36.3085 15.706 36.3686C16.569 36.4288 17.4022 36.5391 18.2205 36.5491C19.0314 36.5491 19.8125 36.5692 20.5565 36.5792C21.293 36.5491 21.9923 36.509 22.6395 36.4789C23.2793 36.4589 23.867 36.4087 24.3729 36.3486C24.8936 36.2884 25.34 36.2383 25.7119 36.1982C26.441 36.1179 26.8576 36.0678 26.8576 36.0678C26.8576 36.0678 26.4336 36.0678 25.6896 36.0678C25.3177 36.0678 24.8713 36.0678 24.3505 36.0678C24.2985 36.0678 24.2464 36.0678 24.1943 36.0678C23.7182 36.0678 23.19 36.0478 22.632 35.9976C21.9997 35.9575 21.3227 35.9074 20.6085 35.8572C19.8944 35.767 19.1504 35.6667 18.3842 35.5564C17.6105 35.4662 16.8517 35.2656 16.0631 35.1152C15.282 34.9648 14.5157 34.7141 13.7494 34.5136C12.9981 34.283 12.269 34.0122 11.5623 33.7515C10.8853 33.4307 10.1786 33.19 9.59084 32.8491C9.28583 32.6886 8.98825 32.5282 8.69068 32.3778C8.42286 32.2073 8.14761 32.0469 7.89467 31.8764C7.36647 31.5656 6.93499 31.2146 6.52582 30.9138C6.13898 30.593 5.78189 30.3022 5.51407 30.0214C5.31321 29.8409 5.15698 29.6705 5.01563 29.51C5.14954 29.3496 5.31321 29.1892 5.51407 28.9986C5.78189 28.7279 6.14642 28.4371 6.52582 28.1062C6.93499 27.8054 7.36647 27.4545 7.89467 27.1336C8.14761 26.9731 8.42286 26.8027 8.69068 26.6322C8.98825 26.4818 9.28583 26.3214 9.59084 26.1609C10.1786 25.82 10.8853 25.5693 11.5623 25.2585C12.2765 25.0078 13.0055 24.7271 13.7494 24.4964C14.5157 24.3059 15.2745 24.0452 16.0631 23.8948C16.8442 23.7444 17.6105 23.5539 18.3842 23.4536C19.1579 23.3533 19.9018 23.2531 20.6085 23.1528C21.3227 23.1027 21.9997 23.0625 22.632 23.0224C23.1974 22.9723 23.7256 22.9522 24.2018 22.9522C24.2538 22.9522 24.3059 22.9522 24.3505 22.9522C24.8713 22.9522 25.3177 22.9522 25.6896 22.9522C26.4336 22.9522 26.8576 22.9522 26.8576 22.9522C26.8576 22.9522 26.441 22.9021 25.7119 22.8219C25.34 22.7818 24.8936 22.7316 24.3729 22.6715C23.8595 22.6013 23.2793 22.5612 22.6395 22.5411C21.9923 22.511 21.293 22.481 20.5565 22.4409Z" fill="white"/>
<path d="M69.8201 29.51C69.8201 29.51 69.4928 29.5501 68.8679 29.6203C68.2579 29.6905 67.3354 29.7808 66.1972 29.9713C63.9058 30.3523 60.6102 30.9038 56.7938 32.0168C54.8968 32.5683 52.8435 33.2201 50.7605 34.0624C48.6626 34.8946 46.4903 35.8572 44.385 37.0404C42.2647 38.2136 40.1743 39.5874 38.2921 41.2118C36.4248 42.8462 34.7435 44.7614 33.7169 47.0075C32.6456 49.2235 32.5489 51.8606 33.5756 54.1268C33.7243 54.4276 33.7987 54.6482 34.0145 55.0092C34.1782 55.2498 34.2972 55.4704 34.4906 55.7311C34.937 56.3127 35.4354 56.804 35.9859 57.2252C37.1241 58.0675 38.5302 58.6089 39.9362 58.8396C40.6281 58.9499 41.3199 59 41.9969 59C44.0799 59 46.0514 58.4886 47.7104 57.536C49.7264 56.3729 51.2515 54.4075 51.0357 52.4422C50.939 51.4796 50.4704 50.6273 49.8752 49.9555C49.8231 49.8953 49.7115 49.7549 49.6371 49.6948C49.5628 49.6246 49.5032 49.5644 49.3917 49.4842C49.1833 49.3137 48.9899 49.1834 48.7816 49.0731C48.3501 48.8425 47.8963 48.692 47.4351 48.6018C47.1078 48.5416 46.7953 48.5216 46.4903 48.5216C45.0694 48.5216 43.8865 49.0831 43.2393 49.7349C42.3986 50.5471 42.4284 51.4596 42.5698 51.9409C42.7111 52.4522 42.8896 52.6929 42.8896 52.6929C42.8896 52.6929 42.7706 52.4222 42.726 51.9208C42.6739 51.4295 42.8599 50.6474 43.6336 50.0457C44.1841 49.6145 45.0694 49.2937 46.0291 49.2937C46.401 49.2937 46.7804 49.3438 47.1524 49.4541C47.8368 49.6747 48.3353 49.9956 48.7444 50.5972C49.161 51.1587 49.4214 51.8205 49.4214 52.5024C49.3917 53.8661 48.2609 55.2398 46.4977 56.1423C45.3446 56.7138 43.827 57.0547 42.3168 57.0547C41.6993 57.0547 41.0819 56.9946 40.4867 56.8742C39.4675 56.6637 38.5227 56.2526 37.7639 55.6609C37.3845 55.3501 37.0721 55.0192 36.8191 54.6983C36.6703 54.5078 36.5216 54.2271 36.3728 53.9964C36.2984 53.8861 36.1868 53.5853 36.0901 53.3948C35.3089 51.5999 35.4205 49.6145 36.2612 47.7595C37.0795 45.8844 38.5227 44.1598 40.2115 42.6557C41.8779 41.1215 43.7824 39.7678 45.7464 38.6047C49.6669 36.2282 53.7586 34.4735 57.3666 33.1599C60.9747 31.8263 64.1067 30.9239 66.3236 30.3724C68.5331 29.7808 69.8276 29.5 69.8276 29.5L69.8201 29.51Z" fill="white"/>
<path d="M42.0044 0.0100098C41.3274 0.0100098 40.6355 0.0601457 39.9362 0.180472C38.5302 0.411097 37.1241 0.952566 35.9859 1.79485C35.4354 2.21599 34.937 2.70732 34.4906 3.2889C34.3046 3.54961 34.1782 3.76018 34.0145 4.01086C33.7987 4.37184 33.7318 4.59244 33.5756 4.89325C32.5489 7.1594 32.6456 9.79655 33.7169 12.0126C34.7361 14.2587 36.4248 16.1738 38.2921 17.8083C40.1743 19.4527 42.2647 20.8164 44.385 21.9896C46.4903 23.1728 48.6626 24.1254 50.7605 24.9677C52.8435 25.7999 54.8968 26.4617 56.7938 27.0032C60.6102 28.1162 63.9058 28.6677 66.1972 29.0488C67.3354 29.2393 68.2579 29.3295 68.8679 29.3997C69.4928 29.4699 69.8201 29.51 69.8201 29.51C69.8201 29.51 68.5257 29.2292 66.3162 28.6477C64.0993 28.0861 60.9599 27.1837 57.3592 25.8601C53.7511 24.5466 49.6595 22.7818 45.7389 20.4153C43.7749 19.2422 41.8705 17.8985 40.204 16.3644C38.5153 14.8603 37.0721 13.1356 36.2537 11.2605C35.4131 9.40549 35.2941 7.41008 36.0826 5.62524C36.1793 5.42469 36.2909 5.1339 36.3653 5.01358C36.5141 4.78295 36.6629 4.52225 36.8117 4.3217C37.0646 4.00083 37.3771 3.66993 37.7565 3.35909C38.5153 2.76749 39.4601 2.35637 40.4793 2.1458C41.067 2.02548 41.6845 1.96531 42.2945 1.96531C43.8121 1.96531 45.3372 2.30624 46.4903 2.88781C48.2609 3.78023 49.3916 5.15396 49.414 6.52769C49.414 7.20953 49.1536 7.8613 48.737 8.44288C48.3278 9.03448 47.8294 9.36538 47.145 9.57595C46.773 9.68625 46.3861 9.73639 46.0142 9.73639C45.0619 9.73639 44.1692 9.41552 43.6261 8.98435C42.845 8.37269 42.6665 7.59057 42.7185 7.10926C42.7557 6.6079 42.8822 6.33717 42.8822 6.33717C42.8822 6.33717 42.7037 6.57782 42.5623 7.08921C42.421 7.58054 42.3986 8.48299 43.2319 9.29519C43.8865 9.93693 45.0545 10.4985 46.4754 10.4985C46.7804 10.4985 47.1003 10.4684 47.4277 10.4182C47.8889 10.338 48.3427 10.1776 48.7742 9.94696C48.9825 9.83666 49.1759 9.70631 49.3842 9.53584C49.4958 9.4456 49.5553 9.39546 49.6297 9.31524C49.7041 9.26511 49.8157 9.12473 49.8678 9.05454C50.4629 8.39274 50.9316 7.54043 51.0283 6.57782C51.244 4.61249 49.719 2.64716 47.7029 1.47398C46.0514 0.531424 44.0799 0.020037 42.0044 0.020037V0.0100098Z" fill="white"/>
<path d="M994.364 18.2194C994.364 18.2194 994.051 18.4801 993.583 18.9414C993.345 19.172 993.055 19.4427 992.764 19.7636C992.623 19.924 992.452 20.0845 992.236 20.2449C992.05 20.4154 991.849 20.5858 991.649 20.7763C991.224 21.1373 990.838 21.5484 990.309 21.9194C989.796 22.2904 989.35 22.7316 988.762 23.1026C988.167 23.4736 987.661 23.9148 987.006 24.2658C986.367 24.6268 985.771 25.0379 985.08 25.3487L984.09 25.8701C983.74 26.0105 983.398 26.181 983.056 26.3214C982.386 26.6523 981.657 26.8829 980.988 27.1737C980.296 27.4143 979.619 27.675 978.964 27.8756C978.302 28.0761 977.677 28.2967 977.082 28.4471C975.892 28.7881 974.865 29.0488 974.136 29.2293C973.4 29.3997 972.968 29.5 972.968 29.5C972.968 29.5 973.392 29.6003 974.136 29.7707C974.865 29.9412 975.892 30.2119 977.082 30.5528C977.677 30.7133 978.302 30.9239 978.964 31.1344C979.619 31.335 980.296 31.5957 980.988 31.8363C981.657 32.1271 982.386 32.3577 983.056 32.6886C983.398 32.839 983.74 32.9995 984.09 33.1399L985.08 33.6613C985.771 33.9721 986.374 34.3832 987.006 34.7342C987.654 35.0851 988.167 35.5364 988.762 35.8973C989.35 36.2683 989.796 36.7095 990.309 37.0805C990.83 37.4516 991.224 37.8627 991.649 38.2236C991.849 38.4041 992.05 38.5846 992.236 38.7451C992.452 38.9055 992.623 39.0659 992.764 39.2364C993.062 39.5573 993.352 39.828 993.583 40.0586C994.051 40.5199 994.364 40.7806 994.364 40.7806C994.364 40.7806 994.312 40.4497 994.156 39.8681C994.074 39.5773 993.977 39.2264 993.836 38.8253C993.732 38.4142 993.456 38.003 993.196 37.5217C992.928 37.0505 992.675 36.519 992.229 36.0377C991.797 35.5464 991.41 34.9748 990.838 34.4935C990.555 34.2529 990.272 34.0022 989.982 33.7415L989.543 33.3605C989.38 33.2401 989.201 33.1298 989.037 33.0195C988.36 32.5583 987.668 32.097 986.88 31.716L985.727 31.1344C985.325 30.974 984.908 30.8135 984.507 30.6631C983.711 30.3222 982.855 30.1217 982.052 29.891C981.345 29.7306 980.675 29.5802 980.013 29.4799C980.683 29.3797 981.352 29.2393 982.052 29.0788C982.855 28.8382 983.718 28.6477 984.507 28.3068C984.908 28.1463 985.325 27.9959 985.727 27.8254L986.88 27.2539C987.668 26.8829 988.353 26.4016 989.037 25.9504C989.208 25.8401 989.38 25.7298 989.543 25.6094L989.982 25.2284C990.272 24.9677 990.555 24.727 990.838 24.4764C991.41 23.9951 991.797 23.4235 992.229 22.9322C992.675 22.4509 992.921 21.9094 993.196 21.4482C993.456 20.9769 993.732 20.5557 993.836 20.1446C993.985 19.7435 994.074 19.3926 994.156 19.1118C994.312 18.5302 994.364 18.1993 994.364 18.1993V18.2194Z" fill="white"/>
<path d="M999.467 14.5194L999.542 15.4318C999.557 15.7327 999.616 16.0335 999.564 16.3343L999.505 17.2267C999.505 17.5376 999.393 17.8183 999.333 18.1191C999.259 18.4099 999.229 18.7007 999.095 18.9915L998.768 19.8338C998.47 20.3853 998.217 20.9368 997.816 21.4381C997.63 21.6888 997.451 21.9495 997.228 22.1801C996.997 22.4208 996.819 22.6715 996.573 22.8921C996.105 23.3533 995.599 23.7945 995.063 24.2056C994.513 24.6167 993.947 25.0078 993.337 25.3487C993.032 25.5292 992.727 25.6997 992.407 25.8601C992.102 26.0105 991.76 26.171 991.477 26.2813L987.192 28.5173L992.422 27.8054C993.598 27.5647 994.758 27.304 995.926 27.0834L997.697 26.8328C998.292 26.7525 998.872 26.6422 999.467 26.6122L1001.26 26.4718C1001.85 26.4016 1002.44 26.4216 1003.04 26.4016C1003.46 26.4016 1003.89 26.3715 1004.31 26.3715C1004.47 26.3715 1004.65 26.3715 1004.81 26.3916L1006.58 26.4718C1007.17 26.5119 1007.75 26.6021 1008.33 26.6523C1008.92 26.7024 1009.47 26.8127 1010.04 26.913C1010.6 26.9932 1011.18 27.1035 1011.72 27.2539C1012.29 27.3843 1012.83 27.5046 1013.36 27.6851C1014.46 27.9859 1015.48 28.387 1016.47 28.8282C1016.93 29.0387 1017.38 29.2593 1017.81 29.5C1017.38 29.7406 1016.93 29.9612 1016.47 30.1718C1015.48 30.613 1014.46 31.0141 1013.37 31.3149C1012.83 31.4854 1012.29 31.6258 1011.72 31.7461C1011.17 31.8865 1010.6 31.9968 1010.04 32.087C1009.47 32.1873 1008.91 32.2976 1008.33 32.3477C1007.75 32.3979 1007.17 32.4881 1006.58 32.5282L1004.81 32.6084C1004.65 32.6184 1004.48 32.6285 1004.31 32.6285C1003.89 32.6285 1003.46 32.5984 1003.03 32.5984C1002.44 32.5783 1001.84 32.5984 1001.25 32.5282L999.46 32.3878C998.865 32.3577 998.284 32.2474 997.689 32.1672L995.919 31.9165C994.743 31.6959 993.583 31.4352 992.415 31.1946L987.289 30.5228L991.485 32.7087C991.76 32.819 992.102 32.9794 992.407 33.1399C992.727 33.3003 993.04 33.4607 993.337 33.6412C993.947 33.9922 994.513 34.3832 995.063 34.7843C995.599 35.2055 996.105 35.6467 996.573 36.1079C996.819 36.3285 997.012 36.5792 997.228 36.8198C997.459 37.0505 997.637 37.3212 997.816 37.5719C998.21 38.0732 998.47 38.6247 998.768 39.1762L999.088 40.0185C999.222 40.2993 999.252 40.5901 999.333 40.8809C999.385 41.1716 999.497 41.4725 999.497 41.7632L999.564 42.6557C999.609 42.9565 999.549 43.2573 999.534 43.5581L999.46 44.4706L999.728 43.5782C999.81 43.2774 999.929 42.9866 999.951 42.6757L1000.07 41.7432C1000.13 41.4324 1000.07 41.1215 1000.07 40.8107C1000.05 40.4998 1000.07 40.189 999.981 39.8781L999.787 38.9456C999.557 38.344 999.371 37.7223 999.021 37.1407C998.865 36.8499 998.708 36.5491 998.5 36.2784C998.299 35.9976 998.128 35.6968 997.898 35.4361C997.481 34.9047 996.983 34.4033 996.469 33.922L997.161 34.0523C997.793 34.1727 998.403 34.303 999.043 34.3732L1000.97 34.6139C1001.61 34.7041 1002.26 34.7041 1002.9 34.7442C1003.45 34.7643 1004 34.8144 1004.56 34.8144C1004.66 34.8144 1004.76 34.8144 1004.86 34.8144L1006.82 34.7743C1007.48 34.7542 1008.13 34.674 1008.79 34.6239C1009.44 34.5838 1010.09 34.4835 1010.73 34.3832C1011.38 34.293 1012.02 34.1727 1012.65 34.0223C1013.29 33.8819 1013.92 33.7415 1014.54 33.541C1015.79 33.2 1016.99 32.7588 1018.15 32.2575C1018.73 31.9968 1019.29 31.726 1019.84 31.4252C1020.41 31.1144 1020.9 30.8336 1021.49 30.3924L1021.93 30.0615L1022.57 29.5401L1021.93 28.9284L1021.48 28.5975C1020.89 28.1563 1020.39 27.8756 1019.84 27.5647C1019.29 27.2539 1018.72 26.9932 1018.14 26.7325C1016.98 26.2311 1015.78 25.7799 1014.53 25.439C1013.91 25.2384 1013.28 25.0981 1012.64 24.9577C1012.01 24.8073 1011.37 24.6869 1010.72 24.5967C1010.08 24.4964 1009.43 24.3962 1008.78 24.356C1008.13 24.3059 1007.47 24.2357 1006.82 24.2056L1004.85 24.1756C1004.75 24.1756 1004.65 24.1756 1004.54 24.1756C1003.99 24.1756 1003.44 24.2257 1002.9 24.2457C1002.25 24.2859 1001.59 24.2859 1000.96 24.3761L999.036 24.6067C998.396 24.6769 997.786 24.8173 997.154 24.9276L996.477 25.0579C996.983 24.5766 997.474 24.0853 997.89 23.5539C998.121 23.2831 998.299 22.9923 998.5 22.7116C998.701 22.4308 998.857 22.14 999.013 21.8392C999.363 21.2677 999.557 20.636 999.78 20.0343L999.973 19.1018C1000.06 18.791 1000.04 18.4701 1000.06 18.1693C1000.06 17.8584 1000.12 17.5476 1000.06 17.2367L999.943 16.3042C999.921 15.9934 999.802 15.6925 999.713 15.4018L999.445 14.5093L999.467 14.5194Z" fill="white"/>
<path d="M1002.21 27.4043C994.937 27.4043 990.272 29.51 990.272 29.51C990.272 29.51 994.937 31.6157 1002.21 31.6157C1005.84 31.6157 1010.13 31.0843 1014.81 29.51C1010.13 27.9357 1005.84 27.4043 1002.21 27.4043Z" fill="white"/>
<path d="M1009.44 22.4409C1008.7 22.481 1008 22.511 1007.36 22.5411C1006.71 22.5612 1006.13 22.6013 1005.61 22.6715C1005.1 22.7216 1004.65 22.7718 1004.28 22.8219C1003.54 22.9021 1003.13 22.9522 1003.13 22.9522C1003.13 22.9522 1003.55 22.9522 1004.3 22.9522C1004.67 22.9522 1005.11 22.9522 1005.63 22.9522C1005.68 22.9522 1005.72 22.9522 1005.78 22.9522C1006.25 22.9522 1006.79 22.9723 1007.35 23.0224C1007.99 23.0625 1008.65 23.1127 1009.38 23.1528C1010.08 23.243 1010.83 23.3433 1011.6 23.4536C1012.37 23.5438 1013.14 23.7444 1013.91 23.8948C1014.7 24.0352 1015.45 24.2959 1016.23 24.4964C1016.98 24.7271 1017.71 25.0078 1018.42 25.2585C1019.09 25.5693 1019.79 25.82 1020.39 26.1609C1020.69 26.3214 1020.99 26.4818 1021.28 26.6322C1021.55 26.8027 1021.82 26.9731 1022.08 27.1336C1022.6 27.4545 1023.04 27.8054 1023.44 28.1062C1023.83 28.4271 1024.19 28.7179 1024.46 28.9986C1024.66 29.1892 1024.81 29.3496 1024.95 29.51C1024.81 29.6705 1024.66 29.8409 1024.46 30.0214C1024.19 30.3022 1023.82 30.593 1023.44 30.9138C1023.04 31.2146 1022.6 31.5656 1022.08 31.8764C1021.82 32.0469 1021.55 32.2073 1021.28 32.3778C1020.98 32.5382 1020.68 32.6886 1020.39 32.8491C1019.79 33.19 1019.09 33.4407 1018.42 33.7515C1017.7 34.0022 1016.98 34.283 1016.23 34.5136C1015.45 34.7141 1014.7 34.9648 1013.91 35.1152C1013.13 35.2656 1012.37 35.4562 1011.6 35.5564C1010.83 35.6667 1010.08 35.757 1009.38 35.8572C1008.65 35.9074 1007.99 35.9575 1007.35 35.9976C1006.79 36.0478 1006.25 36.0678 1005.78 36.0678C1005.73 36.0678 1005.68 36.0678 1005.63 36.0678C1005.11 36.0678 1004.67 36.0678 1004.3 36.0678C1003.54 36.0678 1003.13 36.0678 1003.13 36.0678C1003.13 36.0678 1003.54 36.1179 1004.28 36.1982C1004.65 36.2383 1005.1 36.2884 1005.61 36.3486C1006.13 36.4087 1006.71 36.4589 1007.36 36.4789C1008 36.509 1008.7 36.5391 1009.44 36.5792C1010.18 36.5792 1010.96 36.5591 1011.77 36.5491C1012.59 36.5491 1013.42 36.4288 1014.29 36.3686C1015.15 36.3185 1016 36.138 1016.87 36.0177C1017.72 35.8673 1018.58 35.6667 1019.42 35.4662C1020.23 35.2155 1021.07 35.025 1021.82 34.7141C1022.2 34.5738 1022.57 34.4334 1022.95 34.293C1023.3 34.1326 1023.65 33.9822 1023.99 33.8317C1024.67 33.5309 1025.27 33.19 1025.82 32.8792C1026.37 32.5483 1026.87 32.2475 1027.28 31.9466C1027.71 31.6659 1028.05 31.3651 1028.34 31.1445C1028.62 30.8938 1028.83 30.7133 1029.01 30.5328C1029.15 30.3824 1029.22 30.3022 1029.22 30.3022L1029.83 29.5L1029.22 28.6978C1029.22 28.6978 1029.15 28.6176 1029.01 28.4772C1028.84 28.2967 1028.62 28.1062 1028.34 27.8656C1028.05 27.6349 1027.71 27.3442 1027.28 27.0634C1026.87 26.7525 1026.36 26.4517 1025.82 26.1208C1025.27 25.82 1024.67 25.4691 1023.99 25.1783C1023.65 25.0279 1023.3 24.8674 1022.95 24.717C1022.58 24.5867 1022.21 24.4463 1021.82 24.2959C1021.07 23.9951 1020.23 23.8046 1019.42 23.5539C1018.58 23.3533 1017.72 23.1528 1016.87 23.0024C1016 22.8821 1015.15 22.7016 1014.29 22.6514C1013.42 22.5913 1012.59 22.491 1011.77 22.481C1010.96 22.4609 1010.18 22.4509 1009.44 22.4409Z" fill="white"/>
<path d="M960.18 29.51C960.18 29.51 961.475 29.7908 963.684 30.3824C965.901 30.9439 969.04 31.8363 972.641 33.1699C976.249 34.4835 980.341 36.2383 984.261 38.6147C986.225 39.7879 988.13 41.1315 989.796 42.6657C991.485 44.1698 992.936 45.9045 993.747 47.7695C994.587 49.6246 994.706 51.62 993.925 53.4048C993.828 53.6054 993.709 53.9062 993.642 54.0064C993.494 54.2371 993.345 54.5078 993.196 54.7083C992.943 55.0292 992.631 55.3601 992.251 55.671C991.492 56.2626 990.548 56.6737 989.528 56.8842C988.933 57.0046 988.316 57.0647 987.698 57.0647C986.181 57.0647 984.663 56.7238 983.51 56.1523C981.747 55.2498 980.616 53.8761 980.586 52.5124C980.586 51.8305 980.847 51.1687 981.263 50.6072C981.673 50.0056 982.171 49.6747 982.855 49.4641C983.227 49.3538 983.614 49.3037 983.986 49.3037C984.938 49.3037 985.831 49.6246 986.374 50.0557C987.155 50.6674 987.334 51.4395 987.289 51.9308C987.245 52.4322 987.133 52.7029 987.133 52.7029C987.133 52.7029 987.304 52.4623 987.445 51.9509C987.587 51.4696 987.609 50.5671 986.776 49.7449C986.121 49.0931 984.946 48.5316 983.517 48.5316C983.212 48.5316 982.893 48.5617 982.565 48.6118C982.111 48.7021 981.65 48.8525 981.226 49.0831C981.018 49.1934 980.817 49.3237 980.616 49.4942C980.505 49.5844 980.452 49.6346 980.371 49.7048C980.296 49.7549 980.185 49.9053 980.133 49.9655C979.545 50.6273 979.076 51.4796 978.972 52.4522C978.756 54.4176 980.281 56.3829 982.305 57.546C983.956 58.4986 985.935 59.01 988.018 59.01C988.695 59.01 989.38 58.9599 990.079 58.8496C991.485 58.6089 992.898 58.0775 994.029 57.2352C994.58 56.8141 995.078 56.3227 995.525 55.7411C995.711 55.4804 995.837 55.2598 996.001 55.0192C996.216 54.6582 996.283 54.4376 996.432 54.1368C997.451 51.8706 997.362 49.2335 996.291 47.0175C995.272 44.7714 993.583 42.8562 991.716 41.2218C989.833 39.5873 987.743 38.2236 985.623 37.0505C983.517 35.8572 981.338 34.9046 979.247 34.0724C977.164 33.2301 975.111 32.5783 973.214 32.0268C969.405 30.9238 966.109 30.3723 963.818 29.9813C962.672 29.7908 961.757 29.7005 961.14 29.6303C960.515 29.5601 960.188 29.52 960.188 29.52L960.18 29.51Z" fill="white"/>
<path d="M987.996 0.0100272C985.913 0.0100272 983.949 0.521414 982.297 1.46397C980.281 2.63715 978.756 4.60248 978.964 6.56781C979.069 7.53042 979.537 8.38273 980.125 9.04453C980.184 9.10469 980.296 9.24507 980.363 9.30524C980.445 9.38545 980.497 9.43559 980.609 9.52583C980.809 9.6963 981.01 9.82665 981.219 9.93695C981.65 10.1676 982.104 10.318 982.558 10.4082C982.885 10.4684 983.205 10.4884 983.517 10.4884C984.938 10.4884 986.114 9.92692 986.768 9.28518C987.609 8.46295 987.579 7.57053 987.438 7.0792C987.296 6.56781 987.125 6.32716 987.125 6.32716C987.125 6.32716 987.244 6.59789 987.282 7.09925C987.334 7.59059 987.148 8.36268 986.367 8.97434C985.816 9.40551 984.931 9.72638 983.979 9.72638C983.607 9.72638 983.227 9.67624 982.848 9.56594C982.163 9.35537 981.665 9.02447 981.256 8.43287C980.839 7.85129 980.579 7.19952 980.579 6.51768C980.609 5.15398 981.739 3.78025 983.502 2.8778C984.656 2.30625 986.181 1.9553 987.698 1.9553C988.316 1.9553 988.926 2.01547 989.521 2.13579C990.54 2.34636 991.485 2.75748 992.244 3.34908C992.623 3.65993 992.936 3.99082 993.188 4.31169C993.337 4.51224 993.486 4.77294 993.635 5.00357C993.709 5.1239 993.821 5.41468 993.918 5.61523C994.699 7.40007 994.58 9.39548 993.739 11.2505C992.928 13.1256 991.477 14.8503 989.789 16.3544C988.122 17.8885 986.218 19.2422 984.254 20.4053C980.333 22.7718 976.242 24.5365 972.634 25.8501C969.025 27.1737 965.886 28.0761 963.677 28.6377C961.467 29.2192 960.173 29.5 960.173 29.5C960.173 29.5 960.5 29.4699 961.125 29.3897C961.742 29.3195 962.657 29.2293 963.803 29.0388C966.094 28.6577 969.383 28.1062 973.199 26.9932C975.096 26.4517 977.149 25.7899 979.232 24.9577C981.323 24.1154 983.502 23.1628 985.608 21.9796C987.728 20.7964 989.818 19.4327 991.701 17.7983C993.568 16.1638 995.249 14.2486 996.276 12.0026C997.347 9.78654 997.436 7.14939 996.417 4.88324C996.268 4.58243 996.194 4.36183 995.986 4.00085C995.822 3.7602 995.696 3.5396 995.51 3.27889C995.063 2.69731 994.572 2.20598 994.014 1.78484C992.876 0.942556 991.47 0.401088 990.064 0.170462C989.365 0.0601632 988.673 0 987.996 0V0.0100272Z" fill="white"/>
</svg>
