<svg width="184" height="120" viewBox="0 0 184 120" fill="none" xmlns="http://www.w3.org/2000/svg">
<path d="M65.6673 6.24C68.6913 6.24 76.1313 10.08 76.1313 19.008C76.1313 27.984 44.3073 50.064 43.6353 50.064C42.9633 50.064 39.6033 49.344 39.6033 43.68C39.6033 40.032 54.3393 12.048 54.3393 8.4C54.3393 6.096 51.2193 3.36 46.7073 3.36C31.4433 3.36 17.2353 19.2 18.7233 29.76C19.4433 34.656 24.0033 35.808 26.5473 35.808C31.9233 35.808 35.5713 29.904 35.5713 33.216C35.5713 36.24 29.7633 37.632 27.7953 37.632C21.6033 37.632 13.7793 33.456 12.6273 25.392C11.1393 14.736 27.1233 1.344 46.0353 1.344C50.9313 1.344 57.7473 3.744 58.6593 10.128C59.1873 14.064 56.2113 21.024 53.0433 27.696C51.1233 32.208 45.8913 40.752 45.8913 45.072C51.1713 40.416 69.8433 27.264 69.8433 16.512C69.8433 11.232 67.1073 7.872 65.3313 7.872C63.5073 7.872 62.6433 6.24 65.6673 6.24ZM83.3523 22.8C82.2483 22.8 80.3283 20.784 80.6643 17.28C80.9523 13.776 83.1603 12.624 84.2643 12.624C85.3683 12.624 88.7283 14.112 88.5843 15.744C88.4403 17.376 86.9523 17.616 85.4643 20.208C83.9763 22.752 84.0723 22.8 83.3523 22.8ZM88.2003 31.008C88.9203 30 90.3603 30.48 89.3523 32.064C88.2963 33.6 77.8803 47.904 73.4643 47.904C69.8163 47.904 68.9523 43.968 69.1923 41.376C69.4803 37.92 74.3763 32.064 76.6323 26.304C76.9683 25.392 76.7283 24.192 77.8803 24.192C79.0323 24.192 81.1923 26.064 80.8563 29.808C80.5203 33.552 69.8643 45.408 74.9043 45.408C76.3443 45.408 83.9283 37.488 88.2003 31.008ZM99.7646 45.504C101.205 45.504 108.933 37.584 113.157 31.2C113.877 30.144 115.317 30.624 114.309 32.208C113.301 33.744 102.693 48 98.3246 48C96.0686 48 93.9086 46.464 93.9086 41.808C93.9086 41.808 89.1086 48 87.0446 48C85.0286 48 81.9566 46.368 81.9566 42.048C81.9566 35.424 93.4766 24.192 98.0846 24.192C101.493 24.192 102.501 27.024 102.501 27.024C102.501 27.024 113.013 10.272 113.013 7.536C113.013 6 117.093 6.144 117.093 12.336C117.093 17.856 96.4046 45.504 99.7646 45.504ZM87.8606 45.648C90.6926 45.648 103.845 28.128 100.773 28.128C98.4206 28.128 87.4766 39.744 87.4766 45.264C87.4766 45.264 87.5246 45.648 87.8606 45.648ZM130.456 31.248C131.176 30.192 132.616 30.72 131.608 32.256C130.6 33.84 119.032 48 112.936 48C112.936 48 108.328 47.952 108.328 42.048C108.328 33.36 119.8 24.048 122.968 24.048C124.216 24.048 126.328 24.912 126.328 29.472C126.328 34.032 116.152 41.904 113.656 41.904C113.656 41.904 111.88 45.12 114.376 45.12C117.592 45.12 126.232 37.632 130.456 31.248ZM122.488 30C120.856 30 114.472 40.08 114.472 40.08C121 36.24 124.072 30 122.488 30ZM142.862 42.24C142.142 42.24 141.518 41.904 141.134 41.616C140.99 41.808 140.798 42.048 140.606 42.24C140.606 42.24 140.366 42.528 139.934 43.008C137.63 45.408 134.798 47.52 132.158 47.904C132.11 47.952 132.062 47.952 132.014 47.952C131.918 47.952 131.822 47.952 131.774 48C131.582 48 131.438 48 131.294 48C129.374 48 126.158 47.04 126.158 41.952C126.158 33.36 135.374 24.096 140.606 24.096C143.294 24.096 145.214 25.872 146.414 27.888C146.606 28.224 146.222 28.896 144.062 28.896C136.094 28.896 127.934 45.984 132.11 45.984C134.942 45.984 140.174 40.32 140.174 40.32C140.174 40.32 139.742 39.12 139.742 37.392C139.742 33.504 144.494 31.776 144.494 35.808C144.494 36.672 143.63 38.208 142.094 40.224C142.238 40.368 142.766 40.56 143.006 40.56C145.31 40.56 147.518 36.96 151.406 31.104C152.078 30.048 153.566 30.576 152.51 32.112C151.598 33.552 146.942 42.24 142.862 42.24Z" fill="#911002"/>
<path d="M25 101.656V109H2.09375V101.656H7.625V72.875H2.09375V65.5312H25C30.3333 65.5312 34.4479 66.7812 37.3438 69.2812C40.2604 71.7812 41.7188 75.1458 41.7188 79.375C41.7188 81.7917 41.2083 83.9896 40.1875 85.9688C39.1667 87.9271 37.8542 89.4375 36.25 90.5C34.6667 91.5417 32.8438 92.2604 30.7812 92.6562C28.7396 93.0312 26.1771 93.2188 23.0938 93.2188H18.9375V101.656H25ZM18.9375 85.9688H20.625C24.5 85.9688 26.9896 85.3438 28.0938 84.0938C29.2188 82.8229 29.7812 81.25 29.7812 79.375C29.7812 77.7917 29.3958 76.4479 28.625 75.3438C27.8542 74.2188 26.9688 73.5312 25.9688 73.2812C24.9688 73.0104 23.3333 72.875 21.0625 72.875H18.9375V85.9688ZM67.375 102.031V109H46.0938V102.031H51.6875V85.75H46.4375V78.75H60.5312V86.4375C61.0729 84.2292 62.3021 82.3229 64.2188 80.7188C66.1562 79.0938 68.4375 78.2812 71.0625 78.2812C71.5 78.2812 72.0208 78.2917 72.625 78.3125V87.4375C70.1875 87.4375 68.1979 87.7083 66.6562 88.25C65.1146 88.7917 63.8438 89.9792 62.8438 91.8125C61.8438 93.6458 61.3438 95.8125 61.3438 98.3125V102.031H67.375ZM92.9062 109.688C88.4479 109.688 84.6771 108.281 81.5938 105.469C78.5312 102.635 77 98.7604 77 93.8438C77 88.9271 78.5312 85.0625 81.5938 82.25C84.6771 79.4167 88.4479 78 92.9062 78C97.3854 78 101.156 79.4167 104.219 82.25C107.281 85.0625 108.812 88.9271 108.812 93.8438C108.812 98.6979 107.292 102.552 104.25 105.406C101.229 108.26 97.4479 109.688 92.9062 109.688ZM92.875 102.188C94.6667 102.188 96.1146 101.5 97.2188 100.125C98.3438 98.75 98.9062 96.5938 98.9062 93.6562C98.9062 91.0729 98.3646 89.0625 97.2812 87.625C96.1979 86.1667 94.7292 85.4375 92.875 85.4375C88.8958 85.4375 86.9062 88.3125 86.9062 94.0625C86.9062 96.4167 87.3958 98.3646 88.375 99.9062C89.375 101.427 90.875 102.188 92.875 102.188ZM133.531 102.031V109H114.75V102.031H119.125V85.75H115.062V78.75H119.125V75.9688C119.125 72.7812 120.104 70.125 122.062 68C124.042 65.8542 126.979 64.7812 130.875 64.7812C135.604 64.7812 138.969 66.1979 140.969 69.0312L133.969 74.5C133.344 72.3333 132.448 71.25 131.281 71.25C129.615 71.25 128.781 72.6458 128.781 75.4375V78.75H133.531V85.75H128.781V102.031H133.531ZM143.875 70.0938C143.875 68.6354 144.385 67.3854 145.406 66.3438C146.448 65.3021 147.698 64.7812 149.156 64.7812C150.635 64.7812 151.885 65.3021 152.906 66.3438C153.927 67.3854 154.438 68.6354 154.438 70.0938C154.438 71.5521 153.917 72.8021 152.875 73.8438C151.854 74.8646 150.615 75.375 149.156 75.375C147.719 75.375 146.479 74.8542 145.438 73.8125C144.396 72.7708 143.875 71.5312 143.875 70.0938ZM139.625 85.75V78.75H153.875V102.031H158.375V109H139.625V102.031H144.219V85.75H139.625ZM163.469 109V102.031H168.219V72.5H163.469V65.5312H177.875V102.031H182.219V109H163.469Z" fill="#911002"/>
</svg>
