<svg width="169" height="90" viewBox="0 0 169 90" fill="none" xmlns="http://www.w3.org/2000/svg">
<path d="M57.2159 22.5849C57.6239 22.0089 58.4159 22.3209 57.8399 23.1609C57.8399 23.1609 54.1439 32.2809 43.9439 32.2809C40.3919 32.2809 37.4399 29.9289 38.1839 24.5049C38.3759 23.1609 38.8799 21.6729 39.6719 20.0649C39.9599 19.4889 40.4879 18.6009 40.7999 18.0969C41.0639 17.5929 41.4239 17.0409 41.8079 16.5369C42.5759 15.4089 43.5599 14.3049 44.6159 13.1769C45.6719 12.0969 46.7519 11.1129 47.8799 10.3689C50.1599 8.76091 52.2479 7.99291 54.0239 7.99291C55.5839 7.99291 56.5439 8.66491 57.0479 9.52891C57.2879 8.85691 57.5039 8.04092 57.6719 7.24891C57.1679 6.52891 57.0959 5.88091 57.0959 5.59292C57.0959 5.13691 57.4799 4.80092 57.7919 4.82491C57.8159 4.82491 57.8399 4.82491 57.8639 4.82491C58.5599 4.82491 59.9279 6.14492 60.2639 7.87291C60.2639 7.87291 60.3359 8.32891 60.2639 9.14492C60.0719 10.9209 58.9439 12.5529 58.2719 14.0889C57.5039 15.8169 59.1119 16.9449 57.8159 16.9449C57.0719 16.9449 56.2079 14.5689 56.2079 14.5689C56.2079 14.5689 55.8719 13.6809 55.8719 12.8649C55.8719 12.6729 55.9199 12.4809 55.9439 12.2649C55.8959 11.6409 55.2719 11.2569 54.7439 11.2569C53.6879 11.2569 52.1999 11.9289 50.1359 13.2009C49.6079 13.5369 48.7679 14.1609 47.6639 15.1449C46.7999 15.9129 46.0799 16.6809 45.4559 17.4729C45.2159 17.7849 44.9759 18.1209 44.7359 18.4329C44.5679 18.7209 44.0639 19.4169 43.8239 19.8489C42.6239 21.8169 41.2559 24.4089 40.9439 26.4249L40.8959 26.9529C40.4879 30.0009 41.9279 31.2489 43.9439 31.2489C53.4959 31.2489 57.2159 22.5849 57.2159 22.5849ZM62.1895 18.9129C63.6055 18.9129 64.5415 21.4569 64.0135 21.4569C61.2055 21.4569 54.8215 29.6169 56.5495 29.6169C57.1255 29.6169 62.0935 24.1209 61.8535 23.6889C61.5895 23.2569 63.5575 23.6169 63.5575 25.3689C63.5575 27.1209 61.3015 29.6409 62.0695 29.6409C62.8135 29.6409 66.4135 25.6809 68.5255 22.4889C68.8855 21.9609 69.6055 22.2009 69.1015 22.9929C68.5735 23.7609 63.5575 30.8889 61.3735 30.8889C60.3895 30.8889 59.4295 29.4009 59.4295 28.8009C59.4295 28.2249 59.8375 27.3369 59.8375 27.3369C59.8375 27.3369 56.8135 30.8889 55.9255 30.8889C55.0615 30.8889 53.6695 29.7849 53.6695 28.0809C53.6695 25.2969 59.5015 18.9129 62.1895 18.9129ZM68.2957 30.8889C66.4957 30.8889 66.2077 29.1129 66.2077 27.9609C66.2077 25.2729 74.8957 12.5769 74.8957 9.96092C74.8957 9.26492 77.1997 10.1049 77.1997 12.5289C77.1997 14.9289 66.6637 29.6409 69.0157 29.6409C69.7357 29.6409 73.6717 25.5369 75.8077 22.3449C76.1437 21.8169 76.8877 22.0569 76.3597 22.8489C75.8557 23.6169 70.4797 30.8889 68.2957 30.8889ZM84.1595 22.5129C84.5195 21.9849 85.2395 22.2489 84.7355 23.0169C84.2315 23.8089 78.4475 30.8889 75.3995 30.8889C75.3995 30.8889 73.0955 30.8649 73.0955 27.9129C73.0955 23.5689 78.8315 18.9129 80.4155 18.9129C81.0395 18.9129 82.0955 19.3449 82.0955 21.6249C82.0955 23.9049 77.0075 27.8409 75.7595 27.8409C75.7595 27.8409 74.8715 29.4489 76.1195 29.4489C77.7275 29.4489 82.0475 25.7049 84.1595 22.5129ZM80.1755 21.8889C79.3595 21.8889 76.1675 26.9289 76.1675 26.9289C79.4315 25.0089 80.9675 21.8889 80.1755 21.8889ZM88.3222 30.8889C87.3862 30.8889 86.6902 29.6409 86.6902 27.8409C86.6902 25.8249 90.2422 21.0249 90.2422 21.0249C89.4502 21.0249 82.5862 29.0169 82.5862 30.1449C82.5862 31.9209 80.9542 30.1449 80.9542 28.2489C80.9542 26.2809 85.7062 21.3129 85.7062 18.9129C85.7062 18.0729 87.4582 18.9849 87.4582 21.3849C87.4582 22.5609 86.6422 23.3529 86.6422 23.3529C86.6422 23.3529 91.0102 18.9129 91.8262 18.9129C92.6662 18.9129 93.1702 20.1369 93.1702 21.3129C93.1702 22.4889 87.5542 29.6649 88.6582 29.6649C90.0982 29.6649 93.6022 25.5369 95.7382 22.3449C96.0742 21.8169 96.7942 22.0569 96.2902 22.8489C95.7862 23.6169 90.6982 30.8889 88.3222 30.8889ZM101.415 29.6409C102.135 29.6409 105.999 25.6809 108.111 22.4889C108.471 21.9609 109.191 22.2009 108.687 22.9929C108.183 23.7609 102.879 30.8889 100.695 30.8889C99.5671 30.8889 98.4871 30.1209 98.4871 27.7929C98.4871 27.7929 96.0871 30.8889 95.0551 30.8889C94.0471 30.8889 92.5111 30.0729 92.5111 27.9129C92.5111 24.6009 98.2711 18.9849 100.575 18.9849C102.279 18.9849 102.783 20.4009 102.783 20.4009C102.783 20.4009 108.039 12.0249 108.039 10.6569C108.039 9.88891 110.079 9.96092 110.079 13.0569C110.079 15.8169 99.7351 29.6409 101.415 29.6409ZM95.4631 29.7129C96.8791 29.7129 103.455 20.9529 101.919 20.9529C100.743 20.9529 95.2711 26.7609 95.2711 29.5209C95.2711 29.5209 95.2951 29.7129 95.4631 29.7129ZM113.377 18.9129C114.793 18.9129 115.729 21.4569 115.201 21.4569C112.393 21.4569 106.009 29.6169 107.737 29.6169C108.313 29.6169 113.281 24.1209 113.041 23.6889C112.777 23.2569 114.745 23.6169 114.745 25.3689C114.745 27.1209 112.489 29.6409 113.257 29.6409C114.001 29.6409 117.601 25.6809 119.713 22.4889C120.073 21.9609 120.793 22.2009 120.289 22.9929C119.761 23.7609 114.745 30.8889 112.561 30.8889C111.577 30.8889 110.617 29.4009 110.617 28.8009C110.617 28.2249 111.025 27.3369 111.025 27.3369C111.025 27.3369 108.001 30.8889 107.113 30.8889C106.249 30.8889 104.857 29.7849 104.857 28.0809C104.857 25.2969 110.689 18.9129 113.377 18.9129ZM129.995 22.4889C130.331 21.9609 131.075 22.2009 130.547 22.9929C130.043 23.7609 124.835 30.8889 122.627 30.8889C120.803 30.8889 120.395 29.3289 120.395 28.0329C120.395 26.6649 122.387 24.1929 123.395 21.9369C122.699 22.2249 121.523 22.6089 120.227 22.6089C119.531 22.6089 118.355 22.2249 118.355 19.5609C118.355 15.8169 121.211 13.1289 122.867 13.1289C123.755 13.1289 124.499 13.7049 124.499 14.6889C124.499 16.6329 121.163 21.1449 121.163 21.1449C121.163 21.1449 124.355 19.4889 124.883 19.2009C125.219 19.0089 125.507 18.6489 125.891 18.9849C126.299 19.2969 128.195 20.6889 127.115 21.9369C127.067 21.9849 127.019 22.0569 126.971 22.1049C125.747 23.7369 121.283 29.6409 123.347 29.6409V29.6649C124.067 29.6649 127.859 25.6809 129.995 22.4889ZM120.179 19.4649C120.179 20.3289 120.635 20.7849 120.635 20.7849C122.003 18.2409 123.515 15.9369 122.699 15.9369C121.883 15.9369 120.179 18.2889 120.179 19.4649ZM26.107 51.7483V46.5686H15.1617V54.678H23.9977V60.6311H15.1617V69.8889H26.107V64.6624H32.8805V75.8889H1.73203V69.8889H5.99765V46.5686H1.73203V40.5686H32.8805V51.7483H26.107ZM47.3648 57.0217L51.2555 68.2014L55.7555 57.0217H52.5445V51.2561H65.5523V57.0217H62.0367L54.0211 76.2639H47.3648L39.0445 57.0217H35.5055V51.2561H50.4352V57.0217H47.3648ZM92.9508 65.2249H74.5758C74.7633 67.1155 75.4117 68.6155 76.5211 69.7249C77.6461 70.8186 79.0914 71.3655 80.857 71.3655C82.8102 71.3655 84.7164 70.3967 86.5758 68.4592L92.6695 70.428C91.3258 72.4436 89.6617 73.9592 87.6773 74.9749C85.693 75.9749 83.3414 76.4749 80.6227 76.4749C77.9039 76.4749 75.4977 75.967 73.4039 74.9514C71.3258 73.9202 69.7086 72.467 68.5523 70.592C67.4117 68.717 66.8414 66.5139 66.8414 63.9827C66.8414 61.4827 67.4352 59.217 68.6227 57.1858C69.8258 55.1545 71.443 53.5686 73.4742 52.428C75.5211 51.2717 77.7398 50.6936 80.1305 50.6936C82.7242 50.6936 84.982 51.2952 86.9039 52.4983C88.8258 53.6858 90.3023 55.3811 91.3336 57.5842C92.3805 59.7717 92.9195 62.3186 92.9508 65.2249ZM79.7555 55.9202C78.3492 55.9202 77.2164 56.3264 76.357 57.1389C75.5133 57.9514 74.982 59.1936 74.7633 60.8655H85.0289C84.8102 59.3967 84.2086 58.2092 83.2242 57.303C82.2555 56.3811 81.0992 55.9202 79.7555 55.9202ZM121.732 60.1858V70.217H125.435V75.8889H113.857V60.8186C113.857 59.6624 113.677 58.8264 113.318 58.3108C112.974 57.7795 112.388 57.5139 111.56 57.5139C110.06 57.5139 108.552 58.053 107.037 59.1311V70.217H110.88V75.8889H95.482V70.217H99.232V57.0217H95.482V51.2561H107.037V53.5764C109.38 51.8108 111.787 50.928 114.255 50.928C116.709 50.928 118.568 51.7092 119.834 53.2717C121.099 54.8186 121.732 57.1233 121.732 60.1858ZM141.584 51.2561V57.0217H137.037V67.7795C137.037 68.5452 137.185 69.1233 137.482 69.5139C137.779 69.8889 138.334 70.0764 139.146 70.0764C139.818 70.0764 140.63 69.9045 141.584 69.5608V75.0217C139.474 75.8499 137.49 76.2639 135.63 76.2639C133.49 76.2639 131.88 75.7249 130.802 74.6467C129.74 73.553 129.209 72.0139 129.209 70.0295V57.0217H126.091V51.2561H129.209V47.4358L137.037 41.8108V51.2561H141.584ZM159.771 52.1233V51.2561H165.373V58.4749H159.771C159.287 56.7405 157.49 55.8733 154.38 55.8733C152.146 55.8733 151.029 56.4983 151.029 57.7483C151.029 58.2952 151.326 58.7014 151.92 58.967C152.513 59.2327 153.38 59.4514 154.521 59.6233C157.724 60.0295 160.248 60.6155 162.091 61.3811C163.935 62.1311 165.224 63.0686 165.959 64.1936C166.693 65.303 167.06 66.6545 167.06 68.2483C167.06 70.842 166.17 72.8655 164.388 74.3186C162.623 75.7561 160.216 76.4749 157.17 76.4749C154.201 76.4749 152.185 75.8811 151.123 74.6936V75.8889H145.404V67.4045H151.123C151.279 68.5764 151.841 69.4983 152.81 70.1702C153.795 70.842 155.005 71.178 156.443 71.178C157.849 71.178 158.888 71.0217 159.56 70.7092C160.232 70.3811 160.568 69.8186 160.568 69.0217C160.568 68.4749 160.427 68.053 160.146 67.7561C159.865 67.4436 159.318 67.1702 158.505 66.9358C157.709 66.7014 156.482 66.4358 154.826 66.1389C151.138 65.5608 148.482 64.6311 146.857 63.3499C145.248 62.053 144.443 60.3108 144.443 58.1233C144.443 55.8889 145.279 54.1311 146.951 52.8499C148.638 51.5686 150.857 50.928 153.607 50.928C155.826 50.928 157.88 51.3264 159.771 52.1233Z" fill="white"/>
<path d="M26.9532 4.23059H5.11709C3.39427 4.23059 1.99765 5.62721 1.99765 7.35003V29.1861C1.99765 30.9089 3.39427 32.3055 5.11709 32.3055H26.9532C28.676 32.3055 30.0726 30.9089 30.0726 29.1861V7.35003C30.0726 5.62721 28.676 4.23059 26.9532 4.23059Z" stroke="white" stroke-width="2" stroke-linecap="round" stroke-linejoin="round"/>
<path d="M22.274 1.11108V7.34996" stroke="white" stroke-width="2" stroke-linecap="round" stroke-linejoin="round"/>
<path d="M9.79626 1.11108V7.34996" stroke="white" stroke-width="2" stroke-linecap="round" stroke-linejoin="round"/>
<path d="M1.99765 13.5889H30.0726" stroke="white" stroke-width="2" stroke-linecap="round" stroke-linejoin="round"/>
</svg>
