<svg width="62" height="206" viewBox="0 0 62 206" fill="none" xmlns="http://www.w3.org/2000/svg">
<path d="M57.1471 25.5034C60.5637 34.7713 60.4785 45.4797 57.9384 54.8856C55.3495 64.4619 49.3441 73.2387 40.8674 77.8565C41.7358 84.0567 39.7354 90.8291 35.5559 95.3414C31.3764 99.8536 25.1396 102.215 19.1423 101.55C21.9624 104.617 23.2609 109.901 21.4958 113.723C21.0332 114.729 20.3921 115.642 19.6698 116.466C17.9696 118.41 15.7865 119.895 13.3925 120.735C22.1653 125.263 29.173 133.866 32.1271 143.572C35.0811 153.278 34.3791 164.047 30.6216 173.449C26.8642 182.851 20.1486 190.869 11.9601 196.452C8.59619 198.745 4.99697 200.64 1.40993 202.531L1.40993 40.6104C1.40993 29.0863 1.0285 17.5218 1.0001 6.03021C1.0001 4.5045 1.59253 2.79217 3.00869 2.22409C3.71879 1.93599 4.51006 1.98876 5.27291 2.04151C25.4075 3.48201 48.8206 2.91385 57.1431 25.4993L57.1471 25.5034Z" fill="#478F7E" stroke="#F9ECD1" stroke-width="3" stroke-miterlimit="10"/>
<path d="M17.9777 55.8188C14.8411 57.0604 11.3069 55.0275 9.7893 52.2196C8.37723 49.6713 8.21492 46.559 9.063 43.7997C11.384 36.435 20.6762 34.1384 26.8358 38.2611C38.7979 46.1413 36.6675 65.4479 23.5205 70.8446L23.9141 70.1021C24.5552 74.026 23.8532 78.2947 21.3658 81.4719C18.8946 84.5314 14.918 86.333 11.0145 86.0002C14.8125 85.9678 18.5132 84.0202 20.7044 80.9687C22.8266 77.9376 23.2973 73.9204 22.5913 70.3496L22.4858 69.8424L22.9808 69.611C31.5832 65.6548 35.223 55.121 31.5143 46.5388C29.5139 41.7953 24.9896 37.7416 19.6577 37.7781C15.9733 37.8024 12.2199 39.7541 10.5846 43.1423C8.92502 46.4413 9.09137 50.9414 11.6802 53.7737C13.2221 55.4739 15.6973 56.5086 17.9737 55.8147L17.9777 55.8188Z" fill="#F9ECD1"/>
<path d="M51.6773 31.6103C56.0272 42.1442 55.5281 55.5835 47.8956 64.5268C45.396 67.493 42.3041 69.891 38.9321 71.648C41.8942 69.2661 44.6088 66.6489 46.7919 63.6624C53.552 54.5041 53.9131 42.4202 51.6733 31.6144L51.6773 31.6103Z" fill="#F9ECD1"/>
<path d="M2.7773 190.625C6.0519 188.499 9.20884 186.369 12.0898 183.78C14.9911 181.216 17.4461 178.347 19.7103 175.161C17.6165 182.818 10.3977 188.885 2.7773 190.621L2.7773 190.625Z" fill="#F9ECD1"/>
<path d="M9.44832 116.77C13.5993 118.377 14.1593 125.04 10.3653 127.345C10.6818 126.351 10.905 125.454 11.0308 124.561C11.4528 121.794 10.7995 119.241 9.44426 116.766L9.44832 116.77Z" fill="#F9ECD1"/>
<path d="M15.4537 103.396C16.0258 101.667 16.8415 99.8941 17.5353 98.2466C17.7869 97.6867 18.0426 97.1064 18.4078 96.4572C18.7892 97.1024 18.919 97.8165 18.919 98.5225C18.8866 100.62 17.5759 102.848 15.4537 103.396Z" fill="#F9ECD1"/>
<path d="M41.4883 35.8871C45.2701 39.3768 46.6943 45.577 44.8521 50.3773C44.4139 47.8656 44.0893 45.4877 43.5131 43.049C43.0586 40.9674 42.1132 37.9606 41.4883 35.8871Z" fill="#F9ECD1"/>
<path d="M16.1111 43.9701C17.5151 42.3227 20.3271 41.9616 22.2302 43.1545C24.259 44.3638 25.03 47.0257 24.6526 49.1844C24.4335 50.5437 23.6909 52.1992 22.2504 52.5685C23.1634 51.5946 23.2689 50.3287 23.2446 49.087C23.131 44.9075 20.1607 42.7366 16.1111 43.9701Z" fill="#F9ECD1"/>
<path d="M2.258 51.0915C3.60919 57.9207 9.25347 63.6664 16.456 63.2729C18.7202 63.1958 20.9925 62.5587 23.1066 61.3982C21.4429 63.1674 19.0772 64.3035 16.5898 64.6768C8.70158 65.9955 1.52351 58.9026 2.258 51.0875L2.258 51.0915Z" fill="#F9ECD1"/>
</svg>
