<svg width="1279" height="3189" viewBox="0 0 1279 3189" fill="none" xmlns="http://www.w3.org/2000/svg">
<path d="M991.225 3126.31L987.515 3122.09C990.326 3119.56 993.136 3117.09 995.891 3114.61L999.658 3118.77C996.903 3121.25 994.092 3123.78 991.281 3126.25L991.225 3126.31ZM1007.98 3111.24L1004.21 3107.08C1007.02 3104.55 1009.78 3102.02 1012.48 3099.49L1016.3 3103.6C1013.54 3106.13 1010.79 3108.66 1008.03 3111.19L1007.98 3111.24ZM1024.51 3095.95L1020.68 3091.85C1023.44 3089.26 1026.14 3086.67 1028.84 3084.14L1032.71 3088.19C1030.02 3090.78 1027.32 3093.36 1024.56 3095.95H1024.51ZM1040.81 3080.38L1036.87 3076.33C1039.57 3073.69 1042.27 3071.1 1044.86 3068.46L1048.79 3072.45C1046.15 3075.04 1043.45 3077.68 1040.75 3080.32L1040.81 3080.38ZM1056.83 3064.52L1052.84 3060.53C1055.48 3057.83 1058.12 3055.19 1060.71 3052.55L1064.76 3056.48C1062.17 3059.13 1059.53 3061.83 1056.89 3064.52H1056.83ZM1072.57 3048.39L1068.53 3044.51C1071.11 3041.76 1073.7 3039.06 1076.23 3036.36L1080.33 3040.18C1077.8 3042.88 1075.22 3045.63 1072.57 3048.39ZM1087.98 3031.92L1083.82 3028.15C1086.35 3025.34 1088.88 3022.58 1091.35 3019.83L1095.57 3023.6C1093.09 3026.35 1090.56 3029.16 1088.03 3031.97L1087.98 3031.92ZM1102.99 3015.11L1098.77 3011.4C1101.24 3008.59 1103.66 3005.72 1106.08 3002.91L1110.35 3006.56C1107.93 3009.37 1105.52 3012.24 1102.99 3015.11ZM1117.6 2997.96L1113.28 2994.36C1115.69 2991.44 1118.05 2988.57 1120.36 2985.71L1124.74 2989.25C1122.44 2992.17 1120.02 2995.04 1117.6 2997.96ZM1131.71 2980.37L1127.27 2976.88C1129.58 2973.9 1131.88 2970.92 1134.08 2968L1138.57 2971.37C1136.32 2974.35 1134.08 2977.33 1131.71 2980.31V2980.37ZM1145.32 2962.38L1140.77 2959.06C1143.01 2956.02 1145.15 2952.99 1147.29 2949.95L1151.9 2953.16C1149.76 2956.19 1147.57 2959.23 1145.32 2962.32V2962.38ZM1158.31 2943.94L1153.64 2940.79C1155.78 2937.64 1157.8 2934.55 1159.82 2931.46L1164.55 2934.49C1162.52 2937.58 1160.44 2940.73 1158.31 2943.88V2943.94ZM1170.56 2924.99L1165.78 2922.01C1167.75 2918.81 1169.66 2915.6 1171.52 2912.45L1176.35 2915.32C1174.5 2918.52 1172.53 2921.73 1170.51 2924.99H1170.56ZM1181.97 2905.48L1177.03 2902.78C1178.88 2899.47 1180.62 2896.21 1182.31 2892.95L1187.31 2895.53C1185.57 2898.85 1183.83 2902.11 1181.97 2905.48ZM1192.43 2885.41L1187.37 2882.94C1189 2879.57 1190.63 2876.19 1192.09 2872.88L1197.21 2875.18C1195.69 2878.55 1194.06 2881.98 1192.37 2885.41H1192.43ZM1201.76 2864.78L1196.59 2862.64C1198.05 2859.16 1199.4 2855.73 1200.69 2852.3L1205.98 2854.27C1204.69 2857.75 1203.28 2861.24 1201.82 2864.78H1201.76ZM1209.75 2843.59L1204.41 2841.79C1205.59 2838.19 1206.71 2834.7 1207.72 2831.16L1213.12 2832.74C1212.05 2836.28 1210.93 2839.93 1209.75 2843.53V2843.59ZM1216.1 2821.83L1210.65 2820.48C1211.55 2816.83 1212.39 2813.23 1213.12 2809.63L1218.63 2810.75C1217.9 2814.41 1217.05 2818.12 1216.1 2821.83ZM1220.6 2799.57L1215.03 2798.72C1215.59 2795.01 1216.1 2791.36 1216.44 2787.76L1222 2788.32C1221.61 2792.03 1221.1 2795.8 1220.54 2799.57H1220.6ZM1222.96 2776.97L1217.34 2776.69C1217.5 2773.09 1217.62 2769.55 1217.62 2766L1223.24 2765.61V2766C1223.24 2769.6 1223.13 2773.26 1222.96 2776.97ZM1217.28 2754.54C1217.05 2750.83 1216.72 2747.17 1216.32 2743.52L1221.89 2742.84C1222.34 2746.55 1222.68 2750.38 1222.9 2754.2L1217.28 2754.54ZM1214.69 2732.61C1214.02 2728.96 1213.29 2725.36 1212.39 2721.82L1217.84 2720.47C1218.74 2724.12 1219.53 2727.83 1220.2 2731.6L1214.69 2732.61ZM1209.47 2711.19C1208.4 2707.65 1207.16 2704.16 1205.87 2700.73L1211.15 2698.77C1212.5 2702.31 1213.74 2705.91 1214.86 2709.56L1209.47 2711.19ZM1201.71 2690.5C1200.19 2687.13 1198.61 2683.81 1196.93 2680.55L1201.93 2677.97C1203.67 2681.34 1205.3 2684.77 1206.88 2688.2L1201.76 2690.5H1201.71ZM1191.59 2670.88C1189.73 2667.73 1187.76 2664.59 1185.74 2661.55L1190.41 2658.46C1192.49 2661.61 1194.51 2664.81 1196.42 2668.07L1191.59 2670.94V2670.88ZM1179.39 2652.44C1177.2 2649.46 1174.95 2646.54 1172.59 2643.67L1176.91 2640.13C1179.33 2643.05 1181.64 2646.09 1183.89 2649.13L1179.39 2652.44ZM1165.39 2635.24C1162.92 2632.49 1160.39 2629.79 1157.8 2627.09L1161.85 2623.15C1164.49 2625.85 1167.08 2628.66 1169.61 2631.47L1165.45 2635.24H1165.39ZM1149.82 2619.27C1147.12 2616.69 1144.36 2614.21 1141.55 2611.74L1145.26 2607.52C1148.13 2610.05 1150.89 2612.58 1153.64 2615.17L1149.76 2619.27H1149.82ZM1133.06 2604.54C1130.2 2602.18 1127.27 2599.88 1124.29 2597.63L1127.72 2593.19C1130.76 2595.49 1133.68 2597.85 1136.61 2600.22L1133.06 2604.6V2604.54ZM1115.3 2590.94C1112.26 2588.75 1109.23 2586.67 1106.14 2584.59L1109.28 2579.92C1112.43 2582.06 1115.52 2584.19 1118.56 2586.39L1115.3 2590.94ZM1096.8 2578.46C1093.66 2576.44 1090.51 2574.52 1087.3 2572.61L1090.17 2567.78C1093.37 2569.69 1096.58 2571.71 1099.78 2573.74L1096.75 2578.46H1096.8ZM1077.69 2566.99C1074.43 2565.14 1071.17 2563.34 1067.91 2561.59L1070.55 2556.65C1073.87 2558.45 1077.18 2560.24 1080.44 2562.1L1077.63 2566.99H1077.69ZM1058.01 2556.37C1054.7 2554.68 1051.32 2552.99 1048.01 2551.36L1050.48 2546.3C1053.85 2547.93 1057.23 2549.62 1060.6 2551.36L1058.01 2556.37ZM1037.89 2546.58C1034.46 2545.01 1031.08 2543.49 1027.65 2541.97L1029.9 2536.8C1033.33 2538.32 1036.76 2539.84 1040.19 2541.41L1037.83 2546.53L1037.89 2546.58ZM1017.37 2537.59C1013.88 2536.13 1010.4 2534.72 1006.97 2533.37L1009.05 2528.14C1012.53 2529.49 1016.02 2530.95 1019.5 2532.42L1017.37 2537.59ZM996.51 2529.32C992.968 2527.98 989.426 2526.68 985.997 2525.45L987.908 2520.16C991.394 2521.4 994.935 2522.75 998.533 2524.1L996.566 2529.38L996.51 2529.32ZM975.428 2521.73C971.83 2520.5 968.288 2519.32 964.802 2518.19L966.545 2512.85C970.031 2513.98 973.629 2515.16 977.283 2516.45L975.484 2521.79L975.428 2521.73ZM954.121 2514.82C950.41 2513.7 946.812 2512.63 943.383 2511.62L944.957 2506.22C948.443 2507.23 952.041 2508.3 955.807 2509.48L954.177 2514.88L954.121 2514.82ZM932.589 2508.52C928.766 2507.46 925.112 2506.5 921.739 2505.66L923.144 2500.2C926.574 2501.1 930.228 2502.06 934.107 2503.13L932.645 2508.52H932.589ZM910.833 2502.9C906.616 2501.89 902.906 2501.05 899.87 2500.37L901.051 2494.86C904.143 2495.54 907.853 2496.38 912.126 2497.39L910.833 2502.85V2502.9ZM889.02 2498.18C887.446 2498.01 883.567 2497.56 877.664 2496.89L878.338 2491.32C884.241 2492 888.12 2492.45 889.638 2492.61L889.02 2498.18ZM866.364 2495.48C862.934 2495.03 859.224 2494.58 855.176 2494.02L855.907 2488.45C859.955 2488.96 863.722 2489.47 867.095 2489.92L866.42 2495.48H866.364ZM843.933 2492.56L832.745 2491.04L833.532 2485.47L844.663 2486.99L843.933 2492.56ZM821.614 2489.41C818.016 2488.9 814.306 2488.34 810.426 2487.78L811.27 2482.21C815.093 2482.78 818.803 2483.34 822.401 2483.84L821.614 2489.41ZM799.295 2486.09L788.164 2484.35L789.007 2478.78L800.138 2480.53L799.295 2486.09ZM777.033 2482.61L765.901 2480.81L766.801 2475.24L777.876 2477.04L776.977 2482.61H777.033ZM754.826 2478.95L743.751 2477.1L744.707 2471.53L755.782 2473.39L754.826 2478.95ZM732.62 2475.13L721.545 2473.16L722.557 2467.65L733.632 2469.62L732.676 2475.13H732.62ZM710.47 2471.14C706.816 2470.46 703.105 2469.79 699.395 2469.11L700.407 2463.6C704.117 2464.28 707.828 2464.95 711.426 2465.63L710.414 2471.14H710.47ZM688.32 2466.98L677.245 2464.84L678.313 2459.33L689.332 2461.47L688.264 2466.98H688.32ZM666.226 2462.65L655.207 2460.46L656.332 2454.95L667.351 2457.14L666.282 2462.65H666.226ZM644.132 2458.15L633.113 2455.85L634.294 2450.34L645.313 2452.64L644.188 2458.15H644.132ZM622.095 2453.49L611.076 2451.07L612.256 2445.56L623.219 2447.98L622.038 2453.49H622.095ZM600.113 2448.65L589.151 2446.18L590.387 2440.72L601.35 2443.2L600.113 2448.71V2448.65ZM578.188 2443.65C574.534 2442.8 570.88 2441.96 567.225 2441.06L568.518 2435.61C572.173 2436.51 575.827 2437.35 579.425 2438.19L578.132 2443.65H578.188ZM556.263 2438.42L545.3 2435.72L546.649 2430.27L557.556 2432.97L556.207 2438.42H556.263ZM534.394 2433.02C530.74 2432.12 527.142 2431.17 523.487 2430.21L524.893 2424.76C528.547 2425.71 532.145 2426.61 535.799 2427.51L534.45 2432.97L534.394 2433.02ZM512.581 2427.4L501.675 2424.53L503.136 2419.08L513.987 2421.95L512.581 2427.4ZM490.825 2421.55C487.227 2420.54 483.572 2419.59 479.974 2418.57L481.492 2413.18C485.09 2414.19 488.688 2415.2 492.286 2416.16L490.825 2421.55ZM469.124 2415.48C465.526 2414.47 461.928 2413.4 458.33 2412.39L459.904 2406.99C463.502 2408.06 467.1 2409.07 470.698 2410.09L469.18 2415.48H469.124ZM447.48 2409.19C443.882 2408.12 440.284 2407.05 436.686 2405.92L438.316 2400.53C441.914 2401.6 445.456 2402.72 449.054 2403.79L447.48 2409.19ZM425.948 2402.66C422.35 2401.54 418.752 2400.42 415.211 2399.29L416.897 2393.95C420.439 2395.07 424.037 2396.2 427.579 2397.32L425.892 2402.72L425.948 2402.66ZM404.473 2395.86C400.875 2394.68 397.333 2393.5 393.735 2392.32L395.534 2386.98C399.076 2388.16 402.674 2389.34 406.216 2390.46L404.473 2395.81V2395.86ZM383.054 2388.78C379.512 2387.54 375.97 2386.36 372.372 2385.12L374.228 2379.78C377.769 2381.02 381.311 2382.26 384.853 2383.44L383.054 2388.78ZM361.803 2381.36C358.261 2380.12 354.72 2378.83 351.234 2377.53L353.146 2372.25C356.631 2373.54 360.173 2374.78 363.658 2376.02L361.803 2381.3V2381.36ZM340.721 2373.66C337.18 2372.36 333.694 2371.01 330.208 2369.66L332.232 2364.44C335.718 2365.78 339.203 2367.08 342.745 2368.37L340.777 2373.66H340.721ZM319.696 2365.62C316.21 2364.21 312.725 2362.86 309.239 2361.46L311.319 2356.23C314.805 2357.63 318.234 2358.98 321.719 2360.39L319.639 2365.62H319.696ZM298.782 2357.18C295.297 2355.78 291.811 2354.32 288.382 2352.85L290.574 2347.68C294.004 2349.14 297.433 2350.61 300.919 2352.01L298.782 2357.18ZM278.038 2348.36C274.608 2346.84 271.123 2345.32 267.75 2343.8L270.055 2338.69C273.428 2340.21 276.857 2341.72 280.286 2343.24L278.038 2348.41V2348.36ZM257.462 2339.14C254.032 2337.56 250.603 2335.99 247.23 2334.36L249.647 2329.3C253.021 2330.87 256.394 2332.5 259.823 2334.02L257.462 2339.14ZM237.111 2329.47C233.738 2327.84 230.364 2326.15 226.991 2324.46L229.521 2319.46C232.838 2321.15 236.211 2322.78 239.528 2324.46L237.054 2329.52L237.111 2329.47ZM216.984 2319.29C213.611 2317.55 210.294 2315.81 207.034 2314.01L209.732 2309.06C212.993 2310.8 216.31 2312.55 219.627 2314.29L217.041 2319.29H216.984ZM197.139 2308.55C193.822 2306.7 190.562 2304.84 187.357 2302.99L190.168 2298.1C193.373 2299.95 196.633 2301.81 199.894 2303.61L197.139 2308.5V2308.55ZM177.632 2297.25C174.371 2295.29 171.166 2293.32 168.018 2291.35L170.998 2286.57C174.146 2288.54 177.35 2290.51 180.555 2292.42L177.632 2297.25ZM158.461 2285.28C155.313 2283.2 152.165 2281.12 149.073 2279.04L152.221 2274.37C155.313 2276.45 158.405 2278.53 161.553 2280.56L158.517 2285.28H158.461ZM139.74 2272.63C136.648 2270.44 133.613 2268.25 130.577 2266L133.95 2261.5C136.929 2263.69 139.965 2265.88 143.001 2268.08L139.74 2272.69V2272.63ZM121.582 2259.14C118.602 2256.78 115.623 2254.47 112.755 2252.11L116.297 2247.78C119.164 2250.14 122.088 2252.45 125.011 2254.75L121.582 2259.19V2259.14ZM104.098 2244.8C101.231 2242.33 98.4198 2239.8 95.6651 2237.27L99.4317 2233.11C102.13 2235.58 104.941 2238.06 107.752 2240.53L104.098 2244.8ZM87.4009 2229.51C84.6462 2226.87 82.004 2224.17 79.4179 2221.47L83.4657 2217.54C86.0517 2220.18 88.6377 2222.82 91.3362 2225.41L87.4009 2229.46V2229.51ZM71.6598 2213.21C69.1299 2210.4 66.6563 2207.53 64.2389 2204.66L68.5678 2201.06C70.9289 2203.88 73.3463 2206.69 75.8762 2209.5L71.716 2213.26L71.6598 2213.21ZM57.1554 2195.84C54.8505 2192.8 52.6017 2189.76 50.4092 2186.67L55.0191 2183.47C57.1554 2186.45 59.3479 2189.43 61.5967 2192.41L57.1554 2195.84ZM44.1127 2177.28C42.0889 2174.08 40.1212 2170.82 38.2098 2167.56L43.1008 2164.75C44.8998 2167.95 46.8112 2171.1 48.8351 2174.25L44.1127 2177.28ZM32.869 2157.55C31.1263 2154.18 29.5522 2150.75 28.0343 2147.26L33.2064 2145.02C34.668 2148.39 36.2422 2151.71 37.9287 2155.02L32.9253 2157.55H32.869ZM23.7054 2136.75C22.3562 2133.21 21.1194 2129.61 20.0512 2126.01L25.4482 2124.33C26.5164 2127.81 27.7532 2131.3 29.0462 2134.78L23.7617 2136.75H23.7054ZM16.9592 2115.05C16.0597 2111.4 15.2727 2107.69 14.598 2103.92L20.1075 2102.91C20.7821 2106.51 21.5129 2110.1 22.4124 2113.7L16.9592 2115.05ZM12.9115 2092.73L12.6866 2091.05C12.3493 2087.78 12.012 2084.58 11.7309 2081.43L17.3528 2080.93C17.6338 2084.07 17.9149 2087.22 18.3085 2090.43L18.4771 2092.06L12.9115 2092.73ZM11.0001 2070.13C10.7752 2066.31 10.6628 2062.54 10.6065 2058.83L16.2284 2058.72C16.2846 2062.37 16.4533 2066.08 16.6219 2069.85L11.0001 2070.13ZM16.1722 2047.59L10.5503 2047.48C10.6065 2043.65 10.719 2039.89 10.9438 2036.12L16.5657 2036.4C16.3408 2040.06 16.2284 2043.77 16.1722 2047.53V2047.59ZM17.3528 2025.38L11.7309 2024.88C12.0682 2021.05 12.518 2017.29 13.0239 2013.63L18.5896 2014.36C18.0836 2017.96 17.6901 2021.67 17.3528 2025.38ZM20.3323 2003.4L14.8229 2002.39C15.4975 1998.62 16.2846 1994.91 17.0717 1991.26L22.5249 1992.49C21.7378 1996.04 20.9507 1999.69 20.3323 2003.34V2003.4ZM25.2796 1981.81L19.8826 1980.3C20.8945 1976.58 22.0189 1972.99 23.1995 1969.44L28.5402 1971.19C27.4159 1974.67 26.2915 1978.21 25.3358 1981.76L25.2796 1981.81ZM32.2506 1960.79L27.0223 1958.76C28.3716 1955.22 29.8333 1951.68 31.4074 1948.25L36.5232 1950.56C35.0053 1953.87 33.5999 1957.3 32.2506 1960.79ZM41.2456 1940.6L36.2422 1938.07C37.9849 1934.7 39.7839 1931.33 41.6391 1928.07L46.5301 1930.88C44.6749 1934.08 42.9322 1937.29 41.2456 1940.6ZM52.2644 1921.43L47.5421 1918.4C49.6221 1915.19 51.7584 1912.1 53.951 1909.01L58.5047 1912.27C56.3684 1915.25 54.2883 1918.29 52.2644 1921.43ZM65.1947 1903.44L60.8096 1899.96C63.1708 1896.98 65.5882 1894.11 68.118 1891.24L72.3344 1894.96C69.917 1897.71 67.4996 1900.52 65.1947 1903.44ZM79.8677 1886.8L75.8199 1882.87C78.4622 1880.11 81.1607 1877.47 83.9154 1874.89L87.7945 1878.99C85.096 1881.52 82.4537 1884.11 79.8677 1886.75V1886.8ZM96.0024 1871.57L92.3482 1867.3C95.2153 1864.82 98.1387 1862.4 101.118 1860.1L104.604 1864.48C101.68 1866.79 98.8695 1869.15 96.0586 1871.57H96.0024ZM113.43 1857.8L110.113 1853.24C113.149 1850.99 116.241 1848.86 119.389 1846.78L122.537 1851.44C119.445 1853.52 116.466 1855.6 113.43 1857.8ZM131.87 1845.43L128.89 1840.65C132.095 1838.68 135.355 1836.71 138.616 1834.86L141.427 1839.75C138.222 1841.6 135.018 1843.46 131.87 1845.43ZM151.153 1834.41L148.51 1829.46C151.827 1827.66 155.2 1825.98 158.63 1824.29L161.103 1829.35C157.786 1830.98 154.47 1832.67 151.153 1834.41ZM171.166 1824.57L168.861 1819.45C172.291 1817.88 175.776 1816.36 179.206 1814.9L181.398 1820.07C177.969 1821.53 174.596 1823 171.166 1824.57ZM191.742 1815.91L189.719 1810.68C193.26 1809.33 196.802 1807.99 200.288 1806.69L202.199 1811.98C198.713 1813.21 195.228 1814.56 191.742 1815.91ZM212.768 1808.32L211.025 1802.98C214.623 1801.8 218.221 1800.62 221.763 1799.55L223.393 1804.95C219.852 1806.02 216.31 1807.2 212.712 1808.38L212.768 1808.32ZM234.131 1801.75L232.613 1796.35C236.267 1795.34 239.922 1794.32 243.52 1793.37L244.925 1798.82C241.327 1799.78 237.729 1800.73 234.131 1801.75ZM255.775 1796.07L254.482 1790.61C258.193 1789.71 261.847 1788.87 265.501 1788.08L266.682 1793.59C263.084 1794.38 259.429 1795.22 255.775 1796.07ZM277.644 1791.29L276.52 1785.78C280.286 1785.05 283.997 1784.32 287.651 1783.7L288.663 1789.21C285.065 1789.83 281.411 1790.56 277.644 1791.29ZM299.682 1787.35L298.782 1781.79C302.605 1781.17 306.316 1780.61 309.97 1780.1L310.757 1785.67C307.159 1786.17 303.448 1786.73 299.682 1787.35ZM321.888 1784.21L321.213 1778.64C325.093 1778.13 328.859 1777.74 332.457 1777.35L333.076 1782.91C329.478 1783.31 325.767 1783.7 321.944 1784.21H321.888ZM344.207 1781.84L343.701 1776.22C347.749 1775.88 351.515 1775.6 355.001 1775.32L355.394 1780.94C351.965 1781.17 348.198 1781.45 344.207 1781.79V1781.84ZM366.638 1780.33L366.357 1774.7C371.248 1774.48 375.071 1774.37 377.769 1774.31L377.882 1779.93C375.239 1779.93 371.473 1780.1 366.638 1780.33ZM435.168 1780.33H434.044V1774.7H445.288V1780.33H435.168ZM422.8 1780.33H411.669L411.613 1774.65H422.856V1780.33H422.8ZM456.531 1780.33V1774.7L467.719 1774.59V1780.21L456.531 1780.33ZM400.313 1780.21L389.069 1780.1V1774.48L400.369 1774.59V1780.21H400.313ZM479.019 1780.1V1774.48L490.15 1774.31L490.262 1779.93L479.019 1780.1ZM501.506 1779.71L501.394 1774.09L512.637 1773.8L512.806 1779.43L501.562 1779.71H501.506ZM523.993 1779.15L523.825 1773.52L535.012 1773.19L535.181 1778.81L523.937 1779.15H523.993ZM546.481 1778.41L546.256 1772.79L557.5 1772.34L557.725 1777.96L546.481 1778.41ZM568.968 1777.46L568.687 1771.84L579.875 1771.27L580.156 1776.9L568.912 1777.46H568.968ZM591.456 1776.33L591.118 1770.71L602.306 1770.09L602.643 1775.72L591.399 1776.33H591.456ZM613.887 1774.99L613.549 1769.36C617.316 1769.14 621.026 1768.86 624.737 1768.63L625.13 1774.25C621.42 1774.54 617.653 1774.76 613.887 1774.99ZM636.318 1773.41L635.924 1767.79C639.691 1767.51 643.401 1767.23 647.112 1766.95L647.562 1772.57C643.851 1772.85 640.085 1773.13 636.318 1773.41ZM658.749 1771.61L658.299 1765.99C662.066 1765.65 665.776 1765.32 669.487 1765.03L669.993 1770.66C666.282 1770.99 662.572 1771.33 658.805 1771.61H658.749ZM681.18 1769.59L680.618 1763.97C684.385 1763.63 688.095 1763.24 691.806 1762.84L692.368 1768.41C688.657 1768.8 684.947 1769.14 681.18 1769.53V1769.59ZM703.555 1767.28L702.937 1761.72C706.703 1761.32 710.414 1760.93 714.068 1760.48L714.686 1766.05C710.976 1766.44 707.266 1766.89 703.499 1767.28H703.555ZM725.93 1764.75L725.256 1759.19C728.966 1758.74 732.676 1758.29 736.387 1757.84L737.061 1763.4C733.351 1763.85 729.641 1764.3 725.874 1764.75H725.93ZM748.249 1761.94L747.518 1756.38C751.228 1755.87 754.939 1755.36 758.649 1754.86L759.436 1760.42C755.726 1760.93 752.015 1761.44 748.305 1761.94H748.249ZM770.511 1758.85L769.668 1753.28C773.378 1752.72 777.089 1752.16 780.743 1751.6L781.586 1757.16C777.932 1757.73 774.222 1758.29 770.455 1758.85H770.511ZM792.774 1755.42L791.874 1749.86C795.585 1749.24 799.295 1748.62 802.949 1748L803.905 1753.57C800.251 1754.18 796.54 1754.8 792.83 1755.42H792.774ZM814.98 1751.65L814.024 1746.15C817.735 1745.47 821.389 1744.8 825.043 1744.12L826.055 1749.63C822.401 1750.31 818.691 1750.98 814.98 1751.65ZM837.13 1747.55L836.062 1742.04C839.772 1741.31 843.427 1740.58 847.081 1739.85L848.205 1745.36C844.551 1746.09 840.897 1746.82 837.186 1747.55H837.13ZM859.168 1743.05L857.987 1737.54C861.698 1736.76 865.352 1735.97 868.95 1735.18L870.187 1740.69C866.533 1741.48 862.878 1742.32 859.168 1743.05ZM881.149 1738.16L879.856 1732.71C883.51 1731.87 887.165 1731.02 890.763 1730.12L892.112 1735.58C888.514 1736.48 884.86 1737.32 881.149 1738.16ZM903.018 1732.88L901.669 1727.42C905.323 1726.52 908.921 1725.57 912.519 1724.61L913.981 1730.07C910.383 1731.02 906.729 1731.98 903.074 1732.88H903.018ZM924.775 1727.09L923.257 1721.69C926.911 1720.68 930.453 1719.67 934.051 1718.65L935.625 1724.05C932.027 1725.06 928.429 1726.08 924.775 1727.09ZM946.419 1720.85L944.789 1715.45C948.387 1714.38 951.985 1713.26 955.47 1712.13L957.157 1717.47C953.615 1718.6 950.017 1719.72 946.363 1720.79L946.419 1720.85ZM967.894 1714.1L966.152 1708.76C969.75 1707.58 973.291 1706.4 976.777 1705.22L978.576 1710.56C975.09 1711.74 971.492 1712.98 967.894 1714.16V1714.1ZM989.201 1706.79L987.29 1701.51C990.831 1700.21 994.317 1698.92 997.803 1697.63L999.77 1702.91C996.285 1704.21 992.743 1705.5 989.201 1706.79ZM1010.28 1698.87L1008.2 1693.64C1011.69 1692.29 1015.17 1690.88 1018.55 1689.48L1020.68 1694.65C1017.25 1696.05 1013.77 1697.46 1010.23 1698.87H1010.28ZM1031.14 1690.26L1028.89 1685.09C1032.38 1683.57 1035.75 1682.11 1039.12 1680.59L1041.43 1685.71C1038.05 1687.23 1034.63 1688.75 1031.14 1690.26ZM1051.66 1680.99L1049.24 1675.93C1052.67 1674.3 1055.99 1672.67 1059.31 1671.04L1061.84 1676.04C1058.52 1677.67 1055.15 1679.36 1051.72 1680.99H1051.66ZM1071.84 1670.92L1069.26 1665.92C1072.57 1664.18 1075.89 1662.44 1079.09 1660.64L1081.79 1665.58C1078.53 1667.38 1075.22 1669.18 1071.84 1670.92ZM1091.63 1660.02L1088.82 1655.13C1092.08 1653.22 1095.29 1651.3 1098.38 1649.39L1101.3 1654.17C1098.15 1656.08 1094.89 1658.05 1091.57 1659.96L1091.63 1660.02ZM1110.86 1648.21L1107.82 1643.49C1110.97 1641.47 1114.06 1639.39 1117.1 1637.31L1120.25 1641.97C1117.21 1644.05 1114.06 1646.13 1110.86 1648.21ZM1129.52 1635.45L1126.21 1630.9C1129.24 1628.7 1132.22 1626.46 1135.14 1624.26L1138.57 1628.7C1135.65 1630.95 1132.61 1633.2 1129.52 1635.45ZM1147.46 1621.68L1143.91 1617.35C1146.84 1614.93 1149.65 1612.57 1152.4 1610.15L1156.11 1614.37C1153.3 1616.79 1150.44 1619.26 1147.46 1621.68ZM1164.49 1606.84L1160.67 1602.73C1163.42 1600.15 1166.12 1597.56 1168.71 1594.97L1172.7 1598.97C1170.06 1601.61 1167.36 1604.19 1164.55 1606.84H1164.49ZM1180.51 1590.87L1176.41 1587.05C1178.99 1584.29 1181.47 1581.54 1183.83 1578.78L1188.1 1582.44C1185.68 1585.25 1183.15 1588.06 1180.57 1590.87H1180.51ZM1195.3 1573.72L1190.91 1570.24C1193.27 1567.31 1195.52 1564.33 1197.66 1561.41L1202.21 1564.73C1200.02 1567.71 1197.72 1570.74 1195.35 1573.72H1195.3ZM1208.68 1555.4L1204.01 1552.3C1206.09 1549.16 1208.06 1546.06 1209.97 1542.92L1214.81 1545.84C1212.89 1549.04 1210.87 1552.19 1208.73 1555.45L1208.68 1555.4ZM1220.37 1535.94L1215.42 1533.3C1217.22 1529.99 1218.91 1526.67 1220.48 1523.41L1225.54 1525.83C1223.91 1529.14 1222.23 1532.52 1220.37 1535.94ZM1230.21 1515.48L1225.04 1513.29C1226.5 1509.8 1227.85 1506.37 1229.09 1503L1234.37 1504.91C1233.08 1508.4 1231.73 1511.94 1230.21 1515.48ZM1237.97 1494.12L1232.57 1492.49C1233.7 1488.83 1234.65 1485.29 1235.55 1481.81L1241 1483.16C1240.1 1486.75 1239.09 1490.41 1237.97 1494.12ZM1243.48 1472.02L1237.97 1470.96C1238.7 1467.19 1239.32 1463.59 1239.77 1459.99L1245.33 1460.78C1244.83 1464.43 1244.21 1468.14 1243.48 1472.02ZM1246.63 1449.48L1241 1449.03C1241.34 1445.15 1241.51 1441.5 1241.62 1437.96L1247.24 1438.12C1247.13 1441.72 1246.96 1445.55 1246.63 1449.54V1449.48ZM1241.62 1426.82C1241.51 1422.78 1241.28 1419.12 1240.95 1415.81L1246.57 1415.3C1246.91 1418.73 1247.13 1422.55 1247.24 1426.71L1241.62 1426.88V1426.82ZM1239.54 1404.84C1239.09 1402.03 1238.64 1399.84 1238.31 1398.38H1237.8L1237.57 1393.43L1240.5 1393.26V1392.76H1242.63L1242.75 1393.15H1243.2L1243.31 1395.12C1243.59 1396.07 1244.32 1399.11 1245.11 1403.89L1239.54 1404.79V1404.84ZM1236.62 1382.36C1236.28 1379.15 1235.78 1375.44 1235.16 1371.28L1240.72 1370.44C1241.4 1374.65 1241.85 1378.48 1242.24 1381.74L1236.67 1382.36H1236.62ZM1233.25 1360.26C1232.57 1356.78 1231.84 1353.12 1230.94 1349.36L1236.39 1348.12C1237.29 1352 1238.08 1355.71 1238.75 1359.25L1233.25 1360.32V1360.26ZM1228.24 1338.51C1227.29 1335.02 1226.27 1331.42 1225.15 1327.77L1230.55 1326.08C1231.73 1329.79 1232.74 1333.45 1233.7 1336.99L1228.24 1338.45V1338.51ZM1221.61 1317.2C1220.43 1313.77 1219.08 1310.28 1217.73 1306.8L1222.96 1304.72C1224.36 1308.32 1225.71 1311.86 1226.95 1315.34L1221.66 1317.2H1221.61ZM1213.4 1296.51C1211.88 1293.19 1210.31 1289.82 1208.68 1286.45L1213.74 1283.92C1215.42 1287.35 1217.05 1290.78 1218.57 1294.21L1213.46 1296.51H1213.4ZM1203.51 1276.61C1201.71 1273.4 1199.85 1270.2 1197.88 1267L1202.66 1264.07C1204.69 1267.33 1206.6 1270.59 1208.4 1273.85L1203.51 1276.61ZM1191.87 1257.72C1189.79 1254.68 1187.65 1251.7 1185.4 1248.72L1189.9 1245.35C1192.21 1248.39 1194.4 1251.48 1196.53 1254.57L1191.87 1257.72ZM1178.49 1240.07C1176.13 1237.26 1173.71 1234.5 1171.12 1231.75L1175.23 1227.92C1177.87 1230.73 1180.34 1233.55 1182.76 1236.47L1178.43 1240.07H1178.49ZM479.019 1226.74V1221.12C482.729 1221.12 486.44 1221.12 490.206 1221.06V1226.69C486.496 1226.69 482.729 1226.69 479.019 1226.74ZM467.775 1226.74L456.531 1226.63V1221.01L467.831 1221.12V1226.74H467.775ZM501.562 1226.57V1220.95C505.216 1220.95 508.927 1220.84 512.694 1220.73L512.806 1226.35C509.039 1226.41 505.273 1226.52 501.562 1226.57ZM445.288 1226.52L434.044 1226.29L434.156 1220.67L445.4 1220.9L445.288 1226.52ZM524.05 1226.12L523.881 1220.5C527.591 1220.39 531.358 1220.28 535.068 1220.17L535.293 1225.79C531.527 1225.9 527.76 1226.01 524.05 1226.12ZM422.8 1226.01C419.034 1225.9 415.267 1225.79 411.557 1225.62L411.781 1220C415.492 1220.11 419.202 1220.28 422.969 1220.39L422.8 1226.01ZM546.537 1225.34L546.312 1219.72C550.023 1219.55 553.789 1219.38 557.5 1219.21L557.781 1224.83C554.014 1225 550.247 1225.17 546.537 1225.34ZM400.257 1225.17C396.49 1225 392.723 1224.83 389.013 1224.66L389.294 1219.04C393.004 1219.21 396.715 1219.38 400.482 1219.55L400.257 1225.17ZM569.024 1224.27L568.743 1218.65C572.454 1218.42 576.22 1218.2 579.931 1217.97L580.268 1223.59C576.501 1223.82 572.791 1224.04 569.024 1224.27ZM377.769 1224.04C374.003 1223.82 370.236 1223.59 366.526 1223.37L366.863 1217.75C370.573 1217.97 374.284 1218.2 378.05 1218.42L377.713 1224.04H377.769ZM1163.37 1223.93C1160.72 1221.4 1158.03 1218.93 1155.21 1216.45L1158.87 1212.18C1161.79 1214.71 1164.55 1217.24 1167.24 1219.83L1163.37 1223.88V1223.93ZM591.456 1222.86L591.062 1217.24C594.773 1217.02 598.483 1216.74 602.25 1216.45L602.643 1222.08C598.876 1222.36 595.166 1222.64 591.399 1222.86H591.456ZM355.282 1222.64C351.515 1222.36 347.749 1222.13 344.038 1221.85L344.488 1216.23C348.198 1216.51 351.909 1216.79 355.675 1217.02L355.282 1222.64ZM613.887 1221.18L613.437 1215.56C617.147 1215.27 620.858 1214.94 624.624 1214.6L625.13 1220.22C621.364 1220.56 617.653 1220.9 613.943 1221.18H613.887ZM332.851 1220.95C329.084 1220.61 325.317 1220.33 321.607 1220L322.113 1214.37C325.767 1214.71 329.534 1214.99 333.3 1215.33L332.851 1220.95ZM636.318 1219.15L635.756 1213.53C639.466 1213.19 643.177 1212.8 646.887 1212.41L647.449 1217.97C643.683 1218.37 639.972 1218.76 636.262 1219.1L636.318 1219.15ZM310.42 1218.98C306.653 1218.65 302.886 1218.25 299.232 1217.86L299.794 1212.29C303.448 1212.69 307.159 1213.03 310.982 1213.42L310.42 1219.04V1218.98ZM658.693 1216.85L658.074 1211.28C661.785 1210.89 665.495 1210.44 669.206 1209.99L669.88 1215.56C666.17 1216.01 662.403 1216.45 658.693 1216.85ZM287.988 1216.68C284.166 1216.29 280.455 1215.84 276.801 1215.44L277.476 1209.88C281.13 1210.33 284.84 1210.72 288.607 1211.11L287.988 1216.68ZM681.012 1214.21L680.337 1208.64C684.047 1208.19 687.758 1207.68 691.468 1207.18L692.199 1212.74C688.489 1213.25 684.722 1213.7 681.012 1214.21ZM265.613 1214.09C261.791 1213.64 258.08 1213.14 254.426 1212.69L255.157 1207.12C258.811 1207.57 262.521 1208.08 266.288 1208.53L265.613 1214.09ZM703.33 1211.23L702.543 1205.66C706.254 1205.16 709.908 1204.59 713.618 1204.09L714.462 1209.65C710.751 1210.21 707.041 1210.72 703.33 1211.23ZM243.238 1211.23C239.416 1210.72 235.705 1210.16 232.107 1209.65L232.894 1204.09C236.492 1204.59 240.203 1205.16 244.026 1205.66L243.238 1211.23ZM1146.5 1209.48C1143.63 1207.24 1140.65 1205.04 1137.56 1202.96L1140.77 1198.35C1143.91 1200.55 1147.01 1202.79 1149.93 1205.04L1146.5 1209.48ZM220.92 1208.02C217.041 1207.46 213.33 1206.84 209.789 1206.28L210.688 1200.71C214.23 1201.28 217.94 1201.84 221.763 1202.46L220.92 1208.02ZM725.537 1208.02L724.693 1202.46C728.404 1201.89 732.058 1201.28 735.768 1200.71L736.668 1206.28C732.957 1206.9 729.247 1207.46 725.537 1208.02ZM198.657 1204.48C194.722 1203.81 191.012 1203.19 187.526 1202.57L188.538 1197.06C192.023 1197.68 195.678 1198.3 199.613 1198.97L198.657 1204.54V1204.48ZM747.743 1204.37L746.787 1198.8C750.441 1198.18 754.152 1197.51 757.862 1196.89L758.874 1202.4C755.164 1203.07 751.453 1203.69 747.799 1204.31L747.743 1204.37ZM176.451 1200.49C172.291 1199.7 168.58 1198.97 165.376 1198.35L166.5 1192.84C169.705 1193.46 173.359 1194.19 177.519 1194.98L176.451 1200.49ZM769.893 1200.38L768.881 1194.87C772.535 1194.19 776.246 1193.46 779.9 1192.79L780.968 1198.3C777.258 1199.03 773.603 1199.7 769.893 1200.38ZM1128.23 1196.89C1125.14 1194.98 1121.93 1193.12 1118.62 1191.38L1121.31 1186.43C1124.69 1188.29 1127.95 1190.14 1131.15 1192.11L1128.23 1196.89ZM791.987 1196.1L790.862 1190.59C794.517 1189.86 798.171 1189.08 801.825 1188.35L803.006 1193.86C799.295 1194.64 795.641 1195.37 791.987 1196.16V1196.1ZM154.301 1195.99C152.165 1195.54 150.815 1195.2 150.422 1195.09C149.185 1194.98 147.105 1194.47 143.17 1193.41L144.631 1188.01C147.161 1188.68 149.016 1189.13 150.141 1189.36H150.197L151.602 1189.64C151.602 1189.64 152.952 1189.98 155.538 1190.54L154.357 1196.05L154.301 1195.99ZM813.968 1191.44L812.788 1185.93C816.442 1185.14 820.04 1184.3 823.694 1183.51L824.931 1188.96C821.277 1189.81 817.622 1190.59 813.968 1191.44ZM132.207 1189.98C128.722 1188.74 125.124 1187.33 121.526 1185.82L123.774 1180.64C127.26 1182.16 130.745 1183.51 134.062 1184.69L132.207 1189.98ZM835.893 1186.43L834.6 1180.98C838.198 1180.14 841.853 1179.24 845.451 1178.4L846.8 1183.85C843.146 1184.75 839.548 1185.59 835.893 1186.49V1186.43ZM1108.83 1186.32C1105.57 1184.75 1102.2 1183.23 1098.71 1181.82L1100.85 1176.65C1104.39 1178.11 1107.88 1179.69 1111.25 1181.26L1108.83 1186.32ZM857.762 1181.09L856.357 1175.64L860.63 1174.52C862.822 1173.95 865.071 1173.39 867.263 1172.83L868.613 1178.28C866.42 1178.84 864.228 1179.35 862.035 1179.91L857.706 1181.04L857.762 1181.09ZM111.238 1180.92C107.977 1179.29 104.66 1177.44 101.231 1175.42L104.098 1170.58C107.415 1172.55 110.675 1174.29 113.824 1175.87L111.294 1180.87L111.238 1180.92ZM1088.37 1177.78C1084.94 1176.54 1081.46 1175.36 1077.86 1174.23L1079.49 1168.84C1083.14 1169.96 1086.74 1171.2 1090.28 1172.44L1088.37 1177.72V1177.78ZM879.463 1175.75L878.226 1170.3C881.936 1169.46 885.591 1168.67 889.245 1167.88L890.425 1173.39C886.827 1174.12 883.173 1174.97 879.519 1175.81L879.463 1175.75ZM1067.18 1171.26C1063.63 1170.36 1060.04 1169.46 1056.38 1168.67L1057.56 1163.16C1061.33 1163.95 1064.98 1164.85 1068.58 1165.75L1067.18 1171.2V1171.26ZM901.332 1171.14L900.264 1165.63C904.03 1164.9 907.684 1164.23 911.339 1163.61L912.294 1169.18C908.64 1169.79 904.986 1170.47 901.276 1171.2L901.332 1171.14ZM91.5049 1169.4C88.4691 1167.32 85.3771 1165.13 82.2288 1162.71L85.6582 1158.27C88.694 1160.57 91.6735 1162.71 94.6531 1164.73L91.5049 1169.4ZM923.369 1167.38L922.526 1161.81C926.293 1161.25 930.003 1160.74 933.714 1160.24L934.444 1165.8C930.79 1166.25 927.136 1166.81 923.369 1167.38ZM1045.48 1166.59C1041.88 1165.97 1038.22 1165.41 1034.51 1164.9L1035.24 1159.34C1039.07 1159.84 1042.78 1160.41 1046.43 1161.08L1045.48 1166.59ZM945.576 1164.51L944.957 1158.94C948.78 1158.55 952.491 1158.21 956.201 1157.88L956.651 1163.5C952.996 1163.78 949.286 1164.17 945.519 1164.57L945.576 1164.51ZM1023.44 1163.61C1019.78 1163.27 1016.13 1162.94 1012.36 1162.71L1012.7 1157.09C1016.52 1157.31 1020.29 1157.65 1024 1157.99L1023.44 1163.61ZM967.782 1162.71L967.445 1157.09C971.268 1156.86 975.034 1156.69 978.745 1156.58L978.913 1162.2C975.259 1162.32 971.549 1162.49 967.782 1162.65V1162.71ZM1001.23 1162.26C997.634 1162.15 993.923 1162.09 990.213 1162.09L990.101 1156.47H990.213C993.98 1156.47 997.746 1156.47 1001.4 1156.64L1001.23 1162.26ZM73.4025 1155.57C70.5916 1153.15 67.7807 1150.57 65.026 1147.81L68.9613 1143.82C71.6598 1146.46 74.3583 1148.94 77.113 1151.3L73.4025 1155.57ZM57.1554 1139.6C54.6818 1136.85 52.2082 1133.93 49.7908 1130.95L54.1758 1127.46C56.537 1130.38 58.8982 1133.2 61.3156 1135.89L57.1554 1139.66V1139.6ZM42.9321 1121.78C40.7958 1118.75 38.6595 1115.6 36.6357 1112.28L41.4142 1109.3C43.3819 1112.51 45.462 1115.54 47.5421 1118.52L42.9321 1121.78ZM30.8452 1102.5C29.0462 1099.24 27.3034 1095.87 25.6169 1092.38L30.6765 1089.96C32.3069 1093.34 33.9934 1096.65 35.7362 1099.8L30.789 1102.5H30.8452ZM21.007 1082.04C19.5453 1078.61 18.196 1075.07 16.8468 1071.47L22.1313 1069.56C23.4243 1073.1 24.7736 1076.53 26.1791 1079.9L21.007 1082.09V1082.04ZM13.2488 1060.67C12.1244 1057.13 11.1125 1053.48 10.1006 1049.77L15.5538 1048.36C16.5095 1052.02 17.5214 1055.56 18.5896 1059.04L13.1926 1060.73L13.2488 1060.67ZM7.45831 1038.75C6.67125 1035.15 5.94041 1031.44 5.26579 1027.62L10.7752 1026.61C11.4498 1030.32 12.1807 1033.97 12.9677 1037.51L7.45831 1038.69V1038.75ZM3.4668 1016.43C2.96083 1012.78 2.51108 1009.01 2.06133 1005.19L7.62696 1004.57C8.02049 1008.33 8.47024 1011.99 8.9762 1015.59L3.41058 1016.37L3.4668 1016.43ZM1.10562 993.942C0.824529 990.232 0.599655 986.465 0.487218 982.642L6.10906 982.417C6.27772 986.184 6.50259 989.895 6.72747 993.549L1.10562 993.942ZM0.149907 971.342C0.149907 969.6 0.149907 967.913 0.149907 966.17C0.149907 964.147 0.149907 962.123 0.149907 960.043L5.77175 960.155C5.77175 962.179 5.77175 964.203 5.77175 966.17C5.77175 967.913 5.77175 969.6 5.77175 971.286H0.093689L0.149907 971.342ZM6.10906 948.968L0.487218 948.743C0.655873 945.032 0.824529 941.266 1.0494 937.443L6.67125 937.78C6.44637 941.547 6.2215 945.257 6.10906 948.911V948.968ZM7.51452 926.705L1.89268 926.199C2.22999 922.489 2.5673 918.778 3.01705 914.955L8.58267 915.574C8.18915 919.34 7.79562 923.051 7.51452 926.705ZM9.93192 904.499L4.36629 903.768C4.81604 900.057 5.37822 896.347 5.94041 892.58L11.506 893.424C10.9439 897.134 10.4379 900.845 9.98814 904.499H9.93192ZM13.2488 882.405L7.68318 881.449C8.30158 877.795 8.9762 874.085 9.65083 870.318L15.1602 871.33C14.4856 875.04 13.811 878.694 13.1926 882.349L13.2488 882.405ZM17.3528 860.423L11.8433 859.299C12.5742 855.645 13.3612 851.991 14.1483 848.28L19.6577 849.461C18.8707 853.171 18.0836 856.769 17.3528 860.423ZM22.1313 838.555L16.6781 837.261C17.5214 833.663 18.4209 830.009 19.3204 826.299L24.7736 827.648C23.8741 831.302 22.9746 834.957 22.1313 838.555ZM27.5283 816.854L22.0751 815.392C23.0308 811.794 23.9865 808.197 24.9985 804.542L30.3954 806.06C29.3835 809.714 28.4278 813.312 27.4721 816.854H27.5283ZM33.5437 795.266L28.1467 793.692C29.1586 790.15 30.283 786.496 31.3511 782.898L36.7481 784.529C35.6238 788.127 34.6118 791.725 33.5437 795.266ZM40.065 773.847L34.7243 772.161C35.8486 768.619 36.973 765.021 38.1536 761.423L43.4943 763.166C42.3137 766.764 41.1894 770.305 40.065 773.847ZM47.0361 752.596L41.7516 750.741C42.9884 747.143 44.2814 743.602 45.5744 740.116L50.859 742.084C49.5659 745.513 48.3291 749.055 47.0923 752.596H47.0361ZM54.8505 731.683L49.6221 729.547C51.0276 726.005 52.4893 722.52 54.0072 719.146L59.1793 721.395C57.7176 724.768 56.2559 728.198 54.8505 731.683ZM63.7892 711.276L58.7295 708.859C60.3599 705.429 61.9902 702.056 63.6768 698.683L68.6802 701.213C66.9936 704.474 65.3633 707.847 63.7892 711.22V711.276ZM73.8523 691.375L68.9051 688.676C70.7041 685.359 72.6155 682.042 74.4707 678.838L79.3055 681.705C77.4503 684.909 75.5951 688.114 73.7961 691.375H73.8523ZM85.1522 672.148L80.3736 669.168C82.3975 665.964 84.4776 662.816 86.5577 659.667L91.2238 662.816C89.1437 665.851 87.1199 669 85.1522 672.148ZM97.6327 653.708L93.079 650.391C95.3278 647.299 97.5765 644.32 99.8814 641.34L104.323 644.826C102.074 647.749 99.8252 650.672 97.6327 653.708ZM111.35 636.168L107.021 632.57C109.439 629.647 111.968 626.836 114.442 624.025L118.602 627.792C116.129 630.546 113.711 633.301 111.294 636.168H111.35ZM126.248 619.64L122.2 615.705C124.842 612.95 127.541 610.308 130.239 607.721L134.118 611.769C131.476 614.355 128.834 616.941 126.248 619.64ZM142.27 604.236L138.504 600.076C141.314 597.546 144.182 595.072 147.105 592.655L150.703 596.984C147.836 599.345 145.081 601.762 142.27 604.236ZM940.797 601.313V595.691C944.508 595.691 948.218 595.635 951.985 595.522L952.097 601.144C948.33 601.256 944.564 601.256 940.797 601.313ZM929.497 601.256C925.731 601.256 921.964 601.088 918.197 600.975L918.366 595.353C922.076 595.466 925.787 595.578 929.553 595.635V601.256H929.497ZM963.397 600.807L963.172 595.185C966.882 595.016 970.593 594.847 974.359 594.623L974.697 600.244C970.93 600.469 967.164 600.694 963.397 600.863V600.807ZM906.954 600.582C903.187 600.413 899.42 600.188 895.654 599.963L896.047 594.342C899.758 594.566 903.468 594.791 907.235 594.96L906.954 600.582ZM985.94 599.401L985.491 593.779C989.201 593.498 992.911 593.105 996.622 592.711L997.24 598.277C993.474 598.67 989.707 599.064 985.94 599.345V599.401ZM884.41 599.12C880.643 598.839 876.877 598.502 873.166 598.108L873.728 592.486C877.439 592.824 881.149 593.161 884.86 593.498L884.41 599.12ZM1008.48 597.04L1007.75 591.474C1011.46 591.025 1015.12 590.462 1018.83 589.9L1019.67 595.466C1015.96 596.028 1012.19 596.59 1008.48 597.04ZM861.979 596.984C858.212 596.534 854.446 596.084 850.791 595.635L851.466 590.069C855.12 590.519 858.831 590.968 862.597 591.418L861.979 596.984ZM839.604 594.173C835.837 593.667 832.127 593.105 828.473 592.543L829.316 586.977C832.97 587.539 836.624 588.101 840.391 588.607L839.604 594.173ZM1030.86 593.611L1029.85 588.101C1033.5 587.427 1037.16 586.752 1040.81 585.965L1041.93 591.474C1038.22 592.261 1034.51 592.936 1030.8 593.611H1030.86ZM817.285 590.744C813.518 590.125 809.808 589.451 806.154 588.776L807.166 583.267C810.764 583.941 814.474 584.56 818.185 585.234L817.229 590.8L817.285 590.744ZM159.361 590.125L155.931 585.684C158.911 583.379 161.947 581.13 165.039 578.938L168.299 583.491C165.32 585.628 162.34 587.876 159.361 590.125ZM1053.01 589.001L1051.72 583.548C1055.31 582.704 1058.91 581.805 1062.51 580.793L1063.97 586.19C1060.32 587.146 1056.66 588.101 1053.01 588.945V589.001ZM795.079 586.696C791.312 585.965 787.602 585.178 784.004 584.447L785.184 578.938C788.726 579.669 792.38 580.456 796.147 581.186L795.079 586.696ZM1074.88 583.154L1073.25 577.757C1076.79 576.689 1080.33 575.565 1083.87 574.384L1085.67 579.725C1082.07 580.905 1078.48 582.086 1074.88 583.154ZM773.041 582.03C769.218 581.186 765.564 580.343 762.022 579.5L763.315 574.047C766.801 574.89 770.455 575.733 774.222 576.576L772.985 582.086L773.041 582.03ZM177.463 577.139L174.371 572.473C177.519 570.392 180.724 568.312 183.928 566.345L186.851 571.123C183.703 573.091 180.555 575.059 177.463 577.139ZM751.116 576.801C747.237 575.846 743.583 574.834 740.21 573.934L741.671 568.481C745.044 569.381 748.642 570.336 752.521 571.292L751.116 576.745V576.801ZM1096.41 575.958L1094.44 570.674C1097.93 569.381 1101.36 568.031 1104.84 566.626L1106.98 571.854C1103.49 573.26 1099.95 574.665 1096.41 575.958ZM729.303 570.898C724.974 569.662 721.376 568.537 718.453 567.694L720.083 562.297C722.951 563.197 726.549 564.265 730.821 565.501L729.247 570.898H729.303ZM1117.38 567.3L1115.07 562.185C1118.45 560.667 1121.82 559.093 1125.14 557.406L1127.61 562.466C1124.24 564.152 1120.81 565.783 1117.38 567.3ZM196.409 565.445L193.598 560.554C196.858 558.699 200.175 556.844 203.548 555.101L206.191 560.048C202.93 561.791 199.669 563.59 196.409 565.389V565.445ZM707.603 564.096C705.354 563.253 701.756 562.016 697.034 560.386L698.833 555.045C703.611 556.675 707.266 557.968 709.514 558.755L707.603 564.04V564.096ZM1137.67 557.237L1134.98 552.29C1138.24 550.547 1141.44 548.692 1144.65 546.781L1147.51 551.616C1144.25 553.583 1140.93 555.438 1137.62 557.237H1137.67ZM686.352 556.9C683.092 555.832 679.494 554.708 675.671 553.583L677.301 548.186C681.18 549.367 684.778 550.491 688.095 551.559L686.409 556.9H686.352ZM216.029 555.045L213.555 549.985C216.928 548.355 220.358 546.725 223.787 545.207L226.092 550.322C222.719 551.84 219.346 553.415 216.029 555.045ZM664.877 550.322C661.448 549.311 657.85 548.299 654.083 547.23L655.601 541.833C659.367 542.902 663.022 543.914 666.451 544.926L664.877 550.322ZM236.324 545.937L234.187 540.765C237.673 539.304 241.158 537.954 244.7 536.605L246.668 541.89C243.182 543.183 239.753 544.532 236.324 545.994V545.937ZM1157.18 545.6L1154.15 540.878C1157.24 538.854 1160.33 536.774 1163.37 534.638L1166.63 539.247C1163.53 541.44 1160.39 543.576 1157.24 545.6H1157.18ZM643.289 544.307C639.803 543.351 636.149 542.452 632.439 541.496L633.844 536.043C637.611 536.999 641.209 537.954 644.751 538.854L643.289 544.307ZM621.532 538.798C617.991 537.954 614.336 537.055 610.626 536.212L611.919 530.758C615.63 531.602 619.284 532.501 622.882 533.345L621.532 538.798ZM257.181 538.123L255.325 532.782C258.867 531.546 262.465 530.365 266.063 529.241L267.75 534.638C264.208 535.762 260.666 536.886 257.181 538.123ZM599.72 533.794C596.122 533.007 592.468 532.22 588.757 531.489L589.881 525.98C593.648 526.767 597.302 527.554 600.9 528.341L599.72 533.85V533.794ZM1175.68 532.557L1172.25 528.116C1175.17 525.867 1178.04 523.562 1180.91 521.145L1184.5 525.474C1181.58 527.891 1178.66 530.309 1175.68 532.614V532.557ZM278.487 531.489L276.97 526.092C280.624 525.08 284.222 524.068 287.876 523.169L289.281 528.622C285.683 529.522 282.085 530.477 278.487 531.546V531.489ZM577.794 529.297C574.197 528.566 570.486 527.891 566.776 527.217L567.788 521.707C571.554 522.382 575.208 523.113 578.863 523.787L577.794 529.297ZM300.132 525.98L298.895 520.527C302.549 519.683 306.259 518.896 309.914 518.166L311.038 523.675C307.384 524.406 303.786 525.193 300.132 526.036V525.98ZM555.757 525.249C552.103 524.631 548.448 524.012 544.682 523.45L545.581 517.884C549.348 518.503 553.058 519.065 556.713 519.74L555.757 525.305V525.249ZM533.607 521.763C529.953 521.258 526.242 520.695 522.532 520.189L523.263 514.624C527.029 515.13 530.74 515.636 534.45 516.198L533.663 521.763H533.607ZM322.001 521.539L320.989 516.029C324.699 515.355 328.409 514.736 332.12 514.174L332.963 519.74C329.309 520.302 325.599 520.92 321.944 521.595L322.001 521.539ZM511.4 518.784C507.69 518.334 503.98 517.941 500.269 517.547L500.831 511.982C504.598 512.375 508.308 512.825 512.019 513.218L511.344 518.784H511.4ZM344.094 518.109L343.364 512.544C347.074 512.038 350.841 511.588 354.551 511.194L355.169 516.76C351.459 517.154 347.805 517.603 344.094 518.109ZM1193.11 517.941L1189.28 513.78C1191.98 511.307 1194.68 508.721 1197.32 506.135L1201.31 510.126C1198.61 512.825 1195.86 515.411 1193.11 517.941ZM489.138 516.423C485.428 516.085 481.717 515.748 477.951 515.467L478.4 509.845C482.167 510.126 485.934 510.464 489.644 510.801L489.138 516.423ZM366.301 515.636L365.795 510.014C369.561 509.677 373.272 509.395 377.038 509.114L377.432 514.736C373.722 515.017 370.011 515.298 366.301 515.636ZM466.819 514.68C463.109 514.455 459.398 514.23 455.632 514.062L455.913 508.44C459.68 508.608 463.446 508.833 467.157 509.058L466.819 514.68ZM388.563 514.062L388.282 508.44C392.049 508.271 395.759 508.102 399.526 507.934L399.694 513.556C395.984 513.668 392.274 513.837 388.563 514.005V514.062ZM444.444 513.612C440.734 513.499 437.024 513.387 433.257 513.331L433.369 507.709C437.136 507.765 440.903 507.878 444.669 507.99L444.501 513.612H444.444ZM410.882 513.331L410.77 507.709C414.367 507.709 417.965 507.653 421.507 507.653L422.069 513.275H421.507C417.965 513.275 414.424 513.275 410.826 513.331H410.882ZM1209.24 501.975L1205.14 498.152C1207.61 495.453 1210.08 492.699 1212.5 489.831L1216.77 493.486C1214.3 496.409 1211.77 499.22 1209.24 501.975ZM1223.91 484.716L1219.47 481.23C1221.72 478.307 1223.97 475.383 1226.16 472.347L1230.72 475.608C1228.47 478.7 1226.22 481.736 1223.91 484.659V484.716ZM1237.18 466.332L1232.51 463.24C1234.54 460.204 1236.51 457.056 1238.47 453.852L1243.25 456.775C1241.28 460.036 1239.26 463.24 1237.18 466.332ZM1248.93 446.937L1244.04 444.182C1245.84 440.978 1247.58 437.717 1249.27 434.344L1254.27 436.93C1252.53 440.303 1250.79 443.676 1248.93 446.937ZM1259.22 426.754L1254.1 424.393C1255.4 421.582 1256.69 418.771 1257.93 415.904L1258.66 414.218L1263.83 416.41L1263.1 418.153C1261.86 421.076 1260.57 423.943 1259.22 426.811V426.754ZM1267.99 405.785L1262.7 403.873C1264 400.332 1265.12 396.846 1266.19 393.361L1271.59 394.991C1270.52 398.589 1269.34 402.187 1267.99 405.785ZM1274.51 383.972L1269.06 382.679C1269.9 379.025 1270.63 375.427 1271.25 371.829L1276.81 372.728C1276.2 376.439 1275.47 380.149 1274.57 383.916L1274.51 383.972ZM1278.22 361.428L1272.6 360.922C1272.94 357.268 1273.16 353.558 1273.27 349.904L1278.89 350.016C1278.78 353.783 1278.56 357.606 1278.22 361.428ZM1273.1 338.885C1272.94 335.231 1272.6 331.52 1272.09 327.922L1277.66 327.191C1278.16 330.958 1278.5 334.781 1278.73 338.604L1273.1 338.885ZM1270.29 317.072C1269.56 313.53 1268.66 309.932 1267.65 306.391L1273.05 304.817C1274.12 308.471 1275.02 312.237 1275.8 315.892L1270.29 317.016V317.072ZM1264.22 295.934C1262.99 292.505 1261.58 289.075 1260.06 285.758L1265.18 283.453C1266.75 286.939 1268.16 290.481 1269.45 294.023L1264.17 295.99L1264.22 295.934ZM1255.23 275.808C1253.48 272.547 1251.68 269.343 1249.77 266.194L1254.55 263.271C1256.52 266.532 1258.43 269.849 1260.17 273.166L1255.23 275.808ZM1243.76 256.918C1241.68 253.883 1239.49 250.903 1237.24 247.98L1241.68 244.55C1243.98 247.586 1246.23 250.622 1248.37 253.77L1243.76 256.975V256.918ZM1230.27 239.378C1227.9 236.567 1225.43 233.813 1222.9 231.058L1227.01 227.235C1229.59 230.046 1232.12 232.857 1234.54 235.724L1230.27 239.378ZM1215.14 223.075C1212.5 220.489 1209.86 217.903 1207.1 215.373L1210.93 211.213C1213.74 213.799 1216.44 216.385 1219.13 219.027L1215.2 223.019L1215.14 223.075ZM1198.78 208.008C1195.97 205.591 1193.11 203.23 1190.18 200.869L1193.72 196.484C1196.7 198.845 1199.57 201.262 1202.44 203.736L1198.78 208.008ZM1181.41 194.01C1178.43 191.761 1175.45 189.569 1172.42 187.376L1175.68 182.822C1178.77 185.015 1181.81 187.264 1184.79 189.512L1181.36 194.01H1181.41ZM1163.25 181.023C1160.16 178.943 1157.07 176.863 1153.92 174.839L1156.96 170.117C1160.11 172.141 1163.25 174.221 1166.4 176.357L1163.25 181.023ZM1144.48 168.937C1141.27 166.969 1138.07 165.057 1134.86 163.146L1137.73 158.311C1140.99 160.223 1144.25 162.19 1147.46 164.158L1144.53 168.937H1144.48ZM1125.14 157.637C1121.88 155.838 1118.62 154.039 1115.3 152.24L1117.94 147.292C1121.26 149.091 1124.58 150.89 1127.84 152.689L1125.08 157.58L1125.14 157.637ZM1105.46 147.068C1102.14 145.381 1098.77 143.694 1095.45 142.008L1097.93 136.948C1101.3 138.579 1104.67 140.321 1107.99 142.008L1105.4 147.011L1105.46 147.068ZM1085.39 137.173C1082.02 135.543 1078.59 133.969 1075.22 132.451L1077.58 127.335C1081.01 128.909 1084.38 130.483 1087.81 132.113L1085.39 137.173ZM1064.98 127.897C1061.55 126.379 1058.12 124.917 1054.7 123.456L1056.89 118.284C1060.32 119.745 1063.8 121.207 1067.23 122.781L1064.98 127.953V127.897ZM1044.35 119.127C1040.87 117.721 1037.38 116.316 1033.95 114.967L1036.03 109.738C1039.52 111.088 1043 112.493 1046.49 113.955L1044.35 119.183V119.127ZM1023.49 110.919C1019.95 109.57 1016.47 108.277 1012.98 106.984L1014.89 101.699C1018.38 102.992 1021.92 104.285 1025.46 105.635L1023.49 110.919ZM1002.41 103.217C998.814 101.924 995.273 100.744 991.787 99.5629L993.586 94.2222C997.072 95.4028 1000.61 96.6396 1004.27 97.9326L1002.41 103.217ZM981.162 95.9649C977.508 94.7844 973.91 93.6038 970.48 92.5356L972.167 87.1949C975.653 88.3192 979.25 89.4436 982.905 90.6804L981.162 96.0212V95.9649ZM959.743 89.1625C955.976 88.0381 952.378 86.97 949.005 85.9581L950.579 80.5611C954.008 81.573 957.606 82.6412 961.429 83.7655L959.799 89.1625H959.743ZM938.155 82.866C934.163 81.7417 930.509 80.786 927.305 79.9427L928.766 74.4895C931.971 75.3328 935.625 76.3447 939.673 77.4691L938.155 82.866Z" fill="#70483A"/>
<path d="M911.395 2.81079C900.039 2.81079 890.819 12.0306 890.819 23.3867C890.819 31.9882 902.512 58.3546 908.303 70.7789C909.483 73.4212 913.25 73.4212 914.487 70.7789C920.221 58.3546 931.971 31.9882 931.971 23.3867C931.971 12.0306 922.751 2.81079 911.395 2.81079ZM911.395 31.7071C906.335 31.7071 902.231 27.6031 902.231 22.5435C902.231 17.4838 906.335 13.4361 911.395 13.4361C916.455 13.4361 920.502 17.54 920.502 22.5435C920.502 27.5469 916.398 31.7071 911.395 31.7071Z" fill="#A20000"/>
<path d="M911.395 75.5576H911.339C908.865 75.5576 906.729 74.1521 905.773 71.9034C900.433 60.4911 888.064 32.8316 888.064 23.3869C888.064 10.5129 898.577 0 911.451 0C924.325 0 934.838 10.5129 934.838 23.3869C934.838 31.7634 925.169 54.4195 917.073 71.9596C916.005 74.2084 913.869 75.5576 911.395 75.5576ZM911.395 5.62185C901.613 5.62185 893.63 13.6049 893.63 23.3869C893.63 30.1893 902.513 51.721 910.833 69.5984C910.833 69.7109 911.002 69.9358 911.339 69.9358C911.676 69.9358 911.789 69.8795 911.901 69.5984C922.864 45.8743 929.104 29.0649 929.104 23.3869C929.104 13.6049 921.121 5.62185 911.339 5.62185H911.395ZM911.395 34.5181C904.818 34.5181 899.421 29.1212 899.421 22.5436C899.421 15.966 904.818 10.6253 911.395 10.6253C917.973 10.6253 923.313 15.966 923.313 22.5436C923.313 29.1212 917.973 34.5181 911.395 34.5181ZM911.395 16.2471C907.91 16.2471 905.042 19.0581 905.042 22.5436C905.042 26.0291 907.91 28.8963 911.395 28.8963C914.881 28.8963 917.692 26.0291 917.692 22.5436C917.692 19.0581 914.881 16.2471 911.395 16.2471Z" fill="#491C1C"/>
<path d="M991.986 3170.06C972.92 3161.11 953.109 3153.24 935.205 3142.46C929.651 3138.15 924.346 3133.42 920.118 3126.88C919.787 3126.38 920.201 3125.72 920.781 3125.8C935.951 3127.12 947.721 3134.42 958.995 3143.7C970.351 3151.91 981.707 3160.2 992.732 3169.07C993.312 3169.48 992.732 3170.48 992.068 3170.15L991.986 3170.06Z" fill="#70483A"/>
<path d="M936.614 3187.8C941.339 3174.04 946.561 3160.53 951.949 3147.02C956.591 3132.76 962.808 3119.83 975.076 3110.13C975.49 3109.8 976.236 3110.13 976.154 3110.71C975.822 3126.38 969.356 3139.14 960.818 3151.49C953.358 3163.93 945.815 3176.28 937.692 3188.38C937.36 3188.96 936.282 3188.55 936.614 3187.8Z" fill="#70483A"/>
</svg>
