<svg width="369" height="64" viewBox="0 0 369 64" fill="none" xmlns="http://www.w3.org/2000/svg">
<g filter="url(#filter0_d_1096_576851)">
<path d="M331.191 18.2193C331.191 18.2193 330.879 18.48 330.41 18.9412C330.172 19.1719 329.882 19.4426 329.592 19.7635C329.45 19.9239 329.279 20.0843 329.064 20.2448C328.878 20.4152 328.677 20.5857 328.476 20.7762C328.052 21.1372 327.665 21.5483 327.137 21.9193C326.623 22.2903 326.177 22.7315 325.589 23.1025C324.994 23.4735 324.488 23.9147 323.834 24.2657C323.194 24.6267 322.599 25.0378 321.907 25.3486L320.918 25.87C320.568 26.0104 320.226 26.1809 319.883 26.3212C319.214 26.6521 318.485 26.8828 317.815 27.1736C317.123 27.4142 316.446 27.6749 315.792 27.8755C315.13 28.076 314.505 28.2966 313.91 28.447C312.719 28.7879 311.693 29.0486 310.964 29.2291C310.227 29.3996 309.796 29.4999 309.796 29.4999C309.796 29.4999 310.22 29.6001 310.964 29.7706C311.693 29.9411 312.719 30.2118 313.91 30.5527C314.505 30.7132 315.13 30.9237 315.792 31.1343C316.446 31.3348 317.123 31.5955 317.815 31.8362C318.485 32.127 319.214 32.3576 319.883 32.6885C320.226 32.8389 320.568 32.9994 320.918 33.1397L321.907 33.6612C322.599 33.972 323.201 34.3831 323.834 34.7341C324.481 35.085 324.994 35.5362 325.589 35.8972C326.177 36.2682 326.623 36.7094 327.137 37.0804C327.658 37.4514 328.052 37.8625 328.476 38.2235C328.677 38.404 328.878 38.5845 329.064 38.7449C329.279 38.9054 329.45 39.0658 329.592 39.2363C329.889 39.5571 330.18 39.8279 330.41 40.0585C330.879 40.5197 331.191 40.7805 331.191 40.7805C331.191 40.7805 331.139 40.4496 330.983 39.868C330.901 39.5772 330.804 39.2262 330.663 38.8252C330.559 38.414 330.284 38.0029 330.023 37.5216C329.755 37.0503 329.503 36.5189 329.056 36.0376C328.625 35.5463 328.238 34.9747 327.665 34.4934C327.382 34.2528 327.1 34.0021 326.809 33.7414L326.371 33.3603C326.207 33.24 326.028 33.1297 325.865 33.0194C325.188 32.5582 324.496 32.0969 323.707 31.7159L322.554 31.1343C322.152 30.9739 321.736 30.8134 321.334 30.663C320.538 30.3221 319.683 30.1216 318.879 29.8909C318.172 29.7305 317.503 29.5801 316.841 29.4798C317.51 29.3795 318.18 29.2392 318.879 29.0787C319.683 28.8381 320.546 28.6476 321.334 28.3066C321.736 28.1462 322.152 27.9958 322.554 27.8253L323.707 27.2538C324.496 26.8828 325.18 26.4015 325.865 25.9502C326.036 25.8399 326.207 25.7296 326.371 25.6093L326.809 25.2283C327.1 24.9676 327.382 24.7269 327.665 24.4762C328.238 23.9949 328.625 23.4234 329.056 22.9321C329.503 22.4507 329.748 21.9093 330.023 21.448C330.284 20.9768 330.559 20.5556 330.663 20.1445C330.812 19.7434 330.901 19.3925 330.983 19.1117C331.139 18.5301 331.191 18.1992 331.191 18.1992V18.2193Z" fill="white" style="fill:white;fill:white;fill-opacity:1;"/>
<path d="M336.295 14.5198L336.369 15.4323C336.384 15.7331 336.444 16.0339 336.391 16.3347L336.332 17.2271C336.332 17.538 336.22 17.8187 336.161 18.1196C336.086 18.4103 336.057 18.7011 335.923 18.9919L335.595 19.8342C335.298 20.3857 335.045 20.9372 334.643 21.4386C334.457 21.6892 334.279 21.9499 334.056 22.1806C333.825 22.4212 333.646 22.6719 333.401 22.8925C332.932 23.3537 332.426 23.7949 331.891 24.2061C331.34 24.6172 330.775 25.0082 330.165 25.3492C329.86 25.5297 329.555 25.7001 329.235 25.8605C328.93 26.011 328.588 26.1714 328.305 26.2817L324.02 28.5178L329.25 27.8058C330.425 27.5652 331.586 27.3045 332.754 27.0839L334.524 26.8332C335.119 26.753 335.7 26.6427 336.295 26.6126L338.088 26.4722C338.675 26.402 339.271 26.4221 339.866 26.402C340.29 26.402 340.721 26.3719 341.138 26.3719C341.301 26.3719 341.473 26.3719 341.636 26.392L343.407 26.4722C343.994 26.5123 344.575 26.6026 345.155 26.6527C345.743 26.7028 346.301 26.8131 346.866 26.9134C347.431 26.9936 348.004 27.1039 348.547 27.2543C349.113 27.3847 349.656 27.505 350.191 27.6855C351.285 27.9863 352.312 28.3874 353.294 28.8286C353.755 29.0392 354.209 29.2598 354.633 29.5004C354.209 29.7411 353.755 29.9617 353.294 30.1722C352.312 30.6134 351.285 31.0145 350.199 31.3153C349.656 31.4858 349.113 31.6262 348.547 31.7465C347.997 31.8869 347.431 31.9972 346.866 32.0874C346.301 32.1877 345.735 32.298 345.155 32.3481C344.575 32.3983 343.994 32.4885 343.407 32.5286L341.636 32.6088C341.473 32.6189 341.309 32.6289 341.138 32.6289C340.714 32.6289 340.29 32.5988 339.858 32.5988C339.263 32.5788 338.668 32.5988 338.073 32.5286L336.287 32.3883C335.692 32.3582 335.112 32.2479 334.517 32.1677L332.746 31.917C331.571 31.6964 330.41 31.4357 329.242 31.195L324.116 30.5232L328.312 32.7091C328.588 32.8194 328.93 32.9799 329.235 33.1403C329.555 33.3007 329.867 33.4612 330.165 33.6417C330.775 33.9926 331.34 34.3837 331.891 34.7847C332.426 35.2059 332.932 35.6471 333.401 36.1083C333.646 36.3289 333.84 36.5796 334.056 36.8203C334.286 37.0509 334.465 37.3216 334.643 37.5723C335.037 38.0737 335.298 38.6252 335.595 39.1767L335.915 40.0189C336.049 40.2997 336.079 40.5905 336.161 40.8813C336.213 41.1721 336.325 41.4729 336.325 41.7637L336.391 42.6561C336.436 42.9569 336.377 43.2577 336.362 43.5585L336.287 44.471L336.555 43.5786C336.637 43.2778 336.756 42.987 336.778 42.6762L336.897 41.7436C336.957 41.4328 336.897 41.1219 336.897 40.8111C336.875 40.5002 336.897 40.1894 336.808 39.8786L336.615 38.946C336.384 38.3444 336.198 37.7227 335.848 37.1411C335.692 36.8504 335.536 36.5495 335.328 36.2788C335.127 35.998 334.956 35.6972 334.725 35.4365C334.308 34.9051 333.81 34.4037 333.297 33.9224L333.989 34.0528C334.621 34.1731 335.231 34.3034 335.871 34.3736L337.797 34.6143C338.437 34.7045 339.092 34.7045 339.732 34.7446C340.275 34.7647 340.825 34.8148 341.383 34.8148C341.487 34.8148 341.584 34.8148 341.688 34.8148L343.652 34.7747C344.307 34.7547 344.954 34.6745 345.616 34.6243C346.263 34.5842 346.918 34.4839 347.558 34.3837C348.205 34.2934 348.852 34.1731 349.477 34.0227C350.117 33.8823 350.749 33.7419 351.367 33.5414C352.617 33.2005 353.814 32.7593 354.975 32.2579C355.555 31.9972 356.121 31.7265 356.671 31.4256C357.237 31.1148 357.728 30.834 358.315 30.3928L358.762 30.0619L359.394 29.5405L358.762 28.9289L358.308 28.598C357.713 28.1568 357.222 27.876 356.664 27.5652C356.113 27.2543 355.548 26.9936 354.968 26.7329C353.807 26.2316 352.609 25.7803 351.359 25.4394C350.742 25.2389 350.11 25.0985 349.47 24.9581C348.838 24.8077 348.198 24.6874 347.55 24.5971C346.911 24.4969 346.256 24.3966 345.609 24.3565C344.954 24.3063 344.299 24.2361 343.645 24.2061L341.681 24.176C341.577 24.176 341.473 24.176 341.368 24.176C340.818 24.176 340.267 24.2261 339.724 24.2462C339.077 24.2863 338.422 24.2863 337.79 24.3765L335.863 24.6071C335.223 24.6773 334.613 24.8177 333.981 24.928L333.304 25.0584C333.81 24.5771 334.301 24.0857 334.718 23.5543C334.948 23.2836 335.127 22.9928 335.328 22.712C335.528 22.4312 335.685 22.1405 335.841 21.8396C336.191 21.2681 336.384 20.6364 336.607 20.0347L336.801 19.1022C336.882 18.7914 336.868 18.4705 336.882 18.1697C336.882 17.8588 336.949 17.548 336.882 17.2372L336.771 16.3046C336.749 15.9938 336.63 15.693 336.54 15.4022L336.272 14.5098L336.295 14.5198Z" fill="white" style="fill:white;fill:white;fill-opacity:1;"/>
<path d="M339.032 27.4043C331.764 27.4043 327.1 29.51 327.1 29.51C327.1 29.51 331.764 31.6157 339.032 31.6157C342.67 31.6157 346.955 31.0843 351.635 29.51C346.955 27.9357 342.663 27.4043 339.032 27.4043Z" fill="white" style="fill:white;fill:white;fill-opacity:1;"/>
<path d="M346.263 22.4409C345.527 22.481 344.828 22.5111 344.188 22.5412C343.541 22.5612 342.96 22.6014 342.44 22.6715C341.926 22.7217 341.472 22.7718 341.108 22.822C340.371 22.9022 339.955 22.9523 339.955 22.9523C339.955 22.9523 340.379 22.9523 341.123 22.9523C341.495 22.9523 341.934 22.9523 342.454 22.9523C342.507 22.9523 342.551 22.9523 342.603 22.9523C343.079 22.9523 343.615 22.9724 344.18 23.0225C344.813 23.0626 345.482 23.1127 346.204 23.1528C346.911 23.2431 347.655 23.3434 348.428 23.4537C349.202 23.5439 349.968 23.7445 350.742 23.8949C351.53 24.0352 352.282 24.2959 353.056 24.4965C353.807 24.7271 354.536 25.0079 355.243 25.2586C355.92 25.5694 356.619 25.8201 357.214 26.161C357.519 26.3214 357.817 26.4819 358.107 26.6323C358.382 26.8027 358.65 26.9732 358.903 27.1336C359.431 27.4545 359.863 27.8055 360.272 28.1063C360.659 28.4272 361.016 28.7179 361.283 28.9987C361.492 29.1892 361.641 29.3497 361.782 29.5101C361.641 29.6705 361.484 29.841 361.283 30.0215C361.016 30.3022 360.651 30.593 360.272 30.9139C359.863 31.2147 359.431 31.5657 358.903 31.8765C358.65 32.047 358.382 32.2074 358.107 32.3779C357.809 32.5383 357.512 32.6887 357.214 32.8491C356.619 33.1901 355.92 33.4407 355.243 33.7516C354.529 34.0023 353.807 34.283 353.056 34.5137C352.282 34.7142 351.53 34.9649 350.742 35.1153C349.961 35.2657 349.194 35.4562 348.428 35.5565C347.655 35.6668 346.911 35.757 346.204 35.8573C345.482 35.9074 344.813 35.9576 344.18 35.9977C343.615 36.0478 343.079 36.0679 342.611 36.0679C342.559 36.0679 342.507 36.0679 342.454 36.0679C341.934 36.0679 341.495 36.0679 341.123 36.0679C340.371 36.0679 339.955 36.0679 339.955 36.0679C339.955 36.0679 340.371 36.118 341.108 36.1982C341.472 36.2383 341.926 36.2885 342.44 36.3486C342.953 36.4088 343.541 36.4589 344.188 36.479C344.828 36.5091 345.527 36.5392 346.263 36.5793C347.007 36.5793 347.788 36.5592 348.599 36.5492C349.418 36.5492 350.251 36.4288 351.114 36.3687C351.977 36.3186 352.825 36.1381 353.695 36.0177C354.551 35.8673 355.406 35.6668 356.247 35.4662C357.058 35.2156 357.899 35.025 358.643 34.7142C359.029 34.5738 359.401 34.4334 359.773 34.2931C360.123 34.1326 360.48 33.9822 360.815 33.8318C361.499 33.531 362.094 33.1901 362.652 32.8792C363.195 32.5483 363.701 32.2475 364.11 31.9467C364.534 31.6659 364.877 31.3651 365.167 31.1445C365.45 30.8938 365.658 30.7134 365.836 30.5329C365.978 30.3825 366.052 30.3022 366.052 30.3022L366.655 29.5001L366.052 28.6979C366.052 28.6979 365.978 28.6177 365.836 28.4773C365.665 28.2968 365.45 28.1063 365.167 27.8656C364.877 27.635 364.534 27.3442 364.11 27.0635C363.701 26.7526 363.188 26.4518 362.652 26.1209C362.094 25.8201 361.499 25.4691 360.815 25.1783C360.48 25.0279 360.13 24.8675 359.773 24.7171C359.409 24.5867 359.037 24.4464 358.643 24.2959C357.899 23.9951 357.058 23.8046 356.247 23.5539C355.406 23.3534 354.551 23.1528 353.695 23.0024C352.825 22.8821 351.977 22.7016 351.114 22.6515C350.251 22.5913 349.418 22.4911 348.599 22.481C347.788 22.461 347.007 22.4509 346.263 22.4409Z" fill="white" style="fill:white;fill:white;fill-opacity:1;"/>
<path d="M297.008 29.5103C297.008 29.5103 298.302 29.791 300.512 30.3826C302.728 30.9441 305.868 31.8366 309.469 33.1702C313.077 34.4837 317.168 36.2385 321.089 38.6149C323.053 39.7881 324.957 41.1318 326.624 42.6659C328.312 44.17 329.763 45.9047 330.574 47.7698C331.415 49.6248 331.534 51.6202 330.753 53.4051C330.656 53.6056 330.537 53.9064 330.47 54.0067C330.321 54.2373 330.172 54.508 330.023 54.7086C329.771 55.0295 329.458 55.3604 329.079 55.6712C328.32 56.2628 327.375 56.6739 326.356 56.8845C325.761 57.0048 325.143 57.065 324.526 57.065C323.008 57.065 321.491 56.7241 320.337 56.1525C318.574 55.2501 317.443 53.8763 317.414 52.5126C317.414 51.8308 317.674 51.169 318.091 50.6075C318.5 50.0058 318.998 49.6749 319.683 49.4644C320.055 49.3541 320.442 49.3039 320.814 49.3039C321.766 49.3039 322.659 49.6248 323.202 50.056C323.983 50.6676 324.161 51.4397 324.117 51.9311C324.072 52.4324 323.96 52.7031 323.96 52.7031C323.96 52.7031 324.132 52.4625 324.273 51.9511C324.414 51.4698 324.437 50.5674 323.603 49.7451C322.949 49.0934 321.773 48.5318 320.345 48.5318C320.04 48.5318 319.72 48.5619 319.393 48.6121C318.939 48.7023 318.478 48.8527 318.054 49.0833C317.845 49.1936 317.644 49.324 317.444 49.4944C317.332 49.5847 317.28 49.6348 317.198 49.705C317.124 49.7552 317.012 49.9056 316.96 49.9657C316.372 50.6275 315.904 51.4798 315.799 52.4525C315.584 54.4178 317.109 56.3831 319.132 57.5463C320.784 58.4989 322.763 59.0103 324.846 59.0103C325.523 59.0103 326.207 58.9601 326.906 58.8498C328.312 58.6092 329.726 58.0777 330.857 57.2354C331.407 56.8143 331.906 56.323 332.352 55.7414C332.538 55.4807 332.664 55.2601 332.828 55.0194C333.044 54.6585 333.111 54.4379 333.26 54.137C334.279 51.8709 334.19 49.2337 333.118 47.0177C332.099 44.7716 330.41 42.8564 328.543 41.222C326.661 39.5876 324.57 38.2239 322.45 37.0507C320.345 35.8575 318.165 34.9049 316.075 34.0726C313.992 33.2303 311.938 32.5786 310.041 32.0271C306.232 30.9241 302.937 30.3726 300.645 29.9815C299.5 29.791 298.585 29.7008 297.967 29.6306C297.342 29.5604 297.015 29.5203 297.015 29.5203L297.008 29.5103Z" fill="white" style="fill:white;fill:white;fill-opacity:1;"/>
<path d="M324.823 0.0100272C322.74 0.0100272 320.776 0.521414 319.125 1.46397C317.109 2.63715 315.583 4.60248 315.792 6.56781C315.896 7.53042 316.365 8.38273 316.952 9.04453C317.012 9.10469 317.123 9.24507 317.19 9.30523C317.272 9.38545 317.324 9.43559 317.436 9.52583C317.637 9.69629 317.838 9.82665 318.046 9.93695C318.477 10.1676 318.931 10.318 319.385 10.4082C319.712 10.4684 320.032 10.4884 320.345 10.4884C321.766 10.4884 322.941 9.92692 323.596 9.28518C324.436 8.46295 324.407 7.57053 324.265 7.0792C324.124 6.56781 323.953 6.32716 323.953 6.32716C323.953 6.32716 324.072 6.59789 324.109 7.09925C324.161 7.59058 323.975 8.36268 323.194 8.97434C322.643 9.40551 321.758 9.72638 320.806 9.72638C320.434 9.72638 320.055 9.67624 319.675 9.56594C318.991 9.35537 318.492 9.02447 318.083 8.43287C317.667 7.85129 317.406 7.19952 317.406 6.51767C317.436 5.15398 318.567 3.78025 320.33 2.8778C321.483 2.30625 323.008 1.9553 324.526 1.9553C325.143 1.9553 325.753 2.01547 326.348 2.13579C327.367 2.34636 328.312 2.75748 329.071 3.34908C329.45 3.65992 329.763 3.99082 330.016 4.31169C330.165 4.51224 330.313 4.77294 330.462 5.00357C330.537 5.1239 330.648 5.41468 330.745 5.61523C331.526 7.40007 331.407 9.39548 330.566 11.2505C329.756 13.1256 328.305 14.8503 326.616 16.3543C324.95 17.8885 323.045 19.2422 321.081 20.4053C317.161 22.7718 313.069 24.5365 309.461 25.8501C305.853 27.1737 302.713 28.0761 300.504 28.6377C298.294 29.2192 297 29.5 297 29.5C297 29.5 297.327 29.4699 297.952 29.3897C298.57 29.3195 299.485 29.2293 300.63 29.0387C302.922 28.6577 306.21 28.1062 310.026 26.9932C311.923 26.4517 313.977 25.7899 316.06 24.9577C318.15 24.1154 320.33 23.1628 322.435 21.9796C324.555 20.7964 326.646 19.4327 328.528 17.7983C330.395 16.1638 332.077 14.2486 333.103 12.0025C334.174 9.78654 334.264 7.14939 333.245 4.88324C333.096 4.58243 333.021 4.36183 332.813 4.00085C332.649 3.7602 332.523 3.5396 332.337 3.27889C331.891 2.69731 331.4 2.20598 330.842 1.78484C329.703 0.942556 328.297 0.401088 326.891 0.170462C326.192 0.0601632 325.5 0 324.823 0V0.0100272Z" fill="white" style="fill:white;fill:white;fill-opacity:1;"/>
</g>
<g filter="url(#filter1_d_1096_576851)">
<path d="M173.95 19.7939C170.403 19.7939 167.526 24.1457 167.526 29.5003C167.526 34.8548 170.403 39.2166 173.95 39.2166C177.498 39.2166 180.375 34.8648 180.375 29.5003C180.375 24.1357 177.498 19.7939 173.95 19.7939Z" fill="white" style="fill:white;fill:white;fill-opacity:1;"/>
<path d="M180.349 24.5972C180.847 26.0712 181.134 27.7357 181.134 29.5105C181.134 31.2853 180.847 32.9498 180.349 34.4338L311 29.5105L180.349 24.5972Z" fill="white" style="fill:white;fill:white;fill-opacity:1;"/>
<path d="M167.555 24.5972L36.9009 29.5105L167.555 34.4338C167.058 32.9498 166.771 31.2853 166.771 29.5105C166.771 27.7357 167.058 26.0812 167.555 24.5972Z" fill="white" style="fill:white;fill:white;fill-opacity:1;"/>
</g>
<g filter="url(#filter2_d_1096_576851)">
<path d="M37.4562 18.2197C37.4562 18.2197 37.5083 18.5506 37.672 19.1322C37.7464 19.413 37.8505 19.7739 37.9919 20.165C38.096 20.5761 38.3713 20.9872 38.6317 21.4685C38.9069 21.9398 39.1524 22.4713 39.5988 22.9526C40.0303 23.4439 40.4171 24.0154 40.9899 24.4967C41.2726 24.7474 41.5553 24.9881 41.8455 25.2488L42.2918 25.6298C42.4555 25.7501 42.634 25.8604 42.7977 25.9707C43.4747 26.422 44.1665 26.9033 44.9551 27.2743L46.1082 27.8458C46.5099 28.0063 46.9265 28.1667 47.3283 28.3271C48.1243 28.6681 48.9873 28.8586 49.7907 29.0992C50.49 29.2597 51.167 29.4 51.8291 29.5003C51.167 29.6006 50.49 29.751 49.7907 29.9114C48.9873 30.1421 48.1243 30.3426 47.3283 30.6835C46.9265 30.8339 46.5174 30.9944 46.1082 31.1548L44.9551 31.7364C44.1665 32.1174 43.4821 32.5787 42.7977 33.0399C42.634 33.1502 42.4555 33.2605 42.2918 33.3808L41.8455 33.7619C41.5553 34.0126 41.2726 34.2632 40.9899 34.5139C40.4171 35.0052 40.0303 35.5668 39.5988 36.0581C39.1524 36.5494 38.9069 37.0809 38.6317 37.5421C38.3713 38.0134 38.096 38.4345 37.9919 38.8457C37.8505 39.2467 37.7538 39.5977 37.672 39.8885C37.5083 40.4701 37.4562 40.801 37.4562 40.801C37.4562 40.801 37.7613 40.5403 38.2374 40.079C38.468 39.8484 38.7656 39.5776 39.0557 39.2568C39.197 39.0963 39.3682 38.9259 39.5765 38.7654C39.7699 38.605 39.9633 38.4245 40.1642 38.244C40.5882 37.8831 40.9825 37.4719 41.5033 37.1009C42.0166 36.7299 42.4704 36.2887 43.0506 35.9177C43.6458 35.5467 44.1517 35.1055 44.8063 34.7546C45.4461 34.4036 46.0413 33.9825 46.7331 33.6817L47.73 33.1602C48.0796 33.0199 48.4219 32.8594 48.7641 32.709C49.4336 32.3781 50.1627 32.1475 50.8248 31.8567C51.5241 31.6161 52.1936 31.3553 52.8557 31.1548C53.5178 30.9442 54.1353 30.7337 54.7379 30.5732C55.9207 30.2323 56.9474 29.9716 57.6839 29.7911C58.4204 29.6206 58.8444 29.5204 58.8444 29.5204C58.8444 29.5204 58.4204 29.4201 57.6839 29.2496C56.9474 29.0691 55.9207 28.8084 54.7379 28.4675C54.1353 28.3071 53.5178 28.0965 52.8557 27.896C52.2011 27.6954 51.5241 27.4347 50.8248 27.1941C50.1552 26.9033 49.4262 26.6727 48.7641 26.3418C48.4219 26.1913 48.0796 26.0309 47.73 25.8905L46.7331 25.3691C46.0487 25.0583 45.4461 24.6472 44.8063 24.2862C44.1591 23.9352 43.6458 23.494 43.0506 23.123C42.4629 22.752 42.0091 22.3108 41.5033 21.9398C40.9825 21.5688 40.5882 21.1577 40.1642 20.7967C39.9707 20.6062 39.7699 20.4357 39.5765 20.2653C39.3682 20.1048 39.197 19.9444 39.0557 19.784C38.7581 19.4631 38.468 19.1924 38.2374 18.9617C37.7613 18.5105 37.4562 18.2398 37.4562 18.2398V18.2197Z" fill="white" style="fill:white;fill:white;fill-opacity:1;"/>
<path d="M32.3528 14.5195L32.085 15.412C32.0032 15.7128 31.8842 16.0136 31.8618 16.3144L31.7503 17.2469C31.6907 17.5578 31.7503 17.8686 31.7503 18.1795C31.7651 18.4903 31.7577 18.8112 31.8395 19.112L32.0329 20.0445C32.2636 20.6562 32.457 21.2779 32.8066 21.8494C32.9629 22.1502 33.1191 22.441 33.3274 22.7218C33.5283 23.0025 33.6994 23.2933 33.93 23.5641C34.3466 24.0855 34.845 24.5868 35.3509 25.0681L34.6739 24.9378C34.0416 24.8275 33.4241 24.6871 32.7918 24.6169L30.865 24.3863C30.2326 24.296 29.578 24.296 28.9307 24.2559C28.3877 24.2359 27.8371 24.1857 27.2866 24.1857C27.1825 24.1857 27.0783 24.1857 26.9742 24.1857L25.0102 24.2158C24.3555 24.2359 23.7083 24.3161 23.0462 24.3662C22.3915 24.4063 21.7443 24.5066 21.1045 24.6069C20.4499 24.6971 19.8101 24.8175 19.1852 24.9679C18.5379 25.1082 17.913 25.2486 17.2956 25.4492C16.0532 25.7901 14.848 26.2313 13.6875 26.7427C13.1146 27.0034 12.5418 27.2741 11.9913 27.5749C11.4259 27.8858 10.9349 28.1766 10.3472 28.6077L9.8934 28.9386L9.26849 29.5503L9.90084 30.0717L10.3472 30.4026C10.9424 30.8438 11.4333 31.1246 11.9913 31.4354C12.5418 31.7462 13.1146 32.007 13.6875 32.2677C14.8406 32.769 16.0532 33.2202 17.2956 33.5511C17.913 33.7517 18.5379 33.8921 19.1852 34.0324C19.8101 34.1929 20.4573 34.3032 21.1045 34.3934C21.7517 34.4937 22.399 34.594 23.0462 34.6341C23.7083 34.6842 24.3555 34.7544 25.0102 34.7845L26.9742 34.8246C27.0783 34.8246 27.175 34.8246 27.2792 34.8246C27.8297 34.8246 28.3802 34.7745 28.9307 34.7544C29.578 34.7143 30.2326 34.7143 30.865 34.6241L32.7918 34.3834C33.4316 34.3232 34.0416 34.1829 34.6739 34.0625L35.3583 33.9322C34.845 34.4135 34.354 34.9148 33.93 35.4463C33.6994 35.707 33.5283 36.0078 33.3274 36.2886C33.1117 36.5593 32.9554 36.8601 32.7992 37.1509C32.4496 37.7325 32.2636 38.3642 32.0404 38.9558L31.847 39.8883C31.7577 40.1992 31.78 40.51 31.7503 40.8209C31.7503 41.1317 31.6907 41.4425 31.7503 41.7534L31.8693 42.6859C31.8916 42.9968 32.0032 43.2875 32.0925 43.5884L32.3603 44.4808L32.2859 43.5683C32.271 43.2675 32.2115 42.9566 32.2561 42.6659L32.3231 41.7734C32.3231 41.4726 32.4347 41.1818 32.4942 40.891C32.5686 40.6003 32.5983 40.2994 32.7323 40.0287L33.0596 39.1864C33.3572 38.6349 33.6175 38.0834 34.0044 37.5821C34.1904 37.3314 34.3689 37.0607 34.5995 36.83C34.8153 36.5894 35.0013 36.3387 35.2542 36.1181C35.7229 35.6568 36.2288 35.2157 36.7644 34.7945C37.3149 34.3934 37.8803 34.0024 38.4903 33.6514C38.7879 33.4709 39.0929 33.3005 39.4128 33.1501C39.7178 32.9896 40.06 32.8292 40.3353 32.7189L44.5311 30.533L39.4054 31.2048C38.2374 31.4354 37.0694 31.6961 35.9014 31.9267L34.1308 32.1774C33.5357 32.2576 32.9554 32.3579 32.3528 32.398L30.5674 32.5384C29.9722 32.6086 29.3845 32.5885 28.7819 32.6086C28.3579 32.6086 27.9264 32.6387 27.5024 32.6387C27.3387 32.6387 27.1676 32.6387 27.0039 32.6186L25.2334 32.5384C24.6457 32.4983 24.0654 32.408 23.4926 32.3579C22.9048 32.3078 22.3469 32.1975 21.7815 32.0972C21.2087 32.007 20.6433 31.8967 20.0928 31.7563C19.5274 31.6359 18.9843 31.4956 18.4487 31.3251C17.3551 31.0243 16.3359 30.6232 15.3539 30.182C14.8927 29.9714 14.4389 29.7508 14.0148 29.5102C14.4389 29.2695 14.8927 29.0489 15.3539 28.8384C16.3359 28.3972 17.3625 27.9961 18.4561 27.6953C18.9843 27.5148 19.5348 27.3844 20.1002 27.2641C20.6507 27.1237 21.2087 27.0134 21.7889 26.9232C22.3543 26.8229 22.9123 26.7026 23.5 26.6625C24.0728 26.6023 24.6605 26.5121 25.2408 26.482L27.0114 26.4018C27.175 26.3917 27.3387 26.3817 27.5098 26.3817C27.9339 26.3817 28.3653 26.4118 28.7894 26.4118C29.3845 26.4318 29.9797 26.4118 30.5674 26.482L32.3528 26.6224C32.9554 26.6524 33.5357 26.7527 34.1308 26.8429L35.9014 27.0936C37.0768 27.3142 38.2374 27.5749 39.4054 27.8156L44.6352 28.5275L40.3502 26.2915C40.0675 26.1812 39.7178 26.0207 39.4202 25.8703C39.1003 25.7099 38.8028 25.5394 38.4978 25.3589C37.8877 25.018 37.3149 24.6169 36.7718 24.2158C36.2436 23.8047 35.7303 23.3635 35.2616 22.9023C35.0161 22.6817 34.8301 22.431 34.607 22.1903C34.3838 21.9497 34.2052 21.699 34.0193 21.4483C33.6175 20.947 33.3646 20.3955 33.067 19.844L32.7397 19.0017C32.6058 18.7209 32.576 18.4301 32.5091 18.1293C32.4496 17.8385 32.338 17.5477 32.338 17.2369L32.2784 16.3445C32.2264 16.0437 32.2859 15.7428 32.3008 15.442L32.3752 14.5296L32.3528 14.5195Z" fill="white" style="fill:white;fill:white;fill-opacity:1;"/>
<path d="M29.6225 27.4043C25.9847 27.4043 21.6996 27.9357 17.0203 29.51C21.6996 31.0943 25.9921 31.6157 29.6225 31.6157C36.8908 31.6157 41.5627 29.51 41.5627 29.51C41.5627 29.51 36.8982 27.4043 29.6225 27.4043Z" fill="white" style="fill:white;fill:white;fill-opacity:1;"/>
<path d="M22.3839 22.4414C21.6474 22.4514 20.8662 22.4615 20.0479 22.4815C19.2296 22.4815 18.3964 22.5918 17.5334 22.652C16.6779 22.7121 15.8223 22.8926 14.9519 23.0029C14.0964 23.1533 13.2409 23.3539 12.4002 23.5544C11.5893 23.8051 10.7413 23.9956 10.0048 24.2964C9.61791 24.4368 9.2385 24.5772 8.87397 24.7176C8.52432 24.878 8.17467 25.0284 7.83246 25.1788C7.14804 25.4796 6.55289 25.8206 5.99494 26.1214C5.4593 26.4523 4.94599 26.7531 4.53682 27.0639C4.11278 27.3447 3.77057 27.6455 3.48043 27.8661C3.19774 28.1168 2.982 28.2973 2.81833 28.4778C2.67698 28.6182 2.60259 28.6984 2.60259 28.6984L2 29.5005L2.60259 30.3027C2.60259 30.3027 2.67698 30.3829 2.81833 30.5334C2.982 30.7138 3.19774 30.8943 3.48043 31.145C3.77057 31.3756 4.11278 31.6664 4.53682 31.9472C4.94599 32.258 5.4593 32.5488 5.99494 32.8797C6.55289 33.1805 7.15548 33.5315 7.83246 33.8323C8.17467 33.9827 8.51688 34.1331 8.87397 34.2935C9.2385 34.4239 9.61047 34.5743 10.0048 34.7147C10.7413 35.0255 11.5893 35.206 12.4002 35.4667C13.2483 35.6673 14.0964 35.8678 14.9519 36.0182C15.8223 36.1386 16.6704 36.309 17.5334 36.3692C18.3964 36.4293 19.2296 36.5396 20.0479 36.5497C20.8588 36.5497 21.6399 36.5697 22.3839 36.5797C23.1204 36.5497 23.8197 36.5096 24.4669 36.4795C25.1067 36.4594 25.6944 36.4093 26.2003 36.3491C26.721 36.289 27.1674 36.2388 27.5393 36.1987C28.2684 36.1185 28.685 36.0684 28.685 36.0684C28.685 36.0684 28.261 36.0684 27.517 36.0684C27.1451 36.0684 26.6987 36.0684 26.1779 36.0684C26.1259 36.0684 26.0738 36.0684 26.0217 36.0684C25.5456 36.0684 25.0174 36.0483 24.4594 35.9982C23.8271 35.9581 23.1501 35.9079 22.4359 35.8578C21.7218 35.7675 20.9778 35.6673 20.2116 35.557C19.4379 35.4667 18.6791 35.2662 17.8905 35.1158C17.1093 34.9654 16.3431 34.7147 15.5768 34.5141C14.8255 34.2835 14.0964 34.0128 13.3897 33.7521C12.7127 33.4312 12.0059 33.1906 11.4182 32.8496C11.1132 32.6892 10.8156 32.5288 10.5181 32.3784C10.2503 32.2079 9.975 32.0475 9.72206 31.877C9.19387 31.5662 8.76238 31.2152 8.35322 30.9144C7.96637 30.5935 7.60928 30.3027 7.34146 30.022C7.1406 29.8415 6.98437 29.671 6.84303 29.5106C6.97693 29.3501 7.1406 29.1897 7.34146 28.9992C7.60928 28.7285 7.97381 28.4377 8.35322 28.1068C8.76238 27.806 9.19387 27.455 9.72206 27.1341C9.975 26.9737 10.2503 26.8032 10.5181 26.6328C10.8156 26.4824 11.1132 26.3219 11.4182 26.1615C12.0059 25.8206 12.7127 25.5699 13.3897 25.259C14.1038 25.0084 14.8329 24.7276 15.5768 24.497C16.3431 24.3065 17.1019 24.0458 17.8905 23.8953C18.6716 23.7449 19.4379 23.5544 20.2116 23.4542C20.9853 23.3539 21.7292 23.2536 22.4359 23.1533C23.1501 23.1032 23.8271 23.0631 24.4594 23.023C25.0248 22.9728 25.553 22.9528 26.0291 22.9528C26.0812 22.9528 26.1333 22.9528 26.1779 22.9528C26.6987 22.9528 27.1451 22.9528 27.517 22.9528C28.261 22.9528 28.685 22.9528 28.685 22.9528C28.685 22.9528 28.2684 22.9027 27.5393 22.8224C27.1674 22.7823 26.721 22.7322 26.2003 22.672C25.6869 22.6018 25.1067 22.5617 24.4669 22.5417C23.8197 22.5116 23.1204 22.4815 22.3839 22.4414Z" fill="white" style="fill:white;fill:white;fill-opacity:1;"/>
<path d="M71.6475 29.51C71.6475 29.51 71.3202 29.5501 70.6953 29.6203C70.0853 29.6905 69.1628 29.7808 68.0246 29.9713C65.7332 30.3523 62.4376 30.9038 58.6212 32.0168C56.7242 32.5683 54.6709 33.2201 52.5879 34.0624C50.49 34.8946 48.3177 35.8572 46.2123 37.0404C44.0921 38.2136 42.0017 39.5874 40.1195 41.2118C38.2522 42.8462 36.5709 44.7614 35.5443 47.0075C34.473 49.2235 34.3763 51.8606 35.403 54.1268C35.5517 54.4276 35.6261 54.6482 35.8419 55.0092C36.0055 55.2498 36.1246 55.4704 36.318 55.7311C36.7644 56.3127 37.2628 56.804 37.8133 57.2252C38.9515 58.0675 40.3576 58.6089 41.7636 58.8396C42.4555 58.9499 43.1473 59 43.8243 59C45.9073 59 47.8788 58.4886 49.5377 57.536C51.5538 56.3729 53.0789 54.4075 52.8631 52.4422C52.7664 51.4796 52.2978 50.6273 51.7026 49.9555C51.6505 49.8953 51.5389 49.7549 51.4645 49.6948C51.3902 49.6246 51.3306 49.5644 51.219 49.4842C51.0107 49.3137 50.8173 49.1834 50.609 49.0731C50.1775 48.8425 49.7237 48.692 49.2625 48.6018C48.9352 48.5416 48.6227 48.5216 48.3177 48.5216C46.8968 48.5216 45.7139 49.0831 45.0667 49.7349C44.226 50.5471 44.2558 51.4596 44.3971 51.9409C44.5385 52.4522 44.717 52.6929 44.717 52.6929C44.717 52.6929 44.598 52.4222 44.5534 51.9208C44.5013 51.4295 44.6873 50.6474 45.461 50.0457C46.0115 49.6145 46.8968 49.2937 47.8565 49.2937C48.2284 49.2937 48.6078 49.3438 48.9798 49.4541C49.6642 49.6747 50.1627 49.9956 50.5718 50.5972C50.9884 51.1587 51.2488 51.8205 51.2488 52.5024C51.219 53.8661 50.0883 55.2398 48.3251 56.1423C47.172 56.7138 45.6544 57.0547 44.1442 57.0547C43.5267 57.0547 42.9093 56.9946 42.3141 56.8742C41.2949 56.6637 40.3501 56.2526 39.5913 55.6609C39.2119 55.3501 38.8995 55.0192 38.6465 54.6983C38.4977 54.5078 38.3489 54.2271 38.2002 53.9964C38.1258 53.8861 38.0142 53.5853 37.9175 53.3948C37.1363 51.5999 37.2479 49.6145 38.0886 47.7595C38.9069 45.8844 40.3501 44.1598 42.0389 42.6557C43.7053 41.1215 45.6098 39.7678 47.5738 38.6047C51.4943 36.2282 55.586 34.4735 59.194 33.1599C62.8021 31.8263 65.9341 30.9239 68.151 30.3724C70.3605 29.7808 71.655 29.5 71.655 29.5L71.6475 29.51Z" fill="white" style="fill:white;fill:white;fill-opacity:1;"/>
<path d="M43.8318 0.0102539C43.1548 0.0102539 42.4629 0.0603899 41.7636 0.180716C40.3576 0.411342 38.9515 0.95281 37.8133 1.79509C37.2628 2.21624 36.7644 2.70757 36.318 3.28915C36.132 3.54985 36.0055 3.76042 35.8419 4.0111C35.6261 4.37208 35.5592 4.59268 35.403 4.8935C34.3763 7.15964 34.473 9.79679 35.5443 12.0128C36.5635 14.2589 38.2522 16.1741 40.1195 17.8085C42.0017 19.453 44.0921 20.8167 46.2124 21.9899C48.3177 23.1731 50.49 24.1256 52.5879 24.9679C54.6709 25.8002 56.7242 26.462 58.6212 27.0035C62.4376 28.1165 65.7332 28.668 68.0246 29.049C69.1628 29.2395 70.0853 29.3298 70.6953 29.4C71.3202 29.4701 71.6475 29.5103 71.6475 29.5103C71.6475 29.5103 70.3531 29.2295 68.1436 28.6479C65.9267 28.0864 62.7873 27.1839 59.1866 25.8604C55.5785 24.5468 51.4869 22.782 47.5663 20.4156C45.6023 19.2424 43.6978 17.8988 42.0314 16.3646C40.3427 14.8605 38.8995 13.1358 38.0811 11.2608C37.2405 9.40573 37.1214 7.41032 37.91 5.62548C38.0067 5.42494 38.1183 5.13415 38.1927 5.01382C38.3415 4.7832 38.4903 4.52249 38.6391 4.32195C38.892 4.00108 39.2045 3.67018 39.5839 3.35934C40.3427 2.76773 41.2875 2.35662 42.3067 2.14605C42.8944 2.02572 43.5119 1.96556 44.1219 1.96556C45.6395 1.96556 47.1646 2.30648 48.3177 2.88806C50.0883 3.78048 51.219 5.1542 51.2414 6.52793C51.2414 7.20978 50.981 7.86154 50.5644 8.44312C50.1552 9.03473 49.6568 9.36562 48.9724 9.57619C48.6004 9.68649 48.2135 9.73663 47.8416 9.73663C46.8893 9.73663 45.9966 9.41576 45.4535 8.98459C44.6724 8.37293 44.4939 7.59081 44.5459 7.10951C44.5831 6.60815 44.7096 6.33741 44.7096 6.33741C44.7096 6.33741 44.5311 6.57806 44.3897 7.08945C44.2484 7.58078 44.226 8.48323 45.0592 9.29543C45.7139 9.93717 46.8819 10.4987 48.3028 10.4987C48.6078 10.4987 48.9277 10.4686 49.2551 10.4185C49.7163 10.3383 50.1701 10.1778 50.6016 9.9472C50.8099 9.8369 51.0033 9.70655 51.2116 9.53609C51.3232 9.44584 51.3827 9.39571 51.4571 9.31549C51.5315 9.26535 51.6431 9.12497 51.6952 9.05478C52.2903 8.39299 52.759 7.54068 52.8557 6.57806C53.0714 4.61273 51.5464 2.64741 49.5303 1.47422C47.8788 0.531668 45.9073 0.0202811 43.8318 0.0202811V0.0102539Z" fill="white" style="fill:white;fill:white;fill-opacity:1;"/>
</g>
<defs>
<filter id="filter0_d_1096_576851" x="295" y="0" width="73.6547" height="63.0103" filterUnits="userSpaceOnUse" color-interpolation-filters="sRGB">
<feFlood flood-opacity="0" result="BackgroundImageFix"/>
<feColorMatrix in="SourceAlpha" type="matrix" values="0 0 0 0 0 0 0 0 0 0 0 0 0 0 0 0 0 0 127 0" result="hardAlpha"/>
<feOffset dy="2"/>
<feGaussianBlur stdDeviation="1"/>
<feComposite in2="hardAlpha" operator="out"/>
<feColorMatrix type="matrix" values="0 0 0 0 0 0 0 0 0 0 0 0 0 0 0 0 0 0 0.5 0"/>
<feBlend mode="normal" in2="BackgroundImageFix" result="effect1_dropShadow_1096_576851"/>
<feBlend mode="normal" in="SourceGraphic" in2="effect1_dropShadow_1096_576851" result="shape"/>
</filter>
<filter id="filter1_d_1096_576851" x="34.9009" y="19.7939" width="278.099" height="23.4226" filterUnits="userSpaceOnUse" color-interpolation-filters="sRGB">
<feFlood flood-opacity="0" result="BackgroundImageFix"/>
<feColorMatrix in="SourceAlpha" type="matrix" values="0 0 0 0 0 0 0 0 0 0 0 0 0 0 0 0 0 0 127 0" result="hardAlpha"/>
<feOffset dy="2"/>
<feGaussianBlur stdDeviation="1"/>
<feComposite in2="hardAlpha" operator="out"/>
<feColorMatrix type="matrix" values="0 0 0 0 0 0 0 0 0 0 0 0 0 0 0 0 0 0 0.5 0"/>
<feBlend mode="normal" in2="BackgroundImageFix" result="effect1_dropShadow_1096_576851"/>
<feBlend mode="normal" in="SourceGraphic" in2="effect1_dropShadow_1096_576851" result="shape"/>
</filter>
<filter id="filter2_d_1096_576851" x="0" y="0.0102539" width="73.655" height="62.9897" filterUnits="userSpaceOnUse" color-interpolation-filters="sRGB">
<feFlood flood-opacity="0" result="BackgroundImageFix"/>
<feColorMatrix in="SourceAlpha" type="matrix" values="0 0 0 0 0 0 0 0 0 0 0 0 0 0 0 0 0 0 127 0" result="hardAlpha"/>
<feOffset dy="2"/>
<feGaussianBlur stdDeviation="1"/>
<feComposite in2="hardAlpha" operator="out"/>
<feColorMatrix type="matrix" values="0 0 0 0 0 0 0 0 0 0 0 0 0 0 0 0 0 0 0.5 0"/>
<feBlend mode="normal" in2="BackgroundImageFix" result="effect1_dropShadow_1096_576851"/>
<feBlend mode="normal" in="SourceGraphic" in2="effect1_dropShadow_1096_576851" result="shape"/>
</filter>
</defs>
</svg>
