<svg width="50" height="113" viewBox="0 0 50 113" fill="none" xmlns="http://www.w3.org/2000/svg">
<path d="M44.7725 93.6675L44.6827 79.1954C42.3169 78.6718 40.9892 78.3066 40.9892 78.3066C37.7107 75.8527 37.4056 72.6299 37.4056 72.6299C40.637 63.5491 39.8783 30.984 39.8783 30.984C50.009 12.7555 34.3153 0.906982 34.3153 0.906982C34.3153 0.906982 17.0601 16.3007 8.3798 28.8483C7.1206 30.6673 6.07388 32.6204 5.22396 34.6634C4.3555 36.752 2.69843 39.9563 0.318359 41.2417C0.318359 41.2417 2.57151 41.7225 6.14233 40.1546C6.14233 40.1546 2.91662 41.48 0.318359 49.1212C0.318359 49.1212 2.82678 46.8314 6.56017 45.118C6.56017 45.118 2.50877 50.6891 4.62645 56.9337C4.62645 56.9337 5.89135 53.6381 7.90208 51.8105C8.36269 51.3911 9.10709 51.635 9.23971 52.2442C10.5802 58.3874 17.1814 86.1846 28.9648 96.6421C28.9648 96.6421 20.919 102.477 33.6208 110.3C33.6208 110.3 41.1946 113.437 46.3012 109.2C51.4079 104.964 48.7184 96.1214 44.7711 93.6675H44.7725Z" fill="#C8AA86"/>
<path opacity="0.26" d="M44.7718 93.6675L44.749 89.9867C42.8923 88.1006 41.0569 86.6711 41.1739 86.5256C41.934 85.5783 42.1521 79.0527 42.1521 79.0527L42.0922 78.5905C41.3735 78.4121 40.9871 78.3066 40.9871 78.3066C37.7086 75.8527 37.4034 72.6299 37.4034 72.6299C40.6348 63.5491 39.8762 30.984 39.8762 30.984C50.0068 12.7555 34.3132 0.906982 34.3132 0.906982C34.3132 0.906982 30.5527 4.2625 25.6599 9.11603C28.7587 9.98915 40.525 13.9139 37.4676 22.444C36.8929 24.0461 36.5749 25.7281 36.5492 27.4302C36.4294 35.3696 35.638 56.2945 30.6525 59.5545C30.6525 59.5545 35.3699 59.5445 36.2412 57.4387C36.2412 57.4387 34.9563 63.4607 30.6725 64.9644C30.6725 64.9644 34.5542 66.1884 35.8005 63.5562C35.8005 63.5562 34.3474 74.4474 29.6029 79.5763C29.6029 79.5763 37.0055 74.9553 37.4833 81.538C37.9596 88.1206 31.0247 109.909 35.0134 111.755C37.6786 112.99 39.0762 109.934 39.0762 109.934C39.0762 109.934 40.5635 112.391 44.0089 110.288C46.9123 108.516 47.2631 102.921 47.9875 99.1859C47.2902 96.6264 46.1436 94.5207 44.7704 93.6675H44.7718Z" fill="#6D3005"/>
<path d="M32.102 41.5813C31.7498 43.8382 30.6816 46.6916 29.1158 48.3836C29.0602 48.4507 28.949 48.5391 28.8834 48.5976L28.6324 48.8073C28.2531 49.1241 27.7041 49.1055 27.3475 48.7845C26.7286 48.2467 26.2224 47.5904 25.8488 46.8599C25.9728 47.1224 26.3408 47.2195 26.5789 47.0625C25.9657 47.4063 25.304 47.6674 24.6495 47.8786C24.109 48.1083 23.4687 47.8472 23.2904 47.2765C23.0323 46.1523 22.9368 45.0124 22.9796 43.8596C23.048 42.7526 23.2106 41.5328 23.9507 40.6582C23.8922 41.2103 23.9521 41.7196 24.0348 42.2261C24.2815 43.5986 24.7151 44.9525 25.1529 46.2736L25.2741 46.616L23.8937 45.9354C24.4441 45.6744 24.9689 45.409 25.4751 45.0966C26.1397 44.7071 27.0438 44.8355 27.5743 45.3919C27.8438 45.6587 27.9636 46.0196 28.1789 46.3264C28.3486 46.5874 28.5469 46.8428 28.7565 47.0739L27.3946 46.9812C27.4331 46.9512 27.473 46.9227 27.513 46.8942C27.7682 46.7215 27.9893 46.4719 28.2117 46.2522C29.5636 44.7542 30.723 43.0764 32.1091 41.5798L32.102 41.5813Z" fill="#84654A"/>
<path d="M31.6501 68.5197C31.6786 69.9506 31.0925 71.3302 30.1014 72.3688C29.7435 72.7255 29.3142 73.0593 28.7638 73.2919C28.1007 73.5829 27.3178 73.1421 27.2108 72.4287C27.2008 72.3788 27.178 72.2718 27.1638 72.2219C27.0996 71.9494 27.0112 71.674 26.9085 71.4329C26.9085 71.4101 26.8201 71.2931 26.8072 71.2717C26.2112 70.3144 26.4108 68.882 26.937 67.959C27.0668 67.7464 27.2251 67.5281 27.4518 67.4111C27.4632 67.8677 27.6215 68.2443 27.7598 68.6538C27.8996 69.0318 28.0465 69.4028 28.2076 69.7052C28.2932 69.8721 28.373 69.9934 28.4486 70.0448C28.4529 70.0334 28.4515 70.0177 28.4458 70.0105L28.4572 70.0219C28.9092 70.4699 29.1873 71.0406 29.3584 71.6241C29.3969 71.7653 29.4297 71.888 29.4568 72.0393L27.9039 71.1761C28.4529 70.9421 29.0789 70.4628 29.5766 70.0704C30.2055 69.5797 30.957 68.9576 31.6487 68.5168L31.6501 68.5197Z" fill="#84654A"/>
<g opacity="0.26">
<path d="M6.14428 40.1532C6.14428 40.1532 6.07691 40.1819 5.95508 40.2507L6.14428 40.1532Z" fill="#6D3005"/>
<path d="M6.14404 40.1532L9.88741 36.6364C6.88559 35.4837 4.11335 38.3014 3.12795 39.4698C2.84845 39.8022 2.50905 40.0761 2.12544 40.2802L0.320068 41.2389C0.320068 41.2389 2.57322 41.7197 6.14404 40.1518V40.1532Z" fill="#6D3005"/>
</g>
<path opacity="0.26" d="M11.7926 43.2405C7.71697 38.8492 0.320068 49.1198 0.320068 49.1198C0.320068 49.1198 2.82848 46.83 6.56188 45.1165L11.7926 43.239V43.2405Z" fill="#6D3005"/>
<path opacity="0.26" d="M7.90348 51.8105C7.93058 51.7863 7.9591 51.7635 7.98762 51.7435C8.00758 51.7292 8.02755 51.7192 8.04751 51.7064C8.05607 51.7021 8.06462 51.6964 8.07318 51.6907C8.10028 51.6764 8.1288 51.665 8.15589 51.6536C8.15732 51.6536 8.15874 51.6536 8.16017 51.6522C8.19012 51.6408 8.22006 51.6322 8.25144 51.6237L8.26285 51.5994L8.26855 51.6194C8.31989 51.608 8.37122 51.6023 8.42256 51.6008C8.42541 51.6008 8.42827 51.6008 8.43112 51.6008C8.53237 51.6008 8.63219 51.6165 8.72488 51.6522C8.73059 51.6536 8.73629 51.6565 8.742 51.6593C8.7862 51.6764 8.82899 51.6978 8.87034 51.7221C8.87034 51.7221 8.87319 51.7221 8.87319 51.7235C8.91455 51.7492 8.95163 51.7777 8.98728 51.8091C8.99441 51.8162 9.00154 51.822 9.00867 51.8291C9.04147 51.8605 9.07284 51.8947 9.09993 51.9318C9.10136 51.9332 9.10279 51.9361 9.10421 51.9375C9.13273 51.976 9.15555 52.0188 9.17694 52.0631C9.18265 52.0745 9.18692 52.0845 9.1912 52.0959C9.21117 52.1415 9.22828 52.19 9.23969 52.2414C9.23969 52.2414 9.23969 52.2428 9.23969 52.2443C10.5816 58.3918 17.1828 86.1833 28.9633 96.6393C28.9633 96.6393 28.9462 96.675 28.9149 96.7378C28.9876 96.6707 29.0603 96.6051 29.133 96.538C26.9925 91.168 24.6196 85.8936 22.1939 80.6464C19.8851 75.6516 17.5521 70.6925 16.4384 65.2655C15.2918 59.6743 16.5853 52.5339 12.5282 48.4022C7.26176 43.0394 4.625 56.9309 4.625 56.9309C4.625 56.9309 4.8332 56.3873 5.21681 55.6183C5.27528 55.4999 5.33945 55.3772 5.40505 55.2488C5.63892 54.8023 5.9227 54.3044 6.24927 53.805C6.71558 53.0931 7.27174 52.3784 7.90063 51.8063L7.90348 51.8105Z" fill="#6D3005"/>
</svg>
