<svg width="410" height="373" viewBox="0 0 410 373" fill="none" xmlns="http://www.w3.org/2000/svg">
<path d="M272.86 15.5773C247.729 14.3366 222.159 23.1457 205.389 41.4849C188.611 59.8107 181.797 87.869 190.377 112.271C178.685 111.461 162.922 119.668 155.394 128.446C147.866 137.224 144.67 149.736 146.952 161.498C112.688 166.372 82.4334 201.501 82.22 236.935C82.0065 272.368 105.083 306.844 136.432 323.629C133.137 325.807 126.782 330.957 124.508 337.292C120.209 349.252 124.066 360.109 132.709 370.133L393.33 197.886L272.855 15.6001L272.86 15.5773Z" fill="#9E2007" stroke="#F9ECD1" style="fill:#9E2007;fill:color(display-p3 0.6196 0.1255 0.0275);fill-opacity:1;stroke:#F9ECD1;stroke:color(display-p3 0.9765 0.9255 0.8196);stroke-opacity:1;" stroke-width="3.25" stroke-miterlimit="10"/>
<path d="M143.601 162.181C116.205 171.809 96.3558 200.254 99.1091 229.109C100.56 250.269 111.356 271.596 129.88 282.597C141.959 289.806 157.086 292.672 170.533 287.859C198.763 278.437 210.486 241.159 190.011 218.604C185.327 213.279 179.09 209.272 172.219 207.449C158.475 203.65 142.405 208.663 133.609 220.336C146.798 201.336 176.168 199.95 191.367 217.398C220.057 249.095 190.606 298.826 149.347 292.587C115.091 287.638 93.3335 251.107 97.2809 218.211C99.7267 192.614 119.203 169.652 143.646 162.19L143.601 162.181Z" fill="#F9ECD1" style="fill:#F9ECD1;fill:color(display-p3 0.9765 0.9255 0.8196);fill-opacity:1;"/>
<path d="M319.024 86.3654C297.62 89.2966 276.7 100.562 265.083 119.066C253.779 137.189 252.182 161.605 262.783 180.345L263.589 181.771L262.043 182.367C252.61 186.002 243.13 192.442 239.441 202.155C235.621 212.228 237.495 224.105 243.997 232.652C217.683 248.82 220.18 278.931 242.408 297.593C218.79 279.617 215.784 248.912 241.618 231.313L241.293 233.023C238.056 228.507 235.976 223.188 235.208 217.681C232.493 199.394 244.638 185.624 261.043 179.71L260.304 181.732C249.442 162.038 250.998 136.563 263.275 117.914C275.515 99.2689 297.144 88.1949 319.01 86.3743L319.024 86.3654Z" fill="#F9ECD1" style="fill:#F9ECD1;fill:color(display-p3 0.9765 0.9255 0.8196);fill-opacity:1;"/>
<path d="M370.248 202.063C371.599 188.519 358.538 176.566 345.239 179.166C331.223 181.561 321.876 194.103 328.429 207.835C326.281 205.142 325.208 201.64 324.989 198.138C323.876 186.825 334.29 178.041 344.744 176.332C359.574 173.612 373.921 187.16 370.226 202.059L370.248 202.063Z" fill="#F9ECD1" style="fill:#F9ECD1;fill:color(display-p3 0.9765 0.9255 0.8196);fill-opacity:1;"/>
<path d="M176.455 262.855C169.608 273.163 154.567 276.002 143.589 270.724C137.979 268.048 133.359 263.612 130.269 258.379C127.165 253.154 125.488 247.064 125.893 241.131C126.705 246.997 128.914 252.483 132.164 257.165C141.954 272.154 163.344 275.75 176.469 262.847L176.455 262.855Z" fill="#F9ECD1" style="fill:#F9ECD1;fill:color(display-p3 0.9765 0.9255 0.8196);fill-opacity:1;"/>
<path d="M205.367 103.451C197.354 109.969 190.457 118.233 190.069 129.006C186.067 118.166 194.94 106.346 205.367 103.451Z" fill="#F9ECD1" style="fill:#F9ECD1;fill:color(display-p3 0.9765 0.9255 0.8196);fill-opacity:1;"/>
<path d="M158.058 161.628C151.687 162.909 146.581 166.691 143.425 172.366C142.377 165.027 151.368 158.404 158.058 161.628Z" fill="#F9ECD1" style="fill:#F9ECD1;fill:color(display-p3 0.9765 0.9255 0.8196);fill-opacity:1;"/>
<path d="M118.339 291.35C91.4866 275.997 80.6121 242.692 86.6554 213.32C85.1785 243.613 93.9087 272.029 118.339 291.35Z" fill="#F9ECD1" style="fill:#F9ECD1;fill:color(display-p3 0.9765 0.9255 0.8196);fill-opacity:1;"/>
<path d="M151.933 338.452C147.429 344.494 146.85 351.163 148.963 358.09C142.618 353.068 144.165 341.2 151.933 338.452Z" fill="#F9ECD1" style="fill:#F9ECD1;fill:color(display-p3 0.9765 0.9255 0.8196);fill-opacity:1;"/>
<path d="M342.836 155.862C311.252 160.826 294.707 193.802 306.928 222.685L307.48 223.99L306.185 224.496C298.141 227.679 290.089 232.728 286.214 240.721C282.6 248.756 283.175 258.756 287.84 266.344C279.155 254.758 281.503 237.704 293.116 228.942C296.764 226.007 300.872 223.739 305.162 221.951L304.419 223.762C291.192 193.796 309.148 158.318 342.827 155.848L342.836 155.862Z" fill="#F9ECD1" style="fill:#F9ECD1;fill:color(display-p3 0.9765 0.9255 0.8196);fill-opacity:1;"/>
<path d="M302.939 62.7325C278.635 66.9406 254.407 78.956 242.013 101.097C237.935 108.255 235.102 116.181 233.982 124.526C233.984 116.104 236.16 107.624 240.046 100.03C251.61 76.7493 277.664 63.6819 302.939 62.7325Z" fill="#F9ECD1" style="fill:#F9ECD1;fill:color(display-p3 0.9765 0.9255 0.8196);fill-opacity:1;"/>
<path d="M132.911 321.648C146.295 326.016 160.501 327.667 174.367 324.75C161.846 331.667 144.475 329.78 132.911 321.648Z" fill="#F9ECD1" style="fill:#F9ECD1;fill:color(display-p3 0.9765 0.9255 0.8196);fill-opacity:1;"/>
<path d="M274.352 166.82C267.678 173.074 262.568 181.341 263.451 190.749C263.672 193.785 264.369 196.837 265.061 199.968C256.673 188.245 261.315 172.429 274.352 166.82Z" fill="#F9ECD1" style="fill:#F9ECD1;fill:color(display-p3 0.9765 0.9255 0.8196);fill-opacity:1;"/>
<path d="M255.206 289.154C244.699 285.233 237.46 273.254 238.946 262.144C241.638 272.647 247.186 281.863 255.206 289.154Z" fill="#F9ECD1" style="fill:#F9ECD1;fill:color(display-p3 0.9765 0.9255 0.8196);fill-opacity:1;"/>
<path d="M294.612 50.1334C286.018 51.603 277.867 53.3614 269.449 55.6263C276.099 49.718 286.115 47.5809 294.612 50.1334Z" fill="#F9ECD1" style="fill:#F9ECD1;fill:color(display-p3 0.9765 0.9255 0.8196);fill-opacity:1;"/>
<path d="M283.062 31.0122C270.814 30.1237 258.419 31.1562 246.91 35.2897C235.736 39.7254 224.954 46.2502 216.775 55.1288C211.373 61.105 207.102 68.2351 204.91 76.2218C205.421 72.1206 206.685 68.1028 208.388 64.2803C213.651 52.7502 223.625 43.9463 234.567 37.9564C249.016 29.4934 266.847 27.4682 283.062 31.0122Z" fill="#F9ECD1" style="fill:#F9ECD1;fill:color(display-p3 0.9765 0.9255 0.8196);fill-opacity:1;"/>
<path d="M272.86 15.5774C247.99 14.4364 221.997 23.3698 205.284 42.2345C188.779 60.8262 182.756 88.4971 191.106 112.023L191.501 113.12L190.334 113.057C178.196 112.775 166.13 119.178 157.536 127.458C148.786 136.5 145.441 150.138 148.157 162.351C130.244 164.722 114.1 175.14 102.534 188.76C63.6944 233.269 89.4875 296.721 137.097 322.433L139.078 323.491C134.842 326.213 130.721 329.577 127.912 333.723C120.418 345.195 125.088 359.745 133.786 369.208L131.933 368.958C196.868 326.003 327.771 239.837 392.786 197.062L392.507 198.431C362.552 152.96 302.649 61.1783 272.856 15.6001L272.86 15.5774ZM272.86 15.5774C303.371 61.302 364.314 152.338 394.703 198.143C329.394 241.5 198.87 328.094 133.477 371.294L132.437 371.981L131.637 371.035C125.604 364.08 120.837 355.105 121.409 345.607C121.706 340.89 122.937 336.119 125.638 332.161C128.343 328.239 131.825 325.083 135.701 322.464L135.809 324.798C86.9308 298.43 60.6216 232.583 100.749 187.204C112.525 173.522 128.738 163.059 146.822 160.478L145.974 161.661C144.782 155.366 145.105 148.809 146.849 142.67C150.073 130.081 160.342 120.636 171.941 115.551C177.688 112.975 183.949 111.087 190.435 111.477L189.641 112.507C185.446 100.494 184.937 87.3651 187.653 75.0348C195.662 35.8659 234.523 13.0541 272.852 15.5642L272.86 15.5774Z" fill="#F9ECD1" style="fill:#F9ECD1;fill:color(display-p3 0.9765 0.9255 0.8196);fill-opacity:1;"/>
<path d="M404.658 239.594C404.658 239.594 386.552 211.409 409.103 153.735C409.103 153.735 400.68 150.488 385.039 146.624C385.039 146.624 371.805 168.901 327.742 193.258C327.742 193.258 275.545 179.302 248.057 153.929C248.057 153.929 227.26 161.285 222.003 169.619C222.003 169.619 252.64 192.752 232.864 228.337C233.255 245.179 233.116 262.089 232.193 278.909C231.886 284.479 231.485 290.051 230.821 295.591C230.242 300.41 227.562 305.533 228.194 310.442C229.497 320.544 240.791 322.262 248.898 323.849C257.9 325.612 266.984 326.971 276.103 327.95C301.447 330.667 327.422 330.586 352.458 325.41C370.179 321.745 387.496 315.371 402.566 305.224C402.566 305.224 407.078 302.742 406.279 293.146C406.279 293.146 402.6 249.463 404.663 239.599L404.658 239.594Z" fill="#BF3A39" style="fill:#BF3A39;fill:color(display-p3 0.7490 0.2275 0.2235);fill-opacity:1;"/>
<path d="M229.644 162.752L229.633 162.757C226.371 164.858 223.529 167.198 222 169.619C222 169.619 252.637 192.752 232.861 228.337C232.861 228.337 232.948 232.018 232.99 237.852C240.253 230.528 246.57 216.962 247.514 201.86C248.728 182.455 229.644 162.752 229.644 162.752Z" fill="#FDEFE4" style="fill:#FDEFE4;fill:color(display-p3 0.9922 0.9373 0.8941);fill-opacity:1;"/>
<path d="M395.764 149.47C392.69 148.594 389.111 147.631 385.036 146.624C385.036 146.624 371.802 168.901 327.739 193.258C327.739 193.258 275.542 179.302 248.054 153.929C248.054 153.929 243.748 155.454 238.559 157.899C249.512 168.78 286.309 200.609 330.102 203.951C330.102 203.951 368.677 191.12 395.764 149.472V149.47Z" fill="#FDEFE4" style="fill:#FDEFE4;fill:color(display-p3 0.9922 0.9373 0.8941);fill-opacity:1;"/>
<path d="M404.042 252.267C403.982 246.721 404.139 242.083 404.658 239.596C404.658 239.596 386.552 211.411 409.103 153.738C409.103 153.738 406.36 152.681 401.108 151.057C392.651 165.622 369.623 213.329 404.042 252.267Z" fill="#FDEFE4" style="fill:#FDEFE4;fill:color(display-p3 0.9922 0.9373 0.8941);fill-opacity:1;"/>
<path d="M402.56 305.221C402.56 305.221 407.073 302.74 406.273 293.143C406.273 293.143 405.872 288.374 405.408 281.632C398.469 287.335 386.242 295.431 373.428 294.673C353.814 293.513 360.123 270.551 366.613 267.48C373.102 264.408 382.608 270.318 382.608 270.318C386.549 257.794 374.495 255.94 374.495 255.94C358.5 254.316 344.644 276.249 344.644 276.249C330.558 252.495 310.545 258.308 310.545 258.308C280.907 267.173 297.634 288.296 297.634 288.296C292.209 270.326 313.212 272.645 313.212 272.645C333.067 282.396 315.381 303.482 295.843 309.051C276.979 314.429 234.3 291.795 231.379 290.226C231.214 292.015 231.031 293.805 230.816 295.588C230.236 300.407 227.556 305.531 228.188 310.439C229.491 320.541 240.785 322.26 248.893 323.847C257.895 325.61 266.978 326.968 276.098 327.947C301.441 330.665 327.416 330.583 352.453 325.408C370.174 321.743 387.49 315.368 402.56 305.221Z" fill="#F5BA5B" style="fill:#F5BA5B;fill:color(display-p3 0.9608 0.7294 0.3569);fill-opacity:1;"/>
<path d="M344.647 276.249C344.647 276.249 348.821 269.639 355.235 263.946C351.682 256.268 343.774 250.921 343.774 250.921C337.551 254.906 335.01 262.306 334.439 264.232C337.945 266.992 341.451 270.856 344.647 276.252V276.249Z" fill="#F79F1F" style="fill:#F79F1F;fill:color(display-p3 0.9686 0.6235 0.1216);fill-opacity:1;"/>
<path d="M282.635 273.45C282.635 273.45 284.439 306.905 306.922 292.787C306.922 292.787 298.458 309.282 276.898 297.802C276.898 297.802 269.073 293.28 267.857 285.628C267.857 285.628 269.603 289.056 275.424 288.298C275.424 288.298 268.971 282.894 272.763 275.389C272.763 275.389 273.424 280.756 278.985 283.366C278.985 283.366 278.637 276.409 282.635 273.45Z" fill="#F79F1F" style="fill:#F79F1F;fill:color(display-p3 0.9686 0.6235 0.1216);fill-opacity:1;"/>
<path d="M373.742 278.319C373.742 278.319 390.781 282.842 390.608 261.1C390.608 261.1 393.912 266.317 392.173 270.494C392.173 270.494 396.51 268.306 397.124 264.704C397.124 264.704 399.059 270.667 395.095 274.321C395.095 274.321 399.925 273.841 401.178 269.906C401.178 269.906 399.403 281.808 385.705 282.587C385.705 282.587 380.699 284.584 373.742 278.322V278.319Z" fill="#F79F1F" style="fill:#F79F1F;fill:color(display-p3 0.9686 0.6235 0.1216);fill-opacity:1;"/>
<path opacity="0.26" d="M244.739 165.472C250.188 163.567 256.44 163.489 260.59 163.733C256.078 160.684 251.832 157.413 248.054 153.927C248.054 153.927 227.257 161.283 222 169.617C222 169.617 252.637 192.749 232.861 228.334C233.252 245.176 233.113 262.086 232.19 278.907C231.883 284.476 231.482 290.048 230.818 295.588C230.239 300.407 227.559 305.531 228.191 310.439C229.494 320.541 240.788 322.26 248.896 323.847C257.528 325.536 266.233 326.85 274.976 327.818C263.108 323.592 234.225 290.037 250.395 246.75C262.059 215.533 248.557 192.198 240.111 181.605C235.701 176.07 238.061 167.807 244.742 165.472H244.739Z" fill="#6D3005" style="fill:#6D3005;fill:color(display-p3 0.4275 0.1882 0.0196);fill-opacity:1;"/>
<path opacity="0.31" d="M385.039 146.624C385.039 146.624 385.036 146.631 385.028 146.642C385.034 146.631 385.039 146.624 385.039 146.624C386.001 102.166 379.005 73.5537 369.426 55.1433H369.421C367.261 50.9958 364.971 47.3573 362.611 44.1779C362.449 44.1044 362.286 44.0362 362.124 43.9732C362.129 43.8185 362.124 43.6584 362.095 43.4879C346.396 22.8818 327.839 21.9767 324.302 22.0004C326.955 25.353 341.364 42.7875 356.051 45.4554C357.532 45.7256 358.697 45.8148 359.593 45.7623C356.447 52.0976 343.918 70.272 303.196 72.0584C303.196 72.0584 306.25 71.964 311.212 71.5285C326.124 70.028 342.874 66.6229 360.385 59.9886C363.6 61.2373 371.39 65.9382 374.624 82.7327C378.751 104.157 380.4 135.907 377.72 145.983C375.313 155.031 364.992 161.542 370.782 162.846C363.76 169.425 353.751 177.505 339.911 186.12L339.906 186.125C339.906 186.125 377.049 162.846 389.814 168.389C396.419 171.256 400.497 172.083 403.148 171.401C404.71 165.855 406.669 159.968 409.105 153.735C409.105 153.735 400.683 150.488 385.041 146.624H385.039ZM379.288 154.092C379.113 154.294 378.932 154.499 378.746 154.706C378.932 154.499 379.113 154.291 379.288 154.092ZM378.607 154.863C378.46 155.029 378.31 155.194 378.156 155.364C378.308 155.197 378.457 155.029 378.607 154.863ZM373.761 159.966C373.91 159.819 374.057 159.672 374.201 159.525C374.057 159.672 373.908 159.819 373.761 159.966ZM370.913 162.718C371.057 162.581 371.199 162.447 371.343 162.311C371.202 162.447 371.06 162.581 370.913 162.718ZM372.033 161.652C372.214 161.479 372.395 161.304 372.573 161.133C372.397 161.304 372.214 161.479 372.033 161.652ZM372.951 160.763C373.1 160.616 373.252 160.469 373.399 160.322C373.252 160.467 373.1 160.616 372.951 160.763ZM377.332 156.267C377.167 156.445 376.997 156.629 376.826 156.812C376.997 156.629 377.167 156.448 377.332 156.267ZM376.672 156.978C376.446 157.216 376.218 157.458 375.985 157.702C376.218 157.458 376.449 157.214 376.672 156.978ZM375.838 157.854C375.652 158.048 375.465 158.242 375.274 158.439C375.465 158.242 375.654 158.048 375.838 157.854ZM374.996 158.722C374.844 158.877 374.689 159.034 374.534 159.192C374.692 159.034 374.844 158.877 374.996 158.722ZM380.463 152.723C380.597 152.563 380.731 152.403 380.859 152.248C380.731 152.403 380.6 152.56 380.463 152.723ZM380.956 152.132C381.085 151.975 381.211 151.823 381.334 151.673C381.211 151.823 381.085 151.978 380.956 152.132ZM381.402 151.589C381.842 151.046 382.241 150.54 382.598 150.078C382.241 150.54 381.845 151.044 381.402 151.589ZM383.29 149.163C383.589 148.762 383.846 148.402 384.063 148.093C383.846 148.405 383.586 148.762 383.29 149.163ZM384.079 148.072C384.145 147.98 384.205 147.891 384.265 147.807C384.208 147.891 384.145 147.98 384.079 148.072ZM385.026 146.647C385.026 146.647 385.013 146.671 385.002 146.689C385.013 146.673 385.021 146.658 385.026 146.647ZM384.986 146.71C384.976 146.728 384.963 146.749 384.947 146.776C384.963 146.752 384.976 146.728 384.986 146.71ZM384.931 146.799C384.91 146.831 384.889 146.865 384.863 146.907C384.889 146.867 384.91 146.831 384.931 146.799Z" fill="white" style="fill:white;fill:white;fill-opacity:1;"/>
<path opacity="0.26" d="M406.273 293.141C406.273 293.141 406.273 293.125 406.27 293.104C406.268 293.073 406.263 293.015 406.257 292.941C406.257 292.92 406.255 292.905 406.252 292.881C406.252 292.865 406.252 292.85 406.249 292.834C406.249 292.823 406.25 292.81 406.247 292.8C406.244 292.753 406.239 292.708 406.234 292.653C406.234 292.648 406.234 292.645 406.234 292.64C406.231 292.598 406.226 292.548 406.223 292.501C406.223 292.488 406.223 292.477 406.221 292.464C406.218 292.43 406.215 292.393 406.213 292.359C406.2 292.212 406.187 292.042 406.173 291.858C406.173 291.845 406.173 291.834 406.171 291.819C406.166 291.74 406.158 291.661 406.152 291.575C406.152 291.564 406.152 291.551 406.15 291.541C406.145 291.486 406.142 291.43 406.137 291.373C406.129 291.281 406.121 291.186 406.113 291.087C406.113 291.079 406.113 291.071 406.113 291.066C406.108 291.008 406.105 290.95 406.1 290.893C406.095 290.822 406.09 290.751 406.082 290.675C406.076 290.609 406.071 290.541 406.066 290.473C406.053 290.316 406.04 290.153 406.027 289.982C406.024 289.938 406.019 289.893 406.016 289.846C406.011 289.765 406.003 289.683 405.998 289.599C405.993 289.526 405.987 289.45 405.979 289.376C405.974 289.3 405.969 289.227 405.961 289.148C405.953 289.051 405.945 288.954 405.937 288.854C405.932 288.773 405.924 288.689 405.919 288.605C405.919 288.595 405.919 288.584 405.919 288.574C405.906 288.416 405.896 288.256 405.882 288.094C405.88 288.052 405.877 288.01 405.872 287.968C405.861 287.839 405.854 287.708 405.843 287.574C405.833 287.438 405.822 287.296 405.812 287.154C405.812 287.141 405.812 287.128 405.809 287.115C405.801 287.015 405.793 286.916 405.785 286.813C405.785 286.808 405.785 286.8 405.785 286.792C405.772 286.617 405.759 286.438 405.746 286.257C405.738 286.168 405.733 286.076 405.725 285.987C405.72 285.927 405.717 285.864 405.712 285.803C405.707 285.722 405.699 285.643 405.694 285.559C405.686 285.46 405.678 285.357 405.673 285.258C405.665 285.166 405.66 285.072 405.652 284.977C405.641 284.846 405.633 284.715 405.623 284.581C405.615 284.489 405.61 284.395 405.602 284.3C405.597 284.224 405.591 284.148 405.586 284.072C405.578 283.949 405.568 283.825 405.56 283.7C405.557 283.65 405.552 283.597 405.549 283.547C405.544 283.471 405.539 283.395 405.534 283.319C405.521 283.149 405.51 282.978 405.497 282.802C405.489 282.705 405.484 282.608 405.476 282.511C405.468 282.383 405.458 282.254 405.45 282.126C405.444 282.044 405.439 281.966 405.434 281.884C405.429 281.816 405.424 281.75 405.421 281.682C405.421 281.677 405.421 281.672 405.421 281.664C404.482 268.004 403.284 246.194 404.666 239.583C404.666 239.583 399.479 231.501 398.116 215.142C396.443 221.978 386.345 266.438 386.956 292.511C382.676 294.035 378.095 294.935 373.436 294.66C353.822 293.5 360.131 270.538 366.621 267.466C373.11 264.395 382.616 270.305 382.616 270.305C382.616 270.305 369.749 250.011 355.849 271.826C346.574 286.381 362.687 301.446 378.709 299.849C383.277 299.392 387.664 301.745 389.643 305.89C389.997 306.633 390.391 309.914 390.826 312.149C391.329 311.89 391.83 311.625 392.331 311.357C393.322 310.827 394.306 310.282 395.284 309.725C395.294 309.72 395.305 309.715 395.315 309.707C395.758 309.455 396.196 309.198 396.637 308.938C396.689 308.907 396.742 308.878 396.791 308.849C397.195 308.611 397.599 308.367 398 308.123C398.084 308.07 398.171 308.02 398.254 307.97C398.624 307.745 398.994 307.514 399.361 307.283C399.476 307.212 399.592 307.141 399.705 307.071C400.066 306.842 400.423 306.612 400.782 306.381C400.9 306.305 401.021 306.229 401.139 306.152C401.616 305.843 402.088 305.528 402.56 305.211C402.56 305.211 407.073 302.729 406.273 293.133V293.141Z" fill="#6D3005" style="fill:#6D3005;fill:color(display-p3 0.4275 0.1882 0.0196);fill-opacity:1;"/>
<path opacity="0.26" d="M347.88 271.795C348.365 266.223 339.966 259.72 337.305 257.807C335.614 260.606 334.743 263.201 334.439 264.232C337.945 266.992 341.451 270.856 344.647 276.252C344.647 276.252 345.822 274.392 347.88 271.798V271.795Z" fill="#6D3005" style="fill:#6D3005;fill:color(display-p3 0.4275 0.1882 0.0196);fill-opacity:1;"/>
<path opacity="0.31" d="M296.831 287.16C296.745 286.378 296.058 284.56 295.992 284.169C295.552 281.561 295.447 278.702 296.309 276.163C299.54 266.658 310.461 265.496 319.065 266.407C328.061 267.356 340.126 269.161 344.24 278.72C344.455 277.855 344.557 276.986 344.563 276.118C330.482 252.521 310.545 258.314 310.545 258.314C285.029 265.945 293.876 282.658 296.831 287.162V287.16Z" fill="white" style="fill:white;fill:white;fill-opacity:1;"/>
<path opacity="0.26" d="M275.424 288.296C269.603 289.054 267.857 285.625 267.857 285.625C269.073 293.28 276.898 297.8 276.898 297.8C298.458 309.279 306.922 292.784 306.922 292.784C284.78 310.324 275.422 288.296 275.422 288.296H275.424Z" fill="#6D3005" style="fill:#6D3005;fill:color(display-p3 0.4275 0.1882 0.0196);fill-opacity:1;"/>
<path d="M266.189 232.944C266.897 232.527 267.849 232.057 269.123 231.642C270.688 231.134 271.986 231.241 272.962 231.816C273.846 232.335 274.595 233.324 275.01 234.685C275.432 236.071 275.429 237.262 275.086 238.235C274.609 239.581 273.481 240.575 271.994 241.06C271.541 241.21 271.113 241.325 270.725 241.328C271.533 243.76 271.937 244.974 272.744 247.403C272.152 247.6 271.858 247.7 271.265 247.899C269.571 242.915 267.88 237.928 266.186 232.944H266.189ZM270.195 239.727C270.568 239.727 271.003 239.636 271.514 239.468C273.363 238.864 274.134 237.361 273.478 235.255C272.849 233.24 271.402 232.618 269.666 233.185C268.979 233.408 268.478 233.649 268.237 233.83C269.021 236.189 269.411 237.369 270.195 239.727Z" fill="#2C170E" style="fill:#2C170E;fill:color(display-p3 0.1725 0.0902 0.0549);fill-opacity:1;"/>
<path d="M288.317 234.402C288.897 237.854 289.007 242.891 284.94 243.985C281.266 244.972 278.4 240.976 277.417 237.7C276.465 234.525 276.57 228.946 280.771 228.012C284.693 227.141 287.735 230.929 288.317 234.402ZM279.053 237.167C279.743 239.51 281.864 243.07 284.581 242.335C287.363 241.582 287.31 237.306 286.691 234.908C286.057 232.453 284.001 228.888 281.14 229.654C278.203 230.441 278.329 234.709 279.053 237.167Z" fill="#2C170E" style="fill:#2C170E;fill:color(display-p3 0.1725 0.0902 0.0549);fill-opacity:1;"/>
<path d="M288.577 226.503C289.342 226.102 290.486 225.711 291.6 225.459C293.331 225.068 294.537 225.236 295.499 225.945C296.268 226.509 296.847 227.506 297.094 228.715C297.518 230.782 296.784 232.361 295.628 233.193C295.633 233.222 295.636 233.235 295.644 233.261C296.669 233.476 297.458 234.478 298.082 236.042C298.921 238.14 299.516 239.596 299.884 240.15C299.254 240.278 298.94 240.344 298.313 240.475C298.027 240.074 297.471 238.781 296.726 236.907C295.903 234.84 295.085 234.153 293.653 234.402C293.066 234.536 292.772 234.602 292.185 234.738C292.812 237.437 293.124 238.786 293.75 241.485C293.145 241.627 292.843 241.698 292.24 241.842C291.018 236.729 289.796 231.616 288.577 226.501V226.503ZM291.834 233.216C292.476 233.067 292.796 232.993 293.438 232.849C295.116 232.471 295.932 231.065 295.552 229.279C295.122 227.262 293.753 226.616 292.062 226.983C291.291 227.151 290.753 227.38 290.517 227.532C291.044 229.806 291.309 230.942 291.836 233.216H291.834Z" fill="#2C170E" style="fill:#2C170E;fill:color(display-p3 0.1725 0.0902 0.0549);fill-opacity:1;"/>
<path d="M300.922 237.38C301.722 237.802 302.813 238.075 303.872 237.878C305.44 237.587 306.169 236.333 305.894 234.743C305.637 233.272 304.827 232.5 303.051 232.023C300.938 231.454 299.396 230.402 298.958 228.193C298.476 225.75 299.742 223.607 302.199 223.161C303.492 222.928 304.496 223.143 305.126 223.445C305.057 224.14 305.026 224.486 304.96 225.181C304.504 224.971 303.584 224.646 302.448 224.853C300.736 225.163 300.33 226.574 300.534 227.645C300.815 229.111 301.706 229.688 303.55 230.221C305.81 230.874 307.071 231.991 307.457 234.308C307.863 236.74 306.859 239.059 304.077 239.575C302.939 239.785 301.612 239.586 300.87 239.153C300.888 238.442 300.899 238.088 300.922 237.377V237.38Z" fill="#2C170E" style="fill:#2C170E;fill:color(display-p3 0.1725 0.0902 0.0549);fill-opacity:1;"/>
<path d="M315.449 229.956C313.54 230.205 312.586 230.339 310.682 230.627C311.026 232.907 311.199 234.045 311.542 236.325C313.614 236.013 314.652 235.869 316.729 235.601C316.818 236.288 316.86 236.632 316.949 237.319C314.272 237.663 312.934 237.854 310.268 238.274C309.439 233.012 308.611 227.747 307.779 222.484C310.514 222.054 311.886 221.858 314.631 221.501C314.72 222.188 314.765 222.532 314.854 223.219C312.78 223.487 311.741 223.633 309.672 223.946C309.974 225.945 310.124 226.944 310.425 228.94C312.342 228.652 313.304 228.515 315.226 228.264C315.315 228.94 315.36 229.279 315.447 229.956H315.449Z" fill="#2C170E" style="fill:#2C170E;fill:color(display-p3 0.1725 0.0902 0.0549);fill-opacity:1;"/>
<path d="M318.947 237.07C318.315 231.779 317.683 226.488 317.051 221.196C317.769 221.11 318.129 221.068 318.844 220.989C320.489 223.518 322.104 226.055 323.701 228.615C324.794 230.394 325.649 232.007 326.365 233.589C326.378 233.578 326.386 233.573 326.399 233.563C326.071 231.448 325.867 229.515 325.649 227.033C325.418 224.368 325.3 223.035 325.07 220.37C325.691 220.315 326 220.289 326.622 220.239C327.052 225.551 327.479 230.861 327.909 236.173C327.285 236.223 326.973 236.249 326.349 236.304C324.828 233.72 323.289 231.155 321.718 228.599C320.675 226.921 319.642 225.197 318.81 223.547C318.789 223.56 318.779 223.565 318.758 223.576C319.08 225.569 319.332 227.474 319.631 230.113C319.938 232.828 320.093 234.184 320.399 236.9C319.82 236.965 319.529 236.999 318.949 237.067L318.947 237.07Z" fill="#2C170E" style="fill:#2C170E;fill:color(display-p3 0.1725 0.0902 0.0549);fill-opacity:1;"/>
<path d="M331.156 219.914C331.489 225.231 331.822 230.551 332.155 235.869C331.536 235.908 331.227 235.929 330.611 235.971C330.243 230.656 329.876 225.339 329.507 220.024C330.167 219.979 330.498 219.956 331.159 219.916L331.156 219.914Z" fill="#2C170E" style="fill:#2C170E;fill:color(display-p3 0.1725 0.0902 0.0549);fill-opacity:1;"/>
<path d="M343.981 234.714C343.288 235.055 341.925 235.619 340.307 235.667C338.492 235.716 336.971 235.163 335.726 233.725C334.622 232.453 333.903 230.297 333.72 227.868C333.421 223.901 335.802 219.441 340.215 219.347C341.691 219.316 342.869 219.693 343.422 220.019C343.273 220.695 343.196 221.031 343.05 221.708C342.365 221.338 341.492 221.029 340.223 221.078C336.735 221.215 335.33 224.562 335.406 227.687C335.474 230.543 337.016 234.04 340.367 233.956C341.387 233.93 342.085 233.725 342.439 233.481C342.405 231.574 342.386 230.622 342.35 228.715C341.345 228.733 340.844 228.746 339.84 228.775C339.822 228.111 339.811 227.778 339.793 227.115C341.429 227.067 342.25 227.052 343.889 227.031C343.92 229.591 343.952 232.154 343.981 234.714Z" fill="#2C170E" style="fill:#2C170E;fill:color(display-p3 0.1725 0.0902 0.0549);fill-opacity:1;"/>
<path d="M348.333 230.386C347.812 232.393 347.555 233.397 347.054 235.41C346.411 235.41 346.091 235.41 345.449 235.412C346.797 230.066 348.221 224.746 349.715 219.439C350.515 219.449 350.914 219.455 351.713 219.47C353.051 224.819 354.312 230.184 355.502 235.57C354.839 235.546 354.509 235.533 353.845 235.514C353.392 233.489 353.161 232.477 352.684 230.454C350.942 230.412 350.072 230.399 348.331 230.386H348.333ZM352.395 228.833C351.955 226.981 351.729 226.057 351.268 224.208C351.005 223.159 350.832 222.209 350.659 221.28C350.643 221.28 350.636 221.28 350.623 221.28C350.418 222.225 350.198 223.195 349.943 224.166C349.427 226.01 349.172 226.931 348.674 228.778C350.164 228.788 350.906 228.801 352.395 228.836V228.833Z" fill="#2C170E" style="fill:#2C170E;fill:color(display-p3 0.1725 0.0902 0.0549);fill-opacity:1;"/>
<path d="M367.931 229.313C368.034 227.083 368.154 224.405 368.346 222.422C368.322 222.422 368.312 222.419 368.288 222.416C367.693 224.245 367.003 226.186 366.201 228.334C365.265 230.848 364.35 233.374 363.461 235.905C362.991 235.871 362.755 235.856 362.283 235.824C361.803 233.245 361.303 230.672 360.778 228.104C360.319 225.821 359.923 223.733 359.664 221.818C359.648 221.818 359.64 221.818 359.627 221.818C359.488 223.807 359.257 226.477 359.024 228.864C358.754 231.595 358.62 232.962 358.358 235.693C357.765 235.664 357.469 235.651 356.879 235.625C357.39 230.312 357.917 225.003 358.458 219.693C359.302 219.733 359.727 219.754 360.571 219.801C361.161 222.411 361.727 225.026 362.27 227.647C362.661 229.643 362.962 231.425 363.154 233.101C363.175 233.101 363.185 233.101 363.209 233.104C363.626 231.517 364.187 229.796 364.89 227.826C365.818 225.307 366.77 222.797 367.748 220.297C368.592 220.367 369.014 220.404 369.859 220.483C369.633 225.813 369.392 231.141 369.14 236.472C368.535 236.414 368.233 236.385 367.627 236.333C367.756 233.526 367.816 232.12 367.937 229.313H367.931Z" fill="#2C170E" style="fill:#2C170E;fill:color(display-p3 0.1725 0.0902 0.0549);fill-opacity:1;"/>
<path d="M373.847 231.91C373.113 233.851 372.751 234.822 372.035 236.768C371.395 236.7 371.075 236.666 370.433 236.601C372.347 231.43 374.332 226.291 376.391 221.173C377.188 221.267 377.586 221.317 378.383 221.417C379.149 226.879 379.841 232.348 380.458 237.831C379.797 237.736 379.466 237.689 378.808 237.597C378.57 235.535 378.446 234.502 378.187 232.44C376.453 232.212 375.586 232.104 373.85 231.907L373.847 231.91ZM378.069 230.8C377.825 228.912 377.699 227.967 377.434 226.081C377.285 225.011 377.214 224.045 377.138 223.104C377.122 223.104 377.114 223.101 377.101 223.098C376.797 224.016 376.474 224.958 376.115 225.895C375.405 227.673 375.053 228.563 374.358 230.344C375.843 230.514 376.585 230.606 378.069 230.798V230.8Z" fill="#2C170E" style="fill:#2C170E;fill:color(display-p3 0.1725 0.0902 0.0549);fill-opacity:1;"/>
</svg>
