<svg width="361" height="401" viewBox="0 0 361 401" fill="none" xmlns="http://www.w3.org/2000/svg">
<g filter="url(#filter0_d_1299_267490)">
<path d="M96.741 347.565L96.5758 320.954C92.2256 319.992 89.7843 319.32 89.7843 319.32C83.756 314.808 83.1948 308.882 83.1948 308.882C89.1367 292.184 87.7417 232.305 87.7417 232.305C106.37 198.787 77.5126 177 77.5126 177C77.5126 177 45.7843 205.306 29.8231 228.378C27.5078 231.722 25.5831 235.314 24.0203 239.07C22.4234 242.911 19.3764 248.803 15 251.166C15 251.166 19.143 252.05 25.7089 249.167C25.7089 249.167 19.7776 251.604 15 265.655C15 265.655 19.6124 261.444 26.4772 258.294C26.4772 258.294 19.0277 268.538 22.9216 280.02C22.9216 280.02 25.2474 273.96 28.9447 270.6C29.7917 269.829 31.1604 270.277 31.4043 271.397C33.8691 282.693 46.0072 333.806 67.6742 353.035C67.6742 353.035 52.8799 363.764 76.2356 378.148C76.2356 378.148 90.1619 383.917 99.5519 376.125C108.942 368.337 103.996 352.077 96.7383 347.565H96.741Z" fill="#C8AA86" style="fill:#C8AA86;fill:color(display-p3 0.7843 0.6667 0.5255);fill-opacity:1;"/>
<path opacity="0.26" d="M96.7411 347.565L96.6991 340.797C93.2851 337.329 89.9103 334.7 90.1254 334.433C91.523 332.691 91.9242 320.692 91.9242 320.692L91.814 319.842C90.4925 319.514 89.7818 319.32 89.7818 319.32C83.7535 314.808 83.1923 308.882 83.1923 308.882C89.1342 292.184 87.7392 232.305 87.7392 232.305C106.367 198.787 77.5101 177 77.5101 177C77.5101 177 70.5954 183.17 61.5988 192.095C67.2967 193.7 88.9323 200.917 83.3103 216.602C82.2536 219.548 81.6689 222.64 81.6217 225.77C81.4014 240.369 79.9461 278.845 70.779 284.839C70.779 284.839 79.4531 284.821 81.0553 280.949C81.0553 280.949 78.6927 292.022 70.8157 294.787C70.8157 294.787 77.9532 297.038 80.245 292.198C80.245 292.198 77.573 312.224 68.8491 321.655C68.8491 321.655 82.4607 313.158 83.3392 325.262C84.215 337.366 71.4634 377.429 78.7976 380.824C83.6984 383.095 86.2681 377.476 86.2681 377.476C86.2681 377.476 89.0031 381.994 95.3382 378.127C100.677 374.869 101.322 364.58 102.654 357.712C101.372 353.006 99.2636 349.134 96.7385 347.565H96.7411Z" fill="#6D3005" style="fill:#6D3005;fill:color(display-p3 0.4275 0.1882 0.0196);fill-opacity:1;"/>
<path d="M73.4429 251.791C72.7952 255.941 70.8312 261.187 67.952 264.299C67.8498 264.422 67.6453 264.585 67.5246 264.692L67.0631 265.078C66.3656 265.66 65.3561 265.626 64.7006 265.036C63.5625 264.047 62.6317 262.84 61.9447 261.497C62.1728 261.98 62.8493 262.158 63.2872 261.869C62.1597 262.502 60.943 262.982 59.7394 263.37C58.7456 263.792 57.5682 263.312 57.2405 262.263C56.7659 260.196 56.5902 258.1 56.6688 255.98C56.7947 253.944 57.0936 251.701 58.4545 250.093C58.347 251.109 58.4572 252.045 58.6093 252.976C59.0629 255.5 59.86 257.99 60.665 260.419L60.8879 261.048L58.3497 259.797C59.3618 259.317 60.3268 258.829 61.2576 258.255C62.4796 257.538 64.142 257.774 65.1175 258.798C65.6131 259.288 65.8333 259.952 66.2293 260.516C66.5413 260.996 66.9058 261.465 67.2913 261.89L64.7871 261.72C64.8579 261.665 64.9313 261.612 65.0047 261.56C65.4741 261.242 65.8805 260.783 66.2896 260.379C68.7754 257.625 70.9072 254.54 73.456 251.788L73.4429 251.791Z" fill="#84654A" style="fill:#84654A;fill:color(display-p3 0.5176 0.3961 0.2902);fill-opacity:1;"/>
<path d="M72.6114 301.324C72.6639 303.955 71.5862 306.492 69.7638 308.402C69.1056 309.058 68.3163 309.671 67.3042 310.099C66.0849 310.634 64.6453 309.824 64.4486 308.512C64.4303 308.42 64.3883 308.223 64.3621 308.132C64.2441 307.631 64.0815 307.124 63.8927 306.681C63.8927 306.639 63.7301 306.424 63.7065 306.384C62.6105 304.624 62.9776 301.99 63.9452 300.293C64.1838 299.902 64.4748 299.501 64.8918 299.286C64.9127 300.125 65.2038 300.818 65.4582 301.571C65.7151 302.266 65.9852 302.948 66.2815 303.504C66.4388 303.811 66.5857 304.034 66.7247 304.128C66.7325 304.107 66.7299 304.079 66.7194 304.065L66.7404 304.086C67.5716 304.91 68.083 305.959 68.3976 307.032C68.4684 307.292 68.5287 307.518 68.5785 307.796L65.723 306.209C66.7325 305.778 67.8837 304.897 68.7988 304.176C69.9552 303.273 71.3371 302.129 72.6088 301.319L72.6114 301.324Z" fill="#84654A" style="fill:#84654A;fill:color(display-p3 0.5176 0.3961 0.2902);fill-opacity:1;"/>
<g opacity="0.26">
<path d="M25.7115 249.165C25.7115 249.165 25.5882 249.217 25.3654 249.343L25.7115 249.165Z" fill="#6D3005" style="fill:#6D3005;fill:color(display-p3 0.4275 0.1882 0.0196);fill-opacity:1;"/>
<path d="M25.7118 249.165L32.595 242.698C27.0753 240.579 21.9778 245.76 20.1659 247.908C19.6519 248.519 19.0278 249.023 18.3225 249.398L15.0028 251.161C15.0028 251.161 19.1458 252.045 25.7118 249.162V249.165Z" fill="#6D3005" style="fill:#6D3005;fill:color(display-p3 0.4275 0.1882 0.0196);fill-opacity:1;"/>
</g>
<path opacity="0.26" d="M36.0982 254.842C28.604 246.767 15.0028 265.652 15.0028 265.652C15.0028 265.652 19.6152 261.442 26.4801 258.291L36.0982 254.839V254.842Z" fill="#6D3005" style="fill:#6D3005;fill:color(display-p3 0.4275 0.1882 0.0196);fill-opacity:1;"/>
<path opacity="0.26" d="M28.9472 270.6C28.997 270.555 29.0495 270.513 29.1019 270.477C29.1386 270.45 29.1753 270.432 29.212 270.408C29.2278 270.4 29.2435 270.39 29.2592 270.379C29.3091 270.353 29.3615 270.332 29.4113 270.311C29.4139 270.311 29.4166 270.311 29.4192 270.309C29.4743 270.288 29.5293 270.272 29.587 270.256L29.608 270.212L29.6185 270.248C29.7129 270.227 29.8073 270.217 29.9017 270.214C29.9069 270.214 29.9122 270.214 29.9174 270.214C30.1036 270.214 30.2871 270.243 30.4576 270.309C30.4681 270.311 30.4785 270.316 30.489 270.322C30.5703 270.353 30.649 270.393 30.725 270.437C30.725 270.437 30.7303 270.437 30.7303 270.44C30.8063 270.487 30.8745 270.539 30.94 270.597C30.9532 270.61 30.9663 270.621 30.9794 270.634C31.0397 270.692 31.0974 270.755 31.1472 270.823C31.1498 270.825 31.1524 270.831 31.1551 270.833C31.2075 270.904 31.2495 270.983 31.2888 271.064C31.2993 271.085 31.3071 271.103 31.315 271.124C31.3517 271.208 31.3832 271.298 31.4042 271.392C31.4042 271.392 31.4042 271.395 31.4042 271.397C33.8716 282.701 46.0097 333.803 67.6714 353.03C67.6714 353.03 67.64 353.095 67.5823 353.211C67.716 353.087 67.8497 352.967 67.9835 352.843C64.0476 342.969 59.6843 333.271 55.224 323.622C50.9787 314.438 46.6888 305.319 44.6409 295.34C42.5327 285.06 44.911 271.93 37.4509 264.333C27.7672 254.472 22.9188 280.015 22.9188 280.015C22.9188 280.015 23.3017 279.015 24.007 277.601C24.1145 277.384 24.2325 277.158 24.3532 276.922C24.7832 276.101 25.305 275.185 25.9055 274.267C26.7629 272.958 27.7856 271.644 28.942 270.592L28.9472 270.6Z" fill="#6D3005" style="fill:#6D3005;fill:color(display-p3 0.4275 0.1882 0.0196);fill-opacity:1;"/>
<path d="M91.3305 168.098C91.3305 168.098 76.4209 71.3575 123.741 43.2723C123.741 43.2723 119.002 38.0834 107.326 38.4218C107.326 38.4218 112.318 33.0519 122.763 34.1694C122.763 34.1694 121.2 27.278 111.896 28.1804C111.896 28.1804 123.376 22.9941 143.743 26.7822C143.743 26.7822 143.014 22.0865 138.307 19.6284C138.307 19.6284 154.625 18.6132 172.266 26.9501C172.266 26.9501 240.886 22.3252 237.902 160.28C237.902 160.28 223.74 184.118 176.593 210.178C176.593 210.178 120.741 195.246 91.3253 168.095L91.3305 168.098Z" fill="#C8AA86" style="fill:#C8AA86;fill:color(display-p3 0.7843 0.6667 0.5255);fill-opacity:1;"/>
<path d="M223.944 67.5852C221.277 61.2945 218.28 56.0007 215.123 51.5463C203.672 56.7588 168.136 69.1933 108.136 57.6822C104.738 62.2677 101.851 67.3517 99.4093 72.7426C113.38 76.8612 164.73 89.1043 223.944 67.5852Z" fill="#FDEFE4" style="fill:#FDEFE4;fill:color(display-p3 0.9922 0.9373 0.8941);fill-opacity:1;"/>
<path d="M114.429 105.689L131.499 104.857L147.332 110.993L151.415 117.756C151.415 117.756 149.044 122.357 144.644 124.257C140.244 126.156 132.013 127.129 132.013 127.129L120.827 122.41L116.01 115.038L114.353 105.24" fill="#FDEFE4" style="fill:#FDEFE4;fill:color(display-p3 0.9922 0.9373 0.8941);fill-opacity:1;"/>
<mask id="mask0_1299_267490" style="mask-type:luminance" maskUnits="userSpaceOnUse" x="114" y="104" width="38" height="24">
<path d="M114.428 105.689L131.498 104.857L147.331 110.993L151.414 117.756C151.414 117.756 149.043 122.357 144.643 124.257C140.243 126.156 132.012 127.129 132.012 127.129L120.826 122.41L116.009 115.038L114.352 105.24" fill="white" style="fill:white;fill:white;fill-opacity:1;"/>
</mask>
<g mask="url(#mask0_1299_267490)">
<path d="M134.162 111.463C134.005 110.754 133.976 110.051 134.05 109.367C134.739 110.169 135.835 110.576 136.939 110.329C138.534 109.973 139.538 108.393 139.181 106.798C138.935 105.694 138.101 104.873 137.083 104.592C137.668 104.235 138.319 103.96 139.027 103.803C142.485 103.031 145.912 105.209 146.683 108.669C147.454 112.129 145.278 115.558 141.819 116.329C138.36 117.1 134.933 114.923 134.162 111.463Z" fill="#6D3005" style="fill:#6D3005;fill:color(display-p3 0.4275 0.1882 0.0196);fill-opacity:1;"/>
</g>
<path opacity="0.14" d="M151.108 118.241C151.108 118.241 148.803 122.9 144.23 124.975C139.657 127.053 123.431 128.226 120.904 124.01C118.378 119.794 114.797 109.773 114.797 109.771C116.386 114.215 119.564 118.108 123.667 120.453C128.382 123.15 134.043 123.401 139.293 122.525C141.283 122.192 143.244 121.712 145.185 121.164C146.291 120.852 147.385 120.471 148.423 119.97C149.121 119.634 150.746 118.971 151.108 118.239V118.241Z" fill="#6D3005" style="fill:#6D3005;fill:color(display-p3 0.4275 0.1882 0.0196);fill-opacity:1;"/>
<path d="M104.921 108.414C106.096 107.756 107.321 107.192 108.569 106.68C109.817 106.169 111.089 105.712 112.376 105.306C114.956 104.495 117.61 103.884 120.311 103.496C123.012 103.107 125.762 102.953 128.521 103.073C129.9 103.128 131.279 103.273 132.653 103.475C134.027 103.69 135.391 103.989 136.739 104.361C138.081 104.747 139.408 105.206 140.698 105.762C141.98 106.334 143.234 106.977 144.43 107.719C145.625 108.459 146.766 109.291 147.825 110.206C148.365 110.655 148.869 111.143 149.375 111.623C149.857 112.129 150.348 112.627 150.796 113.16C151.266 113.674 151.677 114.238 152.105 114.781C152.503 115.348 152.92 115.901 153.277 116.492C153.654 117.069 153.998 117.667 154.331 118.265C154.504 118.561 154.646 118.874 154.806 119.178C154.955 119.485 155.123 119.784 155.257 120.099C156.395 122.583 157.236 125.172 157.734 127.814C156.531 125.411 155.257 123.087 153.796 120.922C153.059 119.847 152.296 118.795 151.465 117.811C151.061 117.31 150.621 116.841 150.198 116.36C149.75 115.904 149.317 115.434 148.848 115.002C147.933 114.118 146.96 113.302 145.948 112.551C144.93 111.806 143.887 111.101 142.78 110.5C140.588 109.272 138.246 108.315 135.811 107.638C133.38 106.94 130.86 106.518 128.306 106.29C125.752 106.059 123.161 106.032 120.563 106.153C117.964 106.271 115.355 106.547 112.749 106.93C110.139 107.313 107.533 107.801 104.919 108.412L104.921 108.414Z" fill="#84654A" style="fill:#84654A;fill:color(display-p3 0.5176 0.3961 0.2902);fill-opacity:1;"/>
<path d="M114.429 105.689C114.802 107.961 115.399 110.143 116.202 112.21C117.004 114.275 118.022 116.216 119.285 117.937C120.56 119.647 122.052 121.145 123.772 122.326C125.474 123.52 127.401 124.409 129.399 125.033C131.395 125.644 133.466 125.92 135.543 125.846C137.617 125.752 139.699 125.327 141.695 124.561C143.69 123.803 145.609 122.746 147.372 121.431C148.255 120.776 149.094 120.051 149.878 119.259C150.66 118.462 151.386 117.601 151.968 116.604C151.858 117.171 151.661 117.725 151.441 118.27C151.203 118.805 150.94 119.335 150.631 119.839C150.025 120.852 149.299 121.796 148.496 122.675C146.886 124.425 144.946 125.896 142.788 127.011C142.515 127.142 142.245 127.287 141.967 127.41L141.128 127.775L140.268 128.092C139.98 128.194 139.683 128.278 139.392 128.37C138.215 128.724 136.996 128.947 135.761 129.076C134.526 129.188 133.277 129.16 132.04 129.044C130.802 128.916 129.591 128.638 128.403 128.297C127.818 128.097 127.228 127.914 126.664 127.67C126.381 127.549 126.093 127.447 125.815 127.313L124.981 126.911C123.893 126.334 122.82 125.705 121.853 124.928C119.889 123.42 118.258 121.5 117.038 119.398C115.829 117.284 115.027 114.991 114.594 112.672C114.382 111.51 114.248 110.34 114.217 109.173C114.183 108.008 114.233 106.838 114.427 105.697L114.429 105.689Z" fill="#84654A" style="fill:#84654A;fill:color(display-p3 0.5176 0.3961 0.2902);fill-opacity:1;"/>
<path d="M201.551 90.0407C201.454 89.4164 201.48 88.813 201.546 88.2228C201.617 87.6325 201.737 87.0528 201.91 86.494C202.243 85.3686 202.757 84.3088 203.413 83.3329C204.071 82.3597 204.873 81.4651 205.804 80.707C206.73 79.9436 207.797 79.3245 208.938 78.9048L209.57 78.6713C210.327 78.3906 211.167 78.7788 211.447 79.5344C211.523 79.739 211.549 79.9567 211.534 80.1613C211.521 80.3187 211.523 80.5312 211.515 80.7227L211.5 81.3182C211.484 81.7196 211.471 82.1236 211.452 82.5328C211.439 82.9394 211.408 83.3592 211.4 83.7815C211.384 84.2091 211.374 84.6393 211.4 85.1299C210.941 84.9436 210.556 84.6288 210.209 84.2957C209.866 83.9573 209.567 83.59 209.302 83.2044C209.032 82.8214 208.807 82.4226 208.597 82.016C208.492 81.8114 208.398 81.6068 208.308 81.3969C208.217 81.1818 208.138 80.9877 208.054 80.7358L210.647 81.9924C209.921 82.622 209.221 83.2332 208.526 83.876C207.829 84.5108 207.136 85.1666 206.423 85.8408C205.705 86.5098 204.973 87.2023 204.176 87.8975C203.379 88.6005 202.555 89.3115 201.551 90.0407Z" fill="#84654A" style="fill:#84654A;fill:color(display-p3 0.5176 0.3961 0.2902);fill-opacity:1;"/>
<path d="M208.631 89.5974C208.636 88.8812 208.772 88.1834 208.951 87.4988C209.139 86.8167 209.375 86.1451 209.674 85.4972C210.27 84.2012 211.072 82.984 212.055 81.8954C212.551 81.3576 213.088 80.8487 213.668 80.3817C214.253 79.9279 214.866 79.495 215.522 79.1304C216.825 78.388 218.262 77.8686 219.728 77.5748L219.848 77.5512C220.931 77.3334 221.985 78.0365 222.203 79.1225C222.221 79.2196 222.235 79.3271 222.24 79.4216C222.253 79.7101 222.258 79.9541 222.258 80.2164C222.258 80.4735 222.258 80.7306 222.25 80.9851C222.237 81.4966 222.208 82.0082 222.164 82.5171C222.075 83.5376 221.928 84.558 221.692 85.5732C221.456 86.5858 221.149 87.5958 220.695 88.5664C220.47 89.0518 220.208 89.524 219.898 89.9647C219.586 90.4028 219.219 90.8199 218.773 91.1111C218.883 90.5943 218.925 90.109 218.936 89.6236C218.952 89.141 218.936 88.6635 218.918 88.1887C218.897 87.7139 218.865 87.2417 218.823 86.7695C218.794 86.2999 218.739 85.8251 218.7 85.3555L218.419 82.5328L218.133 79.7521L220.646 81.5989C219.542 81.9111 218.474 82.2967 217.441 82.7873C216.408 83.2778 215.406 83.8655 214.423 84.5449C213.442 85.2243 212.472 85.9877 211.52 86.8324C210.563 87.6798 209.625 88.5927 208.636 89.6L208.631 89.5974Z" fill="#84654A" style="fill:#84654A;fill:color(display-p3 0.5176 0.3961 0.2902);fill-opacity:1;"/>
<path d="M129.864 99.5922C128.912 98.7974 128.136 98.0314 127.388 97.2785C126.638 96.5308 125.957 95.791 125.283 95.0749C124.617 94.3561 123.969 93.6557 123.316 92.9736C122.666 92.2863 122.008 91.6278 121.326 90.9536L123.998 89.8728C123.898 90.1194 123.806 90.3083 123.702 90.5156C123.599 90.7202 123.489 90.9196 123.371 91.1163C123.135 91.5072 122.883 91.8902 122.587 92.2548C122.299 92.6221 121.976 92.9684 121.609 93.2832C121.239 93.5927 120.836 93.8813 120.364 94.036C120.421 93.5481 120.44 93.1179 120.453 92.6903C120.471 92.2679 120.468 91.8482 120.484 91.4416C120.492 91.0324 120.508 90.6284 120.518 90.227L120.542 89.6315C120.547 89.44 120.563 89.2275 120.563 89.0701C120.55 88.2621 121.195 87.5984 122.002 87.5853C122.22 87.5827 122.427 87.6273 122.616 87.7086L123.235 87.9867C124.344 88.4851 125.369 89.1724 126.242 89.9961C127.121 90.8146 127.86 91.759 128.453 92.7769C129.04 93.7947 129.483 94.8886 129.74 96.0324C129.874 96.6016 129.955 97.1866 129.987 97.7821C130.013 98.375 130 98.981 129.861 99.5975L129.864 99.5922Z" fill="#84654A" style="fill:#84654A;fill:color(display-p3 0.5176 0.3961 0.2902);fill-opacity:1;"/>
<path d="M122.828 98.6767C121.908 97.6064 121.032 96.6332 120.135 95.7229C119.241 94.8152 118.326 93.9915 117.39 93.2465C116.454 92.5041 115.491 91.8508 114.495 91.2921C113.496 90.7333 112.457 90.2769 111.377 89.8912L114.007 88.2176L113.535 90.9747L113.068 93.7737C112.995 94.2407 112.908 94.7076 112.851 95.1772C112.777 95.6442 112.714 96.1164 112.662 96.5886C112.612 97.0608 112.565 97.5356 112.547 98.0183C112.526 98.5036 112.536 98.9915 112.61 99.5135C112.185 99.1909 111.849 98.7502 111.566 98.2937C111.285 97.832 111.055 97.3441 110.863 96.8456C110.475 95.8488 110.236 94.8204 110.069 93.7947C109.903 92.7664 109.825 91.7381 109.804 90.715C109.793 90.2034 109.799 89.6919 109.82 89.1803C109.827 88.9232 109.843 88.6688 109.862 88.4117C109.88 88.1494 109.898 87.908 109.932 87.6194C110.058 86.5203 111.049 85.7307 112.148 85.8566C112.245 85.8671 112.342 85.8854 112.434 85.909L112.565 85.9458C114.007 86.3366 115.407 86.9505 116.658 87.7795C117.288 88.1861 117.87 88.6583 118.426 89.1515C118.971 89.6551 119.474 90.1982 119.933 90.77C120.841 91.9191 121.559 93.1914 122.068 94.5214C122.325 95.1851 122.516 95.8724 122.658 96.5649C122.789 97.2601 122.878 97.9658 122.836 98.6793L122.828 98.6767Z" fill="#84654A" style="fill:#84654A;fill:color(display-p3 0.5176 0.3961 0.2902);fill-opacity:1;"/>
<path d="M112.274 153.42C112.533 153.911 112.727 154.372 112.914 154.826C113.011 155.054 113.084 155.277 113.176 155.498L113.409 156.153C113.708 157.017 113.947 157.848 114.18 158.638C114.416 159.425 114.615 160.188 114.841 160.891C115.072 161.592 115.297 162.237 115.557 162.861L113.653 162.171C113.653 162.171 113.637 162.179 113.643 162.179H113.661C113.661 162.179 113.685 162.184 113.703 162.184C113.737 162.184 113.768 162.184 113.805 162.184L114.028 162.169C114.18 162.156 114.34 162.135 114.497 162.111C114.815 162.061 115.135 161.996 115.465 161.904C115.803 161.817 116.118 161.681 116.469 161.497C116.831 161.316 117.146 161.046 117.542 160.705C117.586 160.82 117.623 160.941 117.654 161.067C117.686 161.193 117.715 161.321 117.717 161.447C117.728 161.576 117.733 161.707 117.731 161.841C117.72 161.969 117.707 162.103 117.683 162.234C117.597 162.762 117.379 163.284 117.078 163.737C116.779 164.197 116.398 164.601 115.979 164.942C115.767 165.109 115.546 165.267 115.31 165.406C115.195 165.477 115.072 165.542 114.946 165.605C114.883 165.637 114.815 165.668 114.749 165.7C114.718 165.715 114.678 165.731 114.639 165.747L114.581 165.771L114.495 165.799C113.897 165.994 113.268 165.815 112.861 165.39L112.594 165.109C111.776 164.254 111.22 163.234 110.863 162.211C110.779 161.956 110.708 161.697 110.635 161.437C110.575 161.177 110.53 160.923 110.485 160.663C110.433 160.403 110.417 160.146 110.396 159.892C110.381 159.635 110.357 159.378 110.367 159.126C110.362 158.108 110.525 157.111 110.824 156.151C110.976 155.671 111.165 155.201 111.401 154.745C111.639 154.288 111.907 153.842 112.276 153.425L112.274 153.42Z" fill="#84654A" style="fill:#84654A;fill:color(display-p3 0.5176 0.3961 0.2902);fill-opacity:1;"/>
<path d="M117.002 155.422C117.342 156.316 117.647 157.137 117.974 157.922C118.294 158.706 118.64 159.438 118.994 160.12C119.346 160.807 119.75 161.413 120.156 161.972C120.266 162.106 120.371 162.24 120.471 162.376C120.581 162.505 120.699 162.62 120.806 162.746C120.861 162.806 120.916 162.869 120.969 162.932C121.027 162.99 121.09 163.042 121.15 163.097C121.27 163.205 121.383 163.32 121.499 163.433L119.097 163.129C119.097 163.129 119.078 163.137 119.099 163.124L119.144 163.092C119.173 163.074 119.207 163.053 119.244 163.024C119.314 162.974 119.388 162.924 119.461 162.864C119.611 162.754 119.76 162.63 119.91 162.507C120.206 162.255 120.492 161.985 120.764 161.699C121.302 161.125 121.808 160.503 122.225 159.787C122.351 159.616 122.422 159.422 122.532 159.239C122.637 159.052 122.744 158.863 122.82 158.659L123.101 158.048C123.169 157.835 123.253 157.617 123.331 157.397C123.371 157.287 123.415 157.174 123.46 157.061C123.494 156.948 123.523 156.83 123.554 156.715C123.623 156.481 123.693 156.243 123.769 155.996C123.901 155.506 124 154.997 124.176 154.451C124.341 154.674 124.483 154.907 124.624 155.146C124.758 155.388 124.91 155.631 125.01 155.889C125.112 156.146 125.204 156.408 125.296 156.676C125.337 156.809 125.382 156.946 125.421 157.082C125.45 157.219 125.479 157.358 125.503 157.499C125.55 157.78 125.602 158.063 125.639 158.352C125.649 158.638 125.657 158.932 125.66 159.225C125.657 159.372 125.665 159.522 125.649 159.669L125.594 160.109C125.576 160.256 125.552 160.406 125.532 160.553L125.497 160.776L125.44 160.994C125.183 162.174 124.629 163.297 123.906 164.281C123.733 164.535 123.52 164.755 123.326 164.991C123.119 165.217 122.899 165.432 122.676 165.645C122.443 165.847 122.212 166.051 121.952 166.235C121.829 166.329 121.693 166.421 121.556 166.51C121.491 166.555 121.42 166.602 121.341 166.647L121.226 166.715L121.066 166.804L120.966 166.859C120.19 167.289 119.244 167.116 118.661 166.5C118.475 166.303 118.289 166.106 118.111 165.902C118.022 165.799 117.93 165.7 117.846 165.597L117.613 165.27C117.463 165.049 117.301 164.834 117.169 164.603C117.044 164.372 116.92 164.139 116.805 163.903C116.37 162.956 116.071 161.969 115.968 160.986C115.853 160.005 115.887 159.031 116.05 158.095C116.134 157.625 116.246 157.166 116.401 156.715C116.553 156.266 116.739 155.826 116.996 155.416L117.002 155.422Z" fill="#84654A" style="fill:#84654A;fill:color(display-p3 0.5176 0.3961 0.2902);fill-opacity:1;"/>
<path d="M220.42 141.353C220.842 141.633 221.21 141.914 221.548 142.195C221.723 142.334 221.876 142.478 222.041 142.615L222.5 143.032C223.095 143.585 223.617 144.136 224.112 144.658C224.605 145.178 225.051 145.692 225.481 146.151C225.916 146.607 226.315 147.022 226.721 147.423L224.708 147.623C224.708 147.623 224.694 147.638 224.697 147.638H224.71C224.71 147.638 224.728 147.633 224.742 147.625C224.768 147.615 224.791 147.607 224.818 147.594L224.985 147.51C225.101 147.449 225.219 147.381 225.337 147.31C225.573 147.169 225.806 147.014 226.045 146.836C226.291 146.657 226.506 146.447 226.74 146.18L226.91 145.965L227.065 145.723C227.185 145.553 227.256 145.366 227.374 145.149C227.72 145.443 228.017 145.852 228.153 146.316C228.308 146.78 228.347 147.295 228.292 147.79C228.24 148.289 228.098 148.774 227.893 149.223C227.789 149.446 227.673 149.666 227.537 149.873C227.471 149.978 227.398 150.083 227.319 150.185C227.282 150.238 227.238 150.29 227.196 150.343C227.178 150.369 227.149 150.398 227.125 150.424L227.086 150.466L227.023 150.527C226.58 150.951 225.948 151.064 225.408 150.87L225.009 150.726C223.997 150.359 223.139 149.747 222.452 149.055C222.285 148.882 222.127 148.695 221.967 148.517C221.82 148.328 221.684 148.139 221.55 147.945C221.409 147.754 221.299 147.552 221.183 147.352C221.073 147.15 220.958 146.948 220.871 146.741C220.488 145.915 220.252 145.041 220.158 144.144C220.111 143.693 220.1 143.239 220.137 142.775C220.171 142.313 220.252 141.838 220.415 141.358L220.42 141.353Z" fill="#84654A" style="fill:#84654A;fill:color(display-p3 0.5176 0.3961 0.2902);fill-opacity:1;"/>
<path d="M224.944 141.145C225.602 141.71 226.184 142.226 226.766 142.706C227.34 143.186 227.909 143.617 228.455 144.002C229 144.393 229.551 144.7 230.073 144.97C230.597 145.246 231.127 145.406 231.641 145.574L229.341 146.334C229.341 146.334 229.325 146.355 229.336 146.334L229.357 146.298C229.37 146.277 229.388 146.248 229.406 146.214C229.443 146.151 229.48 146.088 229.514 146.014C229.587 145.878 229.656 145.728 229.726 145.579C229.86 145.277 229.983 144.968 230.093 144.65C230.303 144.015 230.479 143.357 230.56 142.649C230.6 142.47 230.589 142.292 230.61 142.108C230.628 141.925 230.649 141.736 230.639 141.547L230.652 140.959C230.631 140.765 230.628 140.56 230.613 140.356C230.605 140.254 230.602 140.146 230.6 140.038C230.589 139.934 230.571 139.829 230.558 139.724C230.534 139.509 230.505 139.291 230.484 139.063C230.421 138.614 230.327 138.16 230.282 137.641C230.51 137.746 230.723 137.872 230.938 138C231.145 138.137 231.37 138.265 231.557 138.428C231.745 138.59 231.926 138.761 232.113 138.937C232.202 139.026 232.293 139.115 232.38 139.209C232.461 139.307 232.54 139.406 232.616 139.509C232.768 139.713 232.928 139.92 233.072 140.138C233.196 140.364 233.324 140.595 233.445 140.831C233.502 140.951 233.568 141.067 233.615 141.19L233.749 141.568C233.793 141.694 233.835 141.822 233.877 141.951L233.94 142.145L233.982 142.344C234.247 143.404 234.242 144.535 234.042 145.618C234.003 145.894 233.914 146.156 233.851 146.426C233.772 146.691 233.678 146.951 233.578 147.213C233.466 147.47 233.358 147.727 233.219 147.977C233.156 148.103 233.078 148.231 233.001 148.357C232.965 148.42 232.925 148.486 232.878 148.556L232.81 148.659L232.71 148.798L232.668 148.858C232.147 149.587 231.216 149.85 230.413 149.558C229.49 149.223 228.612 148.766 227.893 148.152C227.175 147.544 226.559 146.851 226.108 146.085C225.649 145.327 225.319 144.516 225.114 143.687C225.012 143.273 224.941 142.853 224.909 142.426C224.878 142.001 224.875 141.57 224.949 141.138L224.944 141.145Z" fill="#84654A" style="fill:#84654A;fill:color(display-p3 0.5176 0.3961 0.2902);fill-opacity:1;"/>
<path opacity="0.26" d="M91.3305 168.097C101.987 177.932 116.11 186.164 129.793 192.662C131.964 192.214 130.097 189.071 117.345 179.63C86.6709 156.92 104.921 74.2379 104.921 74.2379L107.562 74.8334C106.935 70.7673 113.396 58.6423 113.396 58.6423L117.537 59.327C121.076 50.1401 123.284 50.3107 128.041 47.425C129.819 46.3468 127.029 44.4817 125.112 43.6711C118.113 40.712 112.116 38.3169 107.496 38.2565C107.383 38.3615 107.326 38.4244 107.326 38.4244C119.002 38.0834 123.741 43.2749 123.741 43.2749C76.4209 71.3601 91.3305 168.1 91.3305 168.1V168.097Z" fill="#6D3005" style="fill:#6D3005;fill:color(display-p3 0.4275 0.1882 0.0196);fill-opacity:1;"/>
<path d="M220.784 104.949L203.714 104.117L187.881 110.253L183.798 117.016C183.798 117.016 186.169 121.618 190.569 123.517C194.969 125.416 203.2 126.389 203.2 126.389L214.386 121.67L219.203 114.299L220.86 104.5" fill="#FDEFE4" style="fill:#FDEFE4;fill:color(display-p3 0.9922 0.9373 0.8941);fill-opacity:1;"/>
<mask id="mask1_1299_267490" style="mask-type:luminance" maskUnits="userSpaceOnUse" x="183" y="104" width="38" height="23">
<path d="M220.783 104.949L203.713 104.117L187.88 110.253L183.798 117.016C183.798 117.016 186.168 121.618 190.568 123.517C194.968 125.416 203.199 126.389 203.199 126.389L214.385 121.67L219.202 114.299L220.86 104.5" fill="white" style="fill:white;fill:white;fill-opacity:1;"/>
</mask>
<g mask="url(#mask1_1299_267490)">
<path d="M216.748 108.782C216.905 108.073 216.934 107.37 216.861 106.686C216.171 107.488 215.075 107.895 213.971 107.648C212.377 107.292 211.372 105.712 211.729 104.117C211.975 103.013 212.809 102.192 213.827 101.911C213.242 101.554 212.592 101.279 211.884 101.122C208.425 100.35 204.998 102.528 204.227 105.988C203.456 109.448 205.632 112.877 209.091 113.648C212.55 114.419 215.977 112.242 216.748 108.782Z" fill="#6D3005" style="fill:#6D3005;fill:color(display-p3 0.4275 0.1882 0.0196);fill-opacity:1;"/>
</g>
<path opacity="0.14" d="M184.103 117.502C184.103 117.502 186.408 122.161 190.981 124.236C195.554 126.313 211.78 127.486 214.308 123.27C216.833 119.055 220.415 109.034 220.415 109.031C218.826 113.475 215.647 117.368 211.544 119.713C206.829 122.41 201.168 122.662 195.918 121.785C193.928 121.452 191.967 120.972 190.026 120.424C188.92 120.112 187.826 119.731 186.788 119.23C186.09 118.895 184.465 118.231 184.103 117.499V117.502Z" fill="#6D3005" style="fill:#6D3005;fill:color(display-p3 0.4275 0.1882 0.0196);fill-opacity:1;"/>
<path d="M230.293 107.675C227.678 107.063 225.074 106.576 222.463 106.193C219.854 105.81 217.247 105.534 214.649 105.416C212.05 105.298 209.462 105.324 206.905 105.552C204.351 105.781 201.832 106.203 199.401 106.901C196.965 107.575 194.623 108.535 192.431 109.763C191.327 110.364 190.283 111.069 189.263 111.814C188.251 112.565 187.276 113.38 186.363 114.264C185.897 114.697 185.464 115.167 185.013 115.623C184.591 116.103 184.15 116.573 183.746 117.074C182.915 118.058 182.152 119.107 181.415 120.185C179.955 122.35 178.68 124.674 177.477 127.077C177.975 124.435 178.817 121.846 179.955 119.362C180.088 119.047 180.256 118.748 180.406 118.441C180.563 118.136 180.705 117.824 180.88 117.528C181.213 116.927 181.557 116.332 181.934 115.754C182.291 115.162 182.708 114.611 183.107 114.044C183.534 113.501 183.946 112.937 184.415 112.423C184.863 111.89 185.351 111.392 185.836 110.886C186.342 110.403 186.846 109.915 187.386 109.469C188.448 108.554 189.586 107.722 190.782 106.982C191.977 106.24 193.231 105.597 194.513 105.025C195.803 104.469 197.13 104.01 198.473 103.624C199.82 103.252 201.184 102.953 202.558 102.738C203.932 102.538 205.311 102.394 206.69 102.336C209.449 102.216 212.2 102.37 214.9 102.759C217.601 103.149 220.255 103.758 222.835 104.569C224.125 104.975 225.397 105.432 226.643 105.943C227.888 106.455 229.115 107.019 230.29 107.677L230.293 107.675Z" fill="#84654A" style="fill:#84654A;fill:color(display-p3 0.5176 0.3961 0.2902);fill-opacity:1;"/>
<path d="M220.784 104.949C220.978 106.09 221.028 107.258 220.994 108.425C220.965 109.592 220.829 110.762 220.617 111.924C220.184 114.246 219.382 116.536 218.173 118.651C216.953 120.755 215.322 122.672 213.358 124.181C212.391 124.957 211.318 125.587 210.23 126.164L209.396 126.565C209.118 126.702 208.83 126.804 208.547 126.922C207.983 127.166 207.393 127.35 206.808 127.549C205.62 127.887 204.409 128.165 203.171 128.297C201.934 128.412 200.688 128.441 199.45 128.328C198.218 128.202 196.996 127.976 195.819 127.622C195.525 127.528 195.231 127.447 194.943 127.344L194.083 127.027L193.244 126.662C192.966 126.542 192.696 126.395 192.423 126.263C190.265 125.149 188.325 123.677 186.715 121.927C185.912 121.048 185.186 120.107 184.58 119.091C184.271 118.59 184.008 118.058 183.77 117.523C183.552 116.977 183.356 116.423 183.243 115.857C183.825 116.854 184.551 117.717 185.333 118.512C186.117 119.304 186.956 120.028 187.839 120.684C189.604 121.998 191.521 123.055 193.516 123.813C195.512 124.579 197.594 125.004 199.668 125.099C201.745 125.172 203.819 124.897 205.812 124.285C207.807 123.664 209.737 122.774 211.439 121.578C213.159 120.4 214.654 118.9 215.926 117.189C217.189 115.471 218.207 113.527 219.009 111.463C219.809 109.396 220.409 107.213 220.782 104.941L220.784 104.949Z" fill="#84654A" style="fill:#84654A;fill:color(display-p3 0.5176 0.3961 0.2902);fill-opacity:1;"/>
<path d="M125.692 157.798C125.692 157.798 129.35 147.544 133.773 146.232C138.197 144.92 151.108 152.625 167.83 144.427C175.384 135.12 180.401 143.548 182.344 144.191C182.344 144.191 197.143 153.278 205.563 148.312C213.98 143.346 211.054 159.611 211.054 159.611C211.054 159.611 181.316 158.155 174.181 167.804C158.311 157.811 125.694 157.798 125.694 157.798H125.692Z" fill="#F79F1F" style="fill:#F79F1F;fill:color(display-p3 0.9686 0.6235 0.1216);fill-opacity:1;"/>
<path opacity="0.2" d="M125.692 157.798C125.692 157.798 131.736 154.454 134.607 154.632C141.06 156.927 152.991 158.95 161.678 155.579C176.562 162.274 181.093 157.528 183.799 156.085C187.121 155.319 196.362 159.425 203.887 156.085C206.989 154.052 211.054 159.611 211.054 159.611C211.054 159.611 196.121 159.299 189.565 160.868C183.007 162.436 174.181 167.804 174.181 167.804C174.181 167.804 161.962 162.253 159.101 161.815C156.24 161.376 125.692 157.798 125.692 157.798Z" fill="black" style="fill:black;fill:black;fill-opacity:1;"/>
<path d="M261.583 36.7324C259.516 32.9758 259.71 28.608 261.709 24.8514C263.45 21.5775 266.276 19.004 269.3 16.8529C278.045 10.6252 290.309 9.26631 298.684 16.7664C309.757 26.6825 312.29 42.926 306.907 56.4466C303.304 65.4944 294.971 71.5149 289.231 79.1042C286.638 82.5355 284.451 86.4258 283.454 90.6415C282.746 93.6347 284.026 99.566 280.392 101.04C278.944 101.628 277.213 100.975 276.172 99.81C275.134 98.6452 274.673 97.0739 274.439 95.5287C273.461 89.036 276.036 82.4594 279.754 77.0501C283.47 71.6382 288.297 67.1025 292.59 62.1366C298.757 55.0012 303.708 46.945 300.64 37.3594C298.104 29.4396 290.82 23.4165 282.24 24.6074C277.759 25.2292 273.558 28.3457 272.218 32.6689C275.517 31.9685 279.044 34.3399 280.019 37.5719C280.997 40.8012 279.618 44.4895 277.017 46.638C273.325 49.6863 267.21 50.1769 263.659 46.6669C260.594 43.637 259.915 38.4743 262.097 34.757" fill="#6D3005" style="fill:#6D3005;fill:color(display-p3 0.4275 0.1882 0.0196);fill-opacity:1;"/>
<path d="M262.149 36.4018C261.019 34.3189 260.579 31.9553 260.859 29.6022C261.14 27.2491 262.154 25.0823 263.526 23.1856C264.897 21.2889 266.602 19.7176 268.421 18.3141C270.115 17.0077 271.919 15.8561 273.847 14.9274C277.523 13.154 281.624 12.1808 285.715 12.3172C289.805 12.4536 293.828 13.7941 297.097 16.2968C300.359 18.7915 303.013 22.194 304.946 25.7932C306.862 29.3609 308.09 33.2854 308.64 37.2964C309.194 41.3179 309.057 45.447 308.281 49.4292C307.505 53.4114 306.008 57.5956 303.703 61.1633C301.327 64.8412 298.288 68.0233 295.293 71.1949C292.299 74.3665 289.123 77.7715 286.706 81.5832C285.384 83.6661 284.265 85.888 283.467 88.2228C283.142 89.1751 282.835 90.1588 282.694 91.1583C282.584 91.9374 282.55 92.7244 282.523 93.5114C282.468 95.1064 282.479 96.7591 281.973 98.2911C281.501 99.7155 280.263 100.893 278.658 100.539C276.374 100.036 275.465 97.693 275.113 95.6205C274.717 93.2753 274.84 90.8356 275.323 88.5114C276.325 83.6818 278.776 79.3062 281.737 75.4132C284.697 71.5202 288.384 67.8265 291.748 64.0726C294.819 60.6439 297.79 57.0106 299.817 52.85C301.778 48.8311 302.691 44.4161 301.946 39.9669C301.262 35.8798 299.287 31.9763 296.384 29.0198C293.639 26.226 290.052 24.3477 286.147 23.8965C282.028 23.4217 277.796 24.6337 274.749 27.4957C273.291 28.8651 272.184 30.5781 271.581 32.4879C271.421 32.9942 271.922 33.3877 272.389 33.2958C275.176 32.7345 278.061 34.5918 279.162 37.1259C280.368 39.9014 279.372 43.2644 277.368 45.3972C275.365 47.5299 272.507 48.5242 269.701 48.4481C266.895 48.372 264.218 46.9397 262.755 44.4292C261.108 41.6039 261.016 37.926 262.658 35.0797C263.08 34.3478 261.947 33.6867 261.525 34.4186C259.823 37.3672 259.76 41.0399 261.132 44.1301C262.503 47.2204 265.359 49.2771 268.726 49.6889C271.909 50.0772 275.315 49.0226 277.714 46.8925C280.287 44.6076 281.653 40.8116 280.667 37.4512C279.61 33.8494 275.774 31.2785 272.043 32.0314L272.85 32.8394C274.098 28.8992 277.777 26.1211 281.75 25.3472C285.723 24.5733 289.671 25.5938 292.907 27.8C296.135 29.9983 298.553 33.3483 299.835 37.0183C301.351 41.3494 301.188 45.9114 299.562 50.1847C297.939 54.4476 295.126 58.1911 292.17 61.6171C288.822 65.497 285.159 69.0962 281.926 73.0784C278.745 76.995 275.989 81.3182 274.557 86.195C273.87 88.535 273.501 90.993 273.59 93.4327C273.679 95.8724 274.07 98.3855 275.664 100.219C277.035 101.796 279.45 102.475 281.291 101.313C282.691 100.432 283.31 98.8367 283.562 97.2654C283.827 95.6022 283.782 93.918 283.897 92.2417C284.034 90.2375 284.776 88.2044 285.61 86.3576C287.55 82.0501 290.492 78.3382 293.657 74.8754C296.665 71.5831 299.864 68.4535 302.612 64.933C303.973 63.1911 305.226 61.3653 306.259 59.4083C307.292 57.4513 308.061 55.4235 308.68 53.3301C309.867 49.3138 310.41 45.0903 310.261 40.9035C310.111 36.7612 309.296 32.6295 307.764 28.7733C306.215 24.8698 303.973 21.2627 301.091 18.2013C299.596 16.6142 297.95 15.1583 296.083 14.0224C294.216 12.8865 292.349 12.1336 290.33 11.6378C286.265 10.6383 281.962 10.8586 277.95 11.984C273.718 13.1724 269.877 15.3655 266.515 18.1777C262.841 21.2522 259.781 25.3682 259.488 30.3053C259.349 32.6584 259.899 34.9984 261.019 37.0655C261.42 37.8079 262.553 37.1469 262.152 36.4045L262.149 36.4018Z" fill="#6D3005" style="fill:#6D3005;fill:color(display-p3 0.4275 0.1882 0.0196);fill-opacity:1;"/>
<path d="M280.906 108.598C278.915 107.176 275.91 107.428 274.182 109.159C272.861 110.482 272.342 112.444 272.394 114.314C272.42 115.196 272.567 116.098 273.013 116.862C273.309 117.368 273.729 117.795 274.193 118.157C276.532 119.981 280.161 119.944 282.392 117.992C284.624 116.04 285.117 112.355 283.394 109.941C282.468 108.645 280.809 107.732 279.277 108.168" fill="#6D3005" style="fill:#6D3005;fill:color(display-p3 0.4275 0.1882 0.0196);fill-opacity:1;"/>
<path d="M281.239 108.031C278.936 106.423 275.491 106.772 273.582 108.842C272.517 109.996 271.98 111.492 271.799 113.031C271.618 114.571 271.786 116.392 272.8 117.688C274.586 119.973 277.99 120.686 280.656 119.734C281.983 119.262 283.113 118.417 283.908 117.25C284.661 116.145 285.056 114.797 285.088 113.467C285.125 111.911 284.632 110.356 283.622 109.165C282.537 107.882 280.78 107.087 279.109 107.533C278.294 107.751 278.64 109.015 279.458 108.797C280.588 108.496 281.724 109.065 282.497 109.873C283.271 110.681 283.672 111.728 283.758 112.798C283.939 115.03 282.867 117.234 280.835 118.247C278.803 119.259 276.196 118.989 274.492 117.551C273.986 117.124 273.553 116.62 273.335 115.985C273.118 115.35 273.05 114.676 273.055 114.005C273.063 112.761 273.338 111.502 274.004 110.437C275.383 108.236 278.475 107.69 280.583 109.162C280.874 109.364 281.312 109.215 281.48 108.926C281.671 108.598 281.535 108.231 281.244 108.029L281.239 108.031Z" fill="#6D3005" style="fill:#6D3005;fill:color(display-p3 0.4275 0.1882 0.0196);fill-opacity:1;"/>
<path d="M314.084 61.9923C313.848 59.0279 315.212 56.3233 317.545 54.5158C319.58 52.9418 322.098 52.1208 324.62 51.6223C331.923 50.1769 340.062 52.8133 343.222 59.9382C347.399 69.3612 344.378 80.3529 337.125 87.365C332.272 92.0581 325.289 93.4904 319.502 96.6515C316.885 98.0812 314.396 99.9175 312.566 102.299C311.268 103.992 310.387 108.105 307.67 108C306.587 107.958 305.68 107.053 305.355 106.019C305.03 104.986 305.185 103.86 305.478 102.819C306.708 98.4354 310.209 95.0119 314.097 92.651C317.986 90.29 322.328 88.7973 326.456 86.8797C332.384 84.1252 337.81 80.4421 338.596 73.5086C339.247 67.7793 336.357 61.8952 330.593 60.2058C327.583 59.3217 324.041 60.0956 321.964 62.4461C324.25 62.9419 325.803 65.4472 325.501 67.7688C325.2 70.0878 323.278 72.0265 321.022 72.6456C317.821 73.5217 313.817 72.0894 312.571 68.8575C311.496 66.0689 312.537 62.6114 314.973 60.8826" fill="#6D3005" style="fill:#6D3005;fill:color(display-p3 0.4275 0.1882 0.0196);fill-opacity:1;"/>
<path d="M314.538 61.9923C314.305 58.8338 315.975 56.0164 318.594 54.3296C320.039 53.4009 321.66 52.8002 323.32 52.3804C324.743 52.0184 326.188 51.7771 327.657 51.7141C332.993 51.4859 338.617 53.5006 341.677 58.0757C343.319 60.5311 344.205 63.5636 344.528 66.4808C344.858 69.4661 344.583 72.496 343.775 75.3869C342.139 81.2526 338.352 86.6829 333.105 89.844C327.562 93.1835 321.009 94.5187 315.815 98.4904C314.459 99.5266 313.203 100.707 312.173 102.074C311.53 102.926 311.132 103.952 310.641 104.897C310.151 105.841 309.608 106.846 308.664 107.339C307.495 107.947 306.231 107.15 305.819 105.993C305.258 104.416 305.929 102.525 306.598 101.08C307.267 99.6342 308.119 98.4091 309.141 97.268C311.339 94.8152 314.121 93.0182 317.047 91.5544C322.766 88.6897 329.272 86.9741 334.157 82.6587C336.213 80.8434 337.815 78.548 338.583 75.9011C339.37 73.1886 339.328 70.2085 338.447 67.5222C337.597 64.9251 335.951 62.6114 333.648 61.1135C331.181 59.5106 328.084 58.9335 325.252 59.8359C323.873 60.274 322.609 61.0479 321.639 62.1287C321.421 62.37 321.489 62.8081 321.838 62.8894C323.815 63.3433 325.134 65.3422 325.076 67.3255C325.019 69.3087 323.427 71.2263 321.56 71.9871C319.798 72.7059 317.679 72.5721 315.972 71.7641C314.265 70.9561 312.899 69.3402 312.642 67.3491C312.348 65.0773 313.324 62.6297 315.193 61.2813C315.663 60.9429 315.209 60.1533 314.735 60.497C312.797 61.8952 311.659 64.2273 311.685 66.6172C311.711 69.007 312.907 71.0348 314.91 72.2311C316.793 73.3538 319.213 73.6844 321.316 73.039C323.563 72.3491 325.535 70.4105 325.913 68.0364C326.325 65.4524 324.704 62.6192 322.079 62.0159L322.279 62.7766C324.295 60.5258 327.615 59.8202 330.465 60.6517C333.129 61.4309 335.326 63.2777 336.664 65.6964C338.001 68.1151 338.478 71.0375 338.098 73.7919C337.713 76.5779 336.417 79.0989 334.464 81.1083C332.51 83.1178 330.011 84.6315 327.484 85.888C324.271 87.483 320.897 88.7186 317.656 90.248C314.415 91.7774 311.604 93.4589 309.189 95.8881C308.098 96.9846 307.122 98.2124 306.357 99.5555C305.544 100.983 304.891 102.604 304.734 104.249C304.582 105.865 305.213 107.659 306.829 108.289C307.988 108.74 309.22 108.265 310.044 107.407C310.867 106.549 311.355 105.497 311.861 104.472C312.107 103.968 312.351 103.462 312.645 102.982C313.009 102.389 313.484 101.864 313.958 101.36C318.623 96.4049 325.391 94.8021 331.291 91.8692C332.738 91.1504 334.144 90.3398 335.444 89.3744C336.745 88.409 337.849 87.3545 338.89 86.174C340.956 83.8313 342.608 81.1425 343.765 78.2384C346.056 72.4908 346.222 65.9377 343.814 60.1979C342.716 57.5772 340.948 55.3527 338.602 53.7393C336.31 52.1653 333.612 51.2682 330.864 50.9324C327.921 50.573 324.924 50.9219 322.095 51.7771C318.943 52.732 315.87 54.5499 314.428 57.6376C313.793 59.0017 313.507 60.4944 313.62 61.9949C313.662 62.5746 314.572 62.5799 314.53 61.9949L314.538 61.9923Z" fill="#6D3005" style="fill:#6D3005;fill:color(display-p3 0.4275 0.1882 0.0196);fill-opacity:1;"/>
<path d="M305.843 112.929C304.989 111.463 303.019 110.768 301.433 111.368C300.221 111.827 299.335 112.921 298.834 114.117C298.598 114.681 298.436 115.295 298.501 115.904C298.546 116.308 298.687 116.699 298.879 117.058C299.839 118.876 302.143 119.889 304.11 119.291C306.077 118.693 307.438 116.502 307.034 114.487C306.816 113.404 306.029 112.355 304.936 112.195" fill="#6D3005" style="fill:#6D3005;fill:color(display-p3 0.4275 0.1882 0.0196);fill-opacity:1;"/>
<path d="M306.237 112.701C305.24 111.046 303.035 110.238 301.221 110.967C300.24 111.36 299.459 112.108 298.903 112.997C298.3 113.96 297.864 115.156 298.111 116.297C298.541 118.294 300.518 119.682 302.466 119.891C304.414 120.101 306.297 118.944 307.11 117.171C307.566 116.177 307.718 115.017 307.367 113.963C307.016 112.908 306.195 111.948 305.06 111.754C304.488 111.657 304.241 112.533 304.818 112.63C306.496 112.919 306.919 114.97 306.46 116.358C306.001 117.746 304.643 118.944 303.093 119.002C301.543 119.06 299.999 118.202 299.272 116.827C298.79 115.917 298.921 114.978 299.351 114.07C299.713 113.304 300.24 112.583 300.958 112.119C302.445 111.156 304.532 111.633 305.45 113.157C305.752 113.658 306.538 113.202 306.234 112.698L306.237 112.701Z" fill="#6D3005" style="fill:#6D3005;fill:color(display-p3 0.4275 0.1882 0.0196);fill-opacity:1;"/>
<path d="M236.505 72.6429C234.866 70.9089 234.36 68.5296 234.914 66.2237C235.393 64.2168 236.558 62.4356 237.884 60.8538C241.726 56.2761 248.142 53.8311 253.701 56.6984C261.051 60.4917 264.686 68.8863 263.674 76.9242C262.997 82.302 259.347 86.7091 257.317 91.6016C256.4 93.8131 255.765 96.2134 255.817 98.6242C255.854 100.335 257.372 103.351 255.621 104.653C254.923 105.172 253.898 105.062 253.177 104.579C252.456 104.096 251.987 103.315 251.646 102.515C250.211 99.1541 250.681 95.2506 251.926 91.8167C253.172 88.3828 255.138 85.2637 256.756 81.9898C259.082 77.2836 260.624 72.2521 257.632 67.517C255.159 63.6056 250.395 61.3784 245.94 63.22C243.611 64.1827 241.786 66.4467 241.668 68.9624C243.346 68.123 245.578 68.91 246.556 70.5128C247.534 72.1156 247.306 74.2956 246.205 75.8171C244.642 77.9761 241.417 79.0937 239.012 77.7007C236.938 76.4966 235.852 73.8103 236.505 71.5018" fill="#6D3005" style="fill:#6D3005;fill:color(display-p3 0.4275 0.1882 0.0196);fill-opacity:1;"/>
<path d="M236.765 72.3858C235.039 70.5311 234.701 67.9367 235.477 65.5809C236.243 63.2541 237.887 61.1397 239.689 59.5132C243.037 56.4912 247.825 54.8988 252.207 56.4492C254.286 57.1837 256.195 58.5531 257.758 60.0904C259.292 61.6014 260.537 63.3852 261.468 65.3239C263.348 69.2352 264.028 73.9598 263.081 78.2175C261.977 83.1781 258.652 87.2364 256.806 91.9033C256.279 93.2333 255.867 94.6132 255.644 96.0298C255.461 97.1971 255.353 98.4039 255.568 99.5739C255.744 100.537 256.048 101.484 256.095 102.467C256.137 103.372 255.862 104.411 254.837 104.611C253.565 104.857 252.634 103.732 252.136 102.719C251.567 101.557 251.265 100.248 251.166 98.9626C250.961 96.2816 251.591 93.6111 252.579 91.1346C254.609 86.0454 258.177 81.5543 259.329 76.124C259.864 73.5952 259.74 70.9876 258.644 68.6187C257.664 66.4991 256.009 64.6733 253.982 63.5138C252.078 62.4277 249.857 61.9713 247.689 62.3412C245.52 62.711 243.438 63.9807 242.256 65.922C241.692 66.8454 241.362 67.8895 241.301 68.9703C241.285 69.2667 241.618 69.3979 241.849 69.2851C243.247 68.6109 244.98 69.167 245.953 70.3082C247.091 71.6434 247.012 73.7054 246.184 75.1718C245.405 76.549 243.957 77.5144 242.423 77.8449C240.89 78.1755 239.269 77.7321 238.152 76.57C236.909 75.2767 236.379 73.3433 236.854 71.6067C236.977 71.1529 236.274 70.9587 236.151 71.4126C235.658 73.2095 236.107 75.1744 237.247 76.6356C238.388 78.0968 240.203 78.8811 242.075 78.6424C243.947 78.4037 245.581 77.3937 246.603 75.8853C247.71 74.2536 247.909 71.9031 246.797 70.2242C245.672 68.5269 243.344 67.7583 241.482 68.6555L242.03 68.9703C242.156 66.6775 243.742 64.6707 245.772 63.6974C247.802 62.7242 250.269 62.7242 252.388 63.5531C254.506 64.3821 256.313 66.0164 257.477 67.9734C258.878 70.3265 259.192 73.0469 258.668 75.7096C258.128 78.4404 256.903 80.9746 255.618 83.4195C254.333 85.8644 252.873 88.4012 251.829 91.0507C250.786 93.7003 250.219 96.3026 250.439 99.0177C250.547 100.34 250.851 101.638 251.394 102.85C251.876 103.929 252.671 104.999 253.88 105.287C254.936 105.539 256.046 105.122 256.536 104.12C256.966 103.239 256.845 102.208 256.672 101.276C256.499 100.345 256.185 99.3719 256.182 98.3855C256.179 96.9427 256.421 95.5156 256.817 94.1305C258.267 89.0649 261.78 84.92 263.377 79.9174C264.764 75.5732 264.392 70.6256 262.732 66.4099C261.104 62.2756 258.151 58.7052 254.229 56.5725C252.178 55.4576 249.873 54.9408 247.542 55.1611C245.211 55.3815 243.066 56.2105 241.157 57.4697C239.13 58.8023 237.426 60.5993 236.117 62.6376C234.751 64.7677 233.925 67.3307 234.565 69.8517C234.856 71.0007 235.446 72.0448 236.251 72.9105C236.571 73.2541 237.087 72.7373 236.767 72.3937L236.765 72.3858Z" fill="#6D3005" style="fill:#6D3005;fill:color(display-p3 0.4275 0.1882 0.0196);fill-opacity:1;"/>
<path d="M256.955 108.656C255.683 108.168 254.102 108.724 253.413 109.897C252.886 110.794 252.88 111.924 253.169 112.924C253.305 113.396 253.512 113.86 253.858 114.209C254.089 114.44 254.375 114.613 254.674 114.742C256.187 115.398 258.138 114.87 259.069 113.506C260 112.142 259.75 110.088 258.484 109.031C257.805 108.462 256.782 108.202 256.019 108.651" fill="#6D3005" style="fill:#6D3005;fill:color(display-p3 0.4275 0.1882 0.0196);fill-opacity:1;"/>
<path d="M257.052 108.302C255.605 107.774 253.835 108.407 253.072 109.755C252.615 110.566 252.537 111.52 252.684 112.425C252.83 113.331 253.171 114.175 253.895 114.713C255.172 115.663 257.081 115.56 258.368 114.689C259.656 113.818 260.238 112.216 259.884 110.689C259.491 108.992 257.592 107.365 255.833 108.33C255.421 108.556 255.788 109.188 256.2 108.96C257.419 108.289 258.746 109.487 259.103 110.605C259.459 111.722 259.184 113.055 258.253 113.863C257.322 114.671 255.956 114.878 254.844 114.417C253.457 113.842 253.074 111.953 253.481 110.629C253.911 109.23 255.502 108.509 256.856 109.002C257.299 109.162 257.487 108.459 257.05 108.299L257.052 108.302Z" fill="#6D3005" style="fill:#6D3005;fill:color(display-p3 0.4275 0.1882 0.0196);fill-opacity:1;"/>
<path d="M248.574 179.241C248.765 179.393 248.87 179.472 248.87 179.472C256.705 207.938 239.839 267.909 239.839 267.909C238.444 323.088 260.575 343.563 263.392 345.942L263.685 346.184C290.694 334.347 289.949 272.589 289.949 272.589C294.008 273.379 299.137 284.817 299.137 284.817C304.158 278.041 298.28 256.406 298.28 256.406C303.445 259.95 305.472 268.604 305.472 268.604C311.726 257.445 300.697 227.148 300.697 227.148C304.528 227.681 306.878 232.536 306.878 232.536C308.1 217.628 283.223 174.53 283.223 174.53" fill="#C8AA86" style="fill:#C8AA86;fill:color(display-p3 0.7843 0.6667 0.5255);fill-opacity:1;"/>
<path d="M281.673 224.507C281.847 228.746 280.945 234.328 278.713 237.982C278.54 238.268 278.196 238.662 277.989 238.93C277.42 239.64 276.424 239.806 275.663 239.354C274.342 238.602 273.183 237.597 272.236 236.406C272.554 236.828 273.243 236.87 273.608 236.503C272.616 237.353 271.51 238.072 270.396 238.696C269.504 239.307 268.256 239.069 267.726 238.106C266.842 236.157 266.25 234.116 265.901 232.004C265.618 229.966 265.461 227.683 266.481 225.818C266.575 226.844 266.869 227.752 267.199 228.643C268.146 231.057 269.431 233.365 270.71 235.614L271.054 236.193L268.316 235.469C269.155 234.837 269.968 234.213 270.718 233.52C271.384 232.849 272.365 232.489 273.306 232.589C274.232 232.673 275.079 233.195 275.627 233.929C276.183 234.614 276.857 235.231 277.565 235.758L275.076 236.086C275.136 236.018 275.197 235.949 275.26 235.881C275.661 235.472 275.973 234.932 276.298 234.452C278.207 231.222 279.699 227.741 281.666 224.501L281.673 224.507Z" fill="#84654A" style="fill:#84654A;fill:color(display-p3 0.5176 0.3961 0.2902);fill-opacity:1;"/>
<path d="M275.834 268.515C276.206 271.144 275.438 273.817 273.852 275.958C273.275 276.697 272.561 277.408 271.604 277.964C270.461 278.649 268.932 278.022 268.573 276.745C268.542 276.655 268.476 276.461 268.439 276.372C268.256 275.882 268.03 275.391 267.779 274.971C267.771 274.929 267.585 274.735 267.556 274.698C266.239 273.077 266.273 270.396 267.021 268.576C267.207 268.156 267.448 267.715 267.839 267.448C267.959 268.284 268.337 268.945 268.683 269.67C269.147 270.509 269.596 271.511 270.236 272.062L270.272 272.086C270.277 272.065 270.272 272.038 270.262 272.025L270.285 272.044C271.219 272.762 271.861 273.749 272.312 274.782C272.415 275.034 272.504 275.252 272.588 275.522L269.556 274.302C270.519 273.741 271.562 272.71 272.388 271.868C273.429 270.816 274.67 269.491 275.834 268.515Z" fill="#84654A" style="fill:#84654A;fill:color(display-p3 0.5176 0.3961 0.2902);fill-opacity:1;"/>
<path opacity="0.31" d="M241.992 296.564C272.006 257.607 250.632 180.991 250.632 180.991L250.396 184.092C256.207 213.641 240.589 269.184 240.589 269.184C240.33 279.486 240.888 288.576 241.99 296.564H241.992Z" fill="white" style="fill:white;fill:white;fill-opacity:1;"/>
<path opacity="0.26" d="M279.652 176.219C279.652 176.219 293.392 236.099 301.846 249.397C301.846 249.397 294.567 245.711 293.699 240.847C293.699 240.847 281.791 255.971 284.689 289.048C284.728 289.491 284.767 289.937 284.812 290.388C288.077 324.544 254.295 335.397 250.656 327.71C256.401 340.221 262.723 346.018 264.144 347.217L264.438 347.459C291.446 335.622 290.701 273.864 290.701 273.864C294.761 274.654 299.89 286.091 299.89 286.091C304.911 279.315 299.032 257.681 299.032 257.681C304.198 261.225 306.225 269.879 306.225 269.879C312.479 258.72 301.45 228.423 301.45 228.423C305.281 228.956 307.63 233.811 307.63 233.811C308.852 218.903 283.976 175.805 283.976 175.805" fill="#6D3005" style="fill:#6D3005;fill:color(display-p3 0.4275 0.1882 0.0196);fill-opacity:1;"/>
<path d="M284.252 167.675C284.252 158.333 276.682 150.76 267.344 150.76C258.006 150.76 250.436 158.333 250.436 167.675V179.96C250.436 189.302 258.006 196.875 267.344 196.875C276.682 196.875 284.252 189.302 284.252 179.96V167.675Z" fill="#C8AA86" style="fill:#C8AA86;fill:color(display-p3 0.7843 0.6667 0.5255);fill-opacity:1;"/>
<path d="M263.219 150.802H244.825C241.966 150.802 239.648 153.12 239.648 155.98C239.648 158.84 241.966 161.159 244.825 161.159H263.219C266.078 161.159 268.395 158.84 268.395 155.98C268.395 153.12 266.078 150.802 263.219 150.802Z" fill="#C8AA86" style="fill:#C8AA86;fill:color(display-p3 0.7843 0.6667 0.5255);fill-opacity:1;"/>
<path d="M265.369 160.191H246.975C244.116 160.191 241.799 162.509 241.799 165.369C241.799 168.229 244.116 170.548 246.975 170.548H265.369C268.228 170.548 270.545 168.229 270.545 165.369C270.545 162.509 268.228 160.191 265.369 160.191Z" fill="#C8AA86" style="fill:#C8AA86;fill:color(display-p3 0.7843 0.6667 0.5255);fill-opacity:1;"/>
<path d="M266.764 168.814H248.37C245.511 168.814 243.193 171.132 243.193 173.992C243.193 176.852 245.511 179.17 248.37 179.17H266.764C269.623 179.17 271.94 176.852 271.94 173.992C271.94 171.132 269.623 168.814 266.764 168.814Z" fill="#C8AA86" style="fill:#C8AA86;fill:color(display-p3 0.7843 0.6667 0.5255);fill-opacity:1;"/>
<path d="M269.594 176.282H251.199C248.34 176.282 246.023 178.601 246.023 181.461C246.023 184.321 248.34 186.639 251.199 186.639H269.594C272.452 186.639 274.77 184.321 274.77 181.461C274.77 178.601 272.452 176.282 269.594 176.282Z" fill="#C8AA86" style="fill:#C8AA86;fill:color(display-p3 0.7843 0.6667 0.5255);fill-opacity:1;"/>
<path d="M242.583 167.657C242.583 167.657 246.178 168.638 250.876 168.313C255.575 167.99 268.862 168.013 268.862 168.013C268.862 168.013 268.862 169.936 266.678 170.099C264.493 170.262 246.463 170.254 246.463 170.254C244.859 170.687 241.927 168.824 242.583 167.654V167.657Z" fill="#A38769" style="fill:#A38769;fill:color(display-p3 0.6392 0.5294 0.4118);fill-opacity:1;"/>
<path d="M240.503 158.451C240.503 158.451 244.098 159.433 248.797 159.107C253.496 158.785 266.782 158.808 266.782 158.808C266.782 158.808 266.782 160.731 264.598 160.894C262.414 161.056 244.384 161.049 244.384 161.049C244.835 161.786 240.369 160.067 240.503 158.449V158.451Z" fill="#A38769" style="fill:#A38769;fill:color(display-p3 0.6392 0.5294 0.4118);fill-opacity:1;"/>
<path d="M247.303 183.976C247.303 183.976 250.898 184.957 255.597 184.632C260.296 184.31 273.582 184.333 273.582 184.333C273.582 184.333 273.582 186.256 271.398 186.419C269.214 186.581 251.184 186.573 251.184 186.573C249.579 187.006 246.647 185.144 247.303 183.974V183.976Z" fill="#A38769" style="fill:#A38769;fill:color(display-p3 0.6392 0.5294 0.4118);fill-opacity:1;"/>
<path d="M243.695 175.807C243.695 175.807 247.29 176.788 251.989 176.463C256.688 176.141 269.974 176.164 269.974 176.164C269.974 176.164 269.974 178.087 267.79 178.25C265.606 178.412 247.576 178.404 247.576 178.404C245.971 178.837 243.039 176.975 243.695 175.805V175.807Z" fill="#A38769" style="fill:#A38769;fill:color(display-p3 0.6392 0.5294 0.4118);fill-opacity:1;"/>
</g>
<defs>
<filter id="filter0_d_1299_267490" x="0" y="0" width="360.553" height="400.365" filterUnits="userSpaceOnUse" color-interpolation-filters="sRGB">
<feFlood flood-opacity="0" result="BackgroundImageFix"/>
<feColorMatrix in="SourceAlpha" type="matrix" values="0 0 0 0 0 0 0 0 0 0 0 0 0 0 0 0 0 0 127 0" result="hardAlpha"/>
<feOffset dy="4"/>
<feGaussianBlur stdDeviation="7.5"/>
<feComposite in2="hardAlpha" operator="out"/>
<feColorMatrix type="matrix" values="0 0 0 0 0 0 0 0 0 0 0 0 0 0 0 0 0 0 0.5 0"/>
<feBlend mode="normal" in2="BackgroundImageFix" result="effect1_dropShadow_1299_267490"/>
<feBlend mode="normal" in="SourceGraphic" in2="effect1_dropShadow_1299_267490" result="shape"/>
</filter>
</defs>
</svg>
