<svg width="236" height="47" viewBox="0 0 236 47" fill="none" xmlns="http://www.w3.org/2000/svg">
<g filter="url(#filter0_d_641_250)">
<path d="M35.1841 19.3116C35.3019 19.1534 35.1841 19.3043 35.1253 19.3668C35.0038 19.5029 34.8677 19.6391 34.7757 19.7973C34.6948 19.9334 34.6617 20.0953 34.5955 20.2351C34.6065 20.2167 34.7169 20.0217 34.6286 20.1395C34.555 20.2351 34.5108 20.3639 34.4446 20.4633C34.3673 20.581 34.2533 20.695 34.4152 20.5184C34.3416 20.5994 34.2753 20.684 34.1981 20.7613C34.1208 20.8385 34.0436 20.9158 33.9589 20.9894C33.9037 21.0372 33.8448 21.0851 33.7897 21.1329C33.878 21.0593 33.9516 21.0188 33.8154 21.1071C33.6204 21.2322 33.4328 21.3536 33.2268 21.4603C33.1237 21.5155 33.017 21.5597 32.9103 21.6112C33.1789 21.4861 32.8809 21.6186 32.7705 21.659C32.5276 21.7473 32.2775 21.8209 32.0236 21.8761C31.9059 21.9019 31.7881 21.9239 31.6704 21.946C31.6409 21.9534 31.4349 21.9828 31.6299 21.9571C31.8249 21.9313 31.5637 21.9644 31.5269 21.9644C31.2657 21.9828 31.0044 21.9975 30.7432 21.9902C30.6218 21.9902 30.504 21.9755 30.3826 21.9681C30.3495 21.9681 30.1471 21.9497 30.3421 21.9681C30.5371 21.9865 30.2869 21.9571 30.2465 21.9497C29.9779 21.8982 29.7167 21.8356 29.4554 21.7547C29.2899 21.7069 29.128 21.6517 28.9661 21.5928C28.8962 21.567 28.8299 21.5413 28.76 21.5119C28.5319 21.4199 28.9403 21.5965 28.7159 21.4898C28.1419 21.2175 27.5973 20.9084 27.0786 20.5442C26.9571 20.4596 26.8394 20.3749 26.7217 20.2866C26.5819 20.1836 26.7107 20.283 26.7364 20.3014C26.6775 20.2572 26.6223 20.2094 26.5634 20.1652C26.3169 19.9629 26.0741 19.7568 25.8386 19.5434C23.9364 17.8215 22.3948 15.7353 20.3969 14.1164C18.3071 12.4239 15.8787 11.3091 13.1449 11.3643C10.6798 11.4158 8.18153 12.3099 6.39337 14.0391C4.60522 15.7684 3.79944 18.1085 4.04227 20.4633C4.29983 22.9578 5.57287 25.2832 7.76575 26.5857C10.1831 28.0206 13.4356 28.0611 15.6616 26.2508C17.5123 24.7497 18.0348 21.6406 16.6109 19.6906C15.68 18.4139 14.12 17.6044 12.5195 17.9944C10.919 18.3844 10.0322 20.2866 10.8895 21.7657C11.3126 22.4942 12.0816 22.9284 12.9168 22.9321C13.752 22.9358 14.5468 22.1962 14.51 21.3389C14.4732 20.4816 13.8109 19.7531 12.9168 19.7458C13.1633 19.7458 13.3767 19.8782 13.5497 20.0401C13.3694 19.8709 13.7042 20.3087 13.7226 20.3713C13.627 20.0622 13.7005 20.7576 13.7226 20.4301C13.7226 20.4632 13.6306 20.8275 13.7116 20.581C13.6343 20.8165 13.5239 20.9305 13.3363 21.074L13.4467 21.0115C13.259 21.0887 13.2553 21.0998 13.4283 21.0483L13.2627 21.0777C13.4467 21.0851 13.4393 21.0777 13.2369 21.0519C13.3731 21.074 13.5019 21.1145 13.6306 21.1586C13.2921 21.0409 13.6747 21.2065 13.7299 21.2359C14.0464 21.3904 13.5313 21.0115 13.7668 21.2617C13.8146 21.3132 13.8698 21.372 13.925 21.4162C14.1862 21.6517 13.7704 21.1292 13.9434 21.4346C13.9949 21.5266 14.05 21.6222 14.1052 21.7142C14.2892 22.0196 14.0206 21.3831 14.1089 21.7289C14.1273 21.7988 14.1531 21.8651 14.1715 21.935C14.1899 22.0049 14.2046 22.0748 14.2193 22.1447C14.2488 22.3213 14.2451 22.2882 14.2083 22.0417C14.2635 22.0527 14.2009 22.5862 14.2083 22.6451C14.2377 22.8585 14.2966 22.2624 14.2156 22.6046C14.1899 22.7113 14.1678 22.8217 14.1384 22.9284C14.12 22.9946 14.0869 23.2007 14.0317 23.2448C14.1347 23.1602 14.1567 22.9983 14.0574 23.1712C14.0022 23.2706 13.9544 23.3699 13.8955 23.4656C13.8551 23.5281 13.8146 23.5907 13.7704 23.6532C13.9103 23.4803 13.9213 23.4619 13.8109 23.5944C13.73 23.6753 13.2921 24.0506 13.6306 23.8078C13.4099 23.966 13.1818 24.0947 12.9426 24.2198C13.2333 24.069 12.9794 24.2051 12.8911 24.2346C12.7844 24.2714 12.6777 24.3045 12.571 24.3339C12.4422 24.3707 12.3097 24.3928 12.1773 24.4222C11.9933 24.4516 12.0007 24.4516 12.1994 24.4222C12.1074 24.4332 12.0191 24.4369 11.9271 24.4443C11.699 24.4553 11.4709 24.4553 11.2427 24.4369C11.1802 24.4332 10.7386 24.3633 11.1176 24.4296C10.9815 24.4038 10.8454 24.3817 10.7092 24.3486C10.4848 24.2971 10.264 24.2309 10.0433 24.1573C9.99177 24.1389 9.58701 23.9549 9.91447 24.1131C9.78937 24.0543 9.66796 23.9954 9.54654 23.9292C9.31474 23.8041 9.094 23.6569 8.8806 23.5024C9.19702 23.7305 8.72974 23.3626 8.64512 23.2816C8.47219 23.116 8.314 22.9321 8.15578 22.7518C8.41702 23.0498 8.16311 22.7592 8.11896 22.6929C8.05273 22.5936 7.98653 22.4942 7.92398 22.3949C7.79889 22.1925 7.69585 21.9791 7.58547 21.7657C7.41254 21.4272 7.64434 21.9902 7.58547 21.7657C7.55971 21.6701 7.51555 21.5781 7.48244 21.4861C7.40517 21.2617 7.34262 21.0335 7.29111 20.8017C7.27271 20.7245 7.25803 20.6472 7.24332 20.57C7.2286 20.4927 7.21384 20.4154 7.20281 20.3345C7.23224 20.5626 7.23593 20.5847 7.21385 20.4044C7.18442 19.9629 7.18442 19.5397 7.21385 19.1019C7.23593 18.7008 7.14027 19.4514 7.21754 19.0541C7.23593 18.9584 7.25434 18.8591 7.27274 18.7634C7.32793 18.5132 7.39781 18.263 7.47876 18.0202C7.50451 17.9503 7.65905 17.5787 7.4898 17.9576C7.52292 17.884 7.55604 17.8105 7.58915 17.7405C7.69217 17.5235 7.80989 17.3137 7.93867 17.1114C8.0049 17.0084 8.07483 16.9127 8.14474 16.8134C8.1153 16.8575 7.93499 17.0635 8.12264 16.8428C8.31028 16.622 8.50529 16.4086 8.71869 16.2099C8.79595 16.14 9.27797 15.739 8.9689 15.9781C9.16759 15.8273 9.37729 15.6838 9.59069 15.555C9.77097 15.4446 9.95494 15.3416 10.1426 15.246C10.2566 15.1871 10.3707 15.1356 10.4848 15.0804C10.7681 14.9443 10.253 15.165 10.6393 15.0215C11.0625 14.8633 11.4966 14.7382 11.9381 14.6462C12.0632 14.6205 12.192 14.5984 12.3208 14.5763C12.7439 14.4954 11.986 14.5984 12.4164 14.5616C12.674 14.5395 12.9315 14.5175 13.1928 14.5101C13.454 14.5027 13.7115 14.5101 13.9691 14.5285C14.0758 14.5358 14.1825 14.5432 14.2929 14.5542C14.3849 14.5653 14.6756 14.6168 14.326 14.5542C14.8375 14.6462 15.3341 14.7603 15.8235 14.9369C15.8566 14.9479 16.265 15.1135 15.9891 14.9958C16.1252 15.0546 16.2614 15.1172 16.3938 15.1834C16.6146 15.2938 16.8316 15.4115 17.045 15.5366C17.2768 15.6728 17.505 15.8199 17.7294 15.9745C17.8324 16.0444 17.9281 16.118 18.0311 16.1879C18.1746 16.2982 18.1893 16.3056 18.0716 16.2136C18.1488 16.2762 18.2261 16.335 18.3034 16.3976C19.1901 17.1187 19.9922 17.9319 20.7759 18.7597C22.3469 20.4191 23.8923 22.1116 25.8313 23.3589C27.969 24.7313 30.5335 25.3678 33.0207 24.6834C34.1466 24.3744 35.232 23.793 36.0635 22.9652C36.4498 22.5789 36.7994 22.1189 37.0422 21.6259C37.377 20.9379 37.4727 20.3124 37.2041 19.5765C36.8582 18.6199 35.7434 18.5242 35.1584 19.3079L35.1841 19.3116Z" fill="#911002"/>
<rect x="42.8596" width="150" height="39" rx="8" fill="#911002"/>
<path d="M76.5782 25.5V14.3H82.0502C83.4582 14.3 84.5142 14.5667 85.2182 15.1C85.9329 15.6333 86.2902 16.3373 86.2902 17.212C86.2902 17.7987 86.1462 18.3107 85.8582 18.748C85.5702 19.1747 85.1755 19.5053 84.6742 19.74C84.1729 19.9747 83.5969 20.092 82.9462 20.092L83.2502 19.436C83.9542 19.436 84.5782 19.5533 85.1222 19.788C85.6662 20.012 86.0875 20.348 86.3862 20.796C86.6955 21.244 86.8502 21.7933 86.8502 22.444C86.8502 23.404 86.4715 24.156 85.7142 24.7C84.9569 25.2333 83.8422 25.5 82.3702 25.5H76.5782ZM79.1542 23.548H82.1782C82.8502 23.548 83.3569 23.4413 83.6982 23.228C84.0502 23.004 84.2262 22.652 84.2262 22.172C84.2262 21.7027 84.0502 21.356 83.6982 21.132C83.3569 20.8973 82.8502 20.78 82.1782 20.78H78.9622V18.892H81.7302C82.3595 18.892 82.8395 18.7853 83.1702 18.572C83.5115 18.348 83.6822 18.012 83.6822 17.564C83.6822 17.1267 83.5115 16.8013 83.1702 16.588C82.8395 16.364 82.3595 16.252 81.7302 16.252H79.1542V23.548ZM91.1966 18.812H96.5886V20.828H91.1966V18.812ZM91.3886 23.42H97.4846V25.5H88.8126V14.3H97.2766V16.38H91.3886V23.42ZM99.547 25.5V14.3H104.395C105.398 14.3 106.262 14.4653 106.987 14.796C107.712 15.116 108.272 15.58 108.667 16.188C109.062 16.796 109.259 17.5213 109.259 18.364C109.259 19.196 109.062 19.916 108.667 20.524C108.272 21.1213 107.712 21.58 106.987 21.9C106.262 22.22 105.398 22.38 104.395 22.38H100.987L102.139 21.244V25.5H99.547ZM106.667 25.5L103.867 21.436H106.635L109.467 25.5H106.667ZM102.139 21.532L100.987 20.316H104.251C105.051 20.316 105.648 20.1453 106.043 19.804C106.438 19.452 106.635 18.972 106.635 18.364C106.635 17.7453 106.438 17.2653 106.043 16.924C105.648 16.5827 105.051 16.412 104.251 16.412H100.987L102.139 15.18V21.532ZM109.841 25.5L114.833 14.3H117.393L122.401 25.5H119.681L115.585 15.612H116.609L112.497 25.5H109.841ZM112.337 23.1L113.025 21.132H118.785L119.489 23.1H112.337ZM123.563 25.5V14.3H125.707L132.315 22.364H131.275V14.3H133.835V25.5H131.707L125.083 17.436H126.123V25.5H123.563ZM136.484 25.5V14.3H141.572C142.788 14.3 143.86 14.5347 144.788 15.004C145.716 15.4627 146.442 16.108 146.964 16.94C147.487 17.772 147.748 18.7587 147.748 19.9C147.748 21.0307 147.487 22.0173 146.964 22.86C146.442 23.692 145.716 24.3427 144.788 24.812C143.86 25.2707 142.788 25.5 141.572 25.5H136.484ZM139.076 23.372H141.444C142.191 23.372 142.836 23.2333 143.38 22.956C143.935 22.668 144.362 22.2627 144.66 21.74C144.97 21.2173 145.124 20.604 145.124 19.9C145.124 19.1853 144.97 18.572 144.66 18.06C144.362 17.5373 143.935 17.1373 143.38 16.86C142.836 16.572 142.191 16.428 141.444 16.428H139.076V23.372ZM148.075 25.5L153.067 14.3H155.627L160.635 25.5H157.915L153.819 15.612H154.843L150.731 25.5H148.075ZM150.571 23.1L151.259 21.132H157.019L157.723 23.1H150.571Z" fill="white"/>
<path d="M200.535 19.3116C200.417 19.1534 200.535 19.3043 200.594 19.3668C200.715 19.5029 200.851 19.6391 200.943 19.7973C201.024 19.9334 201.057 20.0953 201.124 20.2351C201.113 20.2167 201.002 20.0217 201.091 20.1395C201.164 20.2351 201.208 20.3639 201.275 20.4633C201.352 20.581 201.466 20.695 201.304 20.5184C201.378 20.5994 201.444 20.684 201.521 20.7613C201.598 20.8385 201.676 20.9158 201.76 20.9894C201.815 21.0372 201.874 21.0851 201.93 21.1329C201.841 21.0593 201.768 21.0188 201.904 21.1071C202.099 21.2322 202.286 21.3536 202.492 21.4603C202.595 21.5155 202.702 21.5597 202.809 21.6112C202.54 21.4861 202.838 21.6186 202.949 21.659C203.192 21.7473 203.442 21.8209 203.696 21.8761C203.813 21.9019 203.931 21.9239 204.049 21.946C204.078 21.9534 204.284 21.9828 204.089 21.9571C203.894 21.9313 204.155 21.9644 204.192 21.9644C204.454 21.9828 204.715 21.9975 204.976 21.9902C205.097 21.9902 205.215 21.9755 205.337 21.9681C205.37 21.9681 205.572 21.9497 205.377 21.9681C205.182 21.9865 205.432 21.9571 205.473 21.9497C205.741 21.8982 206.003 21.8356 206.264 21.7547C206.429 21.7069 206.591 21.6517 206.753 21.5928C206.823 21.567 206.889 21.5413 206.959 21.5119C207.187 21.4199 206.779 21.5965 207.003 21.4898C207.577 21.2175 208.122 20.9084 208.641 20.5442C208.762 20.4596 208.88 20.3749 208.998 20.2866C209.137 20.1836 209.009 20.283 208.983 20.3014C209.042 20.2572 209.097 20.2094 209.156 20.1652C209.402 19.9629 209.645 19.7568 209.881 19.5434C211.783 17.8215 213.324 15.7353 215.322 14.1164C217.412 12.4239 219.841 11.3091 222.574 11.3643C225.039 11.4158 227.538 12.3099 229.326 14.0391C231.114 15.7684 231.92 18.1085 231.677 20.4633C231.419 22.9578 230.146 25.2832 227.953 26.5857C225.536 28.0206 222.284 28.0611 220.058 26.2508C218.207 24.7497 217.684 21.6406 219.108 19.6906C220.039 18.4139 221.599 17.6044 223.2 17.9944C224.8 18.3844 225.687 20.2866 224.83 21.7657C224.407 22.4942 223.638 22.9284 222.802 22.9321C221.967 22.9358 221.172 22.1962 221.209 21.3389C221.246 20.4816 221.908 19.7531 222.802 19.7458C222.556 19.7458 222.342 19.8782 222.17 20.0401C222.35 19.8709 222.015 20.3087 221.997 20.3713C222.092 20.0622 222.019 20.7576 221.997 20.4301C221.997 20.4632 222.089 20.8275 222.008 20.581C222.085 20.8165 222.195 20.9305 222.383 21.074L222.273 21.0115C222.46 21.0887 222.464 21.0998 222.291 21.0483L222.456 21.0777C222.273 21.0851 222.28 21.0777 222.482 21.0519C222.346 21.074 222.217 21.1145 222.089 21.1586C222.427 21.0409 222.044 21.2065 221.989 21.2359C221.673 21.3904 222.188 21.0115 221.952 21.2617C221.905 21.3132 221.849 21.372 221.794 21.4162C221.533 21.6517 221.949 21.1292 221.776 21.4346C221.724 21.5266 221.669 21.6222 221.614 21.7142C221.43 22.0196 221.699 21.3831 221.61 21.7289C221.592 21.7988 221.566 21.8651 221.548 21.935C221.529 22.0049 221.515 22.0748 221.5 22.1447C221.47 22.3213 221.474 22.2882 221.511 22.0417C221.456 22.0527 221.518 22.5862 221.511 22.6451C221.481 22.8585 221.423 22.2624 221.504 22.6046C221.529 22.7113 221.551 22.8217 221.581 22.9284C221.599 22.9946 221.632 23.2007 221.688 23.2448C221.584 23.1602 221.562 22.9983 221.662 23.1712C221.717 23.2706 221.765 23.3699 221.824 23.4656C221.864 23.5281 221.905 23.5907 221.949 23.6532C221.809 23.4803 221.798 23.4619 221.908 23.5944C221.989 23.6753 222.427 24.0506 222.089 23.8078C222.309 23.966 222.537 24.0947 222.777 24.2198C222.486 24.069 222.74 24.2051 222.828 24.2346C222.935 24.2714 223.041 24.3045 223.148 24.3339C223.277 24.3707 223.409 24.3928 223.542 24.4222C223.726 24.4516 223.718 24.4516 223.52 24.4222C223.612 24.4332 223.7 24.4369 223.792 24.4443C224.02 24.4553 224.248 24.4553 224.476 24.4369C224.539 24.4332 224.981 24.3633 224.602 24.4296C224.738 24.4038 224.874 24.3817 225.01 24.3486C225.234 24.2971 225.455 24.2309 225.676 24.1573C225.727 24.1389 226.132 23.9549 225.805 24.1131C225.93 24.0543 226.051 23.9954 226.173 23.9292C226.404 23.8041 226.625 23.6569 226.839 23.5024C226.522 23.7305 226.989 23.3626 227.074 23.2816C227.247 23.116 227.405 22.9321 227.563 22.7518C227.302 23.0498 227.556 22.7592 227.6 22.6929C227.666 22.5936 227.733 22.4942 227.795 22.3949C227.92 22.1925 228.023 21.9791 228.134 21.7657C228.307 21.4272 228.075 21.9902 228.134 21.7657C228.159 21.6701 228.204 21.5781 228.237 21.4861C228.314 21.2617 228.377 21.0335 228.428 20.8017C228.446 20.7245 228.461 20.6472 228.476 20.57C228.491 20.4927 228.505 20.4154 228.516 20.3345C228.487 20.5626 228.483 20.5847 228.505 20.4044C228.535 19.9629 228.535 19.5397 228.505 19.1019C228.483 18.7008 228.579 19.4514 228.502 19.0541C228.483 18.9584 228.465 18.8591 228.446 18.7634C228.391 18.5132 228.321 18.263 228.24 18.0202C228.215 17.9503 228.06 17.5787 228.229 17.9576C228.196 17.884 228.163 17.8105 228.13 17.7405C228.027 17.5235 227.909 17.3137 227.781 17.1114C227.714 17.0084 227.644 16.9127 227.574 16.8134C227.604 16.8575 227.784 17.0635 227.597 16.8428C227.409 16.622 227.214 16.4086 227 16.2099C226.923 16.14 226.441 15.739 226.75 15.9781C226.552 15.8273 226.342 15.6838 226.128 15.555C225.948 15.4446 225.764 15.3416 225.577 15.246C225.463 15.1871 225.348 15.1356 225.234 15.0804C224.951 14.9443 225.466 15.165 225.08 15.0215C224.657 14.8633 224.223 14.7382 223.781 14.6462C223.656 14.6205 223.527 14.5984 223.398 14.5763C222.975 14.4954 223.733 14.5984 223.303 14.5616C223.045 14.5395 222.788 14.5175 222.526 14.5101C222.265 14.5027 222.008 14.5101 221.75 14.5285C221.643 14.5358 221.537 14.5432 221.426 14.5542C221.334 14.5653 221.044 14.6168 221.393 14.5542C220.882 14.6462 220.385 14.7603 219.896 14.9369C219.863 14.9479 219.454 15.1135 219.73 14.9958C219.594 15.0546 219.458 15.1172 219.325 15.1834C219.105 15.2938 218.888 15.4115 218.674 15.5366C218.442 15.6728 218.214 15.8199 217.99 15.9745C217.887 16.0444 217.791 16.118 217.688 16.1879C217.545 16.2982 217.53 16.3056 217.648 16.2136C217.57 16.2762 217.493 16.335 217.416 16.3976C216.529 17.1187 215.727 17.9319 214.943 18.7597C213.372 20.4191 211.827 22.1116 209.888 23.3589C207.75 24.7313 205.186 25.3678 202.698 24.6834C201.573 24.3744 200.487 23.793 199.656 22.9652C199.269 22.5789 198.92 22.1189 198.677 21.6259C198.342 20.9379 198.246 20.3124 198.515 19.5765C198.861 18.6199 199.976 18.5242 200.561 19.3079L200.535 19.3116Z" fill="#911002"/>
</g>
<defs>
<filter id="filter0_d_641_250" x="-1.52588e-05" y="0" width="235.719" height="47" filterUnits="userSpaceOnUse" color-interpolation-filters="sRGB">
<feFlood flood-opacity="0" result="BackgroundImageFix"/>
<feColorMatrix in="SourceAlpha" type="matrix" values="0 0 0 0 0 0 0 0 0 0 0 0 0 0 0 0 0 0 127 0" result="hardAlpha"/>
<feOffset dy="4"/>
<feGaussianBlur stdDeviation="2"/>
<feComposite in2="hardAlpha" operator="out"/>
<feColorMatrix type="matrix" values="0 0 0 0 0 0 0 0 0 0 0 0 0 0 0 0 0 0 0.25 0"/>
<feBlend mode="normal" in2="BackgroundImageFix" result="effect1_dropShadow_641_250"/>
<feBlend mode="normal" in="SourceGraphic" in2="effect1_dropShadow_641_250" result="shape"/>
</filter>
</defs>
</svg>
