<svg width="538" height="97" viewBox="0 0 538 97" fill="none" xmlns="http://www.w3.org/2000/svg">
<path d="M126.114 30.16C126.794 29.2 128.114 29.72 127.154 31.12C127.154 31.12 120.994 46.32 103.994 46.32C98.0738 46.32 93.1537 42.4 94.3937 33.36C94.7137 31.12 95.5537 28.64 96.8738 25.96C97.3538 25 98.2337 23.52 98.7538 22.68C99.1938 21.84 99.7938 20.92 100.434 20.08C101.714 18.2 103.354 16.36 105.114 14.48C106.874 12.68 108.674 11.04 110.554 9.8C114.354 7.12 117.834 5.84 120.794 5.84C123.394 5.84 124.994 6.96 125.834 8.4C126.234 7.28 126.594 5.92 126.874 4.6C126.034 3.4 125.914 2.32 125.914 1.84C125.914 1.08 126.554 0.52 127.074 0.559997C127.114 0.559997 127.154 0.559997 127.194 0.559997C128.354 0.559997 130.634 2.76 131.194 5.64C131.194 5.64 131.314 6.4 131.194 7.76C130.874 10.72 128.994 13.44 127.874 16C126.594 18.88 129.274 20.76 127.114 20.76C125.874 20.76 124.434 16.8 124.434 16.8C124.434 16.8 123.874 15.32 123.874 13.96C123.874 13.64 123.954 13.32 123.994 12.96C123.914 11.92 122.874 11.28 121.994 11.28C120.234 11.28 117.754 12.4 114.314 14.52C113.434 15.08 112.034 16.12 110.194 17.76C108.754 19.04 107.554 20.32 106.514 21.64C106.114 22.16 105.714 22.72 105.314 23.24C105.034 23.72 104.194 24.88 103.794 25.6C101.794 28.88 99.5138 33.2 98.9938 36.56L98.9138 37.44C98.2337 42.52 100.634 44.6 103.994 44.6C119.914 44.6 126.114 30.16 126.114 30.16ZM134.403 24.04C136.763 24.04 138.323 28.28 137.443 28.28C132.763 28.28 122.123 41.88 125.003 41.88C125.963 41.88 134.243 32.72 133.843 32C133.403 31.28 136.683 31.88 136.683 34.8C136.683 37.72 132.923 41.92 134.203 41.92C135.443 41.92 141.443 35.32 144.963 30C145.563 29.12 146.763 29.52 145.923 30.84C145.043 32.12 136.683 44 133.043 44C131.403 44 129.803 41.52 129.803 40.52C129.803 39.56 130.483 38.08 130.483 38.08C130.483 38.08 125.443 44 123.963 44C122.523 44 120.203 42.16 120.203 39.32C120.203 34.68 129.923 24.04 134.403 24.04ZM165.582 29.92C166.182 29.08 167.422 29.48 166.542 30.8C165.702 32.12 156.102 44.08 148.062 44.08L148.102 44C146.102 43.88 144.942 42.12 143.942 40.56C143.662 41.24 142.782 43.12 142.782 43.44C142.782 45.04 139.702 43.04 139.702 40.36C139.702 36.28 155.142 16.28 155.142 10.84C155.142 10 158.982 11.64 158.982 15C158.982 16.56 156.462 20.84 154.142 24.52C154.822 24.24 155.582 24.08 156.262 24.08C157.862 24.08 160.542 24.4 160.542 28.64C160.542 32.48 158.342 36.56 155.662 39.56C159.222 37.16 163.382 33.28 165.582 29.92ZM145.862 39.56C153.702 39.56 159.102 25.76 155.582 25.76C154.822 25.76 153.302 26.8 151.942 27.84C149.982 30.72 148.702 32.48 148.702 32.48C148.702 32.48 146.142 36.36 144.622 39.24C144.902 39.44 145.302 39.56 145.862 39.56ZM174.325 24.04C176.685 24.04 178.245 28.28 177.365 28.28C172.685 28.28 162.045 41.88 164.925 41.88C165.885 41.88 174.165 32.72 173.765 32C173.325 31.28 176.605 31.88 176.605 34.8C176.605 37.72 172.845 41.92 174.125 41.92C175.365 41.92 181.365 35.32 184.885 30C185.485 29.12 186.685 29.52 185.845 30.84C184.965 32.12 176.605 44 172.965 44C171.325 44 169.725 41.52 169.725 40.52C169.725 39.56 170.405 38.08 170.405 38.08C170.405 38.08 165.365 44 163.885 44C162.445 44 160.125 42.16 160.125 39.32C160.125 34.68 169.845 24.04 174.325 24.04ZM191.747 44C190.187 44 189.027 41.92 189.027 38.92C189.027 35.56 194.947 27.56 194.947 27.56C193.627 27.56 182.187 40.88 182.187 42.76C182.187 45.72 179.467 42.76 179.467 39.6C179.467 36.32 187.387 28.04 187.387 24.04C187.387 22.64 190.307 24.16 190.307 28.16C190.307 30.12 188.947 31.44 188.947 31.44C188.947 31.44 196.227 24.04 197.587 24.04C198.987 24.04 199.827 26.08 199.827 28.04C199.827 30 190.467 41.96 192.307 41.96C194.707 41.96 200.547 35.08 204.107 29.76C204.667 28.88 205.867 29.28 205.027 30.6C204.187 31.88 195.707 44 191.747 44ZM223.928 30C224.488 29.12 225.688 29.56 224.848 30.84C224.048 32.04 215.648 42.52 211.568 43.84L211.488 43.96L210.608 45.48C206.248 52.56 200.208 59.4 193.968 59.4C192.408 59.4 190.448 58.08 190.248 55.48C190.008 52.84 204.568 46.36 204.568 46.36C206.248 44.48 209.968 37.28 209.968 37.28C209.968 37.28 204.768 43.92 203.288 43.92C201.848 43.92 199.368 42.08 199.128 39.24C198.728 34.64 207.528 24 212.048 24C214.368 24 216.288 28.2 215.408 28.2C210.728 28.2 201.248 41.84 204.128 41.84C205.088 41.84 212.608 32.68 212.128 31.92C211.648 31.2 214.968 31.84 215.208 34.76C215.328 36.04 214.448 38.52 212.848 41.52C215.208 40.04 220.888 34.56 223.928 30ZM192.688 56.84C196.608 56.84 203.128 48.2 203.128 48.2C203.128 48.2 191.168 54.28 191.288 55.72C191.368 56.4 191.968 56.84 192.688 56.84ZM247.575 13.08C247.495 11.92 251.095 13.48 251.335 16.12C251.495 18.68 246.735 25.36 246.735 25.36C256.375 23.6 261.015 16.92 260.615 12.28C260.215 7.64 255.015 6 251.295 6C240.575 6 229.735 15.36 230.335 22.84C230.535 25.44 231.935 26.16 231.935 26.16C231.935 26.16 234.255 27.44 232.815 27.44C229.895 27.44 226.655 24.92 226.175 19.08C225.575 9.96 240.535 4.44 250.615 4.44C257.015 4.44 265.575 6.44 266.215 14.16C266.815 21.84 257.495 26.04 257.495 26.04L255.295 27.12C250.335 29.32 243.935 29.2 243.935 29.2C243.935 29.2 235.935 39.56 235.935 42C235.935 43.2 236.135 43.92 235.215 43.92C234.295 43.92 233.015 42.2 233.015 38.72C233.015 32.64 247.815 16.08 247.575 13.08ZM271.567 30.04C272.167 29.16 273.367 29.6 272.527 30.88C271.687 32.2 262.047 44 256.967 44C256.967 44 253.127 43.96 253.127 39.04C253.127 31.8 262.687 24.04 265.327 24.04C266.367 24.04 268.127 24.76 268.127 28.56C268.127 32.36 259.647 38.92 257.567 38.92C257.567 38.92 256.087 41.6 258.167 41.6C260.847 41.6 268.047 35.36 271.567 30.04ZM264.927 29C263.567 29 258.247 37.4 258.247 37.4C263.687 34.2 266.247 29 264.927 29ZM288.584 30C289.144 29.12 290.384 29.52 289.504 30.84C288.664 32.12 279.984 44 276.304 44C273.264 44 272.584 41.4 272.584 39.24C272.584 36.96 275.904 32.84 277.584 29.08C276.424 29.56 274.464 30.2 272.304 30.2C271.144 30.2 269.184 29.56 269.184 25.12C269.184 18.88 273.944 14.4 276.704 14.4C278.184 14.4 279.424 15.36 279.424 17C279.424 20.24 273.864 27.76 273.864 27.76C273.864 27.76 279.184 25 280.064 24.52C280.624 24.2 281.104 23.6 281.744 24.16C282.424 24.68 285.584 27 283.784 29.08C283.704 29.16 283.624 29.28 283.544 29.36C281.504 32.08 274.064 41.92 277.504 41.92V41.96C278.704 41.96 285.024 35.32 288.584 30ZM272.224 24.96C272.224 26.4 272.984 27.16 272.984 27.16C275.264 22.92 277.784 19.08 276.424 19.08C275.064 19.08 272.224 23 272.224 24.96ZM311.178 20.96C311.578 22.36 310.178 22.2 310.178 22.2C310.178 21.04 307.658 18.68 303.218 18.68C302.378 18.68 301.538 18.68 300.738 18.72C295.818 27.64 286.338 41.92 289.258 41.92C290.458 41.92 297.058 35.32 300.618 30C301.178 29.12 302.418 29.52 301.538 30.84C300.698 32.12 291.738 44 288.058 44C285.058 44 284.578 41.28 284.578 39.36C284.578 36.6 290.338 27.12 294.738 19.08C293.338 19.16 291.858 19.16 290.258 19.16C285.818 19.16 284.178 17.4 283.578 15.8C283.098 14.4 283.738 14.12 284.418 14.72C285.577 15.68 287.578 16.6 290.338 16.6C292.738 16.6 294.858 16.44 296.258 16.28C298.258 12.52 299.658 9.44 299.658 8.12C299.658 6.96 303.538 8.36 303.538 12.4C303.538 13.08 303.018 14.4 302.138 16.12C302.538 16.12 302.898 16.12 303.298 16.12C308.298 16.12 310.578 18.8 311.178 20.96ZM309.247 24.04C311.607 24.04 313.167 28.28 312.287 28.28C307.607 28.28 296.967 41.88 299.847 41.88C300.807 41.88 309.087 32.72 308.687 32C308.247 31.28 311.527 31.88 311.527 34.8C311.527 37.72 307.767 41.92 309.047 41.92C310.287 41.92 316.287 35.32 319.807 30C320.407 29.12 321.607 29.52 320.767 30.84C319.887 32.12 311.527 44 307.887 44C306.247 44 304.647 41.52 304.647 40.52C304.647 39.56 305.327 38.08 305.327 38.08C305.327 38.08 300.287 44 298.807 44C297.367 44 295.047 42.16 295.047 39.32C295.047 34.68 304.767 24.04 309.247 24.04ZM326.668 44C325.108 44 323.948 41.92 323.948 38.92C323.948 35.56 329.868 27.56 329.868 27.56C328.548 27.56 317.108 40.88 317.108 42.76C317.108 45.72 314.388 42.76 314.388 39.6C314.388 36.32 322.308 28.04 322.308 24.04C322.308 22.64 325.228 24.16 325.228 28.16C325.228 30.12 323.868 31.44 323.868 31.44C323.868 31.44 331.148 24.04 332.508 24.04C333.908 24.04 334.748 26.08 334.748 28.04C334.748 30 325.388 41.96 327.228 41.96C329.628 41.96 335.468 35.08 339.028 29.76C339.588 28.88 340.788 29.28 339.948 30.6C339.108 31.88 330.628 44 326.668 44ZM348.49 41.92C349.69 41.92 356.13 35.32 359.65 30C360.25 29.12 361.45 29.52 360.61 30.84C359.77 32.12 350.93 44 347.29 44C345.41 44 343.61 42.72 343.61 38.84C343.61 38.84 339.61 44 337.89 44C336.21 44 333.65 42.64 333.65 39.04C333.65 33.52 343.25 24.16 347.09 24.16C349.93 24.16 350.77 26.52 350.77 26.52C350.77 26.52 359.53 12.56 359.53 10.28C359.53 9 362.93 9.12 362.93 14.28C362.93 18.88 345.69 41.92 348.49 41.92ZM338.57 42.04C340.93 42.04 351.89 27.44 349.33 27.44C347.37 27.44 338.25 37.12 338.25 41.72C338.25 41.72 338.29 42.04 338.57 42.04ZM367.587 23C366.667 23 365.067 21.32 365.347 18.4C365.587 15.48 367.427 14.52 368.347 14.52C369.267 14.52 372.067 15.76 371.947 17.12C371.827 18.48 370.587 18.68 369.347 20.84C368.107 22.96 368.187 23 367.587 23ZM371.627 29.84C372.227 29 373.427 29.4 372.587 30.72C371.707 32 363.027 43.92 359.347 43.92C356.307 43.92 355.587 40.64 355.787 38.48C356.027 35.6 360.107 30.72 361.987 25.92C362.267 25.16 362.067 24.16 363.027 24.16C363.987 24.16 365.787 25.72 365.507 28.84C365.227 31.96 356.347 41.84 360.547 41.84C361.747 41.84 368.067 35.24 371.627 29.84ZM378.543 44C376.983 44 375.823 41.92 375.823 38.92C375.823 35.56 381.743 27.56 381.743 27.56C380.423 27.56 368.983 40.88 368.983 42.76C368.983 45.72 366.263 42.76 366.263 39.6C366.263 36.32 374.183 28.04 374.183 24.04C374.183 22.64 377.103 24.16 377.103 28.16C377.103 30.12 375.743 31.44 375.743 31.44C375.743 31.44 383.023 24.04 384.383 24.04C385.783 24.04 386.623 26.08 386.623 28.04C386.623 30 377.263 41.96 379.103 41.96C381.503 41.96 387.343 35.08 390.903 29.76C391.463 28.88 392.663 29.28 391.823 30.6C390.983 31.88 382.503 44 378.543 44ZM410.725 30C411.285 29.12 412.485 29.56 411.645 30.84C410.845 32.04 402.445 42.52 398.365 43.84L398.285 43.96L397.405 45.48C393.045 52.56 387.005 59.4 380.765 59.4C379.205 59.4 377.245 58.08 377.045 55.48C376.805 52.84 391.365 46.36 391.365 46.36C393.045 44.48 396.765 37.28 396.765 37.28C396.765 37.28 391.565 43.92 390.085 43.92C388.645 43.92 386.165 42.08 385.925 39.24C385.525 34.64 394.325 24 398.845 24C401.165 24 403.085 28.2 402.205 28.2C397.525 28.2 388.045 41.84 390.925 41.84C391.885 41.84 399.405 32.68 398.925 31.92C398.445 31.2 401.765 31.84 402.005 34.76C402.125 36.04 401.245 38.52 399.645 41.52C402.005 40.04 407.685 34.56 410.725 30ZM379.485 56.84C383.405 56.84 389.925 48.2 389.925 48.2C389.925 48.2 377.965 54.28 378.085 55.72C378.165 56.4 378.765 56.84 379.485 56.84ZM419.403 24.04C421.763 24.04 423.323 28.28 422.443 28.28C417.763 28.28 407.123 41.88 410.003 41.88C410.963 41.88 419.243 32.72 418.843 32C418.403 31.28 421.683 31.88 421.683 34.8C421.683 37.72 417.923 41.92 419.203 41.92C420.443 41.92 426.443 35.32 429.963 30C430.563 29.12 431.763 29.52 430.923 30.84C430.043 32.12 421.683 44 418.043 44C416.403 44 414.803 41.52 414.803 40.52C414.803 39.56 415.483 38.08 415.483 38.08C415.483 38.08 410.443 44 408.963 44C407.523 44 405.203 42.16 405.203 39.32C405.203 34.68 414.923 24.04 419.403 24.04ZM436.825 44C435.265 44 434.105 41.92 434.105 38.92C434.105 35.56 440.025 27.56 440.025 27.56C438.705 27.56 427.265 40.88 427.265 42.76C427.265 45.72 424.545 42.76 424.545 39.6C424.545 36.32 432.465 28.04 432.465 24.04C432.465 22.64 435.385 24.16 435.385 28.16C435.385 30.12 434.025 31.44 434.025 31.44C434.025 31.44 441.305 24.04 442.665 24.04C444.065 24.04 444.905 26.08 444.905 28.04C444.905 30 435.545 41.96 437.385 41.96C439.785 41.96 445.625 35.08 449.185 29.76C449.745 28.88 450.945 29.28 450.105 30.6C449.265 31.88 440.785 44 436.825 44ZM32.9922 71.9062C32.9922 75.75 31.7891 78.5859 29.3828 80.4141C26.9922 82.2266 23.2656 83.1328 18.2031 83.1328H14.5V90H19.4453V96H0.835938V90H5.28906V66.6797H0.835938V60.6797H18.0156C23.0625 60.6797 26.8203 61.6016 29.2891 63.4453C31.7578 65.2734 32.9922 68.0938 32.9922 71.9062ZM23.2891 71.9062C23.2891 70.4375 22.9922 69.3203 22.3984 68.5547C21.8047 67.7734 20.9453 67.2656 19.8203 67.0312C18.7109 66.7969 17.4219 66.6797 15.9531 66.6797H14.5V77.2734H15.9531C17.9062 77.2734 19.4141 77.0781 20.4766 76.6875C21.5547 76.2812 22.2891 75.6953 22.6797 74.9297C23.0859 74.1641 23.2891 73.1562 23.2891 71.9062ZM36.5312 78.2344C36.5312 74.6562 37.3516 71.5 38.9922 68.7656C40.6328 66.0312 42.9375 63.9062 45.9062 62.3906C48.8906 60.8594 52.3203 60.0938 56.1953 60.0938C60.0703 60.0938 63.4844 60.8594 66.4375 62.3906C69.4062 63.9062 71.7031 66.0391 73.3281 68.7891C74.9688 71.5391 75.7891 74.6875 75.7891 78.2344C75.7891 81.8281 74.9688 85 73.3281 87.75C71.7031 90.5 69.3984 92.6328 66.4141 94.1484C63.4453 95.6641 60.0391 96.4219 56.1953 96.4219C52.4297 96.4219 49.0469 95.6641 46.0469 94.1484C43.0625 92.6328 40.7266 90.5 39.0391 87.75C37.3672 85 36.5312 81.8281 36.5312 78.2344ZM65.9453 78.1875C65.9453 76.0469 65.5547 74.1016 64.7734 72.3516C63.9922 70.5859 62.8594 69.1875 61.375 68.1562C59.9062 67.1094 58.1797 66.5859 56.1953 66.5859C54.2109 66.5859 52.4844 67.1094 51.0156 68.1562C49.5469 69.1875 48.4141 70.5859 47.6172 72.3516C46.8359 74.1016 46.4453 76.0469 46.4453 78.1875C46.4453 80.4375 46.8438 82.4609 47.6406 84.2578C48.4531 86.0391 49.5938 87.4453 51.0625 88.4766C52.5312 89.4922 54.2266 90 56.1484 90C58.1328 90 59.8672 89.4922 61.3516 88.4766C62.8516 87.4453 63.9922 86.0391 64.7734 84.2578C65.5547 82.4609 65.9453 80.4375 65.9453 78.1875ZM110.945 70.3125C110.945 72.4688 110.438 74.2812 109.422 75.75C108.422 77.2188 106.898 78.4141 104.852 79.3359L110.547 90H115.117V96H104.359L96.3906 80.5547H92.3594V90H96.7891V96H78.2969V90H83.1484V66.6797H78.2969V60.6797H98.4531C102.359 60.6797 105.414 61.5078 107.617 63.1641C109.836 64.8047 110.945 67.1875 110.945 70.3125ZM101.336 70.7109C101.336 69.3672 100.906 68.3594 100.047 67.6875C99.1875 67.0156 98.0156 66.6797 96.5312 66.6797H92.3594V74.8828H95.7344C99.4688 74.8828 101.336 73.4922 101.336 70.7109ZM132.977 63.6094V60.6797H138.977V71.3672H132.977C132.727 69.6484 132.164 68.3594 131.289 67.5C130.43 66.625 129.312 66.1875 127.938 66.1875C126.969 66.1875 126.141 66.4609 125.453 67.0078C124.766 67.5547 124.422 68.2422 124.422 69.0703C124.422 69.8047 124.641 70.4375 125.078 70.9688C125.516 71.5 126.078 71.9531 126.766 72.3281C127.453 72.6875 128.484 73.1719 129.859 73.7812L131.289 74.3906C134.398 75.7344 136.742 77.3125 138.32 79.125C139.914 80.9375 140.711 83.2031 140.711 85.9219C140.711 89.1562 139.781 91.7188 137.922 93.6094C136.062 95.4844 133.562 96.4219 130.422 96.4219C127.359 96.4219 124.977 95.2734 123.273 92.9766V96H117.273V84H123.273C123.398 86.0781 123.93 87.6641 124.867 88.7578C125.82 89.8359 127.102 90.375 128.711 90.375C129.789 90.375 130.695 90.0078 131.43 89.2734C132.18 88.5391 132.555 87.6484 132.555 86.6016C132.555 85.5391 132.125 84.5703 131.266 83.6953C130.422 82.8047 128.977 81.9141 126.93 81.0234C123.445 79.4922 120.914 77.8438 119.336 76.0781C117.773 74.3125 116.992 72.2812 116.992 69.9844C116.992 68.1875 117.406 66.5469 118.234 65.0625C119.062 63.5781 120.203 62.4141 121.656 61.5703C123.125 60.7109 124.719 60.2812 126.438 60.2812C127.812 60.2812 129.062 60.5625 130.188 61.125C131.312 61.6875 132.242 62.5156 132.977 63.6094ZM167.805 71.8594V66.6797H156.859V74.7891H165.695V80.7422H156.859V90H167.805V84.7734H174.578V96H143.43V90H147.695V66.6797H143.43V60.6797H174.578V71.8594H167.805ZM205.656 66.6797H201.109V60.6797H216.883V66.6797H211.961V96.2344H204.133L188.852 70.0312V90H193.281V96H177.812V90H182.57V66.6797H177.812V60.6797H192.648L205.656 82.7578V66.6797ZM232.891 66.6797V90H238.328V96H218.359V90H223.68V66.6797H218.359V60.6797H238.328V66.6797H232.891ZM270.086 63.5625V60.6797H276.086V73.1953H270.086C269.352 71.1172 268.094 69.4609 266.312 68.2266C264.547 66.9922 262.578 66.375 260.406 66.375C258.391 66.375 256.602 66.8438 255.039 67.7812C253.492 68.7031 252.297 70.0156 251.453 71.7188C250.609 73.4062 250.188 75.375 250.188 77.625C250.188 81.4531 251.109 84.4766 252.953 86.6953C254.812 88.8984 257.359 90 260.594 90C262.734 90 264.492 89.5 265.867 88.5C267.242 87.4844 268.219 86.0312 268.797 84.1406H262.562V78.1406H279.18C279.18 81.9844 278.414 85.2734 276.883 88.0078C275.367 90.7422 273.18 92.8281 270.32 94.2656C267.477 95.7031 264.07 96.4219 260.102 96.4219C256.102 96.4219 252.602 95.6953 249.602 94.2422C246.617 92.7891 244.32 90.6953 242.711 87.9609C241.102 85.2266 240.297 81.9844 240.297 78.2344C240.297 74.7188 241.109 71.5859 242.734 68.8359C244.375 66.0859 246.617 63.9453 249.461 62.4141C252.305 60.8672 255.516 60.0938 259.094 60.0938C263.812 60.0938 267.477 61.25 270.086 63.5625ZM303.719 66.6797L311.102 90H315.32V96H297.953V90H302.477L300.789 84H291.625L289.75 90H294.461V96H278.852V90H283.211L290.078 66.6797H285.367V60.6797H308.477V66.6797H303.719ZM296.359 68.1094L293.195 78.7734H299.336L296.359 68.1094ZM349.984 60.6797H368.031V66.6797H363.461V90H368.031V96H350.219V90H354.484V66.6797H353.664L342.719 96H338.945L327.859 66.6797H327.039V90H331.586V96H316.656V90H321.273V66.6797H316.656V60.6797H334.422L342.156 81.3516L349.984 60.6797ZM394.234 66.6797L401.617 90H405.836V96H388.469V90H392.992L391.305 84H382.141L380.266 90H384.977V96H369.367V90H373.727L380.594 66.6797H375.883V60.6797H398.992V66.6797H394.234ZM386.875 68.1094L383.711 78.7734H389.852L386.875 68.1094ZM446.664 69.9844C446.664 71.7812 446.258 73.3438 445.445 74.6719C444.648 76 443.57 77.2109 442.211 78.3047C440.852 79.3828 438.875 80.7031 436.281 82.2656C432.062 84.8594 429.727 87.4219 429.273 89.9531H439.938V85.3828H447.086L446.664 96H420.93C420.93 92.8594 421.305 90.2734 422.055 88.2422C422.805 86.2109 423.984 84.3516 425.594 82.6641C427.219 80.9609 429.602 78.9453 432.742 76.6172C434.398 75.3984 435.656 74.2188 436.516 73.0781C437.391 71.9375 437.828 70.7656 437.828 69.5625C437.828 68.375 437.484 67.4766 436.797 66.8672C436.109 66.2578 435.125 65.9531 433.844 65.9531C432.188 65.9531 430.953 66.5312 430.141 67.6875C429.344 68.8281 428.867 70.6953 428.711 73.2891L421.375 73.0078C421.469 68.6484 422.586 65.3984 424.727 63.2578C426.867 61.1172 430.07 60.0469 434.336 60.0469C438.164 60.0469 441.172 60.9297 443.359 62.6953C445.562 64.4453 446.664 66.875 446.664 69.9844ZM477.367 78.2344C477.367 84.1875 476.234 88.7188 473.969 91.8281C471.703 94.9219 468.438 96.4688 464.172 96.4688C459.891 96.4688 456.617 94.9219 454.352 91.8281C452.102 88.7188 450.977 84.1875 450.977 78.2344C450.977 72.4219 452.094 67.9375 454.328 64.7812C456.578 61.625 459.859 60.0469 464.172 60.0469C468.531 60.0469 471.82 61.5938 474.039 64.6875C476.258 67.7656 477.367 72.2812 477.367 78.2344ZM459.859 78.2344C459.859 82.3281 460.211 85.3594 460.914 87.3281C461.617 89.2969 462.719 90.2812 464.219 90.2812C465.719 90.2812 466.812 89.2969 467.5 87.3281C468.188 85.3594 468.531 82.3281 468.531 78.2344C468.531 70.1719 467.094 66.1406 464.219 66.1406C462.719 66.1406 461.617 67.1484 460.914 69.1641C460.211 71.1797 459.859 74.2031 459.859 78.2344ZM507.133 69.9844C507.133 71.7812 506.727 73.3438 505.914 74.6719C505.117 76 504.039 77.2109 502.68 78.3047C501.32 79.3828 499.344 80.7031 496.75 82.2656C492.531 84.8594 490.195 87.4219 489.742 89.9531H500.406V85.3828H507.555L507.133 96H481.398C481.398 92.8594 481.773 90.2734 482.523 88.2422C483.273 86.2109 484.453 84.3516 486.062 82.6641C487.688 80.9609 490.07 78.9453 493.211 76.6172C494.867 75.3984 496.125 74.2188 496.984 73.0781C497.859 71.9375 498.297 70.7656 498.297 69.5625C498.297 68.375 497.953 67.4766 497.266 66.8672C496.578 66.2578 495.594 65.9531 494.312 65.9531C492.656 65.9531 491.422 66.5312 490.609 67.6875C489.812 68.8281 489.336 70.6953 489.18 73.2891L481.844 73.0078C481.938 68.6484 483.055 65.3984 485.195 63.2578C487.336 61.1172 490.539 60.0469 494.805 60.0469C498.633 60.0469 501.641 60.9297 503.828 62.6953C506.031 64.4453 507.133 66.875 507.133 69.9844ZM536.5 69.5156C536.5 73.0625 534.727 75.6641 531.18 77.3203C535.617 78.8359 537.836 81.6406 537.836 85.7344C537.836 87.8438 537.266 89.7188 536.125 91.3594C535 92.9844 533.43 94.2422 531.414 95.1328C529.398 96.0234 527.125 96.4688 524.594 96.4688C516.141 96.4688 511.609 92.6172 511 84.9141L518.688 84.2812C518.719 88.4062 520.414 90.4688 523.773 90.4688C525.32 90.4688 526.578 89.9844 527.547 89.0156C528.516 88.0469 529 86.8516 529 85.4297C529 83.9609 528.484 82.7734 527.453 81.8672C526.438 80.9453 524.992 80.4844 523.117 80.4844C522.82 80.4844 522.164 80.5234 521.148 80.6016V74.1562C523.32 74.125 525.016 73.7422 526.234 73.0078C527.453 72.2734 528.062 71.2188 528.062 69.8438C528.062 68.75 527.648 67.8594 526.82 67.1719C526.008 66.4844 524.977 66.1406 523.727 66.1406C520.914 66.1406 519.508 67.7109 519.508 70.8516L512.078 70.2188C512.328 67.0156 513.531 64.5234 515.688 62.7422C517.844 60.9453 520.688 60.0469 524.219 60.0469C527.953 60.0469 530.93 60.8984 533.148 62.6016C535.383 64.2891 536.5 66.5938 536.5 69.5156Z" fill="white"/>
</svg>
