<svg width="227" height="103" viewBox="0 0 227 103" fill="none" xmlns="http://www.w3.org/2000/svg">
<g filter="url(#filter0_d_641_248)">
<path d="M27.1797 37.4922V43H10V37.4922H14.1484V15.9062H10V10.3984H27.1797C31.1797 10.3984 34.2656 11.3359 36.4375 13.2109C38.625 15.0859 39.7188 17.6094 39.7188 20.7812C39.7188 22.5938 39.3359 24.2422 38.5703 25.7266C37.8047 27.1953 36.8203 28.3281 35.6172 29.125C34.4297 29.9062 33.0625 30.4453 31.5156 30.7422C29.9844 31.0234 28.0625 31.1641 25.75 31.1641H22.6328V37.4922H27.1797ZM22.6328 25.7266H23.8984C26.8047 25.7266 28.6719 25.2578 29.5 24.3203C30.3438 23.3672 30.7656 22.1875 30.7656 20.7812C30.7656 19.5938 30.4766 18.5859 29.8984 17.7578C29.3203 16.9141 28.6562 16.3984 27.9062 16.2109C27.1562 16.0078 25.9297 15.9062 24.2266 15.9062H22.6328V25.7266ZM67.1406 37.7734V43H56.2422V41.2188C54.2891 42.625 52.2266 43.3281 50.0547 43.3281C47.8047 43.3281 45.8594 42.6875 44.2188 41.4062C42.5938 40.125 41.7812 38.4062 41.7812 36.25C41.7812 34.0781 42.6406 32.2578 44.3594 30.7891C46.0781 29.3203 48.2969 28.5859 51.0156 28.5859C52.5312 28.5859 54.2734 28.9688 56.2422 29.7344V28.3516C56.2422 27.1953 55.8516 26.25 55.0703 25.5156C54.2891 24.7656 53.2422 24.3906 51.9297 24.3906C50.3047 24.3906 48.9141 24.9844 47.7578 26.1719L41.9219 25.1172C43.6094 21.5391 47.2734 19.75 52.9141 19.75C55.1016 19.75 56.9141 20 58.3516 20.5C59.7891 20.9844 60.8594 21.6172 61.5625 22.3984C62.2656 23.1797 62.7578 24.0391 63.0391 24.9766C63.3359 25.8984 63.4844 27.4062 63.4844 29.5V37.7734H67.1406ZM56.2422 34.6094C54.4922 33.5156 53.0938 32.9688 52.0469 32.9688C51.2188 32.9688 50.4609 33.2109 49.7734 33.6953C49.1016 34.1797 48.7656 34.8828 48.7656 35.8047C48.7656 36.6328 49.0391 37.3438 49.5859 37.9375C50.1328 38.5312 50.8359 38.8281 51.6953 38.8281C53.0391 38.8281 54.5547 38.0391 56.2422 36.4609V34.6094ZM97.0234 20.3125V25.5625H93.2734V42.3203C93.2734 49.8047 89.3203 53.5469 81.4141 53.5469C76.8828 53.5469 73.5078 52.7266 71.2891 51.0859L74.8047 46.2812C76.6328 47.4062 78.4688 47.9688 80.3125 47.9688C81.9219 47.9688 83.2734 47.5547 84.3672 46.7266C85.4766 45.8984 86.0312 44.2891 86.0312 41.8984V40.1641C83.6719 42.2734 81.375 43.3281 79.1406 43.3281C76.5156 43.3281 74.2734 42.2344 72.4141 40.0469C70.5703 37.8438 69.6484 35.0391 69.6484 31.6328C69.6484 28.2109 70.6016 25.4141 72.5078 23.2422C74.4141 21.0547 76.7422 19.9609 79.4922 19.9609C82.1328 19.9609 84.3125 21 86.0312 23.0781V20.3125H97.0234ZM86.0547 31.7266C86.0547 29.8984 85.6484 28.4531 84.8359 27.3906C84.0234 26.3281 82.9141 25.7969 81.5078 25.7969C80.0703 25.7969 78.9688 26.3438 78.2031 27.4375C77.4531 28.5312 77.0781 29.9375 77.0781 31.6562C77.0781 33.375 77.4688 34.7812 78.25 35.875C79.0469 36.9531 80.1328 37.4922 81.5078 37.4922C82.7734 37.4922 83.8438 36.9922 84.7188 35.9922C85.6094 34.9766 86.0547 33.5547 86.0547 31.7266ZM116.828 36.1562L122.453 37.9609C120.094 41.6641 116.406 43.5156 111.391 43.5156C107.391 43.5156 104.266 42.4609 102.016 40.3516C99.7812 38.2422 98.6641 35.4688 98.6641 32.0312C98.6641 28.5312 99.8203 25.6094 102.133 23.2656C104.445 20.9219 107.391 19.75 110.969 19.75C113.562 19.75 115.805 20.4062 117.695 21.7188C119.586 23.0312 120.898 24.6641 121.633 26.6172C122.367 28.5703 122.734 30.75 122.734 33.1562H105.836C105.945 35.2188 106.594 36.6797 107.781 37.5391C108.984 38.3984 110.25 38.8281 111.578 38.8281C113.312 38.8281 115.062 37.9375 116.828 36.1562ZM115.445 29.125C115.273 27.8594 114.773 26.7812 113.945 25.8906C113.133 25 112.016 24.5547 110.594 24.5547C107.938 24.5547 106.391 26.0781 105.953 29.125H115.445ZM137.641 43V37.4922H142V15.9062H137.641V10.3984H151.305L163.328 30.7422V15.9062H159.086V10.3984H173.711V15.9062H169.141V43.2344H161.875L147.812 19.0703V37.4922H151.914V43H137.641ZM188.125 43.5156C184.781 43.5156 181.953 42.4609 179.641 40.3516C177.344 38.2266 176.195 35.3203 176.195 31.6328C176.195 27.9453 177.344 25.0469 179.641 22.9375C181.953 20.8125 184.781 19.75 188.125 19.75C191.484 19.75 194.312 20.8125 196.609 22.9375C198.906 25.0469 200.055 27.9453 200.055 31.6328C200.055 35.2734 198.914 38.1641 196.633 40.3047C194.367 42.4453 191.531 43.5156 188.125 43.5156ZM188.102 37.8906C189.445 37.8906 190.531 37.375 191.359 36.3438C192.203 35.3125 192.625 33.6953 192.625 31.4922C192.625 29.5547 192.219 28.0469 191.406 26.9688C190.594 25.875 189.492 25.3281 188.102 25.3281C185.117 25.3281 183.625 27.4844 183.625 31.7969C183.625 33.5625 183.992 35.0234 184.727 36.1797C185.477 37.3203 186.602 37.8906 188.102 37.8906ZM202.797 25.5625V20.3125H205.68V16.75L212.922 11.5469V20.3125H217.094V25.5625H212.922V35.3828C212.922 36.2734 213.031 36.875 213.25 37.1875C213.484 37.4844 214.008 37.6328 214.82 37.6328C215.492 37.6328 216.25 37.4766 217.094 37.1641V42.1797C215.234 42.9453 213.414 43.3281 211.633 43.3281C207.664 43.3281 205.68 41.3594 205.68 37.4219V25.5625H202.797ZM43 95V89.4922H47.6641V67.9062H43V62.3984H72.1797V72.4531H65.9453V67.9062H56.1484V75.4531H63.2031V80.9609H56.1484V89.4922H61.1641V95H43ZM81.6016 95.5156C78.2578 95.5156 75.4297 94.4609 73.1172 92.3516C70.8203 90.2266 69.6719 87.3203 69.6719 83.6328C69.6719 79.9453 70.8203 77.0469 73.1172 74.9375C75.4297 72.8125 78.2578 71.75 81.6016 71.75C84.9609 71.75 87.7891 72.8125 90.0859 74.9375C92.3828 77.0469 93.5312 79.9453 93.5312 83.6328C93.5312 87.2734 92.3906 90.1641 90.1094 92.3047C87.8438 94.4453 85.0078 95.5156 81.6016 95.5156ZM81.5781 89.8906C82.9219 89.8906 84.0078 89.375 84.8359 88.3438C85.6797 87.3125 86.1016 85.6953 86.1016 83.4922C86.1016 81.5547 85.6953 80.0469 84.8828 78.9688C84.0703 77.875 82.9688 77.3281 81.5781 77.3281C78.5938 77.3281 77.1016 79.4844 77.1016 83.7969C77.1016 85.5625 77.4688 87.0234 78.2031 88.1797C78.9531 89.3203 80.0781 89.8906 81.5781 89.8906ZM124.188 89.7734V95H113.289V93.0781C111.117 94.5781 108.914 95.3281 106.68 95.3281C104.492 95.3281 102.773 94.7188 101.523 93.5C100.289 92.2656 99.6719 90.5312 99.6719 88.2969V77.5625H96.2734V72.3125H106.891V86.4453C106.891 87.5703 107.062 88.3438 107.406 88.7656C107.75 89.1719 108.375 89.375 109.281 89.375C110.5 89.375 111.836 88.8359 113.289 87.7578V77.5625H109.797V72.3125H120.531V89.7734H124.188ZM127.07 77.5625V72.3125H137.781V74.4219C139.969 72.7812 142.188 71.9609 144.438 71.9609C149.016 71.9609 151.305 74.8828 151.305 80.7266V89.7734H154.727V95H144.062V81.2656C144.062 80.0312 143.891 79.1875 143.547 78.7344C143.219 78.2812 142.672 78.0547 141.906 78.0547C140.562 78.0547 139.188 78.5469 137.781 79.5312V89.7734H141.273V95H127.07V89.7734H130.539V77.5625H127.07ZM184.516 89.7734V95H173.547V92.3047C171.531 94.3203 169.344 95.3281 166.984 95.3281C164.156 95.3281 161.812 94.1797 159.953 91.8828C158.094 89.5859 157.164 86.8047 157.164 83.5391C157.164 80.2266 158.117 77.4375 160.023 75.1719C161.93 72.8906 164.258 71.75 167.008 71.75C169.648 71.75 171.828 72.7734 173.547 74.8203V67.625H170.008V62.3984H180.789V89.7734H184.516ZM173.617 83.6094C173.617 81.4375 173.148 79.8906 172.211 78.9688C171.289 78.0469 170.234 77.5859 169.047 77.5859C167.625 77.5859 166.523 78.1406 165.742 79.25C164.977 80.3438 164.594 81.7891 164.594 83.5859C164.594 85.2891 164.977 86.7266 165.742 87.8984C166.508 89.0547 167.617 89.6328 169.07 89.6328C170.273 89.6328 171.328 89.1641 172.234 88.2266C173.156 87.2734 173.617 85.7344 173.617 83.6094Z" fill="#911002"/>
</g>
<defs>
<filter id="filter0_d_641_248" x="10" y="10.3984" width="214.134" height="92.1572" filterUnits="userSpaceOnUse" color-interpolation-filters="sRGB">
<feFlood flood-opacity="0" result="BackgroundImageFix"/>
<feColorMatrix in="SourceAlpha" type="matrix" values="0 0 0 0 0 0 0 0 0 0 0 0 0 0 0 0 0 0 127 0" result="hardAlpha"/>
<feOffset dx="4.22" dy="4.22"/>
<feGaussianBlur stdDeviation="1.41"/>
<feColorMatrix type="matrix" values="0 0 0 0 0 0 0 0 0 0 0 0 0 0 0 0 0 0 0.41 0"/>
<feBlend mode="normal" in2="BackgroundImageFix" result="effect1_dropShadow_641_248"/>
<feBlend mode="normal" in="SourceGraphic" in2="effect1_dropShadow_641_248" result="shape"/>
</filter>
</defs>
</svg>
