<svg width="148" height="145" viewBox="0 0 148 145" fill="none" xmlns="http://www.w3.org/2000/svg">
<path d="M36.0098 34.0191C33.2782 29.0528 33.5347 23.2783 36.1762 18.312C38.4781 13.9838 42.2151 10.5816 46.2121 7.7377C57.7732 -0.495607 73.9865 -2.29209 85.0589 7.62326C99.6983 20.7327 103.047 42.2073 95.9301 60.082C91.167 72.0435 80.1502 80.0029 72.5618 90.0361C69.1333 94.5724 66.2421 99.7156 64.9248 105.289C63.9888 109.246 65.6805 117.087 60.8758 119.037C58.9622 119.813 56.6743 118.95 55.298 117.41C53.9253 115.87 53.3151 113.793 53.0066 111.75C51.7136 103.166 55.1178 94.4719 60.0334 87.3206C64.9456 80.1659 71.3276 74.1695 77.0025 67.6043C85.1559 58.1711 91.7009 47.5205 87.6449 34.848C84.2927 24.3777 74.6625 16.4149 63.3198 17.9895C57.3953 18.8114 51.8418 22.9315 50.0704 28.647C54.4314 27.721 59.094 30.8562 60.3836 35.1289C61.6766 39.3981 59.8532 44.2743 56.4143 47.1147C51.5333 51.1447 43.4492 51.7932 38.7554 47.1529C34.7029 43.1472 33.8051 36.3219 36.6893 31.4076" fill="#6D3005"/>
<path d="M36.7587 33.5822C35.2646 30.8285 34.6822 27.7037 35.0531 24.5928C35.424 21.4819 36.7656 18.6173 38.5787 16.1098C40.3917 13.6024 42.645 11.525 45.0508 9.66951C47.2903 7.94239 49.6753 6.41988 52.2232 5.19217C57.0834 2.84772 62.5052 1.56105 67.9131 1.74139C73.321 1.92174 78.6388 3.69394 82.9617 7.00253C87.2741 10.3007 90.7823 14.7989 93.3372 19.5571C95.8713 24.2738 97.4936 29.4621 98.2216 34.7648C98.9531 40.0814 98.7728 45.5402 97.7467 50.8049C96.7206 56.0695 94.7412 61.6011 91.694 66.3177C88.5533 71.18 84.5355 75.3869 80.5766 79.5798C76.6178 83.7728 72.4197 88.2744 69.2235 93.3136C67.4763 96.0672 65.9961 99.0047 64.9422 102.091C64.5124 103.35 64.1068 104.651 63.9196 105.972C63.774 107.002 63.7289 108.043 63.6942 109.083C63.6214 111.192 63.6353 113.377 62.9662 115.402C62.3423 117.285 60.706 118.842 58.5845 118.374C55.565 117.708 54.3621 114.611 53.8976 111.871C53.3742 108.771 53.5371 105.546 54.1749 102.473C55.4992 96.0881 58.7404 90.3032 62.6542 85.1566C66.568 80.0099 71.4421 75.1268 75.8898 70.1639C79.9492 65.6311 83.8768 60.8277 86.5565 55.3273C89.1495 50.0141 90.3559 44.1773 89.3714 38.2954C88.4666 32.892 85.8562 27.7315 82.0187 23.8229C78.3892 20.1294 73.6469 17.6462 68.4851 17.0497C63.0391 16.4219 57.4439 18.0242 53.4157 21.8079C51.4883 23.6183 50.0254 25.883 49.2281 28.4077C49.0166 29.0771 49.6787 29.5973 50.2958 29.4759C53.9808 28.7338 57.7941 31.1892 59.2501 34.5394C60.8447 38.2086 59.5274 42.6548 56.8789 45.4744C54.2304 48.2939 50.4518 49.6084 46.7425 49.5078C43.0333 49.4072 39.4939 47.5136 37.5595 44.1946C35.3825 40.4595 35.2611 35.5972 37.4312 31.8342C37.9894 30.8666 36.4918 29.9927 35.9337 30.9603C33.6838 34.8584 33.6006 39.7138 35.4137 43.7993C37.2267 47.8847 41.0018 50.6037 45.4529 51.1482C49.6614 51.6615 54.1645 50.2673 57.3365 47.4512C60.7372 44.4305 62.5433 39.4121 61.2399 34.9694C59.8428 30.2077 54.7712 26.8089 49.8382 27.8043L50.9059 28.8725C52.556 23.6634 57.4197 19.9906 62.6716 18.9675C67.9235 17.9444 73.1442 19.2935 77.422 22.2102C81.6894 25.1165 84.8856 29.5453 86.5808 34.3972C88.5845 40.123 88.3695 46.1541 86.2202 51.8037C84.0744 57.4394 80.3548 62.3884 76.4479 66.9177C72.021 72.0471 67.1782 76.8053 62.9039 82.0699C58.6989 87.2478 55.0554 92.9633 53.1627 99.4105C52.2544 102.504 51.7657 105.754 51.8835 108.979C52.0014 112.204 52.5179 115.527 54.6256 117.951C56.4386 120.035 59.6314 120.934 62.0649 119.397C63.9161 118.232 64.7342 116.123 65.067 114.046C65.4171 111.847 65.3582 109.621 65.5107 107.405C65.691 104.755 66.672 102.067 67.7744 99.6255C70.3397 93.9309 74.2293 89.0235 78.4135 84.4456C82.3897 80.0931 86.6189 75.9556 90.2519 71.3014C92.0511 68.9986 93.7081 66.5848 95.074 63.9976C96.4398 61.4104 97.4555 58.7295 98.2736 55.9619C99.844 50.6523 100.562 45.0686 100.364 39.5335C100.166 34.0573 99.0883 28.595 97.0638 23.4969C95.015 18.3363 92.0511 13.5677 88.2413 9.52038C86.2653 7.42217 84.0883 5.49736 81.6201 3.99567C79.1519 2.49398 76.6836 1.49863 74.0143 0.843151C68.6411 -0.478202 62.9524 -0.18688 57.6485 1.30094C52.0534 2.872 46.9748 5.77135 42.5306 9.48917C37.6739 13.5538 33.6284 18.9953 33.2401 25.5223C33.0564 28.6332 33.7844 31.7267 35.2646 34.4596C35.795 35.4411 37.2925 34.5671 36.7622 33.5856L36.7587 33.5822Z" fill="#6D3005"/>
<path d="M61.5553 129.028C58.9241 127.148 54.9514 127.481 52.6669 129.77C50.9197 131.518 50.2333 134.112 50.3027 136.585C50.3373 137.75 50.5315 138.943 51.1208 139.953C51.5125 140.622 52.0672 141.187 52.6808 141.666C55.773 144.076 60.5707 144.028 63.5208 141.447C66.4709 138.867 67.1226 133.994 64.8451 130.804C63.6214 129.091 61.427 127.884 59.4025 128.459" fill="#6D3005"/>
<path d="M61.9955 128.279C58.9519 126.153 54.3967 126.614 51.873 129.351C50.4656 130.877 49.755 132.853 49.5158 134.889C49.2766 136.925 49.4984 139.332 50.84 141.045C53.2008 144.066 57.7004 145.009 61.2259 143.75C62.98 143.126 64.4742 142.009 65.5245 140.466C66.5195 139.006 67.0429 137.223 67.0845 135.465C67.1331 133.408 66.4813 131.352 65.1467 129.777C63.7115 128.081 61.3889 127.031 59.1807 127.62C58.1025 127.908 58.5601 129.58 59.6417 129.292C61.1358 128.893 62.6369 129.645 63.6595 130.714C64.6822 131.782 65.2125 133.166 65.3269 134.581C65.5661 137.532 64.1483 140.445 61.4617 141.784C58.7751 143.123 55.3292 142.765 53.0759 140.865C52.4069 140.3 51.8349 139.634 51.5472 138.794C51.2595 137.955 51.1693 137.064 51.1763 136.176C51.1867 134.532 51.5506 132.867 52.4312 131.459C54.2546 128.55 58.3417 127.828 61.1289 129.774C61.5137 130.041 62.0926 129.843 62.3145 129.462C62.5675 129.028 62.3873 128.543 62.0025 128.276L61.9955 128.279Z" fill="#6D3005"/>
<path d="M105.419 67.4135C105.107 63.4946 106.909 59.9189 109.995 57.5294C112.685 55.4485 116.013 54.363 119.348 53.7041C129.002 51.7931 139.762 55.2786 143.94 64.698C149.462 77.1555 145.468 91.6869 135.88 100.957C129.463 107.162 120.232 109.055 112.581 113.234C109.121 115.124 105.831 117.552 103.412 120.701C101.696 122.938 100.531 128.376 96.9394 128.237C95.5077 128.182 94.3083 126.985 93.8784 125.619C93.4485 124.253 93.6531 122.765 94.0413 121.388C95.6672 115.593 100.295 111.067 105.436 107.945C110.577 104.824 116.318 102.851 121.774 100.316C129.612 96.6741 136.785 91.8048 137.825 82.6386C138.684 75.0642 134.864 67.2852 127.244 65.0518C123.265 63.883 118.581 64.9061 115.836 68.0135C118.859 68.669 120.911 71.9811 120.512 75.0503C120.114 78.1162 117.573 80.6791 114.591 81.4976C110.359 82.6559 105.065 80.7623 103.418 76.4896C101.997 72.803 103.373 68.232 106.594 65.9465" fill="#6D3005"/>
<path d="M106.019 67.4136C105.71 63.238 107.918 59.5133 111.381 57.2833C113.291 56.0556 115.434 55.2614 117.628 54.7065C119.511 54.2279 121.421 53.9088 123.362 53.8256C130.417 53.5238 137.852 56.1874 141.898 62.2358C144.068 65.4819 145.24 69.4911 145.666 73.3476C146.103 77.2943 145.739 81.3 144.671 85.1219C142.508 92.8766 137.502 100.056 130.566 104.235C123.237 108.65 114.574 110.415 107.707 115.666C105.915 117.035 104.254 118.596 102.892 120.403C102.042 121.53 101.515 122.886 100.867 124.135C100.219 125.383 99.5013 126.712 98.2533 127.364C96.7072 128.168 95.0363 127.114 94.492 125.584C93.7502 123.5 94.6377 121 95.5217 119.089C96.4056 117.178 97.5323 115.558 98.8843 114.049C101.789 110.807 105.467 108.431 109.336 106.496C116.897 102.709 125.497 100.441 131.956 94.7355C134.674 92.3355 136.792 89.3009 137.807 85.8016C138.847 82.2156 138.792 78.2758 137.627 74.7244C136.504 71.291 134.327 68.2321 131.283 66.2518C128.021 64.1328 123.927 63.3698 120.183 64.5629C118.36 65.142 116.689 66.1651 115.406 67.594C115.118 67.9131 115.209 68.4922 115.67 68.5997C118.283 69.1997 120.027 71.8424 119.951 74.4643C119.875 77.0862 117.77 79.6214 115.302 80.6272C112.973 81.5774 110.172 81.4006 107.915 80.3324C105.658 79.2642 103.852 77.1278 103.512 74.4955C103.124 71.4922 104.413 68.2564 106.885 66.4738C107.506 66.0264 106.906 64.9825 106.279 65.4368C103.717 67.2853 102.212 70.3685 102.247 73.5279C102.282 76.6874 103.862 79.3682 106.511 80.9497C109 82.4341 112.2 82.871 114.98 82.0179C117.951 81.1058 120.557 78.5428 121.057 75.4042C121.601 71.9881 119.459 68.2425 115.988 67.4449L116.252 68.4506C118.918 65.475 123.307 64.542 127.075 65.6414C130.597 66.6715 133.502 69.113 135.27 72.3106C137.038 75.5082 137.669 79.3717 137.166 83.0132C136.656 86.6964 134.944 90.0292 132.361 92.6858C129.779 95.3424 126.475 97.3435 123.133 99.0047C118.887 101.113 114.425 102.747 110.14 104.769C105.856 106.791 102.139 109.014 98.9467 112.225C97.5046 113.675 96.215 115.298 95.2027 117.074C94.1281 118.96 93.2649 121.104 93.0569 123.278C92.8558 125.414 93.6913 127.787 95.8267 128.619C97.359 129.215 98.9883 128.588 100.077 127.454C101.165 126.32 101.81 124.929 102.479 123.573C102.805 122.907 103.127 122.238 103.516 121.603C103.997 120.819 104.625 120.126 105.252 119.46C111.42 112.908 120.367 110.789 128.167 106.912C130.08 105.962 131.938 104.89 133.658 103.614C135.377 102.338 136.837 100.943 138.213 99.3827C140.945 96.2857 143.129 92.7309 144.657 88.8917C147.687 81.293 147.906 72.6297 144.723 65.0415C143.271 61.5768 140.934 58.6358 137.832 56.503C134.802 54.4221 131.235 53.236 127.602 52.7921C123.712 52.3169 119.75 52.7782 116.009 53.9088C111.842 55.1712 107.78 57.5746 105.873 61.6566C105.034 63.46 104.656 65.4334 104.805 67.4171C104.861 68.1836 106.064 68.1905 106.008 67.4171L106.019 67.4136Z" fill="#6D3005"/>
<path d="M94.5239 134.754C93.3938 132.815 90.7904 131.896 88.6931 132.691C87.0915 133.297 85.9198 134.744 85.2577 136.325C84.9457 137.071 84.7308 137.882 84.8174 138.687C84.8764 139.221 85.0635 139.738 85.3166 140.213C86.5854 142.616 89.6326 143.955 92.2325 143.164C94.8325 142.374 96.6316 139.478 96.0977 136.814C95.81 135.382 94.77 133.995 93.3245 133.783" fill="#6D3005"/>
<path d="M95.0442 134.452C93.7269 132.264 90.8115 131.196 88.4126 132.16C87.1161 132.68 86.0831 133.669 85.3481 134.844C84.5508 136.117 83.9754 137.699 84.3012 139.207C84.8697 141.846 87.4836 143.681 90.0593 143.958C92.6349 144.236 95.124 142.706 96.1986 140.362C96.8018 139.048 97.0028 137.515 96.5383 136.121C96.0738 134.726 94.9888 133.457 93.4877 133.2C92.732 133.072 92.4061 134.23 93.1688 134.359C95.3874 134.74 95.9455 137.452 95.3389 139.287C94.7322 141.122 92.9365 142.706 90.8878 142.783C88.839 142.859 86.7972 141.725 85.8369 139.908C85.199 138.704 85.3724 137.463 85.9409 136.263C86.4193 135.25 87.1161 134.296 88.066 133.682C90.0315 132.41 92.7909 133.041 94.0043 135.056C94.4029 135.718 95.4429 135.115 95.0408 134.449L95.0442 134.452Z" fill="#6D3005"/>
<path d="M2.85643 81.4943C0.689804 79.2019 0.0207672 76.0563 0.752221 73.0078C1.38661 70.3547 2.92577 67.9999 4.67987 65.9086C9.75845 59.8567 18.2412 56.6244 25.5904 60.4151C35.3073 65.43 40.1121 76.528 38.774 87.1543C37.8796 94.2639 33.054 100.09 30.3709 106.558C29.1576 109.482 28.3187 112.655 28.388 115.843C28.4365 118.104 30.4437 122.092 28.128 123.812C27.2059 124.499 25.8504 124.353 24.8971 123.715C23.9438 123.077 23.3233 122.044 22.8726 120.986C20.9764 116.543 21.5969 111.383 23.2435 106.843C24.8902 102.303 27.4902 98.1794 29.6291 93.8512C32.7039 87.6294 34.7423 80.9776 30.7869 74.7176C27.5179 69.5466 21.2191 66.6022 15.3293 69.0368C12.251 70.3096 9.83818 73.3026 9.68218 76.6285C11.9008 75.5187 14.8509 76.5592 16.1439 78.6782C17.437 80.7972 17.1354 83.6792 15.6794 85.6907C13.6133 88.545 9.34939 90.0224 6.17051 88.1808C3.42842 86.589 1.99325 83.0376 2.85643 79.9857" fill="#6D3005"/>
<path d="M3.19965 81.1544C0.918621 78.7024 0.471417 75.2724 1.49753 72.1581C2.50978 69.0819 4.68334 66.2866 7.0649 64.1363C11.4918 60.141 17.8218 58.0359 23.6145 60.0856C26.3635 61.0566 28.8872 62.867 30.9533 64.8993C32.9813 66.8969 34.6279 69.2553 35.8585 71.8182C38.3441 76.9892 39.242 83.2352 37.9905 88.864C36.5311 95.4222 32.1354 100.787 29.6949 106.957C28.9981 108.716 28.4539 110.54 28.1592 112.413C27.9166 113.956 27.7744 115.551 28.0587 117.098C28.2909 118.371 28.6931 119.623 28.7555 120.923C28.8109 122.12 28.4469 123.493 27.0915 123.757C25.4102 124.083 24.1795 122.595 23.5209 121.256C22.7686 119.72 22.37 117.989 22.2382 116.29C21.9679 112.745 22.7998 109.215 24.1068 105.941C26.7899 99.2129 31.508 93.2754 33.0298 86.0964C33.737 82.7532 33.5741 79.3059 32.125 76.1742C30.8285 73.3719 28.6411 70.9581 25.9614 69.4252C23.4446 67.9894 20.5084 67.3859 17.6415 67.8749C14.7746 68.364 12.0222 70.0425 10.4587 72.6089C9.7134 73.8297 9.27661 75.21 9.19687 76.6389C9.17607 77.0308 9.61632 77.2042 9.92138 77.0551C11.7691 76.1638 14.0605 76.899 15.3466 78.4076C16.8511 80.1729 16.7471 82.8988 15.6517 84.8375C14.6221 86.6583 12.7085 87.9345 10.6806 88.3715C8.65261 88.8085 6.51025 88.2224 5.03348 86.686C3.3903 84.9762 2.69005 82.4202 3.3175 80.1243C3.48043 79.5244 2.55138 79.2677 2.38845 79.8677C1.73673 82.2434 2.32952 84.841 3.83749 86.7727C5.34547 88.7045 7.74437 89.7414 10.2195 89.4258C12.6947 89.1102 14.8544 87.775 16.2063 85.7808C17.6693 83.6237 17.9327 80.5162 16.4629 78.2966C14.9757 76.0528 11.8974 75.0366 9.43607 76.2227L10.1606 76.6389C10.327 73.6077 12.4243 70.9546 15.1074 69.668C17.7906 68.3813 21.0527 68.3813 23.8537 69.4772C26.6547 70.5731 29.0432 72.7338 30.5824 75.321C32.4335 78.4319 32.8495 82.0283 32.1562 85.5485C31.4421 89.1588 29.8232 92.509 28.1245 95.7413C26.4259 98.9736 24.495 102.327 23.1153 105.83C21.7356 109.333 20.9868 112.773 21.278 116.363C21.4201 118.111 21.8223 119.827 22.5398 121.43C23.1777 122.855 24.2281 124.27 25.8262 124.652C27.2232 124.984 28.6896 124.433 29.3378 123.108C29.9064 121.943 29.7469 120.58 29.5181 119.349C29.2893 118.118 28.8733 116.831 28.8699 115.527C28.8664 113.619 29.1853 111.733 29.7088 109.902C31.6258 103.205 36.2711 97.725 38.3822 91.1113C40.2161 85.3681 39.7238 78.8273 37.5294 73.254C35.3767 67.7882 31.4733 63.0681 26.2872 60.2486C23.5764 58.7746 20.5292 58.0914 17.4474 58.3827C14.3656 58.674 11.5299 59.77 9.00622 61.4347C6.32653 63.1965 4.07322 65.5721 2.34339 68.2668C0.537284 71.083 -0.554692 74.4713 0.29116 77.8042C0.675954 79.3232 1.45594 80.7035 2.52019 81.848C2.94311 82.3023 3.62602 81.6191 3.2031 81.1648L3.19965 81.1544Z" fill="#6D3005"/>
<path d="M29.8921 129.105C28.2107 128.459 26.1204 129.195 25.2087 130.745C24.5119 131.931 24.5049 133.426 24.8863 134.747C25.0665 135.371 25.3404 135.985 25.798 136.447C26.1031 136.752 26.4809 136.981 26.8761 137.151C28.8763 138.018 31.4555 137.32 32.6861 135.517C33.9168 133.714 33.5874 130.998 31.9131 129.6C31.0152 128.848 29.6633 128.505 28.6545 129.098" fill="#6D3005"/>
<path d="M30.0203 128.636C28.1067 127.939 25.7668 128.775 24.758 130.558C24.1548 131.629 24.0508 132.892 24.2449 134.088C24.439 135.285 24.8897 136.402 25.8465 137.113C27.5347 138.368 30.0584 138.233 31.7605 137.081C33.4626 135.93 34.2322 133.811 33.7642 131.792C33.2442 129.549 30.7344 127.398 28.4083 128.675C27.864 128.973 28.3494 129.809 28.8936 129.507C30.5056 128.619 32.2597 130.204 32.7312 131.681C33.2026 133.159 32.8386 134.921 31.608 135.989C30.3773 137.057 28.5712 137.331 27.1014 136.721C25.2676 135.961 24.7614 133.464 25.2988 131.713C25.8673 129.864 27.9715 128.91 29.7603 129.562C30.3461 129.774 30.5957 128.845 30.0168 128.633L30.0203 128.636Z" fill="#6D3005"/>
</svg>
