<svg width="326" height="136" viewBox="0 0 326 136" fill="none" xmlns="http://www.w3.org/2000/svg">
<path d="M24.8125 49.6562V57H1.90625V49.6562H7.4375V20.875H1.90625V13.5312H24.8125C30.1458 13.5312 34.2604 14.7812 37.1562 17.2812C40.0729 19.7812 41.5312 23.1458 41.5312 27.375C41.5312 29.7917 41.0208 31.9896 40 33.9688C38.9792 35.9271 37.6667 37.4375 36.0625 38.5C34.4792 39.5417 32.6562 40.2604 30.5938 40.6562C28.5521 41.0312 25.9896 41.2188 22.9062 41.2188H18.75V49.6562H24.8125ZM18.75 33.9688H20.4375C24.3125 33.9688 26.8021 33.3438 27.9062 32.0938C29.0312 30.8229 29.5938 29.25 29.5938 27.375C29.5938 25.7917 29.2083 24.4479 28.4375 23.3438C27.6667 22.2188 26.7812 21.5312 25.7812 21.2812C24.7812 21.0104 23.1458 20.875 20.875 20.875H18.75V33.9688ZM79.5938 50.0312V57H65.0625V54.625C62.4583 56.5 59.7083 57.4375 56.8125 57.4375C53.8125 57.4375 51.2188 56.5833 49.0312 54.875C46.8646 53.1667 45.7812 50.875 45.7812 48C45.7812 45.1042 46.9271 42.6771 49.2188 40.7188C51.5104 38.7604 54.4688 37.7812 58.0938 37.7812C60.1146 37.7812 62.4375 38.2917 65.0625 39.3125V37.4688C65.0625 35.9271 64.5417 34.6667 63.5 33.6875C62.4583 32.6875 61.0625 32.1875 59.3125 32.1875C57.1458 32.1875 55.2917 32.9792 53.75 34.5625L45.9688 33.1562C48.2188 28.3854 53.1042 26 60.625 26C63.5417 26 65.9583 26.3333 67.875 27C69.7917 27.6458 71.2188 28.4896 72.1562 29.5312C73.0938 30.5729 73.75 31.7188 74.125 32.9688C74.5208 34.1979 74.7188 36.2083 74.7188 39V50.0312H79.5938ZM65.0625 45.8125C62.7292 44.3542 60.8646 43.625 59.4688 43.625C58.3646 43.625 57.3542 43.9479 56.4375 44.5938C55.5417 45.2396 55.0938 46.1771 55.0938 47.4062C55.0938 48.5104 55.4583 49.4583 56.1875 50.25C56.9167 51.0417 57.8542 51.4375 59 51.4375C60.7917 51.4375 62.8125 50.3854 65.0625 48.2812V45.8125ZM120.938 26.75V33.75H115.938V56.0938C115.938 66.0729 110.667 71.0625 100.125 71.0625C94.0833 71.0625 89.5833 69.9688 86.625 67.7812L91.3125 61.375C93.75 62.875 96.1979 63.625 98.6562 63.625C100.802 63.625 102.604 63.0729 104.062 61.9688C105.542 60.8646 106.281 58.7188 106.281 55.5312V53.2188C103.135 56.0312 100.073 57.4375 97.0938 57.4375C93.5938 57.4375 90.6042 55.9792 88.125 53.0625C85.6667 50.125 84.4375 46.3854 84.4375 41.8438C84.4375 37.2812 85.7083 33.5521 88.25 30.6562C90.7917 27.7396 93.8958 26.2812 97.5625 26.2812C101.083 26.2812 103.99 27.6667 106.281 30.4375V26.75H120.938ZM106.312 41.9688C106.312 39.5312 105.771 37.6042 104.688 36.1875C103.604 34.7708 102.125 34.0625 100.25 34.0625C98.3333 34.0625 96.8646 34.7917 95.8438 36.25C94.8438 37.7083 94.3438 39.5833 94.3438 41.875C94.3438 44.1667 94.8646 46.0417 95.9062 47.5C96.9688 48.9375 98.4167 49.6562 100.25 49.6562C101.938 49.6562 103.365 48.9896 104.531 47.6562C105.719 46.3021 106.312 44.4062 106.312 41.9688ZM148.844 47.875L156.344 50.2812C153.198 55.2188 148.281 57.6875 141.594 57.6875C136.26 57.6875 132.094 56.2812 129.094 53.4688C126.115 50.6562 124.625 46.9583 124.625 42.375C124.625 37.7083 126.167 33.8125 129.25 30.6875C132.333 27.5625 136.26 26 141.031 26C144.49 26 147.479 26.875 150 28.625C152.521 30.375 154.271 32.5521 155.25 35.1562C156.229 37.7604 156.719 40.6667 156.719 43.875H134.188C134.333 46.625 135.198 48.5729 136.781 49.7188C138.385 50.8646 140.073 51.4375 141.844 51.4375C144.156 51.4375 146.49 50.25 148.844 47.875ZM147 38.5C146.771 36.8125 146.104 35.375 145 34.1875C143.917 33 142.427 32.4062 140.531 32.4062C136.99 32.4062 134.927 34.4375 134.344 38.5H147ZM179.594 57V49.6562H185.406V20.875H179.594V13.5312H197.812L213.844 40.6562V20.875H208.188V13.5312H227.688V20.875H221.594V57.3125H211.906L193.156 25.0938V49.6562H198.625V57H179.594ZM248.406 57.6875C243.948 57.6875 240.177 56.2812 237.094 53.4688C234.031 50.6354 232.5 46.7604 232.5 41.8438C232.5 36.9271 234.031 33.0625 237.094 30.25C240.177 27.4167 243.948 26 248.406 26C252.885 26 256.656 27.4167 259.719 30.25C262.781 33.0625 264.312 36.9271 264.312 41.8438C264.312 46.6979 262.792 50.5521 259.75 53.4062C256.729 56.2604 252.948 57.6875 248.406 57.6875ZM248.375 50.1875C250.167 50.1875 251.615 49.5 252.719 48.125C253.844 46.75 254.406 44.5938 254.406 41.6562C254.406 39.0729 253.865 37.0625 252.781 35.625C251.698 34.1667 250.229 33.4375 248.375 33.4375C244.396 33.4375 242.406 36.3125 242.406 42.0625C242.406 44.4167 242.896 46.3646 243.875 47.9062C244.875 49.4271 246.375 50.1875 248.375 50.1875ZM269.469 33.75V26.75H273.312V22L282.969 15.0625V26.75H288.531V33.75H282.969V46.8438C282.969 48.0312 283.115 48.8333 283.406 49.25C283.719 49.6458 284.417 49.8438 285.5 49.8438C286.396 49.8438 287.406 49.6354 288.531 49.2188V55.9062C286.052 56.9271 283.625 57.4375 281.25 57.4375C275.958 57.4375 273.312 54.8125 273.312 49.5625V33.75H269.469ZM1.8125 125V117.656H8.03125V88.875H1.8125V81.5312H40.7188V94.9375H32.4062V88.875H19.3438V98.9375H28.75V106.281H19.3438V117.656H26.0312V125H1.8125ZM54.7812 125.688C50.3229 125.688 46.5521 124.281 43.4688 121.469C40.4062 118.635 38.875 114.76 38.875 109.844C38.875 104.927 40.4062 101.062 43.4688 98.25C46.5521 95.4167 50.3229 94 54.7812 94C59.2604 94 63.0312 95.4167 66.0938 98.25C69.1562 101.062 70.6875 104.927 70.6875 109.844C70.6875 114.698 69.1667 118.552 66.125 121.406C63.1042 124.26 59.3229 125.688 54.7812 125.688ZM54.75 118.188C56.5417 118.188 57.9896 117.5 59.0938 116.125C60.2188 114.75 60.7812 112.594 60.7812 109.656C60.7812 107.073 60.2396 105.062 59.1562 103.625C58.0729 102.167 56.6042 101.438 54.75 101.438C50.7708 101.438 48.7812 104.312 48.7812 110.062C48.7812 112.417 49.2708 114.365 50.25 115.906C51.25 117.427 52.75 118.188 54.75 118.188ZM113.062 118.031V125H98.5312V122.438C95.6354 124.438 92.6979 125.438 89.7188 125.438C86.8021 125.438 84.5104 124.625 82.8438 123C81.1979 121.354 80.375 119.042 80.375 116.062V101.75H75.8438V94.75H90V113.594C90 115.094 90.2292 116.125 90.6875 116.688C91.1458 117.229 91.9792 117.5 93.1875 117.5C94.8125 117.5 96.5938 116.781 98.5312 115.344V101.75H93.875V94.75H108.188V118.031H113.062ZM118.406 101.75V94.75H132.688V97.5625C135.604 95.375 138.562 94.2812 141.562 94.2812C147.667 94.2812 150.719 98.1771 150.719 105.969V118.031H155.281V125H141.062V106.688C141.062 105.042 140.833 103.917 140.375 103.312C139.938 102.708 139.208 102.406 138.188 102.406C136.396 102.406 134.562 103.062 132.688 104.375V118.031H137.344V125H118.406V118.031H123.031V101.75H118.406ZM196.5 118.031V125H181.875V121.406C179.188 124.094 176.271 125.438 173.125 125.438C169.354 125.438 166.229 123.906 163.75 120.844C161.271 117.781 160.031 114.073 160.031 109.719C160.031 105.302 161.302 101.583 163.844 98.5625C166.385 95.5208 169.49 94 173.156 94C176.677 94 179.583 95.3646 181.875 98.0938V88.5H177.156V81.5312H191.531V118.031H196.5ZM181.969 109.812C181.969 106.917 181.344 104.854 180.094 103.625C178.865 102.396 177.458 101.781 175.875 101.781C173.979 101.781 172.51 102.521 171.469 104C170.448 105.458 169.938 107.385 169.938 109.781C169.938 112.052 170.448 113.969 171.469 115.531C172.49 117.073 173.969 117.844 175.906 117.844C177.51 117.844 178.917 117.219 180.125 115.969C181.354 114.698 181.969 112.646 181.969 109.812Z" fill="#911002"/>
</svg>
