<svg width="163" height="125" viewBox="0 0 163 125" fill="none" xmlns="http://www.w3.org/2000/svg">
<path d="M-6.47 11.601C4.3583 3.64661 18.3408 0.0541229 31.2022 3.27458C44.0637 6.50014 55.3659 16.982 58.7188 30.3836C63.6871 26.5822 73.1193 25.5936 79.0557 27.2854C84.9922 28.9771 90.098 33.6091 92.544 39.5201C109.242 31.6014 133.054 38.343 143.577 54.058C154.1 69.7782 153.972 91.9239 144.948 108.628C147.057 108.628 151.404 109.056 154.278 111.201C159.715 115.257 161.188 121.234 160.296 128.241H-6.4751V11.5958L-6.47 11.601Z" fill="#478F7E" stroke="#F9ECD1" stroke-width="3" stroke-miterlimit="10"/>
<path d="M94.2457 38.8523C109.283 35.0765 126.491 41.8996 133.758 55.5611C139.337 65.411 140.81 78.0889 135.801 88.4382C131.75 97.0193 123.383 103.537 113.66 103.455C100.116 103.878 87.9577 91.2918 90.1896 77.6355C91.5297 65.8033 104.539 57.7573 115.816 61.7981C112.203 60.3255 108.116 60.1573 104.335 61.0898C91.7336 64.0606 86.0214 77.4469 90.3476 89.2026C94.6789 100.688 107.77 107.206 119.597 104.163C127.449 102.329 133.752 96.2397 137.116 89.0752C143.913 74.6494 139.164 56.2235 127.271 45.9353C118.455 38.3836 105.364 35.5198 94.2457 38.8523Z" fill="#F9ECD1"/>
<path d="M-6.19482 56.7179C4.20034 51.719 16.8376 50.5827 27.4468 55.4083C38.0967 60.2696 46.046 71.1233 46.5708 82.9096C52.0742 81.5491 58.566 81.4676 63.31 84.8918C67.9624 88.255 70.6479 94.0691 70.2708 99.7967L70.9382 99.7916C74.3014 99.7559 77.69 100.388 80.727 101.835C83.764 103.267 86.3782 105.575 88.1973 108.424C91.6878 114.238 92.1057 121.82 90.098 128.251C91.963 123.4 92.1159 117.912 90.8725 112.867C89.6445 107.695 85.945 103.257 81.1908 100.887C78.0213 99.282 74.4695 98.538 70.9382 98.4972L71.5854 99.1648C71.83 93.2182 69.007 87.2308 64.1865 83.7046C59.2691 80.1478 52.7925 79.949 47.0905 81.2331L48.023 81.916C47.5644 75.9286 45.2714 70.1501 41.7095 65.3754C30.7335 50.1343 9.56098 47.9177 -6.19482 56.723V56.7179Z" fill="#F9ECD1"/>
<path d="M5.04144 123.323C2.75858 120.562 2.20825 116.673 3.00317 113.295C4.68984 106.339 13.0772 102.829 19.4876 105.402C22.6673 106.829 24.9654 110.095 25.3578 113.591C25.526 111.761 24.9654 109.886 24.038 108.261C21.1182 102.844 14.0709 102.064 8.81729 104.362C5.28599 105.937 2.54964 109.229 1.83625 113.04C1.19419 116.694 2.17258 120.888 5.03634 123.323H5.04144Z" fill="#F9ECD1"/>
<path d="M109.247 93.3557C113.716 95.2717 119.24 93.9876 122.959 90.9047C126.832 87.7862 128.779 82.665 128.498 77.763C128.346 74.5272 127.296 71.317 125.375 68.7895C126.74 71.6431 127.367 74.7311 127.301 77.7783C127.204 82.2828 125.482 86.8282 122.022 89.7989C118.572 92.8258 113.869 94.278 109.247 93.3557Z" fill="#F9ECD1"/>
<path d="M49.4551 30.8676C55.045 31.4587 60.3343 33.0026 63.7891 37.7467C62.3776 31.7338 54.9482 29.0841 49.4551 30.8676Z" fill="#F9ECD1"/>
<path d="M87.6465 42.8576C90.0364 41.9149 92.467 41.706 94.9129 42.3837C95.7078 42.6028 96.4824 42.9188 97.3283 43.3315C95.6365 39.7493 89.6797 39.4537 87.6465 42.8576Z" fill="#F9ECD1"/>
<path d="M143.521 88.9377C146.181 83.623 147.363 77.4572 146.996 71.5003C146.456 61.4822 141.61 51.9636 134.659 44.8602C136.937 48.1011 139.031 51.4234 140.759 54.9242C146.109 65.3754 147.215 77.7324 143.521 88.9377Z" fill="#F9ECD1"/>
<path d="M142.42 119.807C145.07 120.791 147.19 122.513 148.453 125.025C148.876 125.836 149.212 126.707 149.528 127.68C150.874 123.578 146.695 118.742 142.425 119.807H142.42Z" fill="#F9ECD1"/>
<path d="M3.66016 94.6755C19.5841 87.5059 36.7107 97.7125 39.4572 114.615C44.1911 113.524 49.5466 113.27 53.8423 115.823C57.8271 118.309 60.5126 122.951 60.6706 127.701C60.9712 122.793 58.4488 117.79 54.3825 114.972C50.1276 112.164 44.7211 112.108 39.8904 113.03L40.7566 113.616C40.0534 109.58 38.4534 105.703 36.0738 102.37C28.9347 91.9239 14.6923 88.2957 3.66016 94.6755Z" fill="#F9ECD1"/>
<path d="M-5.98633 41.4614C6.08021 36.1874 20.4093 34.3988 32.4351 40.6155C36.3638 42.5977 39.9409 45.3189 42.9117 48.682C40.4454 44.9214 36.96 41.8079 33.0006 39.5608C21.0054 32.6052 5.54517 34.4396 -5.98633 41.4614Z" fill="#F9ECD1"/>
<path d="M145.941 106.727C141.268 112.607 135.424 117.525 128.392 120.307C135.831 119.812 143.337 113.611 145.941 106.727Z" fill="#F9ECD1"/>
<path d="M37.3833 79.3986C42.1987 80.2139 46.9019 82.4101 49.2816 86.8433C50.0714 88.2599 50.6677 89.8192 51.2792 91.4243C51.483 83.6636 45.0013 78.1195 37.3833 79.3986Z" fill="#F9ECD1"/>
<path d="M81.9145 128.251C85.4407 123.415 85.1452 115.95 81.2012 111.435C83.0866 116.908 83.3311 122.641 81.9145 128.251Z" fill="#F9ECD1"/>
<path d="M-5.98633 33.395C-1.72635 31.5249 2.42658 29.9095 6.83943 28.4369C2.13613 27.7592 -2.94931 29.7567 -5.98633 33.395Z" fill="#F9ECD1"/>
<path d="M-6.47012 21.4813C-1.26744 17.4914 4.53655 14.2862 10.8858 12.7422C17.1687 11.4276 23.8695 11.1626 30.1423 12.7116C34.3157 13.7715 38.3004 15.7181 41.6329 18.6125C38.7488 15.2544 34.7436 12.8747 30.4684 11.56C24.0122 9.59818 17.0718 9.82751 10.5341 11.3358C4.08804 13.0887 -1.84835 16.7322 -6.47522 21.4813H-6.47012Z" fill="#F9ECD1"/>
<path d="M-6.47003 11.6009C4.27164 3.77397 18.4783 0.105087 31.4723 3.58034C44.2981 6.99953 55.1213 17.5526 58.3213 30.4854L58.4691 31.0867L58.9736 30.7148C64.1457 27.051 71.6924 26.2968 77.8225 27.4739C84.1921 28.8854 89.5936 33.7365 92.0548 39.729L92.2687 40.2487L92.7783 40.0093C105.706 34.0728 121.513 36.7276 133.08 44.5444C140.999 49.7776 146.319 58.1192 148.871 67.164C152.872 81.1516 150.879 96.7138 143.74 109.351C147.526 109.326 151.654 109.825 154.584 112.398C159.251 116.138 160.383 122.478 159.552 128.154L160.301 127.492C113.044 127.446 40.2521 127.604 -6.47003 127.721L-5.94006 128.251C-5.98083 99.1801 -6.32226 40.6717 -6.47003 11.606V11.6009ZM-6.47003 11.6009C-6.60252 40.6717 -6.94395 99.175 -7 128.246V128.771H-6.47003C40.0585 129.015 113.237 128.908 160.301 129H160.969L161.05 128.338C161.509 124.679 161.386 120.791 159.98 117.305C158.782 114.38 156.652 111.843 154.003 110.131C151.277 108.5 148.056 107.96 144.958 107.909L145.595 108.979C154.665 92.0105 154.925 69.8852 144.112 53.6504C138.65 45.5686 129.997 40.0194 120.708 37.3748C111.439 34.7505 101.13 34.8575 92.3247 39.036L93.0484 39.3163C91.7286 36.162 89.6547 33.339 87.0712 31.1173C80.5946 25.2929 70.9128 24.9311 62.9941 27.6675C61.3992 28.2484 59.8501 29.0128 58.4793 30.0574L59.1316 30.2867C57.4704 23.7133 53.8372 17.7157 48.9862 13.0124C33.8928 -2.07585 9.87178 -0.796844 -6.46493 11.606L-6.47003 11.6009Z" fill="#F9ECD1"/>
</svg>
