<svg width="284" height="221" viewBox="0 0 284 221" fill="none" xmlns="http://www.w3.org/2000/svg">
<path d="M287.323 19.3291C268.906 5.80049 245.125 -0.309586 223.25 5.16774C201.375 10.6537 182.153 28.4811 176.45 51.2744C168 44.8091 151.958 43.1277 141.861 46.005C131.765 48.8823 123.081 56.7603 118.921 66.8136C90.5202 53.3456 50.0211 64.8116 32.1245 91.5396C14.2278 118.276 14.4445 155.941 29.7932 184.351C26.2052 184.351 18.8125 185.079 13.9245 188.727C4.67719 195.626 2.17245 205.792 3.68912 217.709H287.331V19.3204L287.323 19.3291Z" fill="#478F7E" stroke="#F9ECD1" stroke-width="5.52" stroke-miterlimit="10"/>
<path d="M116.026 65.6782C90.451 59.2562 61.1837 70.8609 48.825 94.0961C39.3351 110.849 36.8304 132.411 45.3497 150.013C52.2397 164.608 66.4703 175.693 83.0062 175.554C106.042 176.273 126.721 154.867 122.925 131.64C120.646 111.516 98.5196 97.8314 79.3403 104.704C85.4849 102.199 92.4356 101.913 98.8663 103.499C120.299 108.552 130.014 131.319 122.656 151.313C115.29 170.848 93.025 181.932 72.9097 176.758C59.5544 173.639 48.8336 163.282 43.1136 151.097C31.5523 126.561 39.6297 95.2228 59.8577 77.7248C74.851 64.8809 97.1156 60.0102 116.026 65.6782Z" fill="#F9ECD1"/>
<path d="M286.854 96.0635C269.175 87.5615 247.681 85.6289 229.637 93.8362C211.524 102.104 198.004 120.564 197.111 140.61C187.751 138.296 176.71 138.157 168.642 143.981C160.729 149.701 156.161 159.59 156.803 169.331L155.668 169.323C149.948 169.262 144.184 170.337 139.019 172.798C133.854 175.233 129.408 179.159 126.314 184.004C120.377 193.893 119.666 206.789 123.081 217.726C119.909 209.475 119.649 200.141 121.764 191.561C123.852 182.765 130.144 175.216 138.23 171.186C143.621 168.456 149.662 167.191 155.668 167.121L154.567 168.257C154.151 158.143 158.952 147.959 167.151 141.962C175.514 135.913 186.53 135.575 196.228 137.759L194.641 138.92C195.421 128.737 199.321 118.909 205.379 110.788C224.047 84.8662 260.057 81.0962 286.854 96.0722V96.0635Z" fill="#F9ECD1"/>
<path d="M267.744 209.345C271.627 204.648 272.563 198.035 271.211 192.289C268.342 180.459 254.077 174.488 243.175 178.865C237.767 181.291 233.858 186.847 233.191 192.792C232.905 189.681 233.858 186.491 235.435 183.727C240.401 174.514 252.387 173.188 261.322 177.097C267.328 179.775 271.982 185.373 273.196 191.856C274.288 198.07 272.624 205.203 267.753 209.345H267.744Z" fill="#F9ECD1"/>
<path d="M90.5115 158.377C82.9108 161.635 73.5163 159.451 67.1896 154.208C60.6029 148.904 57.2924 140.194 57.7691 131.857C58.0291 126.354 59.8143 120.894 63.0816 116.595C60.759 121.448 59.6929 126.7 59.8056 131.883C59.9703 139.544 62.8997 147.275 68.7843 152.327C74.6517 157.475 82.6508 159.945 90.5115 158.377Z" fill="#F9ECD1"/>
<path d="M192.206 52.0976C182.699 53.103 173.703 55.7289 167.827 63.7976C170.228 53.5709 182.863 49.0643 192.206 52.0976Z" fill="#F9ECD1"/>
<path d="M127.25 72.4902C123.185 70.8868 119.051 70.5315 114.891 71.6841C113.539 72.0568 112.222 72.5942 110.783 73.2962C113.66 67.2036 123.792 66.7008 127.25 72.4902Z" fill="#F9ECD1"/>
<path d="M32.2196 150.863C27.6956 141.823 25.6851 131.337 26.3091 121.205C27.2278 104.167 35.4697 87.9775 47.291 75.8962C43.417 81.4082 39.8551 87.0588 36.9171 93.0128C27.8171 110.788 25.9363 131.805 32.2196 150.863Z" fill="#F9ECD1"/>
<path d="M34.0918 203.365C29.5851 205.038 25.9797 207.967 23.8304 212.24C23.1111 213.618 22.5392 215.1 22.0019 216.755C19.7139 209.779 26.8205 201.554 34.0831 203.365H34.0918Z" fill="#F9ECD1"/>
<path d="M270.093 160.621C243.01 148.427 213.881 165.787 209.21 194.534C201.159 192.679 192.05 192.246 184.744 196.588C177.967 200.817 173.399 208.713 173.131 216.79C172.619 208.444 176.909 199.933 183.825 195.141C191.062 190.365 200.257 190.27 208.473 191.839L207 192.835C208.196 185.971 210.917 179.376 214.965 173.708C227.107 155.941 251.33 149.771 270.093 160.621Z" fill="#F9ECD1"/>
<path d="M286.499 70.1155C265.977 61.1455 241.606 58.1035 221.153 68.6768C214.471 72.0482 208.387 76.6762 203.334 82.3962C207.529 76.0002 213.457 70.7049 220.191 66.8829C240.592 55.0529 266.887 58.1729 286.499 70.1155Z" fill="#F9ECD1"/>
<path d="M28.103 181.118C36.0503 191.119 45.9911 199.483 57.951 204.215C45.2977 203.374 32.5316 192.827 28.103 181.118Z" fill="#F9ECD1"/>
<path d="M212.737 134.639C204.547 136.025 196.548 139.761 192.501 147.301C191.157 149.71 190.143 152.362 189.103 155.092C188.757 141.893 199.781 132.463 212.737 134.639Z" fill="#F9ECD1"/>
<path d="M137 217.726C131.002 209.501 131.505 196.805 138.213 189.126C135.006 198.434 134.59 208.184 137 217.726Z" fill="#F9ECD1"/>
<path d="M286.499 56.3963C279.254 53.2156 272.191 50.4682 264.685 47.9635C272.685 46.8109 281.334 50.2083 286.499 56.3963Z" fill="#F9ECD1"/>
<path d="M287.323 36.1337C278.474 29.3477 268.602 23.8964 257.804 21.2704C247.118 19.0344 235.721 18.5837 225.053 21.2184C217.955 23.021 211.177 26.3317 205.509 31.2544C210.415 25.5431 217.227 21.4957 224.498 19.2597C235.479 15.923 247.283 16.3131 258.402 18.8784C269.365 21.8597 279.462 28.0564 287.331 36.1337H287.323Z" fill="#F9ECD1"/>
<path d="M287.323 19.3291C269.053 6.01715 244.891 -0.222824 222.791 5.68782C200.977 11.5031 182.569 29.4517 177.126 51.4477L176.875 52.4704L176.017 51.8377C167.22 45.6064 154.385 44.3236 143.959 46.3256C133.126 48.7263 123.939 56.977 119.753 67.169L119.389 68.053L118.522 67.6457C96.5349 57.549 69.6511 62.0643 49.9778 75.3589C36.5098 84.2596 27.4617 98.4469 23.1197 113.83C16.3163 137.62 19.7051 164.088 31.847 185.581C25.4077 185.538 18.3877 186.387 13.4044 190.764C5.46576 197.125 3.54175 207.907 4.95441 217.561L3.68045 216.435C84.0549 216.357 207.858 216.625 287.323 216.825L286.421 217.726C286.49 168.283 287.071 68.7723 287.323 19.3378V19.3291ZM287.323 19.3291C287.548 68.7723 288.129 168.274 288.224 217.717V218.61H287.323C208.187 219.026 83.7256 218.844 3.68045 219H2.54507L2.40646 217.873C1.62646 211.651 1.83456 205.038 4.22656 199.11C6.26321 194.135 9.88586 189.819 14.3925 186.907C19.0292 184.134 24.5065 183.215 29.7758 183.129L28.6925 184.949C13.2658 156.089 12.8238 118.458 31.2144 90.8463C40.5051 77.101 55.2209 67.663 71.0202 63.165C86.7849 58.7017 104.318 58.8837 119.294 65.9903L118.063 66.467C120.307 61.1024 123.835 56.301 128.229 52.5223C139.244 42.6163 155.711 42.001 169.179 46.655C171.891 47.643 174.526 48.943 176.857 50.7197L175.748 51.1096C178.573 39.9297 184.753 29.7291 193.003 21.7298C218.674 -3.93214 259.529 -1.75682 287.314 19.3378L287.323 19.3291Z" fill="#F9ECD1"/>
</svg>
