<svg width="289" height="107" viewBox="0 0 289 107" fill="none" xmlns="http://www.w3.org/2000/svg">
<g filter="url(#filter0_d_4_36275)">
<path d="M51.284 5.7C53.696 5.7 54.524 8.616 54.524 10.74C54.524 15.168 49.34 17.184 44.984 17.184C42.536 17.184 39.98 16.68 38 15.816C37.568 15.636 37.1 15.42 36.704 15.24L36.524 15.132C36.524 15.132 23.204 38.64 23.204 43.608C23.204 45.48 20.108 41.916 20.108 38.388C20.108 33.24 32.204 13.044 32.204 13.044L32.06 12.972C31.592 12.612 21.476 4.296 14.924 4.296C10.028 4.296 6.716 7.428 6.356 11.892C6.14 14.268 7.184 16.32 8.228 17.436C9.488 18.876 11.864 19.668 13.556 19.668C16.112 19.668 19.028 17.508 19.028 14.952C19.028 13.872 18.632 12.216 17.84 12.216C16.652 12.216 15.716 13.152 15.716 12.144C15.716 10.956 16.76 10.488 17.84 10.488C20.792 10.488 21.08 13.476 21.08 14.592C21.08 17.904 19.028 22.584 12.836 22.584C10.712 22.584 8.552 21.54 6.932 19.776C5.024 17.688 4.088 14.916 4.34 12.108C4.808 6.456 9.02 0.767999 16.112 0.767999C23.96 0.767999 38.684 13.296 46.388 13.296C49.016 13.296 52.58 11.28 52.58 9.012C52.58 7.068 49.016 5.7 51.284 5.7ZM48.4732 26.436C49.0132 25.644 50.0932 26.04 49.3372 27.192C48.5812 28.38 39.9052 39 35.3332 39C35.3332 39 31.8772 38.964 31.8772 34.536C31.8772 28.02 40.4812 21.036 42.8572 21.036C43.7932 21.036 45.3772 21.684 45.3772 25.104C45.3772 28.524 37.7452 34.428 35.8732 34.428C35.8732 34.428 34.5412 36.84 36.4132 36.84C38.8252 36.84 45.3052 31.224 48.4732 26.436ZM42.4972 25.5C41.2732 25.5 36.4852 33.06 36.4852 33.06C41.3812 30.18 43.6852 25.5 42.4972 25.5ZM63.1772 39C61.7732 39 60.7652 37.416 60.7652 34.68C60.7652 31.656 66.7412 24.096 66.7412 24.096C66.2012 24.096 60.4772 28.704 58.2092 31.692C56.6612 33.996 54.5012 38.028 54.5012 38.748C54.5012 39.72 52.3772 37.56 52.3772 34.824C52.3772 31.8 58.3892 24.096 58.3892 24.096C57.2012 24.096 46.0772 37.02 46.0772 38.748C46.0772 39.72 43.6292 38.1 43.6292 35.256C43.6292 32.304 50.8652 24.528 50.8652 20.928C50.8652 19.668 53.4572 21.036 53.4572 24.672C53.4572 26.4 51.9092 28.596 51.9092 28.596C51.9092 28.596 59.2172 20.928 60.4412 20.928C61.7012 20.928 62.7812 22.764 62.7812 24.528C62.7812 24.996 62.3852 25.788 61.8092 26.796C63.5732 25.032 67.8212 20.928 68.7932 20.928C70.0172 20.928 70.8092 22.764 70.8092 24.528C70.8092 26.292 62.0972 37.452 63.7172 37.452C65.3372 37.452 71.2772 30.972 74.4812 26.184C74.9852 25.392 76.0652 25.752 75.3092 26.94C74.5532 28.092 67.1372 39 63.1772 39ZM81.2771 39C78.6851 39 77.6411 34.86 79.0811 32.988C79.0811 32.988 74.7971 39 72.6011 39C71.0531 39 69.4331 37.884 69.6491 35.148C69.8291 32.628 76.1651 24.636 76.4171 21.252C76.4891 20.424 79.7651 21.684 79.5491 24.564C79.3331 27.444 70.8731 37.524 73.2491 37.524C74.1491 37.524 85.1291 25.356 85.4171 21.216C85.4891 20.388 88.5851 22.008 88.3691 24.924C88.1531 27.84 79.9811 37.56 82.1411 37.56C83.2211 37.56 89.1611 31.224 92.3651 26.4C92.8691 25.644 93.9851 26.004 93.1931 27.156C92.4371 28.344 84.5531 39 81.2771 39ZM99.524 20.1C98.696 20.1 97.256 18.588 97.508 15.96C97.724 13.332 99.38 12.468 100.208 12.468C101.036 12.468 103.556 13.584 103.448 14.808C103.34 16.032 102.224 16.212 101.108 18.156C99.992 20.064 100.064 20.1 99.524 20.1ZM103.16 26.256C103.7 25.5 104.78 25.86 104.024 27.048C103.232 28.2 95.42 38.928 92.108 38.928C89.372 38.928 88.724 35.976 88.904 34.032C89.12 31.44 92.792 27.048 94.484 22.728C94.736 22.044 94.556 21.144 95.42 21.144C96.284 21.144 97.904 22.548 97.652 25.356C97.4 28.164 89.408 37.056 93.188 37.056C94.268 37.056 99.956 31.116 103.16 26.256ZM70.625 61.8594C70.625 67.625 68.8203 71.8789 65.2109 74.6211C61.625 77.3398 56.0352 78.6992 48.4414 78.6992H42.8867V89H50.3047V98H22.3906V89H29.0703V54.0195H22.3906V45.0195H48.1602C55.7305 45.0195 61.3672 46.4023 65.0703 49.168C68.7734 51.9102 70.625 56.1406 70.625 61.8594ZM56.0703 61.8594C56.0703 59.6562 55.625 57.9805 54.7344 56.832C53.8438 55.6602 52.5547 54.8984 50.8672 54.5469C49.2031 54.1953 47.2695 54.0195 45.0664 54.0195H42.8867V69.9102H45.0664C47.9961 69.9102 50.2578 69.6172 51.8516 69.0312C53.4688 68.4219 54.5703 67.543 55.1562 66.3945C55.7656 65.2461 56.0703 63.7344 56.0703 61.8594ZM111.266 79.5078C111.266 83.1875 110.398 86.5039 108.664 89.457C106.93 92.4102 104.586 94.7188 101.633 96.3828C98.6797 98.0469 95.4336 98.8789 91.8945 98.8789C88.1445 98.8789 84.793 98.0469 81.8398 96.3828C78.8867 94.7188 76.5781 92.4102 74.9141 89.457C73.2734 86.5039 72.4531 83.1875 72.4531 79.5078C72.4531 75.8516 73.2969 72.5586 74.9844 69.6289C76.6953 66.6992 79.0391 64.4023 82.0156 62.7383C84.9922 61.0508 88.2852 60.207 91.8945 60.207C95.5742 60.207 98.8906 61.0508 101.844 62.7383C104.797 64.4023 107.105 66.6992 108.77 69.6289C110.434 72.5586 111.266 75.8516 111.266 79.5078ZM91.8242 89.7031C94.1211 89.7031 95.9141 88.8125 97.2031 87.0312C98.5156 85.2266 99.1719 82.6484 99.1719 79.2969C99.1719 76.1562 98.5156 73.707 97.2031 71.9492C95.9141 70.168 94.0977 69.2773 91.7539 69.2773C89.3867 69.2773 87.5938 70.1562 86.375 71.9141C85.1562 73.6484 84.5469 76.2734 84.5469 79.7891C84.5469 82.7656 85.2031 85.168 86.5156 86.9961C87.8516 88.8008 89.6211 89.7031 91.8242 89.7031ZM146.738 60.6289V71.7031C143.504 71.9141 140.926 72.4297 139.004 73.25C137.105 74.0469 135.629 75.4297 134.574 77.3984C133.543 79.3672 133.027 82.1797 133.027 85.8359V89.4922H140.375V98H114.465V89.4922H121.25V69.6992H114.816V61.0508H132.043V70.4375C132.91 67.6016 134.516 65.2461 136.859 63.3711C139.203 61.4961 142.109 60.5586 145.578 60.5586C146.094 60.5586 146.48 60.582 146.738 60.6289ZM177.852 64.1445V61.0508H185.902V76.0273H177.57C175.602 71.9492 172.602 69.9102 168.57 69.9102C166.109 69.9102 164.07 70.8125 162.453 72.6172C160.859 74.4219 160.062 76.6719 160.062 79.3672C160.062 82.3438 160.824 84.793 162.348 86.7148C163.895 88.6133 165.945 89.5625 168.5 89.5625C170.352 89.5625 172.109 89.0469 173.773 88.0156C175.438 86.9844 176.797 85.5312 177.852 83.6562L186.992 87.6992C184.977 91.4961 182.551 94.3086 179.715 96.1367C176.879 97.9648 173.059 98.8789 168.254 98.8789C162.02 98.8789 157.074 97.1797 153.418 93.7812C149.785 90.3594 147.969 85.625 147.969 79.5781C147.969 75.9688 148.801 72.7227 150.465 69.8398C152.152 66.957 154.426 64.6953 157.285 63.0547C160.145 61.3906 163.273 60.5586 166.672 60.5586C170.562 60.5586 174.289 61.7539 177.852 64.1445ZM218.492 60.207C222.242 60.207 225.055 61.3438 226.93 63.6172C228.828 65.8906 229.777 69.1953 229.777 73.5312V89.4922H235.262V98H217.965V74.0938C217.965 72.5703 217.672 71.4805 217.086 70.8242C216.523 70.168 215.574 69.8398 214.238 69.8398C212.41 69.8398 210.348 70.5898 208.051 72.0898V89.4922H213.219V98H190.332V89.4922H196.309V53.4922H190.332V45.0195H208.051V64.0742C211.848 61.4961 215.328 60.207 218.492 60.207ZM257.586 50.5391C257.586 52.4141 256.941 53.9727 255.652 55.2148C254.387 56.4336 252.875 57.043 251.117 57.043C249.336 57.043 247.801 56.4102 246.512 55.1445C245.246 53.8555 244.613 52.3203 244.613 50.5391C244.613 48.7812 245.246 47.2695 246.512 46.0039C247.801 44.7148 249.336 44.0703 251.117 44.0703C252.875 44.0703 254.387 44.7148 255.652 46.0039C256.941 47.2695 257.586 48.7812 257.586 50.5391ZM262.332 89.4922V98H239.516V89.4922H245.141V69.6992H239.516V61.0508H256.848V89.4922H262.332ZM280.543 79.5078H275.059L271.754 59.5391V45.0195H283.566V59.5391L280.543 79.5078ZM271.473 98V85.168H284.27V98H271.473Z" fill="#911002"/>
</g>
<defs>
<filter id="filter0_d_4_36275" x="0.0880127" y="0.76799" width="288.182" height="106.111" filterUnits="userSpaceOnUse" color-interpolation-filters="sRGB">
<feFlood flood-opacity="0" result="BackgroundImageFix"/>
<feColorMatrix in="SourceAlpha" type="matrix" values="0 0 0 0 0 0 0 0 0 0 0 0 0 0 0 0 0 0 127 0" result="hardAlpha"/>
<feOffset dy="4"/>
<feGaussianBlur stdDeviation="2"/>
<feComposite in2="hardAlpha" operator="out"/>
<feColorMatrix type="matrix" values="0 0 0 0 0 0 0 0 0 0 0 0 0 0 0 0 0 0 0.25 0"/>
<feBlend mode="normal" in2="BackgroundImageFix" result="effect1_dropShadow_4_36275"/>
<feBlend mode="normal" in="SourceGraphic" in2="effect1_dropShadow_4_36275" result="shape"/>
</filter>
</defs>
</svg>
