<svg width="264" height="207" viewBox="0 0 264 207" fill="none" xmlns="http://www.w3.org/2000/svg">
<path d="M-5.15705 188.729C12.0659 201.381 34.3058 207.095 54.7626 201.973C75.2194 196.842 93.1961 180.17 98.5291 158.855C106.431 164.901 121.434 166.473 130.876 163.782C140.318 161.092 148.439 153.724 152.33 144.322C178.89 156.917 216.764 146.195 233.5 121.199C250.237 96.1954 250.034 60.9715 235.681 34.4035C239.036 34.4035 245.95 33.7227 250.521 30.3105C259.169 23.859 261.511 14.352 260.093 3.2077H-5.16516V188.737L-5.15705 188.729Z" fill="#478F7E" stroke="#F9ECD1" stroke-width="5.52" stroke-miterlimit="10"/>
<path d="M155.037 145.384C178.954 151.39 206.325 140.537 217.882 118.808C226.757 103.141 229.099 82.9764 221.132 66.5153C214.689 52.8666 201.381 42.5004 185.916 42.63C164.374 41.9573 145.035 61.9765 148.585 83.6977C150.717 102.517 171.409 115.315 189.345 108.888C183.598 111.23 177.098 111.498 171.084 110.014C151.041 105.289 141.955 83.9976 148.836 65.2996C155.726 47.0311 176.547 36.6649 195.359 41.5035C207.848 44.4213 217.874 54.1067 223.223 65.5022C234.035 88.4472 226.482 117.755 207.565 134.118C193.543 146.13 172.722 150.685 155.037 145.384Z" fill="#F9ECD1"/>
<path d="M-4.71933 116.968C11.8147 124.919 31.9149 126.727 48.7894 119.051C65.7286 111.319 78.3723 94.0556 79.2072 75.309C87.9605 77.473 98.286 77.6026 105.832 72.1561C113.231 66.8069 117.503 57.5592 116.903 48.4492L117.965 48.4574C123.314 48.5141 128.704 47.5091 133.534 45.2073C138.365 42.9298 142.523 39.2582 145.416 34.7276C150.968 25.4799 151.633 13.4198 148.439 3.19141C151.406 10.9073 151.649 19.6362 149.671 27.6601C147.718 35.8866 141.834 42.946 134.272 46.7148C129.231 49.2678 123.581 50.4512 117.965 50.516L118.994 49.4542C119.383 58.9127 114.893 68.4359 107.226 74.0445C99.4045 79.7018 89.1031 80.0179 80.0337 77.9755L81.5169 76.8894C80.7875 86.4127 77.1404 95.6037 71.475 103.198C54.017 127.44 20.3411 130.965 -4.71933 116.96V116.968Z" fill="#F9ECD1"/>
<path d="M13.1521 11.0288C9.52114 15.4217 8.64581 21.6058 9.91018 26.9793C12.5929 38.0425 25.9335 43.6268 36.1295 39.5338C41.1869 37.2645 44.8423 32.0693 45.4664 26.5093C45.7338 29.419 44.8422 32.4015 43.3671 34.987C38.723 43.6025 27.514 44.8426 19.1578 41.1873C13.5411 38.6829 9.18881 33.4471 8.05412 27.3846C7.0329 21.5734 8.58907 14.903 13.144 11.0288H13.1521Z" fill="#F9ECD1"/>
<path d="M178.898 58.6938C186.006 55.6463 194.791 57.6887 200.708 62.5922C206.868 67.5524 209.964 75.6979 209.518 83.4948C209.275 88.6414 207.605 93.7475 204.55 97.7676C206.722 93.2288 207.719 88.3172 207.613 83.4705C207.459 76.3057 204.72 69.0762 199.217 64.351C193.73 59.5367 186.249 57.2268 178.898 58.6938Z" fill="#F9ECD1"/>
<path d="M83.7945 158.085C92.6856 157.144 101.098 154.689 106.594 147.143C104.348 156.707 92.5316 160.921 83.7945 158.085Z" fill="#F9ECD1"/>
<path d="M144.541 139.014C148.342 140.513 152.208 140.846 156.098 139.768C157.363 139.419 158.595 138.917 159.94 138.26C157.249 143.958 147.775 144.428 144.541 139.014Z" fill="#F9ECD1"/>
<path d="M233.411 65.7208C237.642 74.1743 239.522 83.9813 238.939 93.4559C238.08 109.39 230.372 124.53 219.317 135.828C222.94 130.674 226.271 125.389 229.018 119.821C237.529 103.198 239.287 83.5435 233.411 65.7208Z" fill="#F9ECD1"/>
<path d="M231.661 16.6212C235.875 15.057 239.247 12.3175 241.257 8.32181C241.93 7.03313 242.464 5.64722 242.967 4.09918C245.107 10.6236 238.461 18.3152 231.669 16.6212H231.661Z" fill="#F9ECD1"/>
<path d="M10.9554 56.5948C36.2833 67.9984 63.524 51.7643 67.8925 24.8802C75.422 26.6147 83.9402 27.02 90.7727 22.9594C97.1107 19.0042 101.382 11.6206 101.633 4.06677C102.112 11.8718 98.0996 19.8308 91.6319 24.3128C84.8643 28.7787 76.265 28.8679 68.5815 27.4009L69.9593 26.4688C68.8408 32.8879 66.2959 39.0557 62.5109 44.3563C51.1559 60.9714 28.5026 66.7422 10.9554 56.5948Z" fill="#F9ECD1"/>
<path d="M-4.38712 141.234C14.8053 149.623 37.5965 152.468 56.7241 142.58C62.973 139.427 68.6625 135.099 73.3877 129.75C69.4649 135.731 63.9212 140.683 57.6236 144.258C38.5447 155.321 13.9543 152.403 -4.38712 141.234Z" fill="#F9ECD1"/>
<path d="M237.261 37.4267C229.829 28.0736 220.533 20.2523 209.348 15.827C221.181 16.6132 233.12 26.4769 237.261 37.4267Z" fill="#F9ECD1"/>
<path d="M64.5939 80.8933C72.2531 79.5965 79.7338 76.1033 83.5188 69.0521C84.7751 66.7989 85.7235 64.3188 86.6961 61.7657C87.0203 74.1095 76.7108 82.9277 64.5939 80.8933Z" fill="#F9ECD1"/>
<path d="M135.423 3.19141C141.031 10.883 140.561 22.7567 134.288 29.9376C137.287 21.233 137.676 12.1149 135.423 3.19141Z" fill="#F9ECD1"/>
<path d="M-4.38712 154.065C2.3886 157.039 8.99405 159.608 16.0129 161.951C8.53206 163.029 0.443417 159.851 -4.38712 154.065Z" fill="#F9ECD1"/>
<path d="M-5.15705 173.014C3.11807 179.36 12.3496 184.458 22.4484 186.914C32.4417 189.005 43.0997 189.426 53.0769 186.962C59.7148 185.277 66.0527 182.18 71.3533 177.577C66.7659 182.918 60.3955 186.703 53.5955 188.794C43.3266 191.914 32.2876 191.55 21.889 189.151C11.6362 186.363 2.19411 180.568 -5.16516 173.014H-5.15705Z" fill="#F9ECD1"/>
<path d="M-5.15706 188.729C11.9281 201.178 34.5246 207.014 55.1922 201.486C75.5922 196.048 92.807 179.263 97.8969 158.692L98.132 157.736L98.9344 158.328C107.161 164.155 119.164 165.355 128.914 163.482C139.046 161.237 147.637 153.522 151.552 143.99L151.892 143.163L152.702 143.544C173.265 152.987 198.406 148.764 216.804 136.331C229.399 128.007 237.861 114.74 241.922 100.353C248.284 78.1053 245.115 53.3528 233.76 33.2526C239.782 33.2931 246.347 32.4989 251.007 28.4059C258.431 22.4569 260.23 12.3743 258.909 3.34544L260.101 4.39912C184.936 4.47207 69.157 4.22076 -5.15706 4.03434L-4.31411 3.1915C-4.37895 49.4301 -4.92201 142.491 -5.15706 188.721V188.729ZM-5.15706 188.729C-5.36778 142.491 -5.91085 49.4382 -6 3.19961V2.36478H-5.15706C68.849 1.97574 185.244 2.14589 260.101 2H261.163L261.292 3.05368C262.022 8.87301 261.827 15.0571 259.59 20.6008C257.685 25.2531 254.298 29.2893 250.083 32.0125C245.747 34.6061 240.625 35.4652 235.697 35.5463L236.71 33.8443C251.137 60.8336 251.55 96.0252 234.351 121.847C225.663 134.702 211.901 143.528 197.126 147.735C182.383 151.909 165.986 151.738 151.981 145.092L153.132 144.647C151.033 149.664 147.734 154.154 143.625 157.687C133.324 166.951 117.924 167.527 105.329 163.175C102.792 162.251 100.328 161.035 98.1482 159.373L99.1857 159.009C96.5435 169.464 90.7647 179.003 83.0489 186.484C59.0421 210.483 20.8354 208.449 -5.14894 188.721L-5.15706 188.729Z" fill="#F9ECD1"/>
</svg>
