<svg width="542" height="101" viewBox="0 0 542 101" fill="none" xmlns="http://www.w3.org/2000/svg">
<g filter="url(#filter0_d_986_257633)">
<path d="M258.342 6C261.022 6 261.942 9.24 261.942 11.6C261.942 16.52 256.182 18.76 251.342 18.76C248.622 18.76 245.782 18.2 243.582 17.24C243.102 17.04 242.582 16.8 242.142 16.6L241.942 16.48C241.942 16.48 227.142 42.6 227.142 48.12C227.142 50.2 223.702 46.24 223.702 42.32C223.702 36.6 237.142 14.16 237.142 14.16L236.982 14.08C236.462 13.68 225.222 4.44 217.942 4.44C212.502 4.44 208.822 7.92 208.422 12.88C208.182 15.52 209.342 17.8 210.502 19.04C211.902 20.64 214.542 21.52 216.422 21.52C219.262 21.52 222.502 19.12 222.502 16.28C222.502 15.08 222.062 13.24 221.182 13.24C219.862 13.24 218.822 14.28 218.822 13.16C218.822 11.84 219.982 11.32 221.182 11.32C224.462 11.32 224.782 14.64 224.782 15.88C224.782 19.56 222.502 24.76 215.622 24.76C213.262 24.76 210.862 23.6 209.062 21.64C206.942 19.32 205.902 16.24 206.182 13.12C206.702 6.84 211.382 0.519999 219.262 0.519999C227.982 0.519999 244.342 14.44 252.902 14.44C255.822 14.44 259.782 12.2 259.782 9.68C259.782 7.52 255.822 6 258.342 6ZM255.219 29.04C255.819 28.16 257.019 28.6 256.179 29.88C255.339 31.2 245.699 43 240.619 43C240.619 43 236.779 42.96 236.779 38.04C236.779 30.8 246.339 23.04 248.979 23.04C250.019 23.04 251.779 23.76 251.779 27.56C251.779 31.36 243.299 37.92 241.219 37.92C241.219 37.92 239.739 40.6 241.819 40.6C244.499 40.6 251.699 34.36 255.219 29.04ZM248.579 28C247.219 28 241.899 36.4 241.899 36.4C247.339 33.2 249.899 28 248.579 28ZM263.837 23.04C266.197 23.04 267.757 27.28 266.877 27.28C262.197 27.28 251.557 40.88 254.437 40.88C255.397 40.88 263.677 31.72 263.277 31C262.837 30.28 266.117 30.88 266.117 33.8C266.117 36.72 262.357 40.92 263.637 40.92C264.877 40.92 270.877 34.32 274.397 29C274.997 28.12 276.197 28.52 275.357 29.84C274.477 31.12 266.117 43 262.477 43C260.837 43 259.237 40.52 259.237 39.52C259.237 38.56 259.917 37.08 259.917 37.08C259.917 37.08 254.877 43 253.397 43C251.957 43 249.637 41.16 249.637 38.32C249.637 33.68 259.357 23.04 263.837 23.04ZM289.738 28.76C290.338 27.88 291.538 28.28 290.698 29.6C290.018 30.64 287.898 34.36 281.778 35.52C281.778 35.6 281.778 35.68 281.778 35.8C281.698 41.72 277.858 43 275.738 43C274.818 43 271.818 42.12 271.818 39.52C271.818 36.12 278.058 34.92 278.058 34.92C278.058 34.92 278.898 30.2 278.178 26.2C278.178 26.2 278.138 26 278.138 25.64C277.338 26.96 276.298 28.6 275.218 30.08C274.458 31.12 273.538 30.28 274.178 29.36C275.538 27.36 277.938 23.76 278.618 21.4C278.858 20.44 279.418 18.44 280.138 19C281.058 19.72 283.698 21.52 283.698 23.8C283.698 25.96 281.978 25.96 281.778 34.16C285.218 33.4 287.738 31.76 289.738 28.76ZM273.138 39.76C273.138 41.52 276.698 41.6 278.018 36.36C278.018 36.36 273.138 37.52 273.138 39.76ZM303.695 29.04C304.295 28.16 305.495 28.6 304.655 29.88C303.815 31.2 294.175 43 289.095 43C289.095 43 285.255 42.96 285.255 38.04C285.255 30.8 294.815 23.04 297.455 23.04C298.495 23.04 300.255 23.76 300.255 27.56C300.255 31.36 291.775 37.92 289.695 37.92C289.695 37.92 288.215 40.6 290.295 40.6C292.975 40.6 300.175 34.36 303.695 29.04ZM297.055 28C295.695 28 290.375 36.4 290.375 36.4C295.815 33.2 298.375 28 297.055 28ZM320.713 29C321.273 28.12 322.513 28.52 321.633 29.84C320.793 31.12 312.113 43 308.433 43C305.393 43 304.713 40.4 304.713 38.24C304.713 35.96 308.033 31.84 309.713 28.08C308.553 28.56 306.593 29.2 304.433 29.2C303.273 29.2 301.313 28.56 301.313 24.12C301.313 17.88 306.073 13.4 308.833 13.4C310.313 13.4 311.553 14.36 311.553 16C311.553 19.24 305.993 26.76 305.993 26.76C305.993 26.76 311.313 24 312.193 23.52C312.753 23.2 313.233 22.6 313.873 23.16C314.553 23.68 317.713 26 315.913 28.08C315.833 28.16 315.753 28.28 315.673 28.36C313.633 31.08 306.193 40.92 309.633 40.92V40.96C310.833 40.96 317.153 34.32 320.713 29ZM304.353 23.96C304.353 25.4 305.113 26.16 305.113 26.16C307.393 21.92 309.913 18.08 308.553 18.08C307.193 18.08 304.353 22 304.353 23.96ZM32.9922 70.9062C32.9922 74.75 31.7891 77.5859 29.3828 79.4141C26.9922 81.2266 23.2656 82.1328 18.2031 82.1328H14.5V89H19.4453V95H0.835938V89H5.28906V65.6797H0.835938V59.6797H18.0156C23.0625 59.6797 26.8203 60.6016 29.2891 62.4453C31.7578 64.2734 32.9922 67.0938 32.9922 70.9062ZM23.2891 70.9062C23.2891 69.4375 22.9922 68.3203 22.3984 67.5547C21.8047 66.7734 20.9453 66.2656 19.8203 66.0312C18.7109 65.7969 17.4219 65.6797 15.9531 65.6797H14.5V76.2734H15.9531C17.9062 76.2734 19.4141 76.0781 20.4766 75.6875C21.5547 75.2812 22.2891 74.6953 22.6797 73.9297C23.0859 73.1641 23.2891 72.1562 23.2891 70.9062ZM36.5312 77.2344C36.5312 73.6562 37.3516 70.5 38.9922 67.7656C40.6328 65.0312 42.9375 62.9062 45.9062 61.3906C48.8906 59.8594 52.3203 59.0938 56.1953 59.0938C60.0703 59.0938 63.4844 59.8594 66.4375 61.3906C69.4062 62.9062 71.7031 65.0391 73.3281 67.7891C74.9688 70.5391 75.7891 73.6875 75.7891 77.2344C75.7891 80.8281 74.9688 84 73.3281 86.75C71.7031 89.5 69.3984 91.6328 66.4141 93.1484C63.4453 94.6641 60.0391 95.4219 56.1953 95.4219C52.4297 95.4219 49.0469 94.6641 46.0469 93.1484C43.0625 91.6328 40.7266 89.5 39.0391 86.75C37.3672 84 36.5312 80.8281 36.5312 77.2344ZM65.9453 77.1875C65.9453 75.0469 65.5547 73.1016 64.7734 71.3516C63.9922 69.5859 62.8594 68.1875 61.375 67.1562C59.9062 66.1094 58.1797 65.5859 56.1953 65.5859C54.2109 65.5859 52.4844 66.1094 51.0156 67.1562C49.5469 68.1875 48.4141 69.5859 47.6172 71.3516C46.8359 73.1016 46.4453 75.0469 46.4453 77.1875C46.4453 79.4375 46.8438 81.4609 47.6406 83.2578C48.4531 85.0391 49.5938 86.4453 51.0625 87.4766C52.5312 88.4922 54.2266 89 56.1484 89C58.1328 89 59.8672 88.4922 61.3516 87.4766C62.8516 86.4453 63.9922 85.0391 64.7734 83.2578C65.5547 81.4609 65.9453 79.4375 65.9453 77.1875ZM110.945 69.3125C110.945 71.4688 110.438 73.2812 109.422 74.75C108.422 76.2188 106.898 77.4141 104.852 78.3359L110.547 89H115.117V95H104.359L96.3906 79.5547H92.3594V89H96.7891V95H78.2969V89H83.1484V65.6797H78.2969V59.6797H98.4531C102.359 59.6797 105.414 60.5078 107.617 62.1641C109.836 63.8047 110.945 66.1875 110.945 69.3125ZM101.336 69.7109C101.336 68.3672 100.906 67.3594 100.047 66.6875C99.1875 66.0156 98.0156 65.6797 96.5312 65.6797H92.3594V73.8828H95.7344C99.4688 73.8828 101.336 72.4922 101.336 69.7109ZM132.977 62.6094V59.6797H138.977V70.3672H132.977C132.727 68.6484 132.164 67.3594 131.289 66.5C130.43 65.625 129.312 65.1875 127.938 65.1875C126.969 65.1875 126.141 65.4609 125.453 66.0078C124.766 66.5547 124.422 67.2422 124.422 68.0703C124.422 68.8047 124.641 69.4375 125.078 69.9688C125.516 70.5 126.078 70.9531 126.766 71.3281C127.453 71.6875 128.484 72.1719 129.859 72.7812L131.289 73.3906C134.398 74.7344 136.742 76.3125 138.32 78.125C139.914 79.9375 140.711 82.2031 140.711 84.9219C140.711 88.1562 139.781 90.7188 137.922 92.6094C136.062 94.4844 133.562 95.4219 130.422 95.4219C127.359 95.4219 124.977 94.2734 123.273 91.9766V95H117.273V83H123.273C123.398 85.0781 123.93 86.6641 124.867 87.7578C125.82 88.8359 127.102 89.375 128.711 89.375C129.789 89.375 130.695 89.0078 131.43 88.2734C132.18 87.5391 132.555 86.6484 132.555 85.6016C132.555 84.5391 132.125 83.5703 131.266 82.6953C130.422 81.8047 128.977 80.9141 126.93 80.0234C123.445 78.4922 120.914 76.8438 119.336 75.0781C117.773 73.3125 116.992 71.2812 116.992 68.9844C116.992 67.1875 117.406 65.5469 118.234 64.0625C119.062 62.5781 120.203 61.4141 121.656 60.5703C123.125 59.7109 124.719 59.2812 126.438 59.2812C127.812 59.2812 129.062 59.5625 130.188 60.125C131.312 60.6875 132.242 61.5156 132.977 62.6094ZM167.805 70.8594V65.6797H156.859V73.7891H165.695V79.7422H156.859V89H167.805V83.7734H174.578V95H143.43V89H147.695V65.6797H143.43V59.6797H174.578V70.8594H167.805ZM205.656 65.6797H201.109V59.6797H216.883V65.6797H211.961V95.2344H204.133L188.852 69.0312V89H193.281V95H177.812V89H182.57V65.6797H177.812V59.6797H192.648L205.656 81.7578V65.6797ZM232.891 65.6797V89H238.328V95H218.359V89H223.68V65.6797H218.359V59.6797H238.328V65.6797H232.891ZM270.086 62.5625V59.6797H276.086V72.1953H270.086C269.352 70.1172 268.094 68.4609 266.312 67.2266C264.547 65.9922 262.578 65.375 260.406 65.375C258.391 65.375 256.602 65.8438 255.039 66.7812C253.492 67.7031 252.297 69.0156 251.453 70.7188C250.609 72.4062 250.188 74.375 250.188 76.625C250.188 80.4531 251.109 83.4766 252.953 85.6953C254.812 87.8984 257.359 89 260.594 89C262.734 89 264.492 88.5 265.867 87.5C267.242 86.4844 268.219 85.0312 268.797 83.1406H262.562V77.1406H279.18C279.18 80.9844 278.414 84.2734 276.883 87.0078C275.367 89.7422 273.18 91.8281 270.32 93.2656C267.477 94.7031 264.07 95.4219 260.102 95.4219C256.102 95.4219 252.602 94.6953 249.602 93.2422C246.617 91.7891 244.32 89.6953 242.711 86.9609C241.102 84.2266 240.297 80.9844 240.297 77.2344C240.297 73.7188 241.109 70.5859 242.734 67.8359C244.375 65.0859 246.617 62.9453 249.461 61.4141C252.305 59.8672 255.516 59.0938 259.094 59.0938C263.812 59.0938 267.477 60.25 270.086 62.5625ZM303.719 65.6797L311.102 89H315.32V95H297.953V89H302.477L300.789 83H291.625L289.75 89H294.461V95H278.852V89H283.211L290.078 65.6797H285.367V59.6797H308.477V65.6797H303.719ZM296.359 67.1094L293.195 77.7734H299.336L296.359 67.1094ZM349.984 59.6797H368.031V65.6797H363.461V89H368.031V95H350.219V89H354.484V65.6797H353.664L342.719 95H338.945L327.859 65.6797H327.039V89H331.586V95H316.656V89H321.273V65.6797H316.656V59.6797H334.422L342.156 80.3516L349.984 59.6797ZM394.234 65.6797L401.617 89H405.836V95H388.469V89H392.992L391.305 83H382.141L380.266 89H384.977V95H369.367V89H373.727L380.594 65.6797H375.883V59.6797H398.992V65.6797H394.234ZM386.875 67.1094L383.711 77.7734H389.852L386.875 67.1094ZM446.664 68.9844C446.664 70.7812 446.258 72.3438 445.445 73.6719C444.648 75 443.57 76.2109 442.211 77.3047C440.852 78.3828 438.875 79.7031 436.281 81.2656C432.062 83.8594 429.727 86.4219 429.273 88.9531H439.938V84.3828H447.086L446.664 95H420.93C420.93 91.8594 421.305 89.2734 422.055 87.2422C422.805 85.2109 423.984 83.3516 425.594 81.6641C427.219 79.9609 429.602 77.9453 432.742 75.6172C434.398 74.3984 435.656 73.2188 436.516 72.0781C437.391 70.9375 437.828 69.7656 437.828 68.5625C437.828 67.375 437.484 66.4766 436.797 65.8672C436.109 65.2578 435.125 64.9531 433.844 64.9531C432.188 64.9531 430.953 65.5312 430.141 66.6875C429.344 67.8281 428.867 69.6953 428.711 72.2891L421.375 72.0078C421.469 67.6484 422.586 64.3984 424.727 62.2578C426.867 60.1172 430.07 59.0469 434.336 59.0469C438.164 59.0469 441.172 59.9297 443.359 61.6953C445.562 63.4453 446.664 65.875 446.664 68.9844ZM477.367 77.2344C477.367 83.1875 476.234 87.7188 473.969 90.8281C471.703 93.9219 468.438 95.4688 464.172 95.4688C459.891 95.4688 456.617 93.9219 454.352 90.8281C452.102 87.7188 450.977 83.1875 450.977 77.2344C450.977 71.4219 452.094 66.9375 454.328 63.7812C456.578 60.625 459.859 59.0469 464.172 59.0469C468.531 59.0469 471.82 60.5938 474.039 63.6875C476.258 66.7656 477.367 71.2812 477.367 77.2344ZM459.859 77.2344C459.859 81.3281 460.211 84.3594 460.914 86.3281C461.617 88.2969 462.719 89.2812 464.219 89.2812C465.719 89.2812 466.812 88.2969 467.5 86.3281C468.188 84.3594 468.531 81.3281 468.531 77.2344C468.531 69.1719 467.094 65.1406 464.219 65.1406C462.719 65.1406 461.617 66.1484 460.914 68.1641C460.211 70.1797 459.859 73.2031 459.859 77.2344ZM507.133 68.9844C507.133 70.7812 506.727 72.3438 505.914 73.6719C505.117 75 504.039 76.2109 502.68 77.3047C501.32 78.3828 499.344 79.7031 496.75 81.2656C492.531 83.8594 490.195 86.4219 489.742 88.9531H500.406V84.3828H507.555L507.133 95H481.398C481.398 91.8594 481.773 89.2734 482.523 87.2422C483.273 85.2109 484.453 83.3516 486.062 81.6641C487.688 79.9609 490.07 77.9453 493.211 75.6172C494.867 74.3984 496.125 73.2188 496.984 72.0781C497.859 70.9375 498.297 69.7656 498.297 68.5625C498.297 67.375 497.953 66.4766 497.266 65.8672C496.578 65.2578 495.594 64.9531 494.312 64.9531C492.656 64.9531 491.422 65.5312 490.609 66.6875C489.812 67.8281 489.336 69.6953 489.18 72.2891L481.844 72.0078C481.938 67.6484 483.055 64.3984 485.195 62.2578C487.336 60.1172 490.539 59.0469 494.805 59.0469C498.633 59.0469 501.641 59.9297 503.828 61.6953C506.031 63.4453 507.133 65.875 507.133 68.9844ZM536.5 68.5156C536.5 72.0625 534.727 74.6641 531.18 76.3203C535.617 77.8359 537.836 80.6406 537.836 84.7344C537.836 86.8438 537.266 88.7188 536.125 90.3594C535 91.9844 533.43 93.2422 531.414 94.1328C529.398 95.0234 527.125 95.4688 524.594 95.4688C516.141 95.4688 511.609 91.6172 511 83.9141L518.688 83.2812C518.719 87.4062 520.414 89.4688 523.773 89.4688C525.32 89.4688 526.578 88.9844 527.547 88.0156C528.516 87.0469 529 85.8516 529 84.4297C529 82.9609 528.484 81.7734 527.453 80.8672C526.438 79.9453 524.992 79.4844 523.117 79.4844C522.82 79.4844 522.164 79.5234 521.148 79.6016V73.1562C523.32 73.125 525.016 72.7422 526.234 72.0078C527.453 71.2734 528.062 70.2188 528.062 68.8438C528.062 67.75 527.648 66.8594 526.82 66.1719C526.008 65.4844 524.977 65.1406 523.727 65.1406C520.914 65.1406 519.508 66.7109 519.508 69.8516L512.078 69.2188C512.328 66.0156 513.531 63.5234 515.688 61.7422C517.844 59.9453 520.688 59.0469 524.219 59.0469C527.953 59.0469 530.93 59.8984 533.148 61.6016C535.383 63.2891 536.5 65.5938 536.5 68.5156Z" fill="white" style="fill:white;fill:white;fill-opacity:1;"/>
</g>
<defs>
<filter id="filter0_d_986_257633" x="0.835938" y="0.52002" width="541" height="99.9487" filterUnits="userSpaceOnUse" color-interpolation-filters="sRGB">
<feFlood flood-opacity="0" result="BackgroundImageFix"/>
<feColorMatrix in="SourceAlpha" type="matrix" values="0 0 0 0 0 0 0 0 0 0 0 0 0 0 0 0 0 0 127 0" result="hardAlpha"/>
<feOffset dx="3" dy="4"/>
<feGaussianBlur stdDeviation="0.5"/>
<feComposite in2="hardAlpha" operator="out"/>
<feColorMatrix type="matrix" values="0 0 0 0 0 0 0 0 0 0 0 0 0 0 0 0 0 0 0.25 0"/>
<feBlend mode="normal" in2="BackgroundImageFix" result="effect1_dropShadow_986_257633"/>
<feBlend mode="normal" in="SourceGraphic" in2="effect1_dropShadow_986_257633" result="shape"/>
</filter>
</defs>
</svg>
