<svg width="161" height="159" viewBox="0 0 161 159" fill="none" xmlns="http://www.w3.org/2000/svg">
<path d="M98.9198 58.9985C99.9404 62.0762 104.876 62.1001 106.813 59.5008C108.751 56.9015 108.217 53.154 106.726 50.2756C103.106 43.2989 95.0927 39.7907 87.3983 38.204C76.6184 35.9794 63.9886 37.0877 56.7488 45.38C49.493 53.6962 50.1069 66.2623 52.9455 76.9386C53.4797 78.9319 54.0775 80.9811 53.7985 83.0223C53.3041 86.69 50.0909 89.4329 46.7102 90.9159C39.2312 94.2009 29.9024 92.7338 23.7868 87.3119C20.5416 84.4335 18.2452 80.6542 16.1642 76.8509C13.0067 71.0782 10.1364 64.7473 10.6627 58.1932C11.1969 51.6311 16.2919 45.0212 22.8779 45.0371C23.5636 45.0371 24.2651 45.1089 24.9269 44.9016C27.6219 44.0644 27.0958 40.1654 26.442 37.4226C24.9111 30.996 26.1629 23.6685 30.7874 18.9483C35.412 14.236 43.6326 13.032 48.7515 17.2021C50.083 18.2865 51.8371 19.7536 53.2563 18.7808C53.9181 18.3264 54.1653 17.4891 54.4204 16.7317C56.4536 10.6879 61.5966 5.96763 67.5288 3.64738C73.4689 1.32713 80.1186 1.23145 86.3618 2.53111C92.7165 3.85469 99.7092 7.82542 100.092 14.3078C100.164 15.4559 100.02 16.6679 100.554 17.6885C101.782 20.0486 105.227 19.5303 107.802 18.9004C112.754 17.6885 118.08 17.3456 122.888 19.044C127.696 20.7423 131.89 24.7529 132.791 29.7681C133.197 32.0087 133.126 34.6877 134.959 36.0352C137.487 37.893 140.908 35.4771 144.049 35.3096C147.789 35.1103 150.819 38.1721 153.235 41.0425C155.65 43.9129 158.066 46.9428 159.103 50.5467C160.642 55.9447 158.848 61.6855 156.751 66.8921C153.027 76.1253 147.94 85.3345 139.608 90.7883C133.381 94.8627 125.591 96.4973 118.247 95.2773C115.784 94.8627 113.28 94.0973 111.438 92.3989C109.596 90.7086 108.6 87.9099 109.588 85.6136C105.897 85.4063 102.317 86.7139 98.8242 87.9259C95.3319 89.1378 91.6561 90.278 88.0043 89.7199C84.3525 89.1618 80.7724 86.3631 80.5651 82.6794C80.4854 81.1964 80.8362 79.4263 79.7119 78.4535C78.5558 77.4569 76.6902 78.1745 75.6935 79.3226C74.6968 80.4708 74.1307 81.9778 73.0463 83.0462C70.9014 85.1512 67.1619 84.8801 64.7858 83.0462C62.4018 81.2123 61.1979 78.2143 60.6955 75.2482C59.6909 69.3479 61.2218 63.0011 65.049 58.4005C68.8762 53.7999 74.9837 51.1049 80.9398 51.6949C89.4235 52.5401 96.1372 59.3653 104.374 61.55" fill="#478F7E"/>
<path d="M98.4493 59.126C99.3503 61.8529 102.627 62.5785 105.099 61.6536C108.631 60.33 109.445 56.2237 108.799 52.8908C107.284 45.1328 99.6374 40.3647 92.7245 37.9647C78.9624 33.1886 59.3799 34.4883 52.156 49.1593C50.4577 52.6118 49.5248 56.439 49.3095 60.2742C49.0942 64.1094 49.3813 68.4309 50.3062 72.2821C51.2311 76.1332 54.3327 80.8056 52.443 84.8003C50.7845 88.3006 46.8059 90.262 43.194 91.0833C35.3562 92.8613 27.1913 89.7916 22.1522 83.6282C19.3455 80.1996 17.2166 76.0774 15.3429 72.0827C13.4691 68.0881 11.9941 63.5193 12.1695 58.8948C12.305 55.243 13.6925 51.7746 16.244 49.1354C17.4639 47.8756 18.7476 46.8072 20.3821 46.1374C22.1043 45.4278 24.1296 46.1773 25.7641 45.2523C28.5309 43.6816 27.4944 39.7188 27.0399 37.2391C26.3144 33.2445 26.9283 29.3774 28.2599 25.598C29.4798 22.1376 31.8638 19.1715 35.1568 17.521C38.1388 16.0299 41.9022 15.5994 45.0916 16.62C46.8935 17.1941 48.1374 18.4379 49.7321 19.3628C51.3268 20.2877 53.2722 20.5509 54.4124 18.8844C54.8669 18.2226 55.0503 17.4093 55.2496 16.6439C55.5127 15.6392 55.9673 14.7383 56.4855 13.8373C57.4902 12.115 58.726 10.616 60.2489 9.33233C67.0183 3.62339 76.3393 2.19615 84.8708 3.74299C88.3791 4.37288 91.9192 5.56093 94.7497 7.79347C96.0334 8.80609 97.1576 10.0499 97.8672 11.533C98.6486 13.1675 98.6726 14.9296 99.0952 16.6519C100.036 20.511 104.11 20.4552 107.26 19.8811C109.429 19.4824 111.582 19.3947 113.766 19.2751C116.063 19.1475 118.375 19.2831 120.607 19.8572C124.227 20.7741 127.568 22.895 129.625 26.0525C130.646 27.6073 131.18 29.2817 131.443 31.1156C131.706 32.9495 131.914 34.8551 133.133 36.3301C134.353 37.8052 136.299 38.3235 138.189 38.0524C140.174 37.7733 142.016 36.7527 144.017 36.5933C148.036 36.2743 150.97 40.1653 153.187 42.956C156.017 46.5121 158.329 50.3792 158.25 55.0596C158.17 59.74 156.4 64.0695 154.614 68.2077C151.424 75.6149 147.254 82.9903 140.804 88.0374C134.353 93.0846 125.152 95.4128 117.011 93.4035C113.758 92.5982 109.468 89.975 110.991 85.9963C111.358 85.0395 110.433 84.1146 109.54 84.0827C104.693 83.9312 100.283 86.0042 95.7384 87.3757C91.8953 88.5318 87.2228 89.2494 83.9538 86.3312C82.686 85.1989 81.9444 83.7956 81.9285 82.0813C81.9125 80.2475 81.9604 78.1186 80.1664 77.0342C78.484 76.0216 76.395 76.6834 75.0156 77.9033C73.5645 79.195 73.0781 81.3956 71.4276 82.4561C68.1426 84.5531 64.5068 81.603 63.1434 78.6847C61.469 75.0967 61.4369 70.6475 62.3778 66.8602C64.3073 59.1101 71.1565 53.0663 79.3292 53.146C83.7624 53.1859 87.8289 55.1872 91.6322 57.2682C93.5697 58.3287 95.4832 59.445 97.4606 60.4177C99.5496 61.4542 101.75 62.0762 103.991 62.6821C105.482 63.0888 106.112 60.7765 104.629 60.3778C102.54 59.8037 100.618 58.6636 98.7045 57.6749C96.7909 56.6862 95.0208 55.6496 93.179 54.629C89.4315 52.548 85.5006 50.6264 81.187 50.148C72.504 49.1992 64.1161 54.629 60.7354 62.5306C58.9733 66.6449 58.4709 71.1977 59.2363 75.607C59.9539 79.7212 62.1307 83.9471 66.2769 85.4222C68.031 86.0441 70.0721 86.0919 71.8103 85.4062C73.9631 84.5531 74.9598 82.7671 76.1797 80.9252C76.6183 80.2634 77.2481 79.5059 78.1012 79.3943C79.0341 79.2667 79.0662 80.2076 79.0742 80.9172C79.114 82.9026 79.1778 84.6807 80.2861 86.4189C83.0369 90.7564 88.3311 91.7849 93.0832 90.9956C98.6646 90.0706 103.76 86.7856 109.54 87.1046L108.089 85.1909C106.415 89.2972 109.341 93.6188 113.017 95.341C116.908 97.167 121.62 97.47 125.846 97.0713C134.633 96.2341 142.454 91.8407 148.068 85.0793C150.731 81.874 152.931 78.3179 154.805 74.6023C156.783 70.6635 158.584 66.5253 159.828 62.2914C161.144 57.8184 161.622 52.9626 159.82 48.5533C158.21 44.6145 155.18 41.0504 152.166 38.0923C150.707 36.665 149.144 35.3175 147.223 34.5521C145.301 33.7867 143.268 33.9062 141.258 34.4165C139.751 34.7993 137.527 35.8438 136.02 34.9667C134.617 34.1454 134.593 31.9847 134.401 30.5654C133.245 21.8505 125.272 16.8353 116.948 16.4924C114.596 16.3967 112.355 16.6519 110.075 17.2419C108.177 17.7283 106.367 18.4937 104.39 18.5655C103.592 18.5974 102.707 18.5575 102.006 18.1269C101.192 17.6326 101.2 16.5402 101.256 15.6791C101.32 14.7064 101.447 13.7496 101.312 12.7768C101.176 11.8041 100.81 10.9031 100.395 10.0419C98.8401 6.84462 95.7544 4.53236 92.6049 3.05729C88.7857 1.27125 84.5917 0.47391 80.3977 0.234709C75.6296 -0.0284121 70.9252 0.673237 66.5398 2.59482C64.7937 3.36026 62.9759 4.3091 61.5008 5.53699C60.0257 6.76489 58.6942 8.21606 57.4822 9.73898C56.2703 11.2619 55.1938 12.8884 54.4124 14.6904C54.0695 15.4798 53.7428 16.2771 53.368 17.0505C52.8258 18.1748 52.1082 18.2147 51.1035 17.5768C49.5168 16.5721 48.3209 15.2087 46.5747 14.4273C44.8285 13.6459 43.0425 13.2632 41.1767 13.1994C33.3229 12.9363 26.378 19.3309 25.1023 26.8977C24.7754 28.8432 24.6798 30.8126 24.8632 32.774C25.0466 34.7355 25.5807 36.4258 25.9555 38.2756C26.2664 39.7906 26.6252 41.7839 25.8836 43.2271C25.469 44.0245 24.7436 44.2955 23.8745 44.3354C22.8619 44.3912 21.8971 44.3115 20.8845 44.4869C17.1051 45.1567 14.2267 46.9108 12.026 50.1002C9.82537 53.2895 8.74901 57.3878 9.08389 61.3586C9.48256 66.1904 11.3163 70.7273 13.5169 75.001C15.5661 78.9797 17.8307 82.9903 20.8446 86.3232C26.2904 92.351 34.7501 94.9185 42.6676 93.1723C46.3194 92.367 50.0669 90.6447 52.4669 87.6946C53.647 86.2355 54.4124 84.5052 54.6197 82.6315C54.8748 80.2953 54.1413 78.0069 53.7904 75.7266C52.6183 68.1359 51.6536 60.0031 54.3884 52.6198C57.1233 45.2364 63.5101 41.0185 70.8775 39.5195C78.2449 38.0205 86.4734 39.0411 93.5537 41.5447C97.1258 42.8125 100.435 44.6783 103.098 47.3892C105.761 50.1002 108.336 54.4935 106.534 58.2808C105.33 60.8164 100.626 61.9645 99.3504 58.831C99.1191 58.2649 98.2102 58.4802 98.4096 59.0861L98.4493 59.126Z" fill="#F8EAD2"/>
<path d="M129.37 45.3561C127.528 45.5953 126.572 46.9986 126.5 48.8006C126.412 50.8657 127.616 52.5321 129.067 53.8876C130.774 55.4902 132.456 56.8218 133.492 58.9826C134.449 60.9679 134.768 63.2722 134.513 65.449C134.003 69.8901 130.885 73.5898 127.002 75.5991C123.119 77.6083 117.37 78.3419 114.516 74.4031C113.192 72.5692 113.152 70.1373 114.819 68.4948C115.568 67.7533 116.637 67.3147 117.689 67.5699C118.455 67.7613 119.499 68.6782 118.758 69.4994C117.594 70.7991 119.475 72.7207 120.687 71.429C122.704 69.2762 121.548 66.0549 118.973 65.0104C116.397 63.9659 113.663 65.1061 112.052 67.1632C108.265 71.9951 112.092 78.318 117.378 79.801C122.96 81.3638 129.298 78.6688 133.062 74.4988C136.825 70.3287 138.133 64.8669 136.363 59.7002C135.876 58.2889 135.191 56.9813 134.266 55.8092C133.341 54.6371 132.105 53.6803 130.925 52.6916C129.872 51.8225 128.708 50.8019 128.477 49.3826C128.31 48.3222 128.613 46.895 129.641 46.3687C130.096 46.1375 129.904 45.2843 129.37 45.3561Z" fill="#F8EAD2"/>
<path d="M60.8392 31.8174C58.798 30.8207 56.3184 31.028 54.1735 31.5861C51.8772 32.1841 49.7323 33.3243 47.8824 34.7994C43.4253 38.3635 42.0779 43.6738 41.7988 49.1594C41.7111 50.9295 41.7509 52.7076 41.9184 54.4697C42.0061 55.3946 42.1336 56.3195 42.2851 57.2364C42.4446 58.2092 42.5562 58.8311 43.2898 59.5168C43.7522 59.9474 44.3663 59.7082 44.5895 59.174C44.9882 58.1853 44.733 57.4358 44.5656 56.4152C44.4221 55.5222 44.3263 54.6212 44.2625 53.7202C44.1349 51.9501 44.1269 50.172 44.2465 48.4099C44.4698 45.1967 45.0359 41.9754 46.8937 39.2724C48.4167 37.0638 50.5694 35.2937 53.0013 34.1854C55.4332 33.0771 58.0725 32.9655 60.7356 32.5748C61.0864 32.527 61.1342 31.9688 60.8312 31.8253L60.8392 31.8174Z" fill="#F8EAD2"/>
<path d="M38.0831 48.3062C33.905 51.041 34.7582 57.8025 35.7469 61.9486C36.3529 64.4841 37.3415 66.932 38.6731 69.1725C39.3269 70.2808 40.0764 71.3333 40.8817 72.3379C41.6312 73.2628 42.5322 74.5545 43.6724 74.9851C44.3422 75.2402 44.7409 74.419 44.5097 73.9007C44.0791 72.9519 42.9788 72.1705 42.309 71.3651C41.5515 70.4482 40.8658 69.4595 40.2518 68.4389C39.0638 66.4615 38.1469 64.3327 37.5409 62.1161C36.935 59.8995 36.6319 57.6031 36.6718 55.2988C36.7116 53.1141 36.9349 50.6264 38.697 49.1115C39.1276 48.7367 38.5615 48.0032 38.0831 48.3221V48.3062Z" fill="#F8EAD2"/>
<path d="M72.7512 149.767C74.1465 150.11 74.2901 152.032 74.035 153.451C73.7798 154.87 73.6284 156.704 74.9041 157.374C76.0523 157.972 77.4955 156.951 77.8702 155.715C78.245 154.48 77.9021 153.148 77.6549 151.88C77.4157 150.668 77.272 149.377 77.7026 148.22C78.1332 147.064 79.3053 146.092 80.5252 146.283C81.498 146.434 82.2236 147.224 82.9412 147.893C88.674 153.22 98.8641 152.04 103.776 145.956C108.687 139.872 108.049 130.256 102.899 124.372C100.762 121.932 97.7556 119.445 98.242 116.239C101.423 115.266 104.708 117.698 106.471 120.521C108.233 123.344 109.142 126.676 111.199 129.3C113.479 132.202 117.131 133.98 120.815 133.988C124.498 133.996 128.158 132.226 130.447 129.332C131.435 128.08 132.193 126.621 133.445 125.64C136.602 123.152 141.29 124.683 145.125 123.487C145.668 123.32 146.242 123.049 146.497 122.538C146.816 121.892 146.497 121.111 146.098 120.513C143.052 115.976 136.076 116.152 132.137 112.364C130.415 110.706 129.394 108.377 127.504 106.894C124.961 104.893 121.373 104.861 118.199 105.539C115.026 106.217 111.996 107.508 108.775 107.859C109.524 104.837 109.269 101.584 108.065 98.7138C107.308 96.9118 106.016 95.1417 104.111 94.6872C101.033 93.9537 98.4414 96.856 95.6986 98.4267C91.5524 100.803 85.8355 99.9895 82.5265 96.553C80.8681 94.8307 79.6004 92.4387 77.2882 91.8248C74.4656 91.0753 71.627 93.6427 70.9811 96.4892C70.3353 99.3357 71.2362 102.286 72.1372 105.069C73.0382 107.851 73.9473 110.793 73.3095 113.648C72.3367 114.365 70.8775 113.959 70.0483 113.082C69.2191 112.205 68.8601 110.993 68.5332 109.837C67.2655 109.9 66.5401 111.368 66.5161 112.643C66.4922 113.919 66.8908 115.195 66.6357 116.439C66.3805 117.682 65.0251 118.854 63.9088 118.256C60.5839 113.257 66.3406 106.424 64.435 100.731C62.944 96.2819 57.1633 94.5756 52.6663 95.9231C48.1773 97.2706 44.709 100.763 41.408 104.096C40.5788 104.933 39.6937 105.802 38.5535 106.097C37.796 106.296 36.9987 106.225 36.2253 106.097C33.7695 105.659 31.4492 104.558 28.9695 104.311C26.4898 104.064 23.5874 105.005 22.7183 107.341C21.9449 109.43 22.814 112.372 20.9323 113.56C19.7442 114.31 18.1735 113.783 16.7862 114.031C14.5137 114.429 13.1901 116.734 11.5636 118.376C8.9164 121.063 4.7943 122.211 1.13452 121.286C6.99495 123.519 13.2939 126.102 16.4833 131.508C17.6155 133.43 18.2932 135.623 19.6886 137.361C22.6626 141.06 28.3635 141.69 32.7089 139.777C37.0544 137.863 40.2039 133.94 42.4843 129.778C44.0869 126.86 45.9847 123.304 49.3096 123.136C50.4258 123.08 51.5342 123.447 52.5388 123.942C56.0551 125.672 58.7102 129.068 59.5394 132.904C59.6112 133.23 59.667 133.573 59.5554 133.884C59.2126 134.825 57.6976 134.586 57.1075 133.773C56.5175 132.959 56.4378 131.883 55.9435 131.006C55.0345 129.363 52.8098 128.773 51.0078 129.316C49.2058 129.858 47.7947 131.285 46.7581 132.848C44.4139 136.388 43.6166 140.941 44.7249 145.039C45.8332 149.137 48.8631 152.693 52.7701 154.352C54.9548 155.277 57.554 155.588 59.643 154.472C60.847 153.826 61.7718 152.773 62.7605 151.84C65.4715 149.289 70.0723 147.63 72.7115 150.262" fill="#478F7E"/>
<path d="M72.6077 150.278C74.0589 150.78 73.4609 152.973 73.3015 154.065C73.134 155.221 73.102 156.576 73.9392 157.501C74.7764 158.426 76.0363 158.466 77.0569 157.876C78.2768 157.174 78.819 155.867 78.8589 154.503C78.9067 152.757 78.1253 151.059 78.3964 149.313C78.516 148.531 78.9068 147.702 79.6802 147.367C80.5174 147.008 81.203 147.678 81.7611 148.22C83.6827 150.062 85.8673 151.418 88.4746 152.056C93.6812 153.339 99.462 151.944 103.481 148.396C107.922 144.465 109.429 138.206 108.584 132.505C108.105 129.308 106.805 126.031 104.724 123.535C103.672 122.275 102.141 121.342 100.921 120.242C99.9006 119.317 99.1431 117.81 99.0952 116.223L98.4733 117.045C102.412 115.968 105.323 119.971 106.798 123.017C108.456 126.445 109.716 130.009 112.817 132.425C118.957 137.217 127.672 135.742 132.32 129.658C133.341 128.327 134.306 127.011 135.797 126.166C137.383 125.265 139.121 125.185 140.892 125.137C142.662 125.09 144.4 125.018 145.971 124.348C147.805 123.559 148.155 121.701 147.151 120.058C143.77 114.525 135.805 115.338 131.882 110.387C130.59 108.752 129.562 106.894 127.871 105.627C126.181 104.359 124.18 103.825 122.146 103.665C119.954 103.49 117.777 103.873 115.64 104.343C113.336 104.845 111.135 105.786 108.783 106.097L110.465 108.306C111.095 105.467 111.055 102.509 110.194 99.7264C109.461 97.3742 108.153 94.8307 105.865 93.6746C100.809 91.1151 97.2055 96.7922 92.6686 97.7809C90.6514 98.2194 88.6022 97.8845 86.7285 97.0792C85.8435 96.6965 84.9665 96.2898 84.201 95.6839C83.2522 94.9344 82.4708 93.9696 81.5857 93.1404C79.9911 91.6414 77.9499 90.3417 75.6695 90.6686C73.3892 90.9955 71.5951 92.6779 70.6622 94.6633C67.744 100.922 73.5804 107.038 72.201 113.329L72.7432 112.627C71.0289 113.656 70.0324 110.618 69.6815 109.518C69.4742 108.864 68.8921 108.601 68.2463 108.704C66.548 108.968 65.6311 110.666 65.5035 112.245C65.4238 113.193 65.6708 114.118 65.7505 115.051C65.7984 115.617 65.8462 116.207 65.5432 116.718C65.4316 116.901 64.8097 117.603 64.6104 117.531C64.1798 117.371 63.9407 115.825 63.8929 115.434C63.7972 114.684 63.8371 113.911 63.9328 113.169C64.148 111.495 64.6902 109.876 65.1208 108.258C65.958 105.148 66.5798 101.688 64.8417 98.7536C63.1035 95.8194 59.9539 94.4879 56.7965 94.1769C53.1765 93.8181 49.5168 95.2373 46.6464 97.3742C45.0038 98.5941 43.5049 99.9975 42.0617 101.449C40.8577 102.661 39.4465 104.797 37.5807 104.877C35.4678 104.965 33.2672 103.928 31.226 103.498C29.4479 103.123 27.6061 102.979 25.844 103.538C24.4088 103.984 23.0374 104.845 22.2799 106.177C21.4666 107.596 21.618 109.223 21.4187 110.785C21.3071 111.647 21.0918 112.587 20.1828 112.93C19.2738 113.273 18.0857 112.946 17.105 113.034C15.1595 113.201 13.7165 114.453 12.4646 115.849C11.0693 117.403 9.73762 118.847 7.75225 119.66C5.76688 120.473 3.55836 120.633 1.47731 120.106C-0.0695255 119.716 -0.587841 121.876 0.831418 122.442C5.20082 124.181 9.82535 126.054 13.1582 129.499C14.9443 131.349 15.8612 133.589 17.0094 135.846C18.1576 138.102 19.6646 139.864 21.8653 140.973C25.9636 143.038 30.9308 142.607 34.8617 140.375C39.3427 137.831 41.8784 133.581 44.1668 129.14C45.0837 127.362 46.3435 125.153 48.3448 124.428C50.6491 123.591 53.2962 125.361 54.9069 126.876C56.653 128.51 57.849 130.583 58.447 132.888C58.5347 133.215 58.7979 133.637 58.2955 133.342C57.8331 133.071 57.7055 132.601 57.5301 132.106C57.1554 131.006 56.7726 129.993 55.8556 129.236C54.1015 127.777 51.5978 127.737 49.6124 128.718C47.3719 129.818 45.7614 132.074 44.7488 134.291C42.6279 138.915 42.6199 144.377 45.1155 148.858C47.6112 153.339 53.0969 157.366 58.4869 156.194C61.3733 155.564 62.92 153.052 65.2004 151.458C67.0901 150.134 70.2157 148.906 72.1851 150.764C72.8867 151.426 73.9473 150.365 73.2456 149.703C69.6735 146.339 64.3633 148.412 61.3015 151.458C60.4484 152.303 59.5951 153.204 58.439 153.626C57.1234 154.113 55.6564 153.977 54.3248 153.602C52.0125 152.949 49.9712 151.481 48.4164 149.664C45.0517 145.725 44.4139 140.032 46.5588 135.351C47.5395 133.207 49.2776 130.559 51.8211 130.193C52.754 130.057 53.8225 130.272 54.5401 130.91C55.4969 131.763 55.4649 133.262 56.1825 134.291C57.2828 135.862 60.2809 136.125 60.6636 133.828C60.8311 132.8 60.3606 131.572 59.9938 130.631C59.5313 129.443 58.9333 128.327 58.1758 127.298C55.6084 123.822 50.37 120.162 46.1441 123.104C44.3182 124.372 43.154 126.349 42.0218 128.207C40.746 130.296 39.4545 132.329 37.7641 134.108C34.6465 137.393 30.5562 140.032 25.828 139.155C23.3483 138.7 21.339 137.401 20.0633 135.208C19.3297 133.956 18.8113 132.593 18.1096 131.325C17.408 130.057 16.5549 128.925 15.5742 127.896C11.8028 123.941 6.48458 121.94 1.46933 120.106L0.823437 122.442C4.547 123.272 8.46993 122.379 11.4201 119.939C12.7995 118.799 13.7404 117.26 15.04 116.04C15.6061 115.506 16.2679 115.075 17.0493 114.932C18.046 114.756 19.0826 114.979 20.0872 114.796C21.6341 114.517 22.6545 113.369 22.9575 111.854C23.2605 110.339 22.9257 108.465 23.8586 107.102C24.7357 105.81 26.4498 105.34 27.9329 105.34C30.0299 105.34 32.0153 106.249 33.9847 106.855C35.9542 107.461 38.1787 107.931 40.1162 106.886C41.8544 105.946 43.2098 104.215 44.6371 102.876C47.348 100.332 50.5295 97.6214 54.2929 96.9277C57.1394 96.4015 60.6557 97.1829 62.5135 99.5509C64.6105 102.238 63.534 105.946 62.8084 108.928C62.3778 110.69 61.9234 112.5 61.8995 114.318C61.8836 115.705 62.1626 118.193 63.4463 119.062C65.1526 120.218 67.1778 118.248 67.5525 116.67C67.8156 115.553 67.6243 114.445 67.5844 113.321C67.5605 112.675 67.6163 111.08 68.5492 110.993L67.425 110.14C68.023 112.5 69.2031 115.163 72.0496 115.211C72.6077 115.219 73.1978 115.083 73.6842 114.812C74.3938 114.413 74.4974 113.847 74.5931 113.09C74.7844 111.559 74.6011 110.004 74.2582 108.505C73.5646 105.507 72.1053 102.684 71.7545 99.6068C71.4515 97.0074 72.3606 94.0015 75.0476 92.9968C77.7346 91.9922 78.8907 94.456 80.1186 96.2261C81.5857 98.339 83.5073 100.165 85.995 100.97C88.3392 101.728 90.9305 101.823 93.3225 101.217C95.858 100.58 97.7319 99.0008 99.8049 97.5177C100.818 96.7922 102.045 95.9948 103.353 96.1304C104.661 96.2659 105.506 97.2945 106.096 98.339C107.619 101.034 107.842 104.431 107.116 107.397C106.869 108.393 107.627 109.733 108.799 109.605C110.696 109.398 112.522 108.975 114.356 108.457C116.19 107.939 117.801 107.293 119.579 106.918C122.824 106.225 125.989 106.639 128.246 109.247C129.306 110.474 130.096 111.902 131.252 113.05C132.217 114.007 133.373 114.764 134.585 115.37C137.033 116.59 139.727 117.252 142.135 118.559C143.284 119.181 144.424 119.979 145.141 121.095C145.317 121.366 145.612 121.773 145.445 122.076C145.301 122.347 144.83 122.419 144.559 122.498C143.77 122.714 142.965 122.809 142.151 122.865C140.509 122.969 138.882 122.921 137.248 122.905C135.757 122.889 134.082 123.104 132.783 123.886C131.26 124.803 130.351 126.557 129.378 127.968C128.541 129.18 127.464 130.209 126.213 130.974C123.47 132.664 120.185 133.063 117.115 132.058C113.854 130.998 111.621 128.55 110.083 125.568C108.544 122.586 107.451 119.413 104.796 117.228C103.64 116.279 102.293 115.522 100.802 115.274C99.6455 115.083 97.6202 114.955 97.3491 116.423C96.8149 119.333 99.0076 122.06 100.562 124.284C102.229 126.668 103.951 128.845 104.78 131.692C105.562 134.371 105.689 137.249 105.027 139.976C103.696 145.398 99.2786 149.193 93.7691 149.943C91.2096 150.293 88.4747 149.959 86.1544 148.802C84.8787 148.165 83.914 147.272 82.8216 146.379C81.6575 145.422 80.2462 144.943 78.819 145.653C77.3918 146.363 76.69 147.758 76.5545 149.241C76.387 151.067 77.2004 152.757 77.2243 154.559C77.2403 155.388 76.9931 156.281 76.2037 156.696C75.3426 157.151 74.7206 156.529 74.5771 155.691C74.3459 154.352 74.8882 153.012 74.6888 151.665C74.5294 150.573 74.0111 149.64 72.9028 149.313C72.249 149.121 71.9938 150.102 72.6237 150.325L72.6077 150.278Z" fill="#F8EAD2"/>
<path d="M52.7143 115.243C50.8644 112.795 47.4039 112.914 44.8445 114.079C41.5754 115.57 39.7735 118.942 38.1309 121.948C36.4884 124.954 34.5829 128.478 31.0427 129.252C27.7337 129.977 22.6148 127.952 21.8095 124.348C21.4347 122.65 22.1523 120.784 23.9782 120.409C24.7436 120.25 25.5967 120.362 26.2744 120.768C26.8246 121.103 28.1323 123.001 26.7449 122.897L27.8134 123.966C27.7178 123.08 27.5902 122.219 27.4228 121.35C27.2872 120.657 26.1151 120.633 25.9955 121.35C25.852 122.227 25.7482 123.088 25.6844 123.966C25.6366 124.572 26.2107 124.986 26.7529 125.034C29.3602 125.257 30.0698 122.18 28.9137 120.346C27.925 118.783 25.9955 117.993 24.1855 118.145C19.6487 118.512 18.2374 123.83 20.5895 127.259C23.1011 130.934 28.834 132.8 32.9722 131.078C37.1104 129.356 39.0558 124.851 41.0731 121.039C42.2212 118.879 43.5847 116.63 45.8491 115.514C47.8983 114.501 50.1786 114.533 52.0285 115.928C52.4271 116.223 53.0173 115.633 52.7222 115.235L52.7143 115.243Z" fill="#F8EAD2"/>
<path d="M88.8973 117.874C88.6023 115.442 89.2403 113.146 90.9944 111.376C92.7485 109.605 95.5312 108.88 98.0747 109.119C100.618 109.358 103.01 110.61 104.924 112.292C106.837 113.975 108.089 115.952 109.469 117.985C110.689 119.779 112.1 121.637 114.117 122.578C115.776 123.352 117.753 123.503 119.499 122.945C123.287 121.725 124.546 117.379 121.971 114.326C120.775 112.906 118.112 111.607 116.437 113.026C115.664 113.68 115.56 114.732 116.103 115.569C116.685 116.455 117.705 116.821 118.726 116.734C119.531 116.662 119.531 115.562 118.726 115.482C118.319 115.442 117.713 115.171 117.434 114.836C116.932 114.23 117.633 113.911 118.215 113.895C119.108 113.871 119.985 114.358 120.607 114.964C121.795 116.136 122.362 118.049 121.58 119.588C120.799 121.127 119.013 121.853 117.354 121.876C115.441 121.908 113.838 121.047 112.523 119.692C111.087 118.209 110.083 116.383 108.887 114.716C107.746 113.138 106.431 111.718 104.884 110.538C101.679 108.098 97.3491 106.926 93.4581 108.362C89.7744 109.725 86.6649 113.951 88.0603 117.977C88.2038 118.392 88.9451 118.368 88.8893 117.866L88.8973 117.874Z" fill="#F8EAD2"/>
<path d="M87.4859 130.623C87.757 130.328 87.8528 129.938 88.1558 129.666C88.5943 129.284 89.2003 129.228 89.7664 129.236C90.6594 129.252 91.5685 129.387 92.4136 129.666C93.211 129.938 93.9922 130.384 94.4786 131.094C95.0686 131.939 95.2123 133.047 95.2043 134.052C95.1963 134.865 95.0449 135.718 94.6223 136.428C94.112 137.281 93.2667 137.576 92.3418 137.767C90.7312 138.11 88.2515 138.142 87.9564 136.005C87.8209 135.025 88.4588 134.084 89.3837 133.765C89.8222 133.613 90.4043 133.597 90.779 133.916C91.09 134.179 91.1618 134.658 90.8509 134.953C90.3167 135.447 91.106 136.228 91.6402 135.742C92.597 134.889 92.2142 133.334 91.1458 132.768C89.9976 132.162 88.5384 132.553 87.6773 133.47C86.8162 134.387 86.5373 135.79 87.0555 136.994C87.5738 138.198 88.7299 138.868 90.0057 139.019C91.2814 139.171 92.7245 138.931 93.8806 138.429C95.0367 137.927 95.7146 136.922 96.0176 135.766C96.6635 133.35 96.0254 130.36 93.6653 129.148C92.4454 128.518 90.9704 128.263 89.607 128.335C88.8734 128.375 88.1239 128.558 87.5817 129.092C87.1751 129.491 86.7924 130.145 87.2629 130.623C87.3187 130.679 87.4301 130.687 87.4859 130.623Z" fill="#F8EAD2"/>
<path d="M75.6137 125.592C75.2948 124.835 74.3938 124.579 73.6682 124.898C72.7513 125.297 72.4961 126.397 72.839 127.274C73.6044 129.236 76.3073 129.045 77.5512 127.721C78.795 126.397 79.0582 124.284 77.9897 122.817C76.9213 121.35 74.7445 120.736 72.9585 121.255C70.9014 121.845 69.4901 123.854 69.3864 125.959C69.2828 128.064 70.734 130.249 72.6636 131.213C74.7845 132.266 77.6388 132.282 79.7039 131.062C81.4023 130.057 82.3671 128.199 82.5824 126.286C82.8376 124.013 81.9047 121.805 80.1824 120.322C79.2974 119.564 78.2688 118.998 77.1605 118.631C76.0522 118.265 74.7047 117.993 73.5485 118.408C73.118 118.568 73.0223 119.269 73.5485 119.381C75.0475 119.708 76.5226 119.7 77.9259 120.417C79.3292 121.135 80.4376 122.203 80.9718 123.631C81.9924 126.365 80.6847 129.69 77.7665 130.464C76.0283 130.918 74.0509 130.735 72.5598 129.674C71.2203 128.726 70.3513 127.051 70.6862 125.401C70.9972 123.87 72.1691 122.554 73.7399 122.291C75.0475 122.076 76.6104 122.554 77.2563 123.782C77.9021 125.01 77.3838 126.772 76.1878 127.442C75.4622 127.849 74.2503 127.817 73.8277 126.979C73.3572 126.047 74.4974 125.058 75.1991 125.935C75.4143 126.198 75.7333 125.863 75.6217 125.608L75.6137 125.592Z" fill="#F8EAD2"/>
<path d="M65.6152 126.174C63.1673 126.605 64.77 130.416 65.4158 131.652C66.6756 134.068 68.7727 136.021 71.3003 137.05C74.0431 138.166 77.2244 138.214 79.9832 137.137C80.3021 137.018 80.6051 136.858 80.924 136.739C81.4821 136.531 81.6735 136.579 81.7533 137.145C81.8489 137.807 81.6894 138.429 81.9047 139.091C82.2874 140.311 83.1966 141.292 84.273 141.945C85.7241 142.822 87.526 143.245 89.1845 143.508C90.6197 143.739 92.023 143.707 93.1313 142.663C93.5937 142.224 92.9719 141.355 92.4297 141.754C91.0822 142.735 89.3361 142.248 87.853 141.89C86.1627 141.483 84.2649 140.909 83.3639 139.274C82.7739 138.206 83.4357 136.715 82.5985 135.798C81.6098 134.714 80.0949 135.822 79.0424 136.165C75.8929 137.193 72.3288 136.707 69.6258 134.769C68.3261 133.844 67.2338 132.617 66.4524 131.221C66.0378 130.48 64.4112 127.306 65.8145 126.836C66.2451 126.692 66.0697 126.094 65.6311 126.166L65.6152 126.174Z" fill="#F8EAD2"/>
<path d="M59.101 140.319C57.8013 140.853 57.1713 138.844 56.6291 138.07C55.9275 137.082 54.6756 136.516 53.6152 137.337C52.6663 138.07 52.3475 139.426 52.4671 140.566C52.6265 142.001 53.2166 143.349 54.1575 144.441C55.0984 145.533 56.4458 146.379 57.8411 145.765C58.3275 145.549 59.1646 144.864 58.5985 144.298C58.1042 143.803 57.61 144.648 57.1316 144.752C55.8638 145.023 54.7474 143.42 54.2611 142.472C53.7189 141.427 53.3521 140.016 53.8385 138.884C54.0218 138.461 54.3807 137.975 54.899 138.054C55.5209 138.142 55.8877 138.876 56.1588 139.362C56.5176 140.008 56.8923 140.598 57.5143 141.028C58.1362 141.459 58.9016 141.547 59.4996 141.005C59.7867 140.741 59.4837 140.159 59.101 140.319Z" fill="#F8EAD2"/>
<g filter="url(#filter0_d_977_703)">
<path d="M129.578 68.6366L61.2566 25.7022C55.929 22.3543 49 26.1835 49 32.4758V117.224C49 123.474 55.8454 127.31 61.1761 124.048L129.498 82.2336C134.561 79.1349 134.604 71.7951 129.578 68.6366Z" fill="#478F7E"/>
<path d="M129.578 68.6366L61.2566 25.7022C55.929 22.3543 49 26.1835 49 32.4758V117.224C49 123.474 55.8454 127.31 61.1761 124.048L129.498 82.2336C134.561 79.1349 134.604 71.7951 129.578 68.6366Z" stroke="#F8EAD2" stroke-width="6"/>
</g>
<defs>
<filter id="filter0_d_977_703" x="38" y="14.4581" width="112.322" height="128.784" filterUnits="userSpaceOnUse" color-interpolation-filters="sRGB">
<feFlood flood-opacity="0" result="BackgroundImageFix"/>
<feColorMatrix in="SourceAlpha" type="matrix" values="0 0 0 0 0 0 0 0 0 0 0 0 0 0 0 0 0 0 127 0" result="hardAlpha"/>
<feOffset dx="3" dy="4"/>
<feGaussianBlur stdDeviation="5.5"/>
<feComposite in2="hardAlpha" operator="out"/>
<feColorMatrix type="matrix" values="0 0 0 0 0 0 0 0 0 0 0 0 0 0 0 0 0 0 0.5 0"/>
<feBlend mode="normal" in2="BackgroundImageFix" result="effect1_dropShadow_977_703"/>
<feBlend mode="normal" in="SourceGraphic" in2="effect1_dropShadow_977_703" result="shape"/>
</filter>
</defs>
</svg>
