<svg width="43" height="36" viewBox="0 0 43 36" fill="none" xmlns="http://www.w3.org/2000/svg">
<path d="M20.7536 24.7593C20.7536 24.7593 20.564 24.6011 20.2795 24.3211C20.135 24.1811 19.9589 24.0168 19.7828 23.822C19.697 23.7246 19.5931 23.6272 19.4622 23.5299C19.3493 23.4264 19.2274 23.3229 19.1055 23.2073C18.8481 22.9882 18.6132 22.7386 18.2926 22.5134C17.9811 22.2882 17.7101 22.0204 17.3534 21.7952C16.9922 21.5701 16.6851 21.3023 16.2877 21.0892C15.8994 20.8701 15.5381 20.6206 15.1182 20.4319L14.5176 20.1154C14.3054 20.0302 14.0977 19.9267 13.8899 19.8415C13.4835 19.6407 13.041 19.5007 12.6346 19.3242C12.2147 19.1781 11.8037 19.0199 11.4064 18.8981C11.0045 18.7764 10.6252 18.6425 10.2639 18.5512C9.54143 18.3443 8.91827 18.186 8.47574 18.0765C8.02869 17.973 7.76678 17.9121 7.76678 17.9121C7.76678 17.9121 8.02418 17.8513 8.47574 17.7478C8.91827 17.6443 9.54143 17.48 10.2639 17.2731C10.6252 17.1757 11.0045 17.0479 11.4064 16.9201C11.8037 16.7983 12.2147 16.6401 12.6346 16.494C13.041 16.3175 13.4835 16.1775 13.8899 15.9767C14.0977 15.8854 14.3054 15.788 14.5176 15.7028L15.1182 15.3863C15.5381 15.1976 15.9039 14.9481 16.2877 14.7351C16.6806 14.522 16.9922 14.2481 17.3534 14.029C17.7101 13.8038 17.9811 13.536 18.2926 13.3108C18.6087 13.0856 18.8481 12.8361 19.1055 12.617C19.2274 12.5074 19.3493 12.3979 19.4622 12.3005C19.5931 12.2031 19.697 12.1057 19.7828 12.0023C19.9634 11.8075 20.1395 11.6432 20.2795 11.5032C20.564 11.2232 20.7536 11.065 20.7536 11.065C20.7536 11.065 20.722 11.2658 20.6272 11.6188C20.5776 11.7953 20.5189 12.0084 20.4331 12.2518C20.3698 12.5014 20.2027 12.7509 20.0447 13.043C19.8821 13.3291 19.7286 13.6517 19.4577 13.9438C19.1958 14.2421 18.961 14.589 18.6133 14.8811C18.4417 15.0272 18.2701 15.1794 18.094 15.3376L17.8275 15.5689C17.7282 15.6419 17.6198 15.7089 17.5205 15.7758C17.1096 16.0558 16.6896 16.3358 16.211 16.5671L15.511 16.9201C15.2672 17.0174 15.0143 17.1148 14.7705 17.2061C14.2873 17.4131 13.768 17.5348 13.2803 17.6748C12.8514 17.7722 12.445 17.8635 12.0431 17.9243C12.4495 17.9852 12.8559 18.0704 13.2803 18.1678C13.768 18.3138 14.2918 18.4295 14.7705 18.6364C15.0143 18.7338 15.2672 18.8251 15.511 18.9286L16.211 19.2755C16.6896 19.5007 17.1051 19.7928 17.5205 20.0667C17.6243 20.1337 17.7282 20.2006 17.8275 20.2737L18.094 20.5049C18.2701 20.6632 18.4417 20.8093 18.6133 20.9614C18.961 21.2536 19.1958 21.6005 19.4577 21.8987C19.7286 22.1909 19.8776 22.5195 20.0447 22.7995C20.2027 23.0856 20.3698 23.3412 20.4331 23.5907C20.5234 23.8342 20.5776 24.0472 20.6272 24.2176C20.722 24.5706 20.7536 24.7715 20.7536 24.7715V24.7593Z" fill="white"/>
<path d="M23.8514 27.0051L23.8965 26.4513C23.9056 26.2687 23.9417 26.0861 23.9101 25.9035L23.874 25.3618C23.874 25.1731 23.8062 25.0027 23.7701 24.8201C23.7249 24.6436 23.7069 24.4671 23.6256 24.2906L23.4269 23.7794C23.2463 23.4446 23.0928 23.1099 22.8489 22.8055C22.736 22.6534 22.6277 22.4951 22.4922 22.3552C22.3522 22.2091 22.2438 22.0569 22.0948 21.923C21.8103 21.643 21.5033 21.3752 21.1781 21.1257C20.844 20.8762 20.5008 20.6388 20.1305 20.4319C19.9454 20.3223 19.7602 20.2188 19.5661 20.1215C19.3809 20.0302 19.1732 19.9328 19.0016 19.8658L16.4006 18.5086L19.5751 18.9407C20.2886 19.0868 20.993 19.245 21.702 19.3789L22.7767 19.5311C23.1379 19.5798 23.4901 19.6467 23.8514 19.665L24.9396 19.7502C25.2964 19.7928 25.6576 19.7806 26.0189 19.7928C26.2763 19.7928 26.5382 19.811 26.791 19.811C26.8904 19.811 26.9942 19.811 27.0936 19.7989L28.1683 19.7502C28.525 19.7258 28.8772 19.6711 29.2295 19.6406C29.5862 19.6102 29.9249 19.5432 30.268 19.4824C30.6112 19.4337 30.9589 19.3667 31.2886 19.2754C31.6318 19.1963 31.9614 19.1233 32.2865 19.0137C32.9503 18.8311 33.5735 18.5877 34.1695 18.3199C34.4495 18.1921 34.7249 18.0582 34.9823 17.9121C34.7249 17.766 34.4495 17.6321 34.1695 17.5043C33.5735 17.2365 32.9503 16.9931 32.291 16.8105C31.9614 16.707 31.6318 16.6218 31.2886 16.5488C30.9544 16.4635 30.6112 16.3966 30.268 16.3418C29.9249 16.281 29.5817 16.214 29.2295 16.1836C28.8772 16.1531 28.525 16.0984 28.1683 16.074L27.0936 16.0253C26.9942 16.0192 26.8949 16.0132 26.791 16.0132C26.5336 16.0132 26.2763 16.0314 26.0144 16.0314C25.6531 16.0436 25.2919 16.0314 24.9306 16.074L23.8469 16.1592C23.4856 16.1775 23.1334 16.2444 22.7722 16.2931L21.6974 16.4453C20.984 16.5792 20.2795 16.7374 19.5706 16.8835L16.4593 17.2913L19.0061 15.9645C19.1732 15.8975 19.3809 15.8001 19.5661 15.7027C19.7602 15.6054 19.9499 15.508 20.1305 15.3984C20.5008 15.1854 20.844 14.948 21.1781 14.7046C21.5033 14.449 21.8103 14.1812 22.0948 13.9012C22.2438 13.7673 22.3612 13.6151 22.4922 13.469C22.6322 13.3291 22.7405 13.1647 22.8489 13.0126C23.0882 12.7083 23.2463 12.3735 23.4269 12.0387L23.6211 11.5275C23.7024 11.3571 23.7204 11.1806 23.7701 11.0041C23.8017 10.8276 23.8694 10.645 23.8694 10.4685L23.9101 9.92678C23.9372 9.74419 23.9011 9.56159 23.892 9.379L23.8469 8.82514L24.0094 9.36683C24.0591 9.54942 24.1313 9.72593 24.1449 9.9146L24.2171 10.4806C24.2533 10.6693 24.2171 10.858 24.2171 11.0467C24.2036 11.2353 24.2171 11.424 24.1629 11.6127L24.0456 12.1787C23.9056 12.5439 23.7927 12.9213 23.5804 13.2743C23.4856 13.4508 23.3908 13.6334 23.2643 13.7977C23.1424 13.9681 23.0386 14.1507 22.8986 14.309C22.6457 14.6315 22.3432 14.9359 22.0316 15.228L22.4515 15.1489C22.8354 15.0758 23.2057 14.9967 23.594 14.9541L24.7635 14.8081C25.1519 14.7533 25.5492 14.7533 25.9376 14.7289C26.2672 14.7168 26.6014 14.6863 26.94 14.6863C27.0033 14.6863 27.062 14.6863 27.1252 14.6863L28.3173 14.7107C28.7147 14.7228 29.1075 14.7715 29.5094 14.802C29.9023 14.8263 30.2996 14.8872 30.688 14.948C31.0808 15.0028 31.4737 15.0759 31.853 15.1671C32.2414 15.2524 32.6252 15.3376 33 15.4593C33.7586 15.6662 34.4856 15.934 35.1901 16.2383C35.5423 16.3966 35.8854 16.5609 36.2196 16.7435C36.5628 16.9322 36.8608 17.1026 37.2176 17.3704L37.4885 17.5713L37.8723 17.8878L37.4885 18.259L37.213 18.4599C36.8518 18.7277 36.5537 18.8981 36.2151 19.0868C35.8809 19.2754 35.5378 19.4337 35.1855 19.5919C34.4811 19.8963 33.7541 20.1701 32.9955 20.3771C32.6207 20.4988 32.2368 20.584 31.8485 20.6692C31.4647 20.7605 31.0763 20.8336 30.6835 20.8883C30.2951 20.9492 29.8978 21.0101 29.5049 21.0344C29.1075 21.0648 28.7102 21.1074 28.3128 21.1257L27.1207 21.144C27.0575 21.144 26.9942 21.144 26.931 21.144C26.5969 21.144 26.2627 21.1135 25.9331 21.1014C25.5402 21.077 25.1428 21.077 24.759 21.0222L23.5895 20.8823C23.2011 20.8396 22.8309 20.7544 22.447 20.6875L22.0361 20.6084C22.3432 20.9005 22.6412 21.1987 22.8941 21.5213C23.034 21.6857 23.1424 21.8622 23.2643 22.0326C23.3863 22.203 23.4811 22.3795 23.5759 22.5621C23.7882 22.909 23.9056 23.2925 24.041 23.6576L24.1585 24.2237C24.2081 24.4123 24.1991 24.6071 24.2081 24.7897C24.2081 24.9784 24.2488 25.1671 24.2081 25.3557L24.1404 25.9218C24.1268 26.1104 24.0546 26.293 24.0004 26.4695L23.8378 27.0112L23.8514 27.0051Z" fill="white"/>
<path d="M25.5131 19.1843C21.1014 19.1843 18.2701 17.9062 18.2701 17.9062C18.2701 17.9062 21.1014 16.628 25.5131 16.628C27.7212 16.628 30.3222 16.9506 33.1625 17.9062C30.3222 18.8617 27.7167 19.1843 25.5131 19.1843Z" fill="white"/>
<path d="M29.9023 22.197C29.4552 22.1727 29.0308 22.1544 28.6424 22.1362C28.2496 22.124 27.8973 22.0996 27.5813 22.057C27.2697 22.0266 26.9942 21.9962 26.773 21.9657C26.3259 21.917 26.0731 21.8866 26.0731 21.8866C26.0731 21.8866 26.3305 21.8866 26.782 21.8866C27.0078 21.8866 27.2742 21.8866 27.5903 21.8866C27.6219 21.8866 27.649 21.8866 27.6806 21.8866C27.9696 21.8866 28.2947 21.8744 28.6379 21.844C29.0217 21.8197 29.4281 21.7892 29.8661 21.7649C30.2951 21.7101 30.7467 21.6492 31.2163 21.5823C31.6859 21.5275 32.1511 21.4058 32.6207 21.3145C33.0993 21.2293 33.5554 21.071 34.025 20.9493C34.4811 20.8093 34.9236 20.6389 35.3526 20.4868C35.7635 20.2981 36.188 20.1459 36.5492 19.939C36.7344 19.8416 36.915 19.7442 37.0911 19.6529C37.2582 19.5494 37.4207 19.446 37.5743 19.3486C37.8949 19.1538 38.1568 18.9408 38.4052 18.7582C38.64 18.5635 38.8567 18.387 39.0193 18.2165C39.1457 18.1009 39.236 18.0035 39.3218 17.9061C39.236 17.8087 39.1412 17.7053 39.0193 17.5957C38.8567 17.4253 38.6354 17.2488 38.4052 17.054C38.1568 16.8714 37.8949 16.6584 37.5743 16.4697C37.4207 16.3663 37.2582 16.2689 37.0911 16.1654C36.9105 16.068 36.7298 15.9767 36.5492 15.8794C36.188 15.6724 35.7635 15.5203 35.3526 15.3316C34.9191 15.1794 34.4811 15.009 34.025 14.869C33.5554 14.7473 33.0993 14.5951 32.6207 14.5038C32.1465 14.4126 31.6814 14.2969 31.2163 14.236C30.7467 14.1691 30.2951 14.1143 29.8661 14.0535C29.4281 14.023 29.0217 13.9926 28.6379 13.9682C28.2947 13.9378 27.9696 13.9256 27.6851 13.9256C27.6535 13.9256 27.6219 13.9256 27.5903 13.9256C27.2742 13.9256 27.0078 13.9256 26.782 13.9256C26.3259 13.9256 26.0731 13.9256 26.0731 13.9256C26.0731 13.9256 26.3259 13.8952 26.773 13.8465C26.9942 13.8222 27.2697 13.7917 27.5813 13.7552C27.8928 13.7187 28.2496 13.6883 28.6424 13.6761C29.0308 13.6578 29.4552 13.6396 29.9023 13.6152C30.3538 13.6152 30.828 13.6274 31.3202 13.6335C31.8169 13.6335 32.3226 13.7065 32.8465 13.743C33.3703 13.7735 33.885 13.883 34.4134 13.9561C34.9326 14.0474 35.4519 14.1691 35.9622 14.2908C36.4544 14.443 36.9647 14.5586 37.4162 14.7473C37.651 14.8325 37.8768 14.9177 38.1026 15.0029C38.3148 15.1003 38.5316 15.1916 38.7348 15.2829C39.1502 15.4655 39.5115 15.6724 39.8501 15.8611C40.1798 16.062 40.4868 16.2445 40.7352 16.4271C40.9926 16.5976 41.2003 16.7801 41.3764 16.9141C41.548 17.0662 41.6744 17.1758 41.7828 17.2853C41.8686 17.3766 41.9138 17.4253 41.9138 17.4253L42.2795 17.9122L41.9138 18.3991C41.9138 18.3991 41.8686 18.4478 41.7828 18.533C41.679 18.6426 41.548 18.7582 41.3764 18.9043C41.2003 19.0443 40.9926 19.2208 40.7352 19.3912C40.4868 19.5799 40.1753 19.7625 39.8501 19.9633C39.5115 20.1459 39.1502 20.3589 38.7348 20.5354C38.5316 20.6267 38.3193 20.7241 38.1026 20.8154C37.8813 20.8945 37.6556 20.9797 37.4162 21.071C36.9647 21.2536 36.4544 21.3693 35.9622 21.5214C35.4519 21.6432 34.9326 21.7649 34.4134 21.8562C33.885 21.9292 33.3703 22.0388 32.8465 22.0692C32.3226 22.1057 31.8169 22.1666 31.3202 22.1727C30.828 22.1848 30.3538 22.1909 29.9023 22.197Z" fill="white"/>
<path d="M0.00463867 17.906C0.00463867 17.906 0.790362 17.7356 2.13149 17.3765C3.47714 17.0357 5.38271 16.494 7.56826 15.6845C9.75833 14.8872 12.2419 13.822 14.6216 12.3796C15.8137 11.6675 16.9697 10.8519 17.9812 9.92068C19.0063 9.00773 19.8868 7.95479 20.379 6.82272C20.8893 5.69674 20.9615 4.48555 20.4874 3.40218C20.4287 3.28045 20.3564 3.09786 20.3158 3.037C20.2255 2.89701 20.1352 2.73268 20.0449 2.61095C19.8913 2.41619 19.7017 2.21534 19.4714 2.02666C19.0108 1.66756 18.4373 1.41802 17.8187 1.29021C17.4574 1.21717 17.0826 1.18065 16.7079 1.18065C15.7867 1.18065 14.8655 1.38759 14.1656 1.73451C13.0954 2.28228 12.409 3.11612 12.3909 3.94386C12.3909 4.35774 12.549 4.75944 12.8019 5.10028C13.0502 5.46546 13.3528 5.66631 13.7682 5.79412C13.994 5.86107 14.2288 5.89151 14.4545 5.89151C15.0325 5.89151 15.5744 5.69674 15.9041 5.43503C16.3782 5.06376 16.4866 4.59511 16.4595 4.29688C16.4324 3.99256 16.3647 3.82823 16.3647 3.82823C16.3647 3.82823 16.4685 3.9743 16.5543 4.2847C16.6401 4.57685 16.6536 5.12462 16.1479 5.62371C15.7505 6.01932 15.0371 6.36016 14.1701 6.36016C13.9849 6.36016 13.7908 6.3419 13.5921 6.31146C13.3166 6.25669 13.0367 6.16539 12.7793 6.02541C12.6528 5.95846 12.5309 5.87933 12.409 5.77586C12.3413 5.72109 12.3096 5.69065 12.26 5.64805C12.2148 5.61762 12.1471 5.52632 12.1155 5.4898C11.7587 5.0881 11.4743 4.57076 11.411 3.98038C11.2801 2.78745 12.2058 1.59452 13.434 0.888506C14.4365 0.310301 15.6377 -0.000104904 16.902 -0.000104904C17.3129 -0.000104904 17.7284 0.0303268 18.1528 0.0972767C19.0063 0.243351 19.8642 0.565929 20.5506 1.07718C20.8848 1.33281 21.1873 1.63104 21.4582 1.98405C21.5711 2.1423 21.6479 2.2762 21.7472 2.42227C21.8782 2.64138 21.9188 2.77528 22.0092 2.95787C22.6278 4.33339 22.5736 5.93411 21.9234 7.2792C21.3047 8.64254 20.2797 9.80504 19.1463 10.7971C18.0038 11.7892 16.7349 12.6169 15.448 13.3291C14.1701 14.0533 12.847 14.6315 11.5781 15.1367C10.3137 15.648 9.06745 16.0436 7.91597 16.3783C5.60399 17.0478 3.60358 17.3826 2.21277 17.6199C1.51737 17.7356 0.961963 17.7904 0.587168 17.833C0.207858 17.8756 0.00915868 17.8999 0.00915868 17.8999L0.00463867 17.906Z" fill="white"/>
<path d="M16.8883 35.812C15.6239 35.812 14.4318 35.5016 13.4294 34.9295C12.2057 34.2174 11.2799 33.0245 11.4064 31.8315C11.4696 31.2472 11.7541 30.7299 12.1108 30.3282C12.1469 30.2917 12.2147 30.2065 12.2553 30.17C12.305 30.1213 12.3366 30.0908 12.4043 30.0361C12.5263 29.9326 12.6482 29.8535 12.7746 29.7865C13.0365 29.6465 13.312 29.5552 13.5874 29.5005C13.7861 29.4639 13.9803 29.4518 14.1699 29.4518C15.0324 29.4518 15.7459 29.7926 16.1433 30.1821C16.6535 30.6812 16.6354 31.2229 16.5496 31.5211C16.4638 31.8315 16.36 31.9776 16.36 31.9776C16.36 31.9776 16.4322 31.8133 16.4548 31.509C16.4864 31.2107 16.3735 30.7421 15.8994 30.3708C15.5652 30.1091 15.0279 29.9143 14.4499 29.9143C14.2241 29.9143 13.9938 29.9448 13.7635 30.0117C13.3481 30.1395 13.0455 30.3404 12.7972 30.6995C12.5443 31.0525 12.3863 31.4481 12.3863 31.862C12.4043 32.6897 13.0907 33.5236 14.1609 34.0713C14.8608 34.4182 15.7865 34.6313 16.7077 34.6313C17.0825 34.6313 17.4528 34.5948 17.814 34.5217C18.4326 34.3939 19.0061 34.1444 19.4667 33.7853C19.697 33.5966 19.8867 33.3957 20.0402 33.201C20.1305 33.0792 20.2208 32.921 20.3111 32.781C20.3563 32.708 20.424 32.5315 20.4827 32.4097C20.9569 31.3264 20.8846 30.1152 20.3744 28.9892C19.8822 27.8511 19.0016 26.8042 17.9766 25.8912C16.9651 24.96 15.8091 24.1384 14.617 23.4323C12.2373 21.996 9.75369 20.9248 7.56362 20.1274C5.37356 19.324 3.46796 18.7763 2.12683 18.4354C0.785696 18.0824 0 17.912 0 17.912C0 17.912 0.198672 17.9303 0.577982 17.979C0.952776 18.0216 1.50818 18.0763 2.20359 18.192C3.59439 18.4233 5.59028 18.758 7.90679 19.4336C9.05826 19.7623 10.3046 20.164 11.569 20.6691C12.8378 21.1804 14.1609 21.7586 15.4388 22.4768C16.7257 23.195 17.9946 24.0227 19.1371 25.0148C20.2705 26.0069 21.291 27.1694 21.9142 28.5327C22.5644 29.8778 22.6186 31.4785 22 32.8541C21.9097 33.0366 21.8645 33.1705 21.7381 33.3897C21.6387 33.5357 21.562 33.6696 21.4491 33.8279C21.1781 34.1809 20.8801 34.4791 20.5414 34.7347C19.8506 35.246 18.9971 35.5747 18.1437 35.7146C17.7192 35.7816 17.2992 35.8181 16.8883 35.8181V35.812Z" fill="white"/>
</svg>
