<svg width="26" height="14" viewBox="0 0 26 14" fill="none" xmlns="http://www.w3.org/2000/svg">
<path d="M9.47939 11.6308C9.47939 11.6308 9.34096 11.5153 9.13331 11.3109C9.02784 11.2087 8.8993 11.0888 8.77075 10.9466C8.70813 10.8755 8.63231 10.8044 8.53673 10.7334C8.45433 10.6578 8.36534 10.5823 8.27635 10.4979C8.08848 10.338 7.91707 10.1558 7.68305 9.99145C7.45562 9.82708 7.25787 9.6316 6.99749 9.46723C6.73381 9.30285 6.50966 9.10738 6.21961 8.95189C5.93615 8.79196 5.67248 8.60981 5.36595 8.47209L4.92757 8.24108C4.77266 8.17888 4.62104 8.10336 4.46942 8.04116C4.17277 7.89456 3.84977 7.79238 3.55313 7.66354C3.2466 7.55692 2.94665 7.44141 2.6566 7.35256C2.36325 7.26371 2.0864 7.16597 1.82272 7.09934C1.29535 6.94829 0.84049 6.83278 0.517479 6.75282C0.191172 6.67729 0 6.63287 0 6.63287C0 6.63287 0.187876 6.58844 0.517479 6.51292C0.84049 6.43739 1.29535 6.31744 1.82272 6.1664C2.0864 6.09531 2.36325 6.00202 2.6566 5.90873C2.94665 5.81987 3.2466 5.70437 3.55313 5.59775C3.84977 5.46891 4.17277 5.36673 4.46942 5.22013C4.62104 5.15349 4.77266 5.08241 4.92757 5.02021L5.36595 4.7892C5.67248 4.65148 5.93945 4.46933 6.21961 4.31384C6.50636 4.15835 6.73381 3.95843 6.99749 3.7985C7.25787 3.63413 7.45562 3.43865 7.68305 3.27428C7.91377 3.1099 8.08848 2.92776 8.27635 2.76782C8.36534 2.68786 8.45433 2.60789 8.53673 2.53681C8.63231 2.46573 8.70813 2.39465 8.77075 2.31913C8.9026 2.17696 9.03113 2.05701 9.13331 1.95483C9.34096 1.75048 9.47939 1.63497 9.47939 1.63497C9.47939 1.63497 9.45633 1.78157 9.38711 2.03924C9.35085 2.16808 9.30801 2.32357 9.24538 2.50127C9.19924 2.68342 9.07727 2.86556 8.96191 3.0788C8.84325 3.28761 8.73119 3.52306 8.53343 3.73631C8.34226 3.95399 8.17087 4.20722 7.91707 4.42046C7.79182 4.52708 7.66657 4.63815 7.53802 4.75366L7.34357 4.92247C7.27105 4.97579 7.19195 5.02465 7.11944 5.07352C6.8195 5.27788 6.51296 5.48224 6.16358 5.65106L5.6527 5.90873C5.47472 5.97981 5.29013 6.05089 5.11215 6.11753C4.75947 6.26857 4.38043 6.35743 4.02446 6.45961C3.71134 6.53069 3.4147 6.59733 3.12135 6.64175C3.41799 6.68618 3.71463 6.74837 4.02446 6.81945C4.38043 6.92608 4.76277 7.01048 5.11215 7.16153C5.29013 7.23261 5.47472 7.29925 5.6527 7.37478L6.16358 7.628C6.51296 7.79238 6.81621 8.00562 7.11944 8.20554C7.19525 8.25441 7.27105 8.30327 7.34357 8.35658L7.53802 8.5254C7.66657 8.64091 7.79182 8.74753 7.91707 8.8586C8.17087 9.07184 8.34226 9.32507 8.53343 9.54275C8.73119 9.756 8.83996 9.9959 8.96191 10.2003C9.07727 10.4091 9.19924 10.5956 9.24538 10.7778C9.31131 10.9555 9.35085 11.111 9.38711 11.2354C9.45633 11.493 9.47939 11.6396 9.47939 11.6396V11.6308Z" fill="white"/>
<path d="M11.7405 13.27L11.7734 12.8657C11.78 12.7324 11.8064 12.5991 11.7833 12.4659L11.7569 12.0705C11.7569 11.9328 11.7075 11.8084 11.6811 11.6751C11.6482 11.5463 11.635 11.4174 11.5757 11.2886L11.4306 10.9154C11.2988 10.6711 11.1867 10.4267 11.0087 10.2046C10.9263 10.0935 10.8472 9.97802 10.7484 9.87584C10.6462 9.76922 10.5671 9.65816 10.4583 9.56042C10.2507 9.35606 10.0265 9.16059 9.78921 8.97844C9.5453 8.7963 9.2948 8.62304 9.02453 8.47199C8.88939 8.39202 8.75425 8.3165 8.61252 8.24542C8.47739 8.17878 8.32577 8.1077 8.20052 8.05883L6.302 7.06814L8.61912 7.38356C9.13989 7.49018 9.65408 7.60569 10.1716 7.70342L10.956 7.81449C11.2197 7.85003 11.4768 7.8989 11.7405 7.91222L12.5348 7.97442C12.7952 8.00552 13.0589 7.99663 13.3226 8.00552C13.5104 8.00552 13.7016 8.01885 13.8862 8.01885C13.9587 8.01885 14.0345 8.01885 14.107 8.00996L14.8915 7.97442C15.1518 7.95665 15.4089 7.91667 15.666 7.89445C15.9264 7.87224 16.1736 7.82337 16.4241 7.77895C16.6746 7.74341 16.9284 7.69454 17.169 7.6279C17.4195 7.57015 17.6601 7.51684 17.8975 7.43687C18.382 7.30359 18.8368 7.12589 19.2719 6.93042C19.4763 6.83712 19.6773 6.73938 19.8652 6.63276C19.6773 6.52614 19.4763 6.4284 19.2719 6.33511C18.8368 6.13964 18.382 5.96193 17.9007 5.82866C17.6601 5.75313 17.4195 5.69094 17.169 5.63763C16.9251 5.57543 16.6746 5.52656 16.4241 5.48658C16.1736 5.44215 15.9231 5.39328 15.666 5.37107C15.4089 5.34886 15.1518 5.30887 14.8915 5.2911L14.107 5.25556C14.0345 5.25112 13.962 5.24668 13.8862 5.24668C13.6983 5.24668 13.5104 5.26001 13.3193 5.26001C13.0556 5.26889 12.7919 5.26001 12.5282 5.2911L11.7372 5.3533C11.4735 5.36663 11.2164 5.4155 10.9527 5.45104L10.1683 5.5621C9.64749 5.65984 9.1333 5.77535 8.61582 5.88197L6.34485 6.17962L8.20382 5.21114C8.32577 5.16227 8.47739 5.09119 8.61252 5.02011C8.75425 4.94903 8.89269 4.87794 9.02453 4.79798C9.2948 4.64249 9.5453 4.46923 9.78921 4.29152C10.0265 4.10494 10.2507 3.90946 10.4583 3.7051C10.5671 3.60737 10.6528 3.4963 10.7484 3.38968C10.8505 3.2875 10.9296 3.16755 11.0087 3.05649C11.1834 2.83436 11.2988 2.59002 11.4306 2.34568L11.5724 1.9725C11.6317 1.84811 11.6449 1.71927 11.6811 1.59044C11.7042 1.4616 11.7537 1.32833 11.7537 1.19949L11.7833 0.804103C11.8031 0.670826 11.7767 0.537548 11.7701 0.40427L11.7372 -3.8147e-06L11.8558 0.395385C11.8921 0.528663 11.9448 0.657497 11.9547 0.795218L12.0074 1.20838C12.0338 1.3461 12.0074 1.48382 12.0074 1.62154C11.9975 1.75926 12.0074 1.89698 11.9679 2.0347L11.8822 2.44785C11.78 2.71441 11.6976 2.98985 11.5427 3.24752C11.4735 3.37635 11.4043 3.50963 11.312 3.62958C11.223 3.75397 11.1472 3.88725 11.045 4.00276C10.8604 4.23821 10.6396 4.46034 10.4122 4.67359L10.7187 4.61583C10.9989 4.56252 11.2691 4.50477 11.5526 4.47367L12.4063 4.36705C12.6897 4.32707 12.9798 4.32707 13.2632 4.3093C13.5038 4.30041 13.7477 4.2782 13.9949 4.2782C14.0411 4.2782 14.0839 4.2782 14.1301 4.2782L15.0002 4.29597C15.2903 4.30485 15.577 4.34039 15.8704 4.36261C16.1571 4.38038 16.4472 4.4248 16.7306 4.46923C17.0174 4.50921 17.3042 4.56252 17.581 4.62916C17.8645 4.69136 18.1446 4.75355 18.4182 4.8424C18.9719 4.99345 19.5026 5.18892 20.0168 5.41105C20.2739 5.52656 20.5244 5.64651 20.7683 5.77979C21.0188 5.91751 21.2363 6.0419 21.4967 6.23737L21.6945 6.38398L21.9746 6.61499L21.6945 6.88599L21.4934 7.03259C21.2297 7.22807 21.0122 7.35246 20.765 7.49018C20.5211 7.6279 20.2706 7.74341 20.0135 7.85891C19.4993 8.08104 18.9687 8.28096 18.4149 8.43201C18.1413 8.52086 17.8612 8.58305 17.5777 8.64525C17.2976 8.71189 17.0141 8.7652 16.7274 8.80518C16.4439 8.84961 16.1538 8.89403 15.8671 8.9118C15.577 8.93402 15.287 8.96512 14.9969 8.97844L14.1268 8.99177C14.0807 8.99177 14.0345 8.99177 13.9883 8.99177C13.7444 8.99177 13.5005 8.96956 13.2599 8.96067C12.9732 8.9429 12.6831 8.9429 12.403 8.90292L11.5493 8.80074C11.2658 8.76964 10.9956 8.70745 10.7154 8.65858L10.4155 8.60082C10.6396 8.81407 10.8571 9.03175 11.0417 9.26721C11.1439 9.38716 11.223 9.516 11.312 9.64039C11.401 9.76478 11.4702 9.89361 11.5394 10.0269C11.6943 10.2801 11.78 10.56 11.8789 10.8266L11.9646 11.2397C12.0009 11.3774 11.9943 11.5196 12.0009 11.6529C12.0009 11.7906 12.0305 11.9283 12.0009 12.066L11.9514 12.4792C11.9415 12.6169 11.8888 12.7502 11.8492 12.879L11.7306 13.2744L11.7405 13.27Z" fill="white"/>
<path d="M12.9534 7.56128C9.73319 7.56128 7.66656 6.62834 7.66656 6.62834C7.66656 6.62834 9.73319 5.6954 12.9534 5.6954C14.5652 5.6954 16.4637 5.93085 18.5369 6.62834C16.4637 7.32582 14.5619 7.56128 12.9534 7.56128Z" fill="white"/>
<path d="M16.1571 9.76025C15.8308 9.74248 15.521 9.72916 15.2376 9.71583C14.9508 9.70694 14.6937 9.68917 14.463 9.65807C14.2356 9.63586 14.0345 9.61365 13.873 9.59144C13.5467 9.5559 13.3621 9.53368 13.3621 9.53368C13.3621 9.53368 13.55 9.53368 13.8796 9.53368C14.0444 9.53368 14.2389 9.53368 14.4696 9.53368C14.4927 9.53368 14.5124 9.53368 14.5355 9.53368C14.7465 9.53368 14.9838 9.5248 15.2343 9.50258C15.5144 9.48481 15.8111 9.4626 16.1308 9.44483C16.4439 9.40485 16.7735 9.36042 17.1163 9.31155C17.4591 9.27157 17.7986 9.18272 18.1414 9.11608C18.4907 9.05388 18.8236 8.93838 19.1664 8.84953C19.4993 8.74735 19.8223 8.62295 20.1355 8.51189C20.4354 8.37417 20.7452 8.26311 21.0089 8.11206C21.144 8.04098 21.2759 7.9699 21.4044 7.90326C21.5264 7.82773 21.645 7.75221 21.7571 7.68113C21.9911 7.53897 22.1823 7.38348 22.3636 7.2502C22.535 7.10804 22.6932 6.9792 22.8118 6.85481C22.9041 6.7704 22.97 6.69932 23.0327 6.62824C22.97 6.55716 22.9008 6.48163 22.8118 6.40167C22.6932 6.27728 22.5317 6.14844 22.3636 6.00628C22.1823 5.873 21.9911 5.71751 21.7571 5.57979C21.645 5.50427 21.5264 5.43319 21.4044 5.35766C21.2726 5.28658 21.1407 5.21994 21.0089 5.14886C20.7452 4.99781 20.4354 4.88675 20.1355 4.74903C19.819 4.63796 19.4993 4.51357 19.1664 4.41139C18.8236 4.32254 18.4907 4.21148 18.1414 4.14484C17.7953 4.0782 17.4558 3.99379 17.1163 3.94937C16.7735 3.9005 16.4439 3.86051 16.1308 3.81609C15.8111 3.79388 15.5144 3.77166 15.2343 3.75389C14.9838 3.73168 14.7465 3.7228 14.5388 3.7228C14.5157 3.7228 14.4927 3.7228 14.4696 3.7228C14.2389 3.7228 14.0444 3.7228 13.8796 3.7228C13.5467 3.7228 13.3621 3.7228 13.3621 3.7228C13.3621 3.7228 13.5467 3.70058 13.873 3.66504C14.0345 3.64727 14.2356 3.62506 14.463 3.5984C14.6904 3.57175 14.9508 3.54953 15.2376 3.54065C15.521 3.52732 15.8308 3.51399 16.1571 3.49622C16.4868 3.49622 16.8328 3.50511 17.1921 3.50955C17.5547 3.50955 17.9238 3.56286 18.3062 3.58952C18.6885 3.61173 19.0642 3.6917 19.4499 3.74501C19.8289 3.81165 20.208 3.9005 20.5804 3.98935C20.9397 4.10041 21.3121 4.18482 21.6418 4.32254C21.8131 4.38474 21.9779 4.44693 22.1427 4.50913C22.2976 4.58021 22.4559 4.64685 22.6042 4.71349C22.9074 4.84677 23.1711 4.99781 23.4183 5.13553C23.6589 5.28214 23.883 5.41542 24.0643 5.54869C24.2522 5.67308 24.4038 5.80636 24.5324 5.9041C24.6576 6.01516 24.7499 6.09513 24.829 6.1751C24.8916 6.24173 24.9246 6.27728 24.9246 6.27728L25.1916 6.63268L24.9246 6.98809C24.9246 6.98809 24.8916 7.02363 24.829 7.08582C24.7532 7.16579 24.6576 7.2502 24.5324 7.35682C24.4038 7.459 24.2522 7.58784 24.0643 7.71223C23.883 7.84995 23.6556 7.98322 23.4183 8.12983C23.1711 8.26311 22.9074 8.4186 22.6042 8.54743C22.4559 8.61407 22.3009 8.68515 22.1427 8.75179C21.9812 8.80954 21.8164 8.87174 21.6418 8.93838C21.3121 9.07166 20.9397 9.15606 20.5804 9.26713C20.208 9.35598 19.8289 9.44483 19.4499 9.51147C19.0642 9.56478 18.6885 9.64475 18.3062 9.66696C17.9238 9.69362 17.5547 9.73804 17.1921 9.74248C16.8328 9.75137 16.4868 9.75581 16.1571 9.76025Z" fill="white"/>
</svg>
