<svg width="292" height="372" viewBox="0 0 292 372" fill="none" xmlns="http://www.w3.org/2000/svg">
<path d="M0.0189209 0.836236V21.2761C2.2387 18.4424 38.369 27.0935 41.501 30.6721C44.6349 34.2526 73.2146 25.6928 73.2146 25.6928L74.678 3.36199C74.678 3.36199 46.7141 12.2392 40.1992 8.43821C33.6843 4.63722 4.09168 -2.42121 0.0189209 0.836236Z" fill="#BF3A39"/>
<path d="M0.0189209 21.2761V45.2699C0.0189209 45.2699 33.4125 47.1399 39.6556 50.5931C45.9007 54.0482 71.945 45.0646 71.945 45.0646L73.2146 25.6929C73.2146 25.6929 44.6349 34.2527 41.501 30.6722C38.369 27.0935 2.2387 18.4425 0.0189209 21.2761Z" fill="white"/>
<path d="M139.215 118.099C139.215 118.099 117.891 127.128 124.431 156.703L143.033 177.096C143.033 177.096 153.26 136.321 139.215 118.101V118.099Z" fill="#C8AA86"/>
<path d="M59.9814 130.906C60.2399 126.17 67.2508 129.429 67.2508 129.429L72.7661 117.314C66.3804 106.226 79.9081 113.429 79.9081 113.429C78.2395 107.047 78.4999 101.395 78.4999 101.395C87.8598 102.102 87.417 123.977 87.417 123.977C95.9825 138.791 125.839 155.337 125.839 155.337C148.313 176.769 148.638 194.673 148.588 196.863L148.581 197.089C134.308 204.229 109.972 179.232 109.972 179.232C108.851 181.33 111.591 188.155 111.591 188.155C107.116 187.655 100.578 176.429 100.578 176.429C100.162 180.114 102.891 184.462 102.891 184.462C96.2315 182.752 88.0669 165.803 88.0669 165.803C86.9228 167.698 88.027 170.672 88.027 170.672C81.6566 165.252 73.2906 137.104 73.2906 137.104C73.2906 137.104 59.723 135.646 59.9814 130.908V130.906Z" fill="#C8AA86"/>
<path d="M93.5043 155.542C95.1235 155.797 96.6439 156.261 98.208 156.648C98.9397 156.819 99.6999 157.057 100.445 157.021L99.0651 158.228C99.067 158.131 99.0765 157.889 99.0765 157.773C99.0879 157.279 99.0005 156.795 98.9587 156.306C98.9378 155.632 99.2115 154.964 99.7607 154.516C100.116 154.216 100.618 154.062 101.091 154.041C101.551 153.986 101.994 153.902 102.473 153.805L101.543 155.605C101.281 154.59 100.968 153.494 100.671 152.482C100.325 151.403 100.057 150.363 99.4053 149.388C101.598 149.921 103.339 152.756 104.206 154.7C104.485 155.365 104.172 156.131 103.507 156.411C102.885 156.656 102.235 156.871 101.557 156.998C101.465 157.015 101.281 157.047 101.19 157.059C101.665 157.021 102.066 156.563 101.986 156.114C102.127 157.023 102.1 157.948 101.92 158.849C101.517 160.607 99.3312 159.824 98.2099 159.305C96.374 158.391 94.7776 157.146 93.5062 155.54L93.5043 155.542Z" fill="#84654A"/>
<path d="M113.102 170.556C113.948 170.366 114.9 170.29 115.729 170.197C116.324 170.136 116.994 170.056 117.464 169.87L116.664 172.018C116.635 171.959 116.574 171.85 116.548 171.791C116.217 171.094 116.021 170.319 116.09 169.522C116.094 169.537 116.105 169.562 116.118 169.57C116.16 169.522 116.156 169.361 116.133 169.182C116.069 168.627 115.917 167.914 115.77 167.318C115.706 167.092 115.656 166.858 115.506 166.616C115.645 166.573 115.795 166.569 115.947 166.582C117.291 166.789 118.783 168.103 118.895 169.545C118.986 169.748 119.043 169.923 119.142 170.148C119.21 170.309 119.317 170.537 119.391 170.697C119.733 171.438 119.408 172.316 118.667 172.658C118.021 172.926 117.316 172.962 116.747 172.901C115.235 172.704 113.878 171.864 113.106 170.558L113.102 170.556Z" fill="#84654A"/>
<path opacity="0.31" d="M136.25 166.89C110.113 164.518 87.1547 124.517 87.1547 124.517L88.4736 125.651C98.1889 140.009 125.839 155.335 125.839 155.335C130.034 159.336 133.456 163.213 136.25 166.888V166.89Z" fill="white"/>
<path opacity="0.26" d="M88.0668 165.799C86.9227 167.694 88.0269 170.668 88.0269 170.668C81.6565 165.248 73.2905 137.1 73.2905 137.1C73.2905 137.1 62.108 135.897 60.2417 132.132C61.3611 132.516 70.9434 135.76 74.9857 135.365C74.9857 135.365 93.9774 165.324 96.2808 174.353C96.2808 174.353 97.3888 169.682 95.7581 167.358C95.7581 167.358 105.996 168.165 118.146 182.655C118.309 182.848 118.473 183.046 118.636 183.244C131.086 198.324 147.362 187.813 145.589 183.141C148.539 190.665 148.611 195.758 148.586 196.861L148.579 197.087C134.306 204.227 109.97 179.23 109.97 179.23C108.849 181.328 111.589 188.153 111.589 188.153C107.114 187.653 100.576 176.427 100.576 176.427C100.16 180.112 102.889 184.46 102.889 184.46C96.2295 182.75 88.0649 165.801 88.0649 165.801L88.0668 165.799Z" fill="#1A1517"/>
<path opacity="0.26" d="M80.4156 115.668L79.9006 113.416L79.9082 113.427C79.8892 113.355 79.8721 113.287 79.855 113.216L79.4939 111.641C78.5645 107.028 78.3821 104.579 78.5284 104.119L78.4999 101.395C78.4999 101.395 84.0626 108.746 80.4156 115.668Z" fill="#1A1517"/>
<path d="M239.035 238.291L239.141 221.13C241.946 220.509 243.524 220.075 243.524 220.075C247.414 217.166 247.775 213.344 247.775 213.344C243.942 202.575 244.841 163.959 244.841 163.959C232.822 142.345 251.439 128.295 251.439 128.295C251.439 128.295 271.907 146.549 282.206 161.426C283.7 163.583 284.943 165.9 285.95 168.321C286.98 170.797 288.945 174.596 291.77 176.121C291.77 176.121 289.096 176.691 284.859 174.832C284.859 174.832 288.687 176.404 291.77 185.465C291.77 185.465 288.793 182.751 284.365 180.72C284.365 180.72 289.172 187.326 286.659 194.73C286.659 194.73 285.158 190.823 282.773 188.654C282.225 188.156 281.343 188.447 281.186 189.169C279.595 196.454 271.763 229.416 257.787 241.815C257.787 241.815 264.556 255.001 249.489 264.277C249.489 264.277 244.001 266.413 237.944 261.39C231.887 256.367 234.354 241.197 239.037 238.288L239.035 238.291Z" fill="#C8AA86"/>
<path opacity="0.26" d="M239.035 238.291L239.061 233.926C241.264 231.689 243.44 229.994 243.301 229.821C242.399 228.698 242.14 220.959 242.14 220.959L242.21 220.412C243.064 220.201 243.522 220.075 243.522 220.075C247.412 217.166 247.773 213.344 247.773 213.344C243.94 202.575 244.839 163.959 244.839 163.959C232.82 142.345 251.437 128.295 251.437 128.295C251.437 128.295 255.898 132.272 261.704 138.029C258.028 139.065 244.069 143.717 247.697 153.834C248.377 155.734 248.756 157.728 248.786 159.746C248.929 169.161 249.867 193.972 255.78 197.838C255.78 197.838 250.183 197.824 249.151 195.329C249.151 195.329 250.675 202.469 255.757 204.252C255.757 204.252 251.152 205.704 249.674 202.581C249.674 202.581 251.397 215.495 257.025 221.577C257.025 221.577 248.243 216.098 247.676 223.903C247.11 231.708 252.424 254.849 250.607 259.735C249.018 264.005 247.988 264.039 247.988 264.039C247.988 264.039 243.351 262.871 239.937 257.996C237.623 254.691 236.076 249.259 235.217 244.831C236.043 241.796 237.404 239.301 239.033 238.288L239.035 238.291Z" fill="#1A1517"/>
<path d="M254.066 176.529C255.774 178.251 257.184 180.216 258.807 181.976C259.064 182.223 259.326 182.514 259.619 182.706C259.663 182.736 259.706 182.767 259.75 182.801L257.935 182.924C258.279 182.533 258.627 182.058 258.876 181.581C259.15 181.009 259.653 180.543 260.265 180.361C260.888 180.167 261.601 180.271 262.145 180.634C262.692 180.973 263.268 181.26 263.865 181.552L262.025 182.459L262.171 182.06C262.702 180.503 263.247 178.914 263.576 177.301C263.69 176.704 263.785 176.102 263.739 175.437C264.651 176.465 264.891 177.915 264.99 179.243C265.071 180.591 264.961 181.913 264.693 183.234C264.509 184.057 263.614 184.466 262.854 184.141C262.069 183.896 261.272 183.584 260.537 183.173C260.896 183.411 261.447 183.263 261.635 182.867C261.179 183.759 260.56 184.553 259.801 185.207C259.311 185.646 258.581 185.646 258.093 185.235C257.95 185.118 257.694 184.903 257.561 184.779C255.637 182.719 254.408 179.302 254.068 176.533L254.066 176.529Z" fill="#84654A"/>
<path d="M254.601 208.471C256.209 209.357 257.5 210.696 259.106 211.468L257.036 212.618C257.099 212.278 257.19 211.974 257.312 211.652C257.517 211.122 257.847 210.56 258.286 210.14C258.275 210.155 258.267 210.18 258.269 210.202C258.353 210.17 258.45 210.031 258.554 209.847C258.859 209.307 259.17 208.579 259.398 207.943C259.476 207.701 259.566 207.458 259.579 207.158C259.866 207.287 260.069 207.547 260.236 207.798C260.936 208.933 261.221 210.727 260.402 211.917C260.39 211.934 260.36 211.97 260.352 211.987C260.261 212.266 260.151 212.587 260.081 212.901C260.067 212.95 260.037 213.093 260.029 213.131L257.96 214.281C255.74 213.304 254.438 210.805 254.598 208.467L254.601 208.471Z" fill="#84654A"/>
<g opacity="0.26">
<path d="M284.859 174.836C284.859 174.836 284.939 174.87 285.082 174.95L284.859 174.836Z" fill="#1A1517"/>
<path d="M284.859 174.836L280.42 170.666C283.981 169.3 287.269 172.641 288.438 174.026C288.77 174.42 289.173 174.745 289.628 174.986L291.769 176.123C291.769 176.123 289.095 176.693 284.859 174.834V174.836Z" fill="#1A1517"/>
</g>
<path opacity="0.26" d="M278.158 178.496C282.993 173.289 291.77 185.469 291.77 185.469C291.77 185.469 288.793 182.755 284.365 180.724L278.16 178.498L278.158 178.496Z" fill="#1A1517"/>
<path opacity="0.26" d="M282.773 188.658C282.74 188.63 282.706 188.603 282.672 188.579C282.649 188.561 282.624 188.548 282.6 188.535C282.59 188.529 282.579 188.522 282.569 188.518C282.537 188.501 282.505 188.487 282.47 188.474C282.47 188.474 282.467 188.474 282.465 188.472C282.429 188.459 282.393 188.447 282.356 188.44L282.343 188.411L282.337 188.434C282.277 188.421 282.216 188.413 282.155 188.413C282.151 188.413 282.147 188.413 282.145 188.413C282.026 188.413 281.908 188.432 281.796 188.474C281.788 188.476 281.783 188.48 281.777 188.482C281.724 188.503 281.672 188.527 281.625 188.556C281.625 188.556 281.623 188.556 281.621 188.558C281.573 188.588 281.528 188.622 281.484 188.66C281.475 188.668 281.467 188.675 281.459 188.683C281.42 188.721 281.383 188.761 281.351 188.805C281.351 188.807 281.347 188.809 281.345 188.812C281.313 188.858 281.285 188.909 281.258 188.962C281.252 188.976 281.247 188.987 281.241 189C281.218 189.056 281.197 189.113 281.184 189.173C281.184 189.173 281.184 189.175 281.184 189.177C279.591 196.467 271.761 229.422 257.785 241.821C257.785 241.821 257.806 241.863 257.842 241.939C257.756 241.859 257.669 241.781 257.583 241.701C260.124 235.333 262.937 229.078 265.815 222.858C268.553 216.936 271.322 211.056 272.643 204.619C274.004 197.988 272.47 189.521 277.282 184.622C283.529 178.263 286.657 194.734 286.657 194.734C286.657 194.734 286.41 194.09 285.956 193.178C285.886 193.037 285.812 192.891 285.732 192.739C285.454 192.208 285.118 191.619 284.73 191.026C284.177 190.181 283.518 189.335 282.773 188.656V188.658Z" fill="#1A1517"/>
<path d="M160.445 338.662C160.518 340.131 159.991 341.58 158.976 342.672C144.574 358.175 114.434 367.844 107.786 353.239C107.786 353.239 111.019 363.844 122.584 364.635C134.148 365.423 153.805 355.759 160.721 345.168C160.721 345.168 160.902 341.747 160.447 338.664L160.445 338.662Z" fill="#FDEFE4"/>
<path d="M136.22 321.031C143.74 333.217 160.352 325.817 160.352 325.817C160.307 328.409 159.793 334.761 160.369 337.969C160.675 339.668 160.153 341.407 158.976 342.672C144.574 358.175 114.434 367.844 107.786 353.239C100.829 337.955 136.22 321.031 136.22 321.031Z" fill="#22252B"/>
<path d="M175.172 282.836C175.172 282.836 174.769 295.789 166.137 308.268C166.137 308.268 162.372 314.817 163.25 318.487C163.25 318.487 157.03 313.853 157.268 306.734C157.268 306.734 152.668 314.365 146.61 316.82C146.61 316.82 143.35 310.564 145.004 305.372C145.004 305.372 137.685 311.976 133.437 312.979C133.437 312.979 131.944 286.711 134.961 277.328C149.305 286.376 168.285 284.08 175.17 282.834L175.172 282.836Z" fill="#C8AA86"/>
<path d="M119.744 339.541C121.687 340.426 128.827 343.868 131.603 347.747C131.839 348.076 132.303 348.133 132.611 347.87C133.403 347.198 134.84 346.067 135.969 345.687C136.195 345.611 136.243 345.312 136.056 345.164C134.099 343.615 126.816 338.014 122.648 337.087C122.337 337.019 122.014 337.081 121.753 337.266C121.265 337.612 120.4 338.25 119.649 338.94C119.457 339.117 119.509 339.432 119.746 339.542L119.744 339.541Z" fill="#FDEFE4"/>
<path d="M127.479 331.805C129.422 332.691 136.562 336.133 139.338 340.012C139.574 340.341 140.038 340.398 140.346 340.135C141.138 339.463 142.575 338.332 143.704 337.952C143.93 337.876 143.978 337.577 143.791 337.429C141.834 335.88 134.551 330.279 130.383 329.352C130.072 329.283 129.749 329.346 129.488 329.531C129 329.876 128.135 330.515 127.384 331.205C127.192 331.382 127.244 331.697 127.481 331.807L127.479 331.805Z" fill="#FDEFE4"/>
<path d="M145.004 305.373C143.349 310.566 146.61 316.822 146.61 316.822C152.667 314.367 157.268 306.736 157.268 306.736C157.099 311.786 160.177 315.581 161.983 317.364C161.983 317.364 160.278 323.329 160.35 325.815C160.35 325.815 143.74 333.218 136.218 321.03C136.218 321.03 136.636 315.516 137.079 311.341C140.916 309.059 145.004 305.372 145.004 305.372V305.373Z" fill="#F5BA5B"/>
<path d="M136.22 321.032C136.22 321.032 136.279 320.245 136.378 319.04C144.941 325.735 156.392 324.177 160.601 323.293C160.436 324.26 160.331 325.159 160.35 325.817C160.35 325.817 143.74 333.219 136.218 321.032H136.22Z" fill="#FDEFE4"/>
<path d="M154.928 286.549C155.711 289 155.987 293.001 154.905 295.38L154.731 295.726C154.434 296.314 153.756 296.58 153.151 296.374C152.822 296.268 152.488 296.143 152.18 295.992C151.64 295.734 151.139 295.415 150.673 295.035L150.633 295.002C150.694 295.055 150.764 295.095 150.842 295.128C151.179 295.274 151.61 295.145 151.811 294.844C151.8 294.862 151.745 294.928 151.732 294.945C151.213 295.597 150.614 296.165 149.991 296.688C149.441 297.157 148.615 297.091 148.147 296.542C147.919 296.245 147.746 295.951 147.556 295.641C146.551 293.892 145.593 291.752 145.903 289.694C145.943 289.533 145.988 289.377 146.04 289.229C146.262 289.829 146.577 290.316 146.908 290.793C147.239 291.264 147.598 291.714 147.967 292.155C148.588 292.904 149.293 293.685 149.955 294.405L150.232 294.698L148.183 294.592C148.613 294.088 149.021 293.602 149.384 293.073C149.407 293.043 149.479 292.952 149.504 292.921C150.217 292.06 151.587 291.91 152.471 292.589C152.919 292.959 153.453 293.307 153.963 293.546L152.247 294.149C152.283 294.084 152.323 294.022 152.364 293.961C152.902 292.923 153.174 291.821 153.537 290.684C153.963 289.301 154.364 287.919 154.928 286.555V286.549Z" fill="#84654A"/>
<path d="M140.64 294.231C142.094 295.97 142.453 298.647 141.229 300.651L138.875 300.886C138.639 300.656 138.308 300.394 138.056 300.198C138.035 300.179 138.035 300.175 138.008 300.168C137.892 300.126 137.767 300.075 137.655 300.022C136.499 299.332 135.912 298.041 135.843 296.779C135.841 296.488 135.864 296.167 136.028 295.911C136.21 296.139 136.417 296.276 136.615 296.418C137.147 296.779 137.799 297.171 138.331 297.418C138.496 297.496 138.668 297.551 138.719 297.53C138.759 297.524 138.69 297.484 138.677 297.479C139.259 297.568 139.833 297.832 140.289 298.14C140.564 298.326 140.802 298.516 141.039 298.754L138.685 298.991C139.513 297.539 139.831 295.778 140.64 294.233V294.231Z" fill="#84654A"/>
<path opacity="0.26" d="M175.172 282.835C175.172 282.835 174.769 295.789 166.137 308.268C166.137 308.268 162.372 314.817 163.251 318.487C163.251 318.487 157.526 314.218 157.273 307.584C157.802 305.33 158.775 303.197 160.12 301.299C163.098 297.097 166.307 289.299 154.195 284.384C153.471 284.09 152.769 283.75 152.095 283.366C161.791 284.81 170.856 283.617 175.17 282.835H175.172Z" fill="#1A1517"/>
<path opacity="0.26" d="M137.081 311.343C140.918 309.06 145.006 305.373 145.006 305.373C143.35 310.565 146.612 316.822 146.612 316.822C152.669 314.366 157.27 306.736 157.27 306.736C157.19 309.134 157.842 311.25 158.743 313C151.184 319.431 145.783 317.267 145.783 317.267L143.219 310.719C142.237 312.679 136.923 312.924 136.923 312.924C136.976 312.384 137.029 311.854 137.083 311.343H137.081Z" fill="#1A1517"/>
<path opacity="0.26" d="M136.22 321.032C136.22 321.032 136.472 317.702 136.794 314.258L136.879 314.095C138.27 315.191 138.873 317.008 138.426 318.722C138.006 320.33 137.643 322.25 137.932 323.316C137.322 322.643 136.748 321.887 136.22 321.03V321.032Z" fill="#1A1517"/>
<path opacity="0.26" d="M109.495 355.925C108.822 355.14 108.246 354.25 107.786 353.239C100.829 337.955 136.22 321.031 136.22 321.031C136.748 321.889 137.324 322.645 137.932 323.318C137.953 323.398 137.978 323.474 138.006 323.542C138.006 323.542 109.341 343.068 109.495 355.926V355.925Z" fill="#1A1517"/>
<path opacity="0.26" d="M159.503 326.153C160.044 325.95 160.35 325.815 160.35 325.815C160.305 328.407 159.792 334.759 160.367 337.967C160.673 339.666 160.151 341.405 158.974 342.671C150.783 351.487 137.503 358.414 126.349 360.066C145.428 356.476 156.207 334.164 159.503 326.153Z" fill="#1A1517"/>
<path d="M241.18 284.388C241.849 290.641 244.225 314.275 242.71 321.739C242.71 321.739 233.687 317.061 229.192 312.495C229.192 312.495 231.898 318.424 228.297 325.22C228.297 325.22 220.406 321.172 217.479 313.422C217.479 313.422 217.491 321.548 211.162 326.429C210.919 324.27 210.514 322.109 209.982 320.003C209.577 318.403 209.109 316.776 208.368 315.296C206.943 312.447 204.727 310.096 203.29 307.24C201.832 304.341 200.555 301.12 199.666 297.914C199.487 297.27 197.665 289.761 198.769 289.873C220.237 292.04 233.362 288.545 241.176 284.386L241.18 284.388Z" fill="#C8AA86"/>
<path d="M217.483 313.424C220.408 321.172 228.301 325.222 228.301 325.222C231.9 318.426 229.196 312.496 229.196 312.496C231.549 314.887 235.14 317.306 238.031 319.07L239.086 328.451C239.086 328.451 229.583 341.87 215.01 333.968L212.827 324.937C217.491 320.056 217.483 313.424 217.483 313.424Z" fill="#F5BA5B"/>
<path d="M238.63 324.409L239.084 328.449C239.084 328.449 229.582 341.869 215.009 333.966L214.374 331.338C228.897 331.861 236.022 326.872 238.63 324.409Z" fill="#FDEFE4"/>
<path d="M214.917 333.59L215.009 333.966C214.94 333.839 214.914 333.714 214.917 333.59Z" fill="#22252B"/>
<path d="M215.009 333.966C229.582 341.869 239.084 328.449 239.084 328.449C239.084 328.449 274.534 344.978 267.578 360.262C260.93 374.867 230.79 365.197 216.388 349.695C215.212 348.429 214.691 346.69 214.995 344.991C215.571 341.783 216.278 336.355 215.009 333.968V333.966Z" fill="#22252B"/>
<path d="M214.917 345.685C214.845 347.154 215.372 348.602 216.387 349.695C230.788 365.197 260.928 374.867 267.576 360.262C267.576 360.262 264.344 370.866 252.779 371.657C241.215 372.446 221.558 362.782 214.642 352.19C214.642 352.19 214.461 348.769 214.916 345.687L214.917 345.685Z" fill="#FDEFE4"/>
<path d="M255.829 346.563C253.887 347.448 246.747 350.89 243.97 354.769C243.735 355.098 243.271 355.155 242.963 354.893C242.17 354.22 240.734 353.089 239.605 352.709C239.379 352.633 239.331 352.335 239.517 352.186C241.475 350.637 248.758 345.037 252.925 344.109C253.237 344.041 253.56 344.104 253.821 344.288C254.309 344.634 255.174 345.272 255.924 345.962C256.116 346.139 256.065 346.454 255.827 346.565L255.829 346.563Z" fill="#FDEFE4"/>
<path d="M248.094 338.828C246.152 339.714 239.012 343.155 236.235 347.034C235.999 347.363 235.536 347.42 235.228 347.158C234.435 346.485 232.999 345.354 231.87 344.974C231.644 344.898 231.596 344.6 231.782 344.451C233.74 342.903 241.023 337.302 245.19 336.374C245.502 336.306 245.825 336.369 246.085 336.553C246.574 336.899 247.439 337.537 248.189 338.227C248.381 338.404 248.33 338.72 248.092 338.83L248.094 338.828Z" fill="#FDEFE4"/>
<path d="M218.367 293.311C219.211 295.586 219.68 297.958 220.431 300.233C220.564 300.565 220.68 300.936 220.868 301.232C220.896 301.278 220.923 301.325 220.948 301.371L219.245 300.732C219.72 300.518 220.233 300.231 220.657 299.898C221.141 299.489 221.793 299.275 222.426 299.364C223.074 299.446 223.681 299.835 224.025 300.39C224.384 300.924 224.789 301.424 225.21 301.937L223.16 302L223.458 301.696C224.585 300.499 225.739 299.277 226.706 297.944C227.056 297.448 227.392 296.939 227.626 296.316C227.945 297.296 227.767 298.364 227.512 299.341C227.037 300.957 226.254 302.45 225.269 303.809C224.762 304.482 223.777 304.484 223.219 303.872C222.605 303.323 222.01 302.711 221.508 302.032C221.738 302.397 222.299 302.49 222.635 302.209C221.852 302.832 220.957 303.298 219.997 303.579C219.37 303.777 218.705 303.475 218.429 302.897C218.35 302.73 218.203 302.43 218.135 302.262C217.236 299.59 217.531 295.97 218.367 293.309V293.311Z" fill="#84654A"/>
<path d="M233.175 301.685C233.955 303.348 234.211 305.189 235.057 306.757L232.708 306.47C232.959 306.231 233.212 306.039 233.499 305.85C233.977 305.543 234.574 305.282 235.177 305.2C235.158 305.206 235.139 305.223 235.125 305.242C235.211 305.265 235.371 305.21 235.564 305.123C236.129 304.864 236.809 304.459 237.368 304.079C237.571 303.931 237.788 303.787 237.976 303.551C238.132 303.823 238.143 304.153 238.13 304.455C238.029 305.786 237.205 307.403 235.842 307.884C235.825 307.89 235.781 307.905 235.764 307.911C235.585 308.044 235.412 308.154 235.213 308.321C235.089 308.418 234.935 308.549 234.827 308.65L232.478 308.363C231.256 306.267 231.674 303.481 233.177 301.685H233.175Z" fill="#84654A"/>
<path opacity="0.26" d="M199.141 289.909C220.391 292 233.411 288.52 241.18 284.388C241.849 290.641 244.225 314.275 242.71 321.739C242.71 321.739 239.732 320.195 236.346 318.016C239.403 312.607 237.258 292.821 224.236 294.219C212.654 295.464 202.422 291.399 199.14 289.911L199.141 289.909Z" fill="#1A1517"/>
<path opacity="0.26" d="M236.214 326.551C235.441 324.88 236.045 322.896 237.613 321.931L238.303 321.505L239.084 328.451C239.084 328.451 238.413 329.398 237.157 330.641L237.153 330.639C237.474 329.694 236.893 328.018 236.214 326.553V326.551Z" fill="#1A1517"/>
<g opacity="0.26">
<path d="M215.009 333.966C214.94 333.839 214.914 333.714 214.917 333.59L215.009 333.966Z" fill="#1A1517"/>
<path d="M237.157 330.639C238.415 329.396 239.084 328.449 239.084 328.449C239.084 328.449 274.534 344.978 267.578 360.262C266.926 361.693 266.046 362.888 264.982 363.871C267.664 348.503 237.465 330.819 237.157 330.64V330.639Z" fill="#1A1517"/>
</g>
<path d="M215.009 333.966C214.94 333.839 214.914 333.714 214.917 333.59L215.009 333.966Z" fill="#1A1517"/>
<path d="M216.386 349.695C215.21 348.429 214.689 346.69 214.993 344.991C215.569 341.783 216.276 336.355 215.007 333.968C215.664 334.326 216.312 334.637 216.949 334.909C219.705 341.528 230.802 364.899 250.994 367.33C239.468 366.263 225.068 359.041 216.385 349.695H216.386Z" fill="#1A1517"/>
<g opacity="0.26">
<path d="M233.812 319.348C232.459 319.046 231.003 318.517 230.463 317.599L230.133 318.838C230.38 315.1 229.192 312.493 229.192 312.493C231.417 314.754 234.751 317.041 237.552 318.774C236.431 319.42 235.097 319.633 233.81 319.346L233.812 319.348Z" fill="#1A1517"/>
<path d="M217.483 313.424C220.408 321.172 228.301 325.222 228.301 325.222C228.403 325.03 228.498 324.837 228.591 324.646L228.34 325.593C228.34 325.593 223.177 327.286 215.307 321.495C217.487 317.425 217.485 313.426 217.485 313.426L217.483 313.424Z" fill="#1A1517"/>
</g>
<path d="M140.446 170.798C140.446 170.798 151.448 153.678 137.746 118.648C137.746 118.648 142.864 116.675 152.368 114.328C152.368 114.328 160.411 127.86 187.185 142.653C187.185 142.653 218.903 134.177 235.606 118.766C235.606 118.766 248.243 123.234 251.439 128.297C251.439 128.297 232.822 142.347 244.841 163.961C244.603 174.192 244.689 184.462 245.249 194.677C245.435 198.06 245.679 201.443 246.084 204.809C246.435 207.736 248.064 210.849 247.68 213.829C246.889 219.965 240.025 221.009 235.099 221.972C229.629 223.042 224.11 223.869 218.566 224.462C203.167 226.113 187.383 226.064 172.17 222.92C161.401 220.695 150.878 216.824 141.722 210.658C141.722 210.658 138.979 209.151 139.466 203.323C139.466 203.323 141.701 176.79 140.448 170.799L140.446 170.798Z" fill="#BF3A39"/>
<path d="M246.794 124.125H246.8C248.782 125.404 250.508 126.824 251.437 128.297C251.437 128.297 232.82 142.347 244.839 163.962C244.839 163.962 244.787 166.196 244.761 169.741C240.348 165.292 236.509 157.053 235.935 147.881C235.196 136.095 246.792 124.127 246.792 124.127L246.794 124.125Z" fill="#FDEFE4"/>
<path d="M145.85 116.06C147.718 115.527 149.892 114.942 152.368 114.33C152.368 114.33 160.411 127.862 187.185 142.655C187.185 142.655 218.903 134.179 235.606 118.768C235.606 118.768 238.223 119.693 241.376 121.178C234.721 127.787 212.361 147.119 185.75 149.149C185.75 149.149 162.31 141.355 145.852 116.06H145.85Z" fill="#FDEFE4"/>
<path d="M140.821 178.494C140.857 175.127 140.762 172.308 140.446 170.797C140.446 170.797 151.448 153.678 137.746 118.648C137.746 118.648 139.413 118.005 142.604 117.019C147.741 125.866 161.736 154.843 140.821 178.492V178.494Z" fill="#FDEFE4"/>
<path d="M141.72 210.658C141.72 210.658 138.977 209.151 139.464 203.323C139.464 203.323 139.707 200.426 139.99 196.331C144.207 199.795 151.637 204.712 159.423 204.252C171.341 203.549 167.508 189.601 163.564 187.735C159.621 185.868 153.845 189.458 153.845 189.458C151.45 181.851 158.775 180.724 158.775 180.724C168.494 179.737 176.913 193.06 176.913 193.06C185.473 178.631 197.634 182.164 197.634 182.164C215.645 187.548 205.479 200.379 205.479 200.379C208.777 189.464 196.013 190.872 196.013 190.872C183.949 196.794 194.696 209.602 206.568 212.985C218.03 216.252 243.964 202.503 245.74 201.551C245.84 202.638 245.952 203.724 246.082 204.807C246.433 207.734 248.062 210.847 247.678 213.827C246.887 219.963 240.023 221.007 235.097 221.97C229.627 223.04 224.108 223.867 218.564 224.46C203.165 226.111 187.381 226.062 172.168 222.919C161.399 220.693 150.876 216.822 141.72 210.657V210.658Z" fill="#F5BA5B"/>
<path d="M176.911 193.062C176.911 193.062 174.374 189.048 170.478 185.589C172.637 180.925 177.443 177.677 177.443 177.677C181.225 180.097 182.769 184.593 183.116 185.762C180.986 187.438 178.857 189.785 176.913 193.062H176.911Z" fill="#F79F1F"/>
<path d="M214.592 191.361C214.592 191.361 213.496 211.681 199.835 203.106C199.835 203.106 204.98 213.125 218.08 206.152C218.08 206.152 222.835 203.406 223.574 198.758C223.574 198.758 222.514 200.84 218.977 200.381C218.977 200.381 222.897 197.098 220.594 192.539C220.594 192.539 220.193 195.798 216.812 197.383C216.812 197.383 217.023 193.157 214.594 191.361H214.592Z" fill="#F79F1F"/>
<path d="M159.231 194.32C159.231 194.32 148.877 197.066 148.984 183.86C148.984 183.86 146.977 187.03 148.033 189.565C148.033 189.565 145.397 188.236 145.025 186.049C145.025 186.049 143.848 189.671 146.258 191.889C146.258 191.889 143.324 191.598 142.562 189.208C142.562 189.208 143.639 196.437 151.964 196.91C151.964 196.91 155.006 198.123 159.231 194.32Z" fill="#F79F1F"/>
<path opacity="0.26" d="M237.621 125.778C234.308 124.623 230.511 124.574 227.989 124.722C230.729 122.871 233.31 120.883 235.606 118.766C235.606 118.766 248.243 123.234 251.439 128.297C251.439 128.297 232.822 142.347 244.841 163.961C244.603 174.192 244.689 184.462 245.249 194.677C245.435 198.06 245.679 201.443 246.084 204.809C246.435 207.735 248.064 210.848 247.68 213.828C246.889 219.965 240.025 221.008 235.099 221.972C229.853 222.998 224.562 223.796 219.25 224.386C226.463 221.82 244.014 201.439 234.186 175.146C227.1 156.184 235.304 142.012 240.435 135.577C243.117 132.215 241.68 127.196 237.623 125.778H237.621Z" fill="#1A1517"/>
<path opacity="0.31" d="M152.368 114.33C151.785 87.3277 156.034 69.9496 161.856 58.7671H161.859C163.173 56.247 164.564 54.0368 165.999 52.1078C166.097 52.0621 166.196 52.0222 166.295 51.9842C166.291 51.8892 166.295 51.7923 166.312 51.6897C175.853 39.1749 187.128 38.6238 189.278 38.639C187.664 40.6763 178.911 51.2639 169.986 52.8851C169.087 53.0485 168.378 53.1036 167.833 53.0713C169.744 56.9198 177.358 67.9579 202.102 69.0431C202.102 69.0431 200.246 68.9861 197.231 68.72C188.17 67.8077 177.991 65.74 167.35 61.711C165.396 62.4693 160.664 65.3257 158.699 75.5257C156.192 88.5383 155.189 107.823 156.817 113.944C158.281 119.44 164.552 123.393 161.035 124.186C165.301 128.183 171.383 133.09 179.792 138.322L179.794 138.324C179.794 138.324 157.224 124.184 149.468 127.55C145.454 129.293 142.978 129.792 141.366 129.378C140.418 126.01 139.226 122.434 137.746 118.65C137.746 118.65 142.864 116.677 152.368 114.33ZM156.66 119.762C156.749 119.86 156.84 119.959 156.931 120.06C156.838 119.959 156.749 119.86 156.66 119.762ZM155.861 118.866C155.968 118.988 156.078 119.113 156.19 119.241C156.078 119.113 155.968 118.99 155.861 118.866ZM159.22 122.436C159.13 122.346 159.039 122.257 158.952 122.168C159.039 122.257 159.128 122.346 159.22 122.436ZM160.949 124.106C160.862 124.022 160.774 123.941 160.689 123.859C160.776 123.941 160.862 124.022 160.949 124.106ZM160.269 123.46C160.158 123.354 160.048 123.249 159.942 123.144C160.05 123.249 160.158 123.354 160.269 123.46ZM159.712 122.92C159.621 122.831 159.529 122.742 159.44 122.652C159.529 122.74 159.621 122.831 159.712 122.92ZM157.452 120.621C157.589 120.765 157.728 120.911 157.87 121.062C157.728 120.913 157.589 120.765 157.452 120.621ZM158.471 121.679C158.564 121.774 158.657 121.869 158.752 121.964C158.657 121.867 158.564 121.772 158.471 121.679ZM152.625 114.729C152.568 114.644 152.52 114.571 152.482 114.512C152.52 114.571 152.566 114.644 152.625 114.729ZM155.151 118.034C155.069 117.937 154.989 117.84 154.911 117.747C154.989 117.842 155.069 117.937 155.151 118.034ZM154.852 117.675C154.774 117.58 154.696 117.487 154.622 117.395C154.696 117.487 154.772 117.58 154.852 117.675ZM153.837 116.401C153.773 116.318 153.712 116.238 153.653 116.158C153.712 116.236 153.775 116.318 153.837 116.401ZM153.623 116.118C153.566 116.042 153.51 115.97 153.459 115.9C153.512 115.97 153.566 116.044 153.623 116.118ZM153.436 115.869C153.256 115.624 153.098 115.408 152.965 115.219C153.098 115.408 153.254 115.626 153.436 115.869ZM152.957 115.206C152.917 115.149 152.879 115.096 152.845 115.045C152.881 115.096 152.917 115.149 152.957 115.206ZM152.718 114.858C152.688 114.815 152.659 114.771 152.634 114.733C152.661 114.773 152.689 114.815 152.718 114.858ZM152.382 114.339C152.382 114.339 152.391 114.353 152.397 114.364C152.391 114.355 152.385 114.345 152.382 114.339ZM152.44 114.433C152.452 114.452 152.467 114.472 152.482 114.497C152.467 114.472 152.454 114.452 152.44 114.433Z" fill="white"/>
<path opacity="0.26" d="M139.464 203.321C139.464 203.321 139.464 203.311 139.464 203.3C139.464 203.281 139.468 203.245 139.472 203.201C139.472 203.189 139.473 203.178 139.475 203.165C139.475 203.155 139.475 203.146 139.477 203.136C139.477 203.131 139.477 203.123 139.477 203.115C139.479 203.087 139.481 203.06 139.485 203.026C139.485 203.024 139.485 203.02 139.485 203.018C139.487 202.994 139.489 202.961 139.492 202.933C139.492 202.925 139.492 202.92 139.492 202.91C139.492 202.889 139.496 202.868 139.498 202.845C139.506 202.756 139.513 202.654 139.523 202.541C139.523 202.534 139.523 202.526 139.523 202.519C139.527 202.471 139.53 202.422 139.534 202.37C139.534 202.363 139.534 202.357 139.534 202.349C139.536 202.315 139.54 202.283 139.542 202.247C139.546 202.19 139.551 202.135 139.555 202.074C139.555 202.07 139.555 202.064 139.555 202.061C139.557 202.026 139.561 201.99 139.563 201.954C139.567 201.91 139.57 201.867 139.572 201.823C139.576 201.783 139.578 201.741 139.582 201.699C139.589 201.604 139.597 201.506 139.605 201.403C139.606 201.376 139.608 201.348 139.61 201.319C139.614 201.27 139.618 201.221 139.622 201.169C139.625 201.126 139.629 201.078 139.633 201.034C139.637 200.989 139.641 200.943 139.644 200.896C139.648 200.837 139.654 200.778 139.658 200.717C139.662 200.668 139.665 200.616 139.669 200.567C139.669 200.561 139.669 200.555 139.669 200.548C139.677 200.453 139.684 200.356 139.692 200.255C139.692 200.23 139.696 200.204 139.698 200.179C139.703 200.101 139.709 200.021 139.715 199.94C139.72 199.856 139.728 199.77 139.734 199.685C139.734 199.677 139.734 199.67 139.734 199.662C139.738 199.601 139.743 199.541 139.747 199.478C139.747 199.474 139.747 199.47 139.747 199.466C139.755 199.36 139.762 199.252 139.772 199.141C139.776 199.086 139.779 199.031 139.783 198.976C139.785 198.94 139.789 198.902 139.791 198.864C139.795 198.815 139.798 198.765 139.802 198.716C139.806 198.655 139.812 198.594 139.816 198.531C139.819 198.476 139.823 198.417 139.827 198.36C139.833 198.28 139.838 198.201 139.844 198.119C139.848 198.064 139.852 198.005 139.855 197.95C139.859 197.904 139.861 197.859 139.865 197.811C139.871 197.735 139.876 197.661 139.88 197.585C139.882 197.555 139.884 197.524 139.886 197.492C139.89 197.446 139.892 197.399 139.895 197.353C139.903 197.249 139.911 197.146 139.918 197.039C139.922 196.981 139.926 196.922 139.93 196.863C139.935 196.785 139.941 196.707 139.947 196.629C139.95 196.58 139.954 196.532 139.956 196.483C139.958 196.441 139.962 196.401 139.964 196.359C139.964 196.355 139.964 196.351 139.964 196.348C140.534 188.05 141.262 174.806 140.422 170.79C140.422 170.79 143.575 165.881 144.401 155.945C145.418 160.098 151.555 187.1 151.182 202.939C153.782 203.864 156.566 204.411 159.398 204.244C171.316 203.541 167.483 189.593 163.539 187.727C159.596 185.861 153.82 189.451 153.82 189.451C153.82 189.451 161.639 177.124 170.085 190.374C175.72 199.214 165.928 208.366 156.194 207.395C153.419 207.118 150.753 208.547 149.55 211.065C149.335 211.516 149.096 213.509 148.831 214.866C148.525 214.708 148.221 214.547 147.917 214.385C147.315 214.064 146.716 213.733 146.123 213.393C146.118 213.389 146.11 213.386 146.104 213.382C145.836 213.228 145.568 213.072 145.302 212.916C145.27 212.897 145.24 212.88 145.207 212.861C144.962 212.717 144.717 212.568 144.474 212.42C144.422 212.39 144.371 212.359 144.32 212.327C144.095 212.19 143.871 212.05 143.647 211.911C143.577 211.867 143.508 211.825 143.438 211.782C143.219 211.643 143.001 211.502 142.782 211.362C142.71 211.314 142.638 211.268 142.566 211.223C142.277 211.035 141.988 210.843 141.701 210.651C141.701 210.651 138.958 209.144 139.445 203.315L139.464 203.321Z" fill="#1A1517"/>
<path opacity="0.26" d="M174.946 190.356C174.652 186.971 179.754 183.022 181.372 181.86C182.4 183.561 182.928 185.137 183.114 185.762C180.984 187.438 178.855 189.785 176.911 193.062C176.911 193.062 176.197 191.933 174.946 190.356Z" fill="#1A1517"/>
<path opacity="0.31" d="M205.966 199.689C206.019 199.214 206.435 198.109 206.475 197.872C206.743 196.287 206.808 194.552 206.283 193.008C204.32 187.235 197.684 186.53 192.455 187.083C186.99 187.659 179.657 188.755 177.158 194.563C177.027 194.039 176.964 193.51 176.963 192.982C185.519 178.65 197.634 182.168 197.634 182.168C213.138 186.803 207.764 196.956 205.968 199.691L205.966 199.689Z" fill="white"/>
<path opacity="0.26" d="M218.975 200.379C222.512 200.839 223.572 198.756 223.572 198.756C222.833 203.404 218.078 206.15 218.078 206.15C204.978 213.123 199.833 203.104 199.833 203.104C213.289 213.756 218.973 200.377 218.973 200.377L218.975 200.379Z" fill="#1A1517"/>
<path d="M156.593 161.922C157.072 161.783 157.705 161.65 158.516 161.597C159.514 161.533 160.263 161.791 160.751 162.276C161.194 162.715 161.487 163.408 161.527 164.271C161.566 165.149 161.388 165.85 161.038 166.371C160.555 167.092 159.742 167.508 158.794 167.57C158.503 167.589 158.235 167.593 158.007 167.538C158.117 169.091 158.174 169.866 158.284 171.417C157.906 171.444 157.718 171.459 157.34 171.487C157.091 168.298 156.842 165.111 156.593 161.922ZM157.935 166.518C158.153 166.575 158.425 166.584 158.75 166.563C159.928 166.485 160.609 165.717 160.538 164.38C160.47 163.099 159.712 162.517 158.604 162.589C158.165 162.618 157.834 162.684 157.665 162.755C157.773 164.26 157.826 165.014 157.935 166.519V166.518Z" fill="#2C170E"/>
<path d="M169.404 166.099C169.395 168.129 168.319 171.177 165.978 171.233C163.659 171.286 162.536 168.448 162.492 166.405C162.445 164.161 163.435 161.253 165.921 161.206C168.239 161.162 169.414 164.043 169.404 166.099ZM163.535 166.337C163.604 168.41 164.52 170.233 166.016 170.208C167.523 170.182 168.374 168.357 168.372 166.154C168.372 164.224 167.563 162.201 165.892 162.23C164.231 162.258 163.465 164.208 163.535 166.339V166.337Z" fill="#2C170E"/>
<path d="M170.742 161.489C171.253 161.367 171.985 161.308 172.679 161.329C173.756 161.36 174.441 161.639 174.902 162.2C175.271 162.648 175.461 163.321 175.427 164.068C175.368 165.349 174.699 166.168 173.891 166.483C173.891 166.5 173.891 166.51 173.891 166.527C174.463 166.808 174.777 167.517 174.912 168.53C175.091 169.891 175.224 170.837 175.357 171.219C174.967 171.2 174.771 171.191 174.382 171.176C174.273 170.896 174.14 170.05 173.983 168.838C173.808 167.496 173.429 166.97 172.55 166.903C172.183 166.894 172 166.888 171.635 166.88C171.599 168.562 171.58 169.404 171.544 171.086C171.168 171.079 170.978 171.075 170.602 171.069C170.649 167.876 170.697 164.683 170.746 161.491L170.742 161.489ZM171.653 165.928C172.052 165.938 172.253 165.942 172.652 165.953C173.696 165.983 174.387 165.276 174.431 164.168C174.48 162.916 173.772 162.331 172.721 162.295C172.242 162.277 171.89 162.331 171.729 162.386C171.698 163.804 171.683 164.512 171.653 165.928Z" fill="#2C170E"/>
<path d="M176.381 169.742C176.788 170.111 177.39 170.434 178.044 170.478C179.011 170.543 179.629 169.914 179.705 168.937C179.775 168.032 179.412 167.456 178.439 166.909C177.28 166.257 176.529 165.407 176.603 164.039C176.685 162.528 177.753 161.456 179.266 161.565C180.062 161.622 180.621 161.897 180.946 162.171C180.802 162.57 180.731 162.77 180.589 163.169C180.351 162.977 179.859 162.648 179.158 162.599C178.103 162.524 177.652 163.294 177.612 163.955C177.557 164.862 177.996 165.333 179.002 165.924C180.235 166.648 180.809 167.496 180.689 168.916C180.564 170.41 179.625 171.622 177.909 171.508C177.208 171.461 176.457 171.145 176.084 170.778C176.202 170.364 176.261 170.157 176.381 169.741V169.742Z" fill="#2C170E"/>
<path d="M186.049 167.553C184.887 167.413 184.306 167.35 183.141 167.232C183.002 168.625 182.932 169.323 182.791 170.716C184.059 170.843 184.692 170.913 185.954 171.067C185.902 171.485 185.878 171.694 185.826 172.111C184.198 171.911 183.382 171.824 181.75 171.67C182.052 168.447 182.352 165.225 182.654 162.002C184.331 162.158 185.167 162.249 186.837 162.452C186.786 162.87 186.761 163.08 186.71 163.496C185.448 163.342 184.815 163.271 183.55 163.146C183.428 164.368 183.365 164.978 183.244 166.198C184.416 166.316 185.002 166.381 186.172 166.521C186.123 166.934 186.098 167.139 186.049 167.551V167.553Z" fill="#2C170E"/>
<path d="M187.041 172.266C187.463 169.058 187.883 165.848 188.305 162.64C188.74 162.697 188.958 162.728 189.392 162.787C189.99 164.516 190.564 166.257 191.106 168.004C191.484 169.214 191.745 170.292 191.929 171.329C191.938 171.326 191.944 171.324 191.954 171.318C192.079 170.024 192.246 168.855 192.491 167.363C192.756 165.759 192.887 164.957 193.149 163.355C193.523 163.416 193.71 163.448 194.084 163.511C193.54 166.702 192.995 169.891 192.451 173.082C192.075 173.017 191.889 172.987 191.513 172.924C191.019 171.174 190.494 169.427 189.943 167.694C189.58 166.548 189.23 165.379 188.987 164.284C188.972 164.288 188.966 164.29 188.951 164.294C188.841 165.514 188.704 166.673 188.483 168.272C188.257 169.915 188.143 170.738 187.917 172.382C187.565 172.335 187.39 172.31 187.037 172.264L187.041 172.266Z" fill="#2C170E"/>
<path d="M196.804 164.001C196.201 167.181 195.6 170.362 194.998 173.542C194.627 173.471 194.443 173.437 194.073 173.371C194.654 170.187 195.234 167.002 195.815 163.819C196.211 163.891 196.408 163.927 196.804 164.003V164.001Z" fill="#2C170E"/>
<path d="M202.134 174.636C201.674 174.733 200.789 174.861 199.829 174.644C198.753 174.401 197.942 173.846 197.423 172.814C196.965 171.9 196.817 170.533 197.121 169.064C197.588 166.801 199.614 164.345 202.224 165.024C203.069 165.244 203.735 165.626 204.012 165.9C203.822 166.274 203.727 166.462 203.539 166.839C203.191 166.519 202.727 166.219 201.969 166.044C199.909 165.571 198.504 167.435 198.141 169.211C197.803 170.87 198.138 173.192 200.122 173.646C200.726 173.785 201.167 173.768 201.412 173.679C201.678 172.552 201.809 171.987 202.075 170.86C201.481 170.72 201.184 170.653 200.589 170.518C200.677 170.125 200.722 169.927 200.81 169.534C201.781 169.752 202.266 169.864 203.233 170.098C202.794 171.913 202.573 172.82 202.134 174.635V174.636Z" fill="#2C170E"/>
<path d="M205.346 172.741C204.738 173.846 204.436 174.399 203.839 175.507C203.461 175.41 203.273 175.362 202.895 175.269C204.493 172.327 206.127 169.408 207.802 166.508C208.271 166.633 208.505 166.696 208.974 166.825C208.957 170.176 208.896 173.521 208.79 176.869C208.402 176.755 208.21 176.698 207.823 176.588C207.859 175.328 207.874 174.697 207.899 173.435C206.88 173.148 206.369 173.009 205.346 172.743V172.741ZM207.971 172.437C207.988 171.282 207.996 170.704 208.001 169.547C208.005 168.891 208.045 168.304 208.081 167.732C208.072 167.73 208.068 167.728 208.058 167.726C207.796 168.252 207.52 168.79 207.226 169.322C206.644 170.33 206.357 170.835 205.787 171.846C206.661 172.076 207.099 172.194 207.969 172.439L207.971 172.437Z" fill="#2C170E"/>
<path d="M217.048 175.051C217.443 173.754 217.914 172.194 218.325 171.056C218.312 171.052 218.306 171.048 218.293 171.044C217.667 172.031 216.97 173.07 216.175 174.214C215.06 175.824 214.511 176.634 213.427 178.259C213.156 178.167 213.019 178.124 212.747 178.034C212.87 176.13 212.926 175.174 213.019 173.264C213.091 171.852 213.171 170.564 213.304 169.399C213.294 169.397 213.29 169.395 213.281 169.391C212.901 170.541 212.363 172.078 211.869 173.449C211.301 175.016 211.017 175.799 210.451 177.367C210.107 177.261 209.934 177.21 209.59 177.105C210.689 174.055 211.795 171.008 212.908 167.966C213.401 168.116 213.646 168.192 214.136 168.346C214.081 170.297 214.047 171.272 213.959 173.219C213.891 174.454 213.8 175.545 213.663 176.562C213.676 176.565 213.682 176.567 213.693 176.571C214.178 175.699 214.765 174.771 215.474 173.716C216.584 172.107 217.147 171.307 218.285 169.714C218.772 169.883 219.015 169.967 219.499 170.14C218.566 173.243 217.626 176.343 216.677 179.443C216.329 179.317 216.155 179.256 215.807 179.133C216.303 177.498 216.55 176.683 217.042 175.047L217.048 175.051Z" fill="#2C170E"/>
<path d="M220.142 177.468C219.418 178.5 219.058 179.017 218.346 180.057C217.979 179.92 217.795 179.851 217.428 179.718C219.332 176.963 221.272 174.235 223.249 171.533C223.705 171.708 223.931 171.797 224.385 171.976C224.015 175.305 223.602 178.628 223.144 181.948C222.77 181.792 222.582 181.716 222.207 181.564C222.377 180.313 222.458 179.688 222.616 178.436C221.63 178.04 221.134 177.848 220.142 177.472V177.468ZM222.793 177.447C222.932 176.299 223 175.725 223.127 174.574C223.2 173.922 223.302 173.342 223.399 172.778C223.39 172.774 223.386 172.772 223.378 172.77C223.061 173.266 222.73 173.77 222.379 174.268C221.692 175.207 221.352 175.678 220.678 176.624C221.527 176.947 221.949 177.113 222.793 177.449V177.447Z" fill="#2C170E"/>
<path d="M141.167 210.2C141.486 210.529 141.722 210.658 141.722 210.658C150.878 216.822 161.401 220.695 172.169 222.92C187.381 226.064 203.167 226.113 218.566 224.462C224.108 223.867 229.627 223.042 235.099 221.972C237.457 221.51 240.257 221.029 242.623 219.982C242.623 219.982 246.34 264.3 251.755 274.897C251.755 274.897 241.429 297.433 187.942 288.4C187.942 288.4 179.063 258.914 179.365 246.582C179.365 246.582 175.431 275.106 177.808 282.29C177.808 282.29 149.875 289.322 131.997 275.241C131.997 275.241 141.811 223.679 141.167 210.198V210.2Z" fill="#BF3A39"/>
<path d="M234.557 286.76C234.614 282.587 247.847 269.623 247.847 269.623L228.394 265.456C240.069 262.158 244.653 256.35 244.653 256.35L223.96 251.947C227.147 252 241.422 240.692 241.422 240.692C235.492 239.616 220.862 235.487 220.862 235.487C233.801 230.834 238.058 222.618 238.696 221.233C240.04 220.917 241.391 220.526 242.623 219.98C242.623 219.98 246.34 264.298 251.755 274.895C251.755 274.895 248.302 282.431 235.049 287.039L234.559 286.758L234.557 286.76Z" fill="#FDEFE4"/>
<path opacity="0.26" d="M141.267 210.301C141.534 210.554 141.72 210.658 141.72 210.658C150.876 216.822 161.399 220.695 172.168 222.92C187.379 226.064 203.165 226.113 218.564 224.462C224.106 223.867 229.625 223.042 235.097 221.972C237.455 221.51 240.255 221.029 242.621 219.982C242.621 219.982 246.338 264.3 251.753 274.897C251.753 274.897 248.97 280.967 238.816 285.545C236.256 278.468 236.912 250.536 238.717 242.526C240.715 233.669 231.509 225.412 204.487 228.361C177.466 231.311 142.623 215.634 142.623 215.634L141.267 210.301Z" fill="#1A1517"/>
<path opacity="0.24" d="M179.053 244.151C178.958 241.8 179.065 239.443 179.376 237.111L180.108 231.63C180.108 231.63 187.704 284.323 206.876 290.449C201.26 290.23 194.975 289.588 187.942 288.4C187.942 288.4 179.063 258.914 179.365 246.582C179.365 246.582 179.304 247.021 179.203 247.804L179.055 244.149L179.053 244.151Z" fill="white"/>
<g opacity="0.24">
<path d="M131.997 275.241C131.997 275.241 137.721 245.164 140.139 224.946C138.66 240.175 135.878 273.426 139.105 279.589C136.628 278.434 134.234 277.003 131.997 275.241Z" fill="white"/>
</g>
<path d="M235.606 118.766C235.606 118.766 244.073 63.8546 217.202 47.9114C217.202 47.9114 219.893 44.9656 226.522 45.1576C226.522 45.1576 223.686 42.1092 217.755 42.7439C217.755 42.7439 218.642 38.8327 223.926 39.3439C223.926 39.3439 217.407 36.4001 205.841 38.5514C205.841 38.5514 206.255 35.885 208.927 34.4901C208.927 34.4901 199.662 33.9142 189.643 38.6465C189.643 38.6465 150.675 36.02 152.37 114.328C152.37 114.328 160.413 127.859 187.187 142.653C187.187 142.653 218.905 134.177 235.608 118.766H235.606Z" fill="#C8AA86"/>
<path d="M161.563 59.3391C163.315 55.8783 165.216 52.9952 167.175 50.593C173.464 53.9835 193.122 62.3875 227.558 58.1646C229.308 60.8918 230.748 63.8813 231.925 67.0285C223.852 68.8264 194.287 73.7924 161.563 59.3372V59.3391Z" fill="#FDEFE4"/>
<path d="M215.383 83.9183L205.688 83.4451L196.697 86.9287L194.379 90.7677C194.379 90.7677 195.724 93.379 198.223 94.4565C200.723 95.5341 205.396 96.0872 205.396 96.0872L211.749 93.4075L214.484 89.2226L215.425 83.6617" fill="#FDEFE4"/>
<path d="M201.418 89.0781C201.329 88.6771 201.312 88.2761 201.355 87.8884C201.747 88.3445 202.368 88.5745 202.995 88.4339C203.9 88.2324 204.47 87.3335 204.269 86.4288C204.128 85.8017 203.655 85.3361 203.077 85.1764C203.41 84.9731 203.778 84.8172 204.181 84.7279C206.145 84.2889 208.093 85.5261 208.53 87.4893C208.969 89.4525 207.731 91.4005 205.768 91.8377C203.805 92.2767 201.857 91.0394 201.42 89.0762L201.418 89.0781Z" fill="#1A1517"/>
<path opacity="0.14" d="M194.554 91.0431C194.554 91.0431 195.863 93.6867 198.459 94.8669C201.057 96.0471 210.271 96.7123 211.705 94.3177C213.138 91.9249 215.174 86.2368 215.174 86.2349C214.271 88.7568 212.466 90.9671 210.136 92.2993C207.458 93.8292 204.242 93.9737 201.262 93.4757C200.131 93.2876 199.018 93.0139 197.916 92.7022C197.286 92.5236 196.665 92.3088 196.076 92.0257C195.679 91.8337 194.757 91.4593 194.552 91.0431H194.554Z" fill="#1A1517"/>
<path d="M220.782 85.4633C211.73 83.7168 200.97 83.139 194.495 90.9025C193.024 92.5959 191.889 94.4774 190.792 96.4767C191.144 94.1942 191.954 91.9326 193.181 89.9466C196.178 84.9749 201.667 82.3465 207.365 82.1793C212.027 82.0443 216.74 83.1466 220.782 85.4633Z" fill="#84654A"/>
<path d="M215.383 83.9164C216.141 87.9702 214.627 92.4649 211.316 95.0362C207.918 97.7273 203.015 98.3089 199.191 96.2069C196.868 94.945 194.603 92.7538 194.065 90.1083C195.475 92.1551 197.716 93.5824 199.985 94.4338C203.286 95.6786 207.042 95.1313 209.927 93.1548C213 91.0775 214.619 87.4989 215.381 83.9146L215.383 83.9164Z" fill="#84654A"/>
<path d="M161.635 80.18L169.573 81.5484L176.227 85.9955L177.411 89.5229C177.411 89.5229 175.849 91.3949 173.631 91.8168C171.411 92.2387 167.527 91.8415 167.527 91.8415L162.865 88.5232L161.405 84.6386L161.648 79.9634" fill="#FDEFE4"/>
<path d="M170.898 83.2645C170.558 83.2474 170.227 83.2892 169.915 83.3766C170.343 83.6332 170.617 84.1102 170.59 84.6443C170.55 85.4121 169.895 86.0031 169.127 85.9632C168.595 85.9347 168.148 85.6135 167.937 85.1612C167.817 85.4615 167.741 85.7846 167.722 86.1267C167.637 87.7934 168.918 89.2169 170.584 89.3024C172.251 89.3879 173.675 88.107 173.76 86.4402C173.846 84.7735 172.565 83.35 170.898 83.2645Z" fill="#1A1517"/>
<path opacity="0.14" d="M177.221 89.7147C177.221 89.7147 175.684 91.619 173.367 92.1056C171.05 92.5921 163.465 91.4651 162.735 89.2681C162.006 87.0711 161.386 82.0957 161.386 82.0938C161.662 84.3002 162.724 86.4155 164.372 87.9169C166.265 89.6406 168.844 90.3381 171.347 90.473C172.297 90.5243 173.249 90.5053 174.197 90.4521C174.739 90.4217 175.281 90.359 175.809 90.2355C176.164 90.1518 176.98 90.015 177.221 89.7147Z" fill="#1A1517"/>
<path d="M156.981 80.4556C162.46 78.5931 169.144 79.1157 173.956 82.5594C174.349 82.8768 174.768 83.1904 175.132 83.5401C175.744 84.1197 176.339 84.7564 176.824 85.4463C177.987 87.0522 178.81 89.0021 179.125 90.9368C179.372 92.212 179.386 93.5082 179.283 94.7967C179.167 94.4945 179.072 94.1905 178.966 93.8921C178.905 93.7134 178.804 93.3904 178.747 93.2212C178.477 92.575 178.27 91.9042 177.962 91.2884C174.249 82.5689 165.537 81.0257 156.979 80.4556H156.981Z" fill="#84654A"/>
<path d="M161.635 80.1799C161.7 82.2724 162.047 84.3496 162.929 86.1912C164.168 88.7702 166.574 90.6231 169.342 91.2066C171.236 91.5829 173.232 91.3149 175.07 90.6117C176.045 90.2297 176.982 89.7603 177.784 89.0476C176.936 91.161 174.695 92.5826 172.563 93.223C169.036 94.2987 165.054 92.9113 162.77 90.053C160.538 87.322 160.145 83.3195 161.635 80.1799Z" fill="#84654A"/>
<path d="M173.013 74.4595C170.93 73.2545 169.4 71.7474 167.715 70.132L169.594 69.2217C169.391 69.7443 169.131 70.1947 168.781 70.6319C168.425 71.069 167.983 71.4985 167.42 71.6714C167.361 70.8922 167.205 70.2062 167.135 69.4536C167.12 69.2806 167.091 68.9651 167.07 68.8055C166.922 68.0928 167.661 67.4561 168.342 67.6937C169.218 67.9522 170.117 68.3209 170.811 68.9119C172.418 70.2214 173.477 72.3727 173.013 74.4595Z" fill="#84654A"/>
<path d="M168.994 74.2066C166.877 72.3879 164.773 70.7534 162.101 69.9818L163.921 68.6439C163.809 69.577 163.65 70.8637 163.513 71.7816C163.37 72.863 163.144 73.9691 163.235 75.0676C161.363 73.8246 160.894 70.4931 160.943 68.4063C160.968 67.4903 161.884 66.8251 162.764 67.0684C163.834 67.2945 164.889 67.6955 165.784 68.336C167.669 69.6493 169.07 71.8709 168.992 74.2066H168.994Z" fill="#84654A"/>
<path d="M213.724 79.8797C213.121 77.8291 214.034 75.6131 215.55 74.1972C216.2 73.5644 217.073 73.1349 217.928 72.8194C218.597 72.5286 219.372 73.1254 219.273 73.8419C219.266 74.0015 219.258 74.3189 219.252 74.4918C219.233 75.2482 219.123 75.9438 219.116 76.7249C218.544 76.59 218.074 76.1909 217.688 75.7785C217.31 75.3641 217.019 74.9346 216.782 74.4253L218.718 75.2083C217.143 76.9321 215.719 78.538 213.72 79.8797H213.724Z" fill="#84654A"/>
<path d="M217.719 79.3608C217.473 76.9186 218.855 74.5221 220.784 73.0854C221.588 72.5038 222.504 72.0876 223.456 71.8234C224.234 71.5593 225.085 71.9945 225.313 72.7851C225.632 74.8376 225.307 78.5018 223.521 79.8359V79.3874L223.481 78.9636C223.289 77.6275 222.954 76.3314 222.704 75.0086L222.409 73.4712L224.315 74.6837C221.7 75.6339 219.71 77.4052 217.721 79.3608H217.719Z" fill="#84654A"/>
<path d="M223.713 110.434C225.634 112.294 225.551 115.698 223.53 117.475C222.861 118.11 222.076 117.701 221.493 117.194C221.001 116.766 220.604 116.152 220.547 115.493C220.507 115.172 220.583 114.841 220.723 114.569C220.864 114.661 220.967 114.744 221.092 114.805C221.66 115.128 222.314 115.16 222.936 115.139C222.962 115.138 222.989 115.136 223.012 115.126C223.012 115.126 223.002 115.12 222.998 115.119L221.618 115.618C222.168 113.872 222.652 112.013 223.715 110.434H223.713Z" fill="#84654A"/>
<path d="M221.027 111.57C222.038 113.003 222.109 114.94 221.4 116.538C221.151 117.11 220.759 117.637 220.305 118.101C219.851 118.564 219.157 118.648 218.614 118.35C218.239 118.154 217.897 117.899 217.588 117.62C216.261 116.421 215.562 114.507 216.031 112.758C216.187 112.112 216.512 111.513 216.955 111.021C217.093 111.341 217.181 111.629 217.283 111.907C217.759 113.222 218.507 114.467 219.594 115.347C219.729 115.459 219.866 115.563 220.005 115.66C220.016 115.668 219.997 115.657 219.995 115.657L218.255 115.877C219.517 114.803 220.281 113.055 221.029 111.569L221.027 111.57Z" fill="#84654A"/>
<path d="M162.298 103.584C163.262 105.717 162.044 108.417 159.824 109.162L159.482 109.275C158.885 109.48 158.319 109.121 158.053 108.606C157.52 107.748 157.408 106.353 158.345 105.738C158.461 105.918 158.562 106.053 158.697 106.2C158.989 106.496 159.347 106.673 159.704 106.815C159.82 106.857 159.932 106.918 160.05 106.931C160.063 106.931 160.05 106.924 160.044 106.916L158.585 106.772C159.609 105.536 160.81 104.347 162.298 103.586V103.584Z" fill="#84654A"/>
<path d="M159.729 103.469C160.084 105.031 159.427 106.654 158.227 107.699C157.804 108.074 157.277 108.357 156.722 108.56C156.093 108.79 155.409 108.543 155.056 108.009C155.027 107.973 154.974 107.893 154.947 107.855C153.883 106.249 153.889 103.927 155.213 102.477C155.611 102.019 156.124 101.68 156.696 101.483C156.701 101.802 156.677 102.076 156.665 102.34C156.603 103.682 156.842 105.05 157.498 106.219L157.505 106.236C157.511 106.247 157.498 106.226 157.494 106.224L155.827 105.673C157.215 105.322 158.532 104.292 159.727 103.471L159.729 103.469Z" fill="#84654A"/>
<path d="M165.36 113.074C172.59 112.912 180.541 125.136 180.541 125.136C188.221 117.865 211.04 114.807 211.04 114.807C209.071 104.497 203.336 103.035 203.336 103.035C190.068 114.339 179.363 97.4327 179.363 97.4327C179.363 97.4327 154.691 96.0871 162.236 116.753C162.236 116.753 163.363 113.117 165.362 113.074H165.36Z" fill="#F79F1F"/>
<path d="M228.185 59.1758C228.185 59.1758 254.564 69.8281 251.394 91.6799C251.394 91.6799 250.859 104.326 240.948 112.38C240.948 112.38 239.734 108.659 237.147 107.009C238.153 103.366 239.025 99.6791 239.808 95.9827C240.891 90.8741 242.106 85.3665 241.216 80.0584C240.226 74.1479 236.216 69.9763 232.546 65.5215C231.59 64.3603 229.663 62.8323 229.093 61.4241L228.185 59.1758Z" fill="#FDEFE4"/>
<path opacity="0.26" d="M235.606 118.766C229.555 124.349 221.535 129.021 213.764 132.71C212.53 132.455 213.591 130.67 220.834 125.313C238.254 112.422 221.031 68.6687 221.031 68.6687L224.35 68.3533C224.705 66.0461 219.965 58.9154 219.965 58.9154L217.595 59.0731C215.584 53.8582 212.221 52.2865 209.52 50.6482C208.511 50.0363 210.938 47.4801 212.025 47.0202C215.999 45.3402 223.8 45.095 226.425 45.0608C226.488 45.1216 226.522 45.1558 226.522 45.1558C219.891 44.962 217.202 47.9096 217.202 47.9096C244.075 63.851 235.606 118.764 235.606 118.764V118.766Z" fill="#1A1517"/>
<path opacity="0.26" d="M217.755 42.7458C218.066 42.7135 218.367 42.6907 218.659 42.6774L218.648 42.6983C218.376 43.181 217.852 43.4528 217.299 43.4281C213.864 43.2818 207.855 46.2066 205.337 44.958C203.484 44.0382 210.145 41.8507 214.68 40.5222C217.086 39.8172 219.56 39.3686 222.061 39.1843L223.27 39.095C223.703 39.2451 223.926 39.3439 223.926 39.3439C218.642 38.8308 217.755 42.7439 217.755 42.7439V42.7458Z" fill="#1A1517"/>
<path opacity="0.26" d="M207.097 38.3596C206.81 39.1236 206.139 39.6767 205.335 39.8078C202.009 40.3513 200.257 42.917 199.05 41.3263C198.457 40.5452 199.457 39.3422 200.774 38.2342C202.728 36.5903 205.046 35.4348 207.517 34.7867L208.686 34.4807C208.845 34.4864 208.927 34.4921 208.927 34.4921C206.255 35.8871 205.841 38.5535 205.841 38.5535C206.27 38.4737 206.692 38.4033 207.106 38.3368C207.103 38.3444 207.101 38.352 207.097 38.3615V38.3596Z" fill="#1A1517"/>
<path opacity="0.2" d="M182.845 116.447L191.826 115.949L198.678 113.456L202.032 109.881C202.032 109.881 203.744 106.627 208.534 109.134C208.91 109.332 209.241 109.537 209.537 109.75C210.134 111.139 210.658 112.806 211.04 114.807C211.04 114.807 188.263 117.861 180.564 125.117L180.537 125.13C180.347 124.84 172.757 113.304 165.714 113.076L165.472 111.781L175.526 114.71L182.845 116.447Z" fill="#1A1517"/>
<path d="M202.671 108.577C200.941 114.934 190.502 116.797 184.823 116.8C180.486 116.783 176.162 115.858 172.175 114.165C170.839 113.592 169.412 112.977 168.002 112.783C166.293 112.547 164.492 113.146 163.46 114.592C162.931 115.326 162.589 116.228 162.355 117.165C162.3 115.704 162.673 114.071 163.739 112.954C164.845 111.781 166.502 111.162 168.097 111.179C169.885 111.181 171.588 111.762 173.257 112.31C177.884 113.815 182.77 114.571 187.638 114.351C192.507 114.031 200.033 113.233 202.674 108.573L202.671 108.577Z" fill="#C66128"/>
<path opacity="0.31" d="M179.12 97.4231C178.31 99.9964 174.251 110.122 160.843 108.56C161.759 97.3072 177.023 97.3623 179.12 97.4231Z" fill="white"/>
<path opacity="0.14" d="M237.617 71.8521C239.89 72.808 246.868 76.3942 251.561 85.9271C251.726 87.7497 251.686 89.6654 251.395 91.678C251.395 91.678 251.177 96.8569 248.421 102.695C246.838 100.264 243.467 94.9203 241.007 89.8345C241.52 86.5904 241.76 83.2873 241.218 80.0565C240.696 76.9359 239.331 74.2999 237.619 71.8521H237.617Z" fill="#1A1517"/>
<path d="M231.296 65.4244C231.296 65.4244 255.424 113.053 254.571 121.111C254.697 119.929 255.685 118.444 256.04 117.285C257.036 114.035 257.557 110.633 257.589 107.235C257.694 95.8609 251.627 85.3834 243.24 78.0418C239.65 74.8984 236.758 71.6524 233.917 67.84C232.51 65.9528 230.783 64.2879 229.798 62.1138L231.298 65.4225L231.296 65.4244Z" fill="#FDEFE4"/>
<path d="M67.6328 268.321C66.7547 269.625 65.9622 263.849 65.3522 257.312C65.375 255.81 66.5058 182.071 66.5267 180.498C69.0714 103.887 73.5205 10.8061 73.5205 10.8061C73.5205 10.8061 75.4514 -3.89608 76.2876 8.02382C78.0874 33.6406 76.3788 92.345 75.5255 160.563C75.3013 178.871 71.8918 274.602 71.4661 286.813C68.8073 284.759 69.2672 265.832 67.6309 268.323L67.6328 268.321Z" fill="#8E7255"/>
<path d="M67.3914 327.286C65.2742 319.234 64.7744 295.219 65.3521 257.312C65.9622 263.849 66.7547 269.627 67.6327 268.321C69.269 265.83 68.811 284.757 71.4679 286.811C70.3143 320.18 68.6115 331.931 67.3914 327.286Z" fill="#8E7255"/>
<path opacity="0.26" d="M73.0719 111.213C73.0719 111.213 80.1417 112.971 80.1322 115.761C80.1322 116.05 79.9422 116.926 79.7388 117.789C79.5013 118.8 77.6046 119.381 77.6046 119.381C77.6046 119.381 78.5738 122.287 77.8801 124.302C77.3936 125.716 74.9287 126.197 74.4612 127.343C73.8568 128.819 75.227 130.6 74.5524 131.934C73.6306 133.759 71.103 133.97 70.1508 135.085C69.2519 136.138 69.9266 138.145 69.0999 138.117C64.5254 137.968 60.3177 131.693 59.5651 128.652C58.8106 125.611 64.5786 111.378 66.9352 111.061C69.2918 110.744 73.0738 111.213 73.0738 111.213H73.0719Z" fill="#1A1517"/>
<path d="M72.4391 110.995C72.4391 110.995 79.5089 112.753 79.4994 115.543C79.4994 115.831 79.3094 116.708 79.106 117.57C78.8685 118.581 77.6046 119.38 77.6046 119.38C77.6046 119.38 77.941 122.069 77.2492 124.083C76.7627 125.497 74.9306 126.197 74.4612 127.341C73.8568 128.817 74.5942 130.38 73.9215 131.716C72.9997 133.54 71.0308 134.05 70.0787 135.163C69.1797 136.216 69.2938 137.925 68.4689 137.898C63.8945 137.75 59.6868 131.474 58.9342 128.434C58.1816 125.393 63.9477 111.16 66.3043 110.843C68.6609 110.525 72.4429 110.995 72.4429 110.995H72.4391Z" fill="#D1B08C"/>
<g opacity="0.26">
<path d="M65.9735 115.288C67.8911 115.474 69.7137 115.993 71.523 116.603C73.3227 117.238 75.0769 117.956 76.6999 118.996C74.7823 118.811 72.9578 118.293 71.1505 117.681C69.3507 117.044 67.5984 116.326 65.9735 115.288Z" fill="#1A1517"/>
</g>
<g opacity="0.26">
<path d="M63.4839 120.967C65.3578 121.535 67.0739 122.409 68.7578 123.369C70.4283 124.353 72.038 125.41 73.4596 126.757C71.5857 126.193 69.8695 125.317 68.1857 124.355C66.5152 123.369 64.9055 122.312 63.4839 120.967Z" fill="#1A1517"/>
</g>
<g opacity="0.26">
<path d="M61.4618 126.058C63.1551 127.143 64.6166 128.481 66.023 129.893C67.4103 131.324 68.7198 132.81 69.7708 134.526C68.0755 133.443 66.614 132.105 65.2096 130.691C63.8241 129.258 62.5147 127.772 61.4618 126.058Z" fill="#1A1517"/>
</g>
<path opacity="0.31" d="M137.746 118.65C137.746 118.65 119.931 127.795 124.108 154.394L135.813 167.397C135.813 167.397 122.852 139.259 137.746 118.65Z" fill="white"/>
</svg>
